<svg width="69" height="25" viewBox="0 0 69 25" fill="none" xmlns="http://www.w3.org/2000/svg">
<path d="M4.6748 15.8202L13.8227 0L17.8615 6.70252L24.6048 7.1266C24.6048 7.1266 18.7561 8.02131 15.3172 9.27803L13.8021 6.97662L11.6095 11.0054C11.6095 11.0106 6.2055 14.1394 4.6748 15.8202Z" fill="#70685B"/>
<path d="M5.60564 16.2702C5.60564 16.2702 3.78018 18.2148 1.96508 17.4546C2.59597 18.2148 2.0685 22.0729 0 24.3381L0.4137 24.7001L3.61988 20.9868L3.73364 21.1006L0.522296 24.7984L0.70329 24.9794C0.70329 24.9794 4.08529 21.7522 7.35352 22.1401C5.14022 16.9012 21.9416 7.83003 33.5821 8.61612C33.5821 8.61612 17.1737 5.10971 5.60564 16.2702ZM3.72847 20.0766C3.71296 19.1716 5.13505 19.1716 5.12471 20.0766C5.13505 20.9817 3.71296 20.9817 3.72847 20.0766Z" fill="#70685B"/>
<path d="M20.6747 11.6724C20.6747 11.6724 14.1848 14.0824 13.6729 15.1529C13.6729 15.1529 17.3289 14.1031 17.8409 14.1289L23.9119 24.5344L28.1679 24.5396L20.6747 11.6724Z" fill="#70685B"/>
<path d="M53.7859 24.5396H51.2262V23.0864C50.7711 23.7328 50.2385 24.2138 49.6283 24.5293C49.0181 24.8447 48.3199 24.9999 47.5339 24.9999C45.9515 24.9999 44.7052 24.4569 43.8003 23.376C42.8901 22.2951 42.4351 20.8108 42.4351 18.9335C42.4351 17.1492 42.9005 15.7063 43.8261 14.6099C44.7518 13.5135 45.967 12.9653 47.4615 12.9653C48.3716 12.9653 49.1577 13.1567 49.8041 13.5394C50.4557 13.9221 50.9262 14.4703 51.2262 15.184V13.3532H53.7859V24.5396ZM51.2934 18.9076C51.2934 17.7492 51.0245 16.8493 50.4867 16.2028C49.9489 15.5564 49.1939 15.2357 48.2269 15.2357C47.2598 15.2357 46.4997 15.5667 45.9412 16.2338C45.3878 16.901 45.1086 17.8216 45.1086 19.0007C45.1086 20.1902 45.3775 21.1056 45.9101 21.7521C46.4428 22.3985 47.2029 22.7192 48.1751 22.7192C49.0956 22.7192 49.8455 22.3675 50.4246 21.6693C51.0038 20.9711 51.2934 20.0506 51.2934 18.9076Z" fill="#70685B"/>
<path d="M55.7666 24.5396L64.5732 9.64514H57.2456V7.26099H68.8964L60.1725 22.0262H68.9998V24.5396H55.7666Z" fill="#70685B"/>
<path d="M39.1569 14.6102C38.2312 13.5138 37.0263 12.9656 35.5422 12.9656C34.6269 12.9656 33.846 13.1569 33.1893 13.5448C32.5325 13.9327 32.0568 14.4757 31.7568 15.1842V8.90061C31.4724 8.89544 31.007 8.90578 30.2468 8.9575C29.7762 8.98853 29.4401 9.04024 29.1919 9.09713V24.5398H31.7517V23.0866C32.2067 23.733 32.7394 24.214 33.3496 24.5295C33.9598 24.845 34.6579 25.0001 35.4439 25.0001C37.0263 25.0001 38.2726 24.4571 39.1776 23.3762C40.0877 22.2953 40.5428 20.811 40.5428 18.9337C40.5428 17.1495 40.0826 15.7066 39.1569 14.6102ZM37.0677 21.7575C36.5351 22.4039 35.7852 22.7246 34.8182 22.7246C33.8874 22.7246 33.1324 22.3729 32.548 21.6747C31.9637 20.9765 31.6689 20.056 31.6689 18.913C31.6689 17.7546 31.943 16.8547 32.486 16.2082C33.029 15.5618 33.784 15.2411 34.751 15.2411C35.718 15.2411 36.4782 15.5721 37.0367 16.2393C37.59 16.9064 37.8693 17.827 37.8693 19.0061C37.8641 20.1904 37.6004 21.111 37.0677 21.7575Z" fill="#70685B"/>
<path d="M31.7517 6.24756H29.1919V7.80941C29.9521 7.85079 31.188 7.96456 31.7517 8.01628V6.24756Z" fill="#70685B"/>
<path d="M28.5767 9.5159L28.5714 9.42798C28.5554 9.47969 28.5767 9.5159 28.5767 9.5159Z" fill="black"/>
</svg>
