<svg width="56" height="35" viewBox="0 0 56 35" fill="none" xmlns="http://www.w3.org/2000/svg">
<g id="Logo Be">
<path id="Fill 46" fill-rule="evenodd" clip-rule="evenodd" d="M15.2736 27.8293C15.9954 27.8293 16.6901 27.7639 17.3397 27.6195C18.0028 27.4752 18.587 27.2451 19.081 26.9068C19.5727 26.582 19.9877 26.1354 20.2832 25.5692C20.5809 25.0076 20.723 24.2768 20.723 23.3949C20.723 21.6671 20.2358 20.4378 19.2682 19.6935C18.3006 18.9582 17.0081 18.5928 15.418 18.5928H7.39044V27.8293H15.2736ZM14.8608 13.5511C16.1668 13.5511 17.254 13.2421 18.1111 12.6106C18.9614 11.9903 19.3742 10.9663 19.3742 9.56105C19.3742 8.78063 19.2344 8.13554 18.9614 7.63481C18.675 7.13408 18.3006 6.74387 17.8269 6.46869C17.3532 6.18223 16.8164 5.986 16.1984 5.87999C15.5894 5.76044 14.9511 5.71533 14.297 5.71533H7.39044V13.5511H14.8608ZM15.8137 0C17.4197 0 18.87 0.137589 20.194 0.4263C21.509 0.703733 22.6322 1.17063 23.5773 1.80896C24.5134 2.44953 25.2442 3.29762 25.7697 4.36676C26.2795 5.42236 26.5344 6.74411 26.5344 8.3027C26.5344 9.99211 26.1532 11.4041 25.3863 12.5319C24.6149 13.6574 23.4803 14.5777 21.9646 15.2949C24.0284 15.8881 25.5554 16.9347 26.5727 18.4189C27.59 19.9143 28.0884 21.7052 28.0884 23.8051C28.0884 25.5036 27.7614 26.9697 27.1095 28.199C26.4554 29.4485 25.56 30.4568 24.4592 31.2372C23.3473 32.0244 22.0729 32.6018 20.6428 32.9762C19.2286 33.3506 17.7625 33.5424 16.258 33.5424H0V0H15.8137Z" fill="#70685B"/>
<path id="Fill 47" fill-rule="evenodd" clip-rule="evenodd" d="M47.5643 14.9565C46.7726 14.0814 45.4306 13.6055 43.7908 13.6055C42.7262 13.6055 41.8443 13.7837 41.1405 14.1513C40.4481 14.5122 39.8842 14.9588 39.4489 15.4889C39.018 16.0257 38.7248 16.5918 38.5511 17.1986C38.3842 17.7918 38.2782 18.3263 38.2512 18.8H49.1049C48.9425 17.0993 48.3628 15.8407 47.5643 14.9565ZM39.9005 27.718C40.902 28.6924 42.3456 29.1841 44.2177 29.1841C45.5597 29.1841 46.7213 28.8435 47.698 28.1646C48.6656 27.488 49.2521 26.7639 49.4821 26.0128H55.3579C54.4083 28.936 52.9805 31.0224 51.0227 32.2788C49.0964 33.5419 46.7371 34.1667 43.9921 34.1667C42.0817 34.1667 40.3584 33.8599 38.8111 33.2486C37.2706 32.6306 35.9759 31.7645 34.891 30.6367C33.8331 29.5044 33.0121 28.1646 32.4234 26.5902C31.846 25.0271 31.5527 23.2926 31.5527 21.416C31.5527 19.598 31.855 17.9041 32.4504 16.3342C33.0572 14.7621 33.8963 13.402 34.9902 12.2652C36.0999 11.1216 37.4014 10.2172 38.9284 9.55629C40.4532 8.89993 42.1313 8.56836 43.9921 8.56836C46.0447 8.56836 47.8469 8.96534 49.3897 9.77057C50.9257 10.5645 52.1866 11.6404 53.179 12.987C54.1669 14.3336 54.8729 15.8718 55.3105 17.5973C55.7503 19.3183 55.9037 21.1183 55.7751 23.0039H38.2517C38.2517 24.9234 38.8968 26.7391 39.9005 27.718Z" fill="#70685B"/>
<path id="Fill 52" fill-rule="evenodd" clip-rule="evenodd" d="M36.8867 5.21271H50.4787V1.90381H36.8867V5.21271Z" fill="#70685B"/>
</g>
</svg>
