<svg width="37" height="37" viewBox="0 0 37 37" fill="none" xmlns="http://www.w3.org/2000/svg">
<g id="dribbble-ball-mark">
<path id="Shape" fill-rule="evenodd" clip-rule="evenodd" d="M18.0444 0C8.08283 0 0 8.08283 0 18.0444C0 28.0061 8.08283 36.0889 18.0444 36.0889C27.9865 36.0889 36.0889 28.0061 36.0889 18.0444C36.0889 8.08283 27.9865 0 18.0444 0ZM29.9622 8.31787C32.115 10.9404 33.4067 14.287 33.4459 17.9077C32.937 17.8098 27.8485 16.7726 22.721 17.4184C22.6035 17.164 22.5056 16.89 22.3883 16.616C22.0751 15.8723 21.7228 15.109 21.3705 14.3849C27.0461 12.0755 29.6295 8.74845 29.9622 8.31787ZM18.0431 2.66211C21.9573 2.66211 25.5388 4.12993 28.2591 6.53717C27.9852 6.92859 25.6562 10.0404 20.1764 12.0953C17.6517 7.457 14.853 3.66023 14.4225 3.0731C15.5771 2.79911 16.7906 2.66211 18.0431 2.66211ZM11.4875 4.10938C11.8985 4.65735 14.6384 8.47371 17.2022 13.0142C10.0001 14.9321 3.63952 14.893 2.95453 14.893C3.95263 10.1177 7.18187 6.14475 11.4875 4.10938ZM2.62183 18.064C2.62183 17.9074 2.62183 17.7509 2.62183 17.5943C3.28724 17.6138 10.7634 17.7117 18.4547 15.4023C18.9049 16.2635 19.3159 17.1441 19.7073 18.0249C19.5116 18.0836 19.2963 18.1423 19.1006 18.201C11.1548 20.7648 6.92744 27.7712 6.57518 28.3583C4.12879 25.6379 2.62183 22.0173 2.62183 18.064ZM18.0438 33.4667C14.4819 33.4667 11.194 32.2533 8.591 30.2179C8.86503 29.6503 11.9964 23.6224 20.6859 20.589C20.725 20.5694 20.7446 20.5694 20.7837 20.5498C22.9561 26.1667 23.8368 30.8833 24.0717 32.2337C22.2124 33.0361 20.1771 33.4667 18.0438 33.4667ZM26.636 30.8243C26.4794 29.8849 25.6574 25.3835 23.6416 19.845C28.4756 19.0817 32.7029 20.3342 33.2314 20.5104C32.5659 24.7964 30.1 28.4953 26.636 30.8243Z" fill="#70685B"/>
</g>
</svg>
