<svg width="580" height="439" viewBox="0 0 580 439" fill="none" xmlns="http://www.w3.org/2000/svg">
<rect width="580" height="439" rx="5" fill="#B6AD9F" fill-opacity="0.13"/>
<path d="M181.74 206V177.8H189.1V188.68H200.74V177.8H208.06V206H200.74V194.72H189.1V206H181.74ZM222.665 206.44C220.478 206.44 218.572 206.027 216.945 205.2C215.318 204.373 214.052 203.187 213.145 201.64C212.238 200.093 211.785 198.267 211.785 196.16C211.785 194.027 212.238 192.2 213.145 190.68C214.052 189.133 215.318 187.947 216.945 187.12C218.572 186.293 220.478 185.88 222.665 185.88C224.852 185.88 226.758 186.293 228.385 187.12C230.012 187.947 231.265 189.133 232.145 190.68C233.052 192.2 233.505 194.027 233.505 196.16C233.505 198.267 233.052 200.093 232.145 201.64C231.265 203.187 230.012 204.373 228.385 205.2C226.758 206.027 224.852 206.44 222.665 206.44ZM222.665 201.2C223.732 201.2 224.612 200.8 225.305 200C225.998 199.2 226.345 197.92 226.345 196.16C226.345 194.373 225.998 193.093 225.305 192.32C224.612 191.52 223.732 191.12 222.665 191.12C221.572 191.12 220.678 191.52 219.985 192.32C219.292 193.093 218.945 194.373 218.945 196.16C218.945 197.92 219.292 199.2 219.985 200C220.678 200.8 221.572 201.2 222.665 201.2ZM236.848 206V186.32H243.768V188.96C244.381 188.027 245.194 187.28 246.208 186.72C247.248 186.16 248.434 185.88 249.768 185.88C251.101 185.88 252.248 186.173 253.208 186.76C254.194 187.347 254.941 188.253 255.448 189.48C256.114 188.333 257.021 187.453 258.168 186.84C259.314 186.2 260.581 185.88 261.968 185.88C264.261 185.88 265.954 186.573 267.048 187.96C268.168 189.32 268.728 191.453 268.728 194.36V206H261.608V194.56C261.608 193.413 261.434 192.587 261.088 192.08C260.741 191.573 260.168 191.32 259.368 191.32C258.381 191.32 257.621 191.667 257.088 192.36C256.581 193.053 256.328 194.04 256.328 195.32V206H249.208V194.56C249.208 193.413 249.034 192.587 248.688 192.08C248.341 191.573 247.768 191.32 246.968 191.32C246.008 191.32 245.261 191.667 244.728 192.36C244.221 193.053 243.968 194.04 243.968 195.32V206H236.848ZM283.581 206.44C281.181 206.44 279.101 206.027 277.341 205.2C275.608 204.347 274.275 203.147 273.341 201.6C272.408 200.053 271.941 198.227 271.941 196.12C271.941 194.12 272.381 192.347 273.261 190.8C274.168 189.253 275.395 188.053 276.941 187.2C278.515 186.32 280.301 185.88 282.301 185.88C284.275 185.88 285.981 186.293 287.421 187.12C288.888 187.947 290.008 189.133 290.781 190.68C291.581 192.2 291.981 193.987 291.981 196.04V197.6H278.741C278.981 198.88 279.515 199.8 280.341 200.36C281.168 200.92 282.315 201.2 283.781 201.2C284.795 201.2 285.848 201.053 286.941 200.76C288.061 200.44 289.048 199.987 289.901 199.4L291.661 204.08C290.648 204.8 289.408 205.373 287.941 205.8C286.475 206.227 285.021 206.44 283.581 206.44ZM282.621 190.48C281.555 190.48 280.675 190.8 279.981 191.44C279.315 192.08 278.888 193.013 278.701 194.24H286.141C286.061 192.987 285.715 192.053 285.101 191.44C284.515 190.8 283.688 190.48 282.621 190.48ZM306.974 206V177.8H320.534C323.734 177.8 326.201 178.627 327.934 180.28C329.694 181.907 330.574 184.16 330.574 187.04C330.574 189.92 329.694 192.187 327.934 193.84C326.201 195.467 323.734 196.28 320.534 196.28H314.334V206H306.974ZM314.334 190.64H319.254C322.134 190.64 323.574 189.44 323.574 187.04C323.574 184.64 322.134 183.44 319.254 183.44H314.334V190.64ZM333.135 206V186.32H340.055V189.64C340.961 187.373 342.921 186.133 345.935 185.92L347.895 185.76L348.295 191.76L344.415 192.12C343.001 192.253 341.975 192.653 341.335 193.32C340.695 193.96 340.375 194.92 340.375 196.2V206H333.135ZM350.278 182.92V176.48H357.758V182.92H350.278ZM350.478 206V186.32H357.598V206H350.478ZM371.768 206.44C369.555 206.44 367.622 206.027 365.968 205.2C364.342 204.373 363.075 203.187 362.168 201.64C361.262 200.093 360.808 198.253 360.808 196.12C360.808 193.987 361.262 192.16 362.168 190.64C363.075 189.093 364.342 187.92 365.968 187.12C367.622 186.293 369.555 185.88 371.768 185.88C373.075 185.88 374.368 186.067 375.648 186.44C376.955 186.787 378.022 187.28 378.848 187.92L376.968 192.8C376.355 192.32 375.635 191.947 374.808 191.68C374.008 191.387 373.248 191.24 372.528 191.24C371.115 191.24 370.022 191.667 369.248 192.52C368.475 193.373 368.088 194.573 368.088 196.12C368.088 197.693 368.475 198.92 369.248 199.8C370.022 200.653 371.115 201.08 372.528 201.08C373.248 201.08 374.008 200.947 374.808 200.68C375.635 200.387 376.355 200 376.968 199.52L378.848 204.4C378.022 205.04 376.955 205.547 375.648 205.92C374.342 206.267 373.048 206.44 371.768 206.44ZM391.433 206.44C389.033 206.44 386.953 206.027 385.193 205.2C383.459 204.347 382.126 203.147 381.193 201.6C380.259 200.053 379.793 198.227 379.793 196.12C379.793 194.12 380.233 192.347 381.113 190.8C382.019 189.253 383.246 188.053 384.793 187.2C386.366 186.32 388.153 185.88 390.153 185.88C392.126 185.88 393.833 186.293 395.273 187.12C396.739 187.947 397.859 189.133 398.633 190.68C399.433 192.2 399.833 193.987 399.833 196.04V197.6H386.593C386.833 198.88 387.366 199.8 388.193 200.36C389.019 200.92 390.166 201.2 391.633 201.2C392.646 201.2 393.699 201.053 394.793 200.76C395.913 200.44 396.899 199.987 397.753 199.4L399.513 204.08C398.499 204.8 397.259 205.373 395.793 205.8C394.326 206.227 392.873 206.44 391.433 206.44ZM390.473 190.48C389.406 190.48 388.526 190.8 387.833 191.44C387.166 192.08 386.739 193.013 386.553 194.24H393.993C393.913 192.987 393.566 192.053 392.953 191.44C392.366 190.8 391.539 190.48 390.473 190.48ZM176.256 266L163.416 237.8H171.256L179.336 256.56L187.416 237.8H194.976L182.096 266H176.256ZM195.903 242.92V236.48H203.383V242.92H195.903ZM196.103 266V246.32H203.223V266H196.103ZM215.193 266.44C213.38 266.44 211.7 266.253 210.153 265.88C208.633 265.507 207.34 264.987 206.273 264.32L207.913 259.72C208.9 260.28 210.047 260.747 211.353 261.12C212.66 261.467 213.953 261.64 215.233 261.64C216.22 261.64 216.927 261.507 217.353 261.24C217.78 260.947 217.993 260.573 217.993 260.12C217.993 259.72 217.847 259.427 217.553 259.24C217.287 259.027 216.9 258.867 216.393 258.76L211.953 258.04C210.3 257.773 209.02 257.173 208.113 256.24C207.207 255.307 206.753 254.093 206.753 252.6C206.753 251.213 207.14 250.027 207.913 249.04C208.687 248.027 209.767 247.253 211.153 246.72C212.54 246.16 214.127 245.88 215.913 245.88C217.327 245.88 218.727 246.053 220.113 246.4C221.5 246.72 222.713 247.253 223.753 248L221.993 252.52C221.22 251.987 220.26 251.547 219.113 251.2C217.967 250.827 216.94 250.64 216.033 250.64C214.94 250.64 214.167 250.8 213.713 251.12C213.26 251.413 213.033 251.773 213.033 252.2C213.033 252.92 213.527 253.36 214.513 253.52L218.953 254.28C220.66 254.547 221.967 255.133 222.873 256.04C223.807 256.92 224.273 258.12 224.273 259.64C224.273 261.8 223.447 263.48 221.793 264.68C220.14 265.853 217.94 266.44 215.193 266.44ZM234.557 266.44C231.997 266.44 230.104 265.747 228.877 264.36C227.677 262.947 227.077 260.8 227.077 257.92V246.32H234.197V258.12C234.197 260.04 235.024 261 236.677 261C237.637 261 238.424 260.653 239.037 259.96C239.651 259.267 239.957 258.347 239.957 257.2V246.32H247.077V266H240.117V263.56C238.837 265.48 236.984 266.44 234.557 266.44ZM258.061 266.44C256.541 266.44 255.194 266.16 254.021 265.6C252.874 265.04 251.967 264.28 251.301 263.32C250.661 262.333 250.341 261.213 250.341 259.96C250.341 258.547 250.714 257.427 251.461 256.6C252.207 255.747 253.407 255.147 255.061 254.8C256.714 254.427 258.914 254.24 261.661 254.24H263.181V253.68C263.181 252.72 262.927 252.04 262.421 251.64C261.941 251.24 261.101 251.04 259.901 251.04C258.887 251.04 257.767 251.2 256.541 251.52C255.314 251.84 254.114 252.333 252.941 253L251.141 248.32C251.807 247.84 252.661 247.413 253.701 247.04C254.741 246.667 255.834 246.387 256.981 246.2C258.127 245.987 259.207 245.88 260.221 245.88C263.501 245.88 265.927 246.587 267.501 248C269.101 249.413 269.901 251.64 269.901 254.68V266H263.261V263.2C262.914 264.213 262.287 265.013 261.381 265.6C260.474 266.16 259.367 266.44 258.061 266.44ZM259.661 261.8C260.647 261.8 261.474 261.48 262.141 260.84C262.834 260.2 263.181 259.36 263.181 258.32V257.6H261.661C260.087 257.6 258.927 257.773 258.181 258.12C257.461 258.44 257.101 258.96 257.101 259.68C257.101 260.293 257.314 260.8 257.741 261.2C258.194 261.6 258.834 261.8 259.661 261.8ZM281.715 266.44C278.995 266.44 277.022 265.76 275.795 264.4C274.568 263.013 273.955 260.933 273.955 258.16V237.8H281.075V257.92C281.075 259.787 281.928 260.72 283.635 260.72C283.902 260.72 284.168 260.707 284.435 260.68C284.728 260.653 285.008 260.613 285.275 260.56L285.195 266C284.128 266.293 282.968 266.44 281.715 266.44ZM287.661 242.92V236.48H295.141V242.92H287.661ZM287.861 266V246.32H294.981V266H287.861ZM298.711 266V261.44L307.471 251.56H298.711V246.32H315.191V250.84L306.431 260.76H315.631V266H298.711ZM325.248 266.44C323.728 266.44 322.381 266.16 321.208 265.6C320.061 265.04 319.155 264.28 318.488 263.32C317.848 262.333 317.528 261.213 317.528 259.96C317.528 258.547 317.901 257.427 318.648 256.6C319.395 255.747 320.595 255.147 322.248 254.8C323.901 254.427 326.101 254.24 328.848 254.24H330.368V253.68C330.368 252.72 330.115 252.04 329.608 251.64C329.128 251.24 328.288 251.04 327.088 251.04C326.075 251.04 324.955 251.2 323.728 251.52C322.501 251.84 321.301 252.333 320.128 253L318.328 248.32C318.995 247.84 319.848 247.413 320.888 247.04C321.928 246.667 323.021 246.387 324.168 246.2C325.315 245.987 326.395 245.88 327.408 245.88C330.688 245.88 333.115 246.587 334.688 248C336.288 249.413 337.088 251.64 337.088 254.68V266H330.448V263.2C330.101 264.213 329.475 265.013 328.568 265.6C327.661 266.16 326.555 266.44 325.248 266.44ZM326.848 261.8C327.835 261.8 328.661 261.48 329.328 260.84C330.021 260.2 330.368 259.36 330.368 258.32V257.6H328.848C327.275 257.6 326.115 257.773 325.368 258.12C324.648 258.44 324.288 258.96 324.288 259.68C324.288 260.293 324.501 260.8 324.928 261.2C325.381 261.6 326.021 261.8 326.848 261.8ZM351.463 266.44C348.476 266.44 346.263 265.747 344.823 264.36C343.383 262.973 342.663 260.88 342.663 258.08V251.56H338.982V246.32H342.663V240.6H349.783V246.32H355.383V251.56H349.783V257.84C349.783 259.76 350.756 260.72 352.703 260.72C353.023 260.72 353.369 260.693 353.743 260.64C354.143 260.56 354.583 260.453 355.063 260.32L356.023 265.44C355.409 265.76 354.689 266 353.863 266.16C353.036 266.347 352.236 266.44 351.463 266.44ZM357.974 242.92V236.48H365.454V242.92H357.974ZM358.174 266V246.32H365.294V266H358.174ZM379.384 266.44C377.197 266.44 375.29 266.027 373.664 265.2C372.037 264.373 370.77 263.187 369.864 261.64C368.957 260.093 368.504 258.267 368.504 256.16C368.504 254.027 368.957 252.2 369.864 250.68C370.77 249.133 372.037 247.947 373.664 247.12C375.29 246.293 377.197 245.88 379.384 245.88C381.57 245.88 383.477 246.293 385.104 247.12C386.73 247.947 387.984 249.133 388.864 250.68C389.77 252.2 390.224 254.027 390.224 256.16C390.224 258.267 389.77 260.093 388.864 261.64C387.984 263.187 386.73 264.373 385.104 265.2C383.477 266.027 381.57 266.44 379.384 266.44ZM379.384 261.2C380.45 261.2 381.33 260.8 382.024 260C382.717 259.2 383.064 257.92 383.064 256.16C383.064 254.373 382.717 253.093 382.024 252.32C381.33 251.52 380.45 251.12 379.384 251.12C378.29 251.12 377.397 251.52 376.704 252.32C376.01 253.093 375.664 254.373 375.664 256.16C375.664 257.92 376.01 259.2 376.704 260C377.397 260.8 378.29 261.2 379.384 261.2ZM393.486 266V246.32H400.406V249C401.1 247.987 401.993 247.213 403.086 246.68C404.18 246.147 405.406 245.88 406.766 245.88C409.113 245.88 410.846 246.573 411.966 247.96C413.113 249.347 413.686 251.48 413.686 254.36V266H406.566V254.64C406.566 253.44 406.353 252.587 405.926 252.08C405.526 251.573 404.926 251.32 404.126 251.32C403.06 251.32 402.206 251.667 401.566 252.36C400.926 253.027 400.606 253.933 400.606 255.08V266H393.486Z" fill="#303030"/>
</svg>
