<svg width="474" height="389" viewBox="0 0 474 389" fill="none" xmlns="http://www.w3.org/2000/svg">
<path d="M27 137V149.1C27 154.606 27 157.359 28.0546 159.47C29.0225 161.407 30.5931 162.978 32.5302 163.945C34.6407 165 37.3938 165 42.9 165H73" stroke="#C4C4C4"/>
<path fill-rule="evenodd" clip-rule="evenodd" d="M72 168V162L75 165L72 168Z" fill="#C4C4C4"/>
<path d="M294 137V149.1C294 154.606 294 157.359 295.055 159.47C296.022 161.407 297.593 162.978 299.53 163.945C301.641 165 304.394 165 309.9 165H340" stroke="#C4C4C4"/>
<path fill-rule="evenodd" clip-rule="evenodd" d="M339 168V162L342 165L339 168Z" fill="#C4C4C4"/>
<path d="M27 152L27 196.1C27 201.606 27 204.359 28.0546 206.47C29.0225 208.407 30.5931 209.978 32.5302 210.945C34.6407 212 37.3938 212 42.9 212H73" stroke="#C4C4C4"/>
<path fill-rule="evenodd" clip-rule="evenodd" d="M72 215V209L75 212L72 215Z" fill="#C4C4C4"/>
<path d="M294 148V192.1C294 197.606 294 200.359 295.055 202.47C296.022 204.407 297.593 205.978 299.53 206.945C301.641 208 304.394 208 309.9 208H340" stroke="#C4C4C4"/>
<path fill-rule="evenodd" clip-rule="evenodd" d="M339 211V205L342 208L339 211Z" fill="#C4C4C4"/>
<path d="M294 194V238.1C294 243.606 294 246.359 295.055 248.47C296.022 250.407 297.593 251.978 299.53 252.945C301.641 254 304.394 254 309.9 254H340" stroke="#C4C4C4"/>
<path fill-rule="evenodd" clip-rule="evenodd" d="M339 257V251L342 254L339 257Z" fill="#C4C4C4"/>
<path d="M193.5 110L193.5 59.1288" stroke="#C4C4C4" stroke-linecap="square"/>
<path fill-rule="evenodd" clip-rule="evenodd" d="M196 61L191 61L193.5 58L196 61Z" fill="#C4C4C4"/>
<rect x="0.5" y="87.5" width="386" height="49" rx="11.5" fill="white"/>
<path d="M171.976 106.184H180.112V107.714H173.812V111.728H179.752V113.258H173.812V119H171.976V106.184ZM182.189 106.184H190.505V107.696H184.025V111.728H190.145V113.24H184.025V117.488H190.505V119H182.189V106.184ZM192.824 106.184H201.14V107.696H194.66V111.728H200.78V113.24H194.66V117.488H201.14V119H192.824V106.184ZM203.459 106.184H207.941C210.017 106.184 211.625 106.742 212.765 107.858C213.905 108.974 214.475 110.546 214.475 112.574C214.475 114.614 213.905 116.198 212.765 117.326C211.625 118.442 210.017 119 207.941 119H203.459V106.184ZM207.833 117.452C210.989 117.452 212.567 115.826 212.567 112.574C212.567 109.346 210.989 107.732 207.833 107.732H205.313V117.452H207.833Z" fill="#3C3C43" fill-opacity="0.6"/>
<rect x="0.5" y="87.5" width="386" height="49" rx="11.5" stroke="white"/>
<path d="M178.471 42.184V55H176.617V49.258H169.435V55H167.599V42.184H169.435V47.728H176.617V42.184H178.471ZM186.959 55.144C185.747 55.144 184.691 54.88 183.791 54.352C182.903 53.812 182.213 53.05 181.721 52.066C181.241 51.082 181.001 49.924 181.001 48.592C181.001 47.248 181.241 46.084 181.721 45.1C182.201 44.116 182.891 43.36 183.791 42.832C184.691 42.304 185.747 42.04 186.959 42.04C188.183 42.04 189.239 42.304 190.127 42.832C191.027 43.36 191.717 44.116 192.197 45.1C192.677 46.084 192.917 47.242 192.917 48.574C192.917 49.918 192.677 51.082 192.197 52.066C191.717 53.05 191.027 53.812 190.127 54.352C189.227 54.88 188.171 55.144 186.959 55.144ZM186.959 53.632C188.243 53.632 189.239 53.194 189.947 52.318C190.667 51.442 191.027 50.194 191.027 48.574C191.027 46.966 190.667 45.73 189.947 44.866C189.239 43.99 188.243 43.552 186.959 43.552C185.675 43.552 184.679 43.99 183.971 44.866C183.263 45.73 182.909 46.966 182.909 48.574C182.909 50.194 183.263 51.442 183.971 52.318C184.691 53.194 185.687 53.632 186.959 53.632ZM207.754 42.184V55H206.08V46.198L202.282 55H201.004L197.152 46.252L197.17 55H195.496V42.184H196.99L201.652 52.768L206.26 42.184H207.754ZM210.754 42.184H219.07V43.696H212.59V47.728H218.71V49.24H212.59V53.488H219.07V55H210.754V42.184Z" fill="#3C3C43" fill-opacity="0.6"/>
<path d="M86.554 159.732H82.216V158.184H92.764V159.732H88.426V171H86.554V159.732ZM97.4301 161.712C97.7061 161.712 97.9941 161.754 98.2941 161.838L98.2581 163.494C97.9341 163.374 97.5801 163.314 97.1961 163.314C96.3681 163.314 95.7441 163.566 95.3241 164.07C94.9161 164.562 94.7121 165.186 94.7121 165.942V171H92.9121V164.484C92.9121 163.536 92.8641 162.684 92.7681 161.928H94.4601L94.6221 163.566C94.8621 162.966 95.2341 162.51 95.7381 162.198C96.2421 161.874 96.8061 161.712 97.4301 161.712ZM107.244 166.5H100.764C100.824 168.624 101.79 169.686 103.662 169.686C104.706 169.686 105.66 169.344 106.524 168.66L107.082 169.956C106.674 170.316 106.152 170.604 105.516 170.82C104.892 171.024 104.262 171.126 103.626 171.126C102.174 171.126 101.034 170.712 100.206 169.884C99.3779 169.044 98.9639 167.898 98.9639 166.446C98.9639 165.522 99.1439 164.7 99.5039 163.98C99.8759 163.26 100.392 162.702 101.052 162.306C101.712 161.91 102.462 161.712 103.302 161.712C104.526 161.712 105.486 162.108 106.182 162.9C106.89 163.692 107.244 164.79 107.244 166.194V166.5ZM103.338 163.062C102.654 163.062 102.096 163.266 101.664 163.674C101.232 164.082 100.956 164.664 100.836 165.42H105.642C105.57 164.652 105.336 164.07 104.94 163.674C104.544 163.266 104.01 163.062 103.338 163.062ZM114.154 161.712C116.326 161.712 117.412 162.924 117.412 165.348V171H115.594V165.456C115.594 164.664 115.438 164.088 115.126 163.728C114.826 163.368 114.34 163.188 113.668 163.188C112.9 163.188 112.282 163.428 111.814 163.908C111.358 164.388 111.13 165.03 111.13 165.834V171H109.33V164.484C109.33 163.536 109.282 162.684 109.186 161.928H110.878L111.04 163.494C111.328 162.918 111.742 162.48 112.282 162.18C112.834 161.868 113.458 161.712 114.154 161.712ZM128.298 157.752V171H126.498V169.452C126.234 169.992 125.838 170.406 125.31 170.694C124.794 170.982 124.188 171.126 123.492 171.126C122.712 171.126 122.016 170.928 121.404 170.532C120.792 170.136 120.312 169.584 119.964 168.876C119.628 168.156 119.46 167.328 119.46 166.392C119.46 165.456 119.628 164.634 119.964 163.926C120.3 163.218 120.768 162.672 121.368 162.288C121.98 161.904 122.688 161.712 123.492 161.712C124.176 161.712 124.776 161.856 125.292 162.144C125.82 162.432 126.216 162.84 126.48 163.368V157.752H128.298ZM123.906 169.686C124.734 169.686 125.37 169.404 125.814 168.84C126.27 168.264 126.498 167.46 126.498 166.428C126.498 165.396 126.27 164.598 125.814 164.034C125.37 163.458 124.74 163.17 123.924 163.17C123.096 163.17 122.448 163.452 121.98 164.016C121.524 164.58 121.296 165.372 121.296 166.392C121.296 167.424 121.524 168.234 121.98 168.822C122.448 169.398 123.09 169.686 123.906 169.686ZM130.969 161.928H132.769V171H130.969V161.928ZM132.913 157.968V159.876H130.807V157.968H132.913ZM140.258 161.712C142.43 161.712 143.516 162.924 143.516 165.348V171H141.698V165.456C141.698 164.664 141.542 164.088 141.23 163.728C140.93 163.368 140.444 163.188 139.772 163.188C139.004 163.188 138.386 163.428 137.918 163.908C137.462 164.388 137.234 165.03 137.234 165.834V171H135.434V164.484C135.434 163.536 135.386 162.684 135.29 161.928H136.982L137.144 163.494C137.432 162.918 137.846 162.48 138.386 162.18C138.938 161.868 139.562 161.712 140.258 161.712ZM154.473 161.928V170.838C154.473 172.218 154.107 173.256 153.375 173.952C152.655 174.66 151.581 175.014 150.153 175.014C148.773 175.014 147.567 174.714 146.535 174.114L146.841 172.692C147.405 172.992 147.945 173.214 148.461 173.358C148.989 173.502 149.547 173.574 150.135 173.574C151.827 173.574 152.673 172.71 152.673 170.982V169.02C152.397 169.548 151.995 169.968 151.467 170.28C150.939 170.58 150.327 170.73 149.631 170.73C148.839 170.73 148.131 170.544 147.507 170.172C146.895 169.8 146.415 169.272 146.067 168.588C145.731 167.904 145.563 167.118 145.563 166.23C145.563 165.342 145.731 164.556 146.067 163.872C146.415 163.188 146.895 162.66 147.507 162.288C148.131 161.904 148.839 161.712 149.631 161.712C150.327 161.712 150.939 161.862 151.467 162.162C151.995 162.45 152.397 162.864 152.673 163.404V161.928H154.473ZM150.045 169.272C150.861 169.272 151.503 169.002 151.971 168.462C152.439 167.922 152.673 167.178 152.673 166.23C152.673 165.282 152.439 164.538 151.971 163.998C151.515 163.446 150.873 163.17 150.045 163.17C149.229 163.17 148.581 163.446 148.101 163.998C147.633 164.538 147.399 165.282 147.399 166.23C147.399 167.166 147.633 167.91 148.101 168.462C148.581 169.002 149.229 169.272 150.045 169.272Z" fill="#3C3C43" fill-opacity="0.6"/>
<path d="M350.494 158.184H355.822C357.166 158.184 358.21 158.514 358.954 159.174C359.71 159.822 360.088 160.71 360.088 161.838C360.088 162.966 359.704 163.86 358.936 164.52C358.18 165.168 357.142 165.492 355.822 165.492H352.348V171H350.494V158.184ZM355.606 164.016C356.494 164.016 357.16 163.83 357.604 163.458C358.06 163.086 358.288 162.546 358.288 161.838C358.288 161.142 358.06 160.608 357.604 160.236C357.16 159.864 356.494 159.678 355.606 159.678H352.348V164.016H355.606ZM362.18 157.752H363.98V171H362.18V157.752ZM374.943 161.928V171H373.143V169.452C372.879 169.992 372.483 170.406 371.955 170.694C371.439 170.982 370.833 171.126 370.137 171.126C369.333 171.126 368.625 170.934 368.013 170.55C367.413 170.166 366.945 169.626 366.609 168.93C366.273 168.222 366.105 167.4 366.105 166.464C366.105 165.528 366.273 164.7 366.609 163.98C366.957 163.26 367.437 162.702 368.049 162.306C368.661 161.91 369.357 161.712 370.137 161.712C370.833 161.712 371.439 161.862 371.955 162.162C372.471 162.45 372.867 162.864 373.143 163.404V161.928H374.943ZM370.569 169.686C371.385 169.686 372.015 169.404 372.459 168.84C372.915 168.264 373.143 167.46 373.143 166.428C373.143 165.384 372.915 164.58 372.459 164.016C372.015 163.452 371.379 163.17 370.551 163.17C369.735 163.17 369.093 163.464 368.625 164.052C368.169 164.628 367.941 165.432 367.941 166.464C367.941 167.484 368.169 168.276 368.625 168.84C369.093 169.404 369.741 169.686 370.569 169.686ZM385.857 161.928L381.627 171.738C381.159 172.806 380.571 173.586 379.863 174.078C379.167 174.582 378.303 174.918 377.271 175.086L376.875 173.682C377.727 173.49 378.369 173.238 378.801 172.926C379.245 172.626 379.599 172.17 379.863 171.558L380.187 170.802L376.371 161.928H378.297L381.141 168.948L384.039 161.928H385.857ZM396.418 171.144C395.422 171.144 394.51 171.012 393.682 170.748C392.866 170.484 392.158 170.088 391.558 169.56L392.224 168.192C392.848 168.696 393.496 169.062 394.168 169.29C394.84 169.518 395.596 169.632 396.436 169.632C397.396 169.632 398.14 169.452 398.668 169.092C399.196 168.732 399.46 168.222 399.46 167.562C399.46 167.01 399.214 166.596 398.722 166.32C398.23 166.032 397.45 165.768 396.382 165.528C395.362 165.312 394.528 165.066 393.88 164.79C393.232 164.502 392.722 164.124 392.35 163.656C391.978 163.176 391.792 162.564 391.792 161.82C391.792 161.076 391.99 160.422 392.386 159.858C392.782 159.282 393.34 158.838 394.06 158.526C394.792 158.202 395.632 158.04 396.58 158.04C397.48 158.04 398.32 158.178 399.1 158.454C399.892 158.73 400.552 159.12 401.08 159.624L400.414 160.992C399.826 160.5 399.22 160.14 398.596 159.912C397.972 159.672 397.306 159.552 396.598 159.552C395.674 159.552 394.948 159.75 394.42 160.146C393.892 160.53 393.628 161.058 393.628 161.73C393.628 162.306 393.856 162.744 394.312 163.044C394.78 163.344 395.524 163.614 396.544 163.854C397.612 164.094 398.476 164.346 399.136 164.61C399.796 164.874 400.324 165.234 400.72 165.69C401.116 166.146 401.314 166.734 401.314 167.454C401.314 168.198 401.116 168.846 400.72 169.398C400.324 169.95 399.754 170.382 399.01 170.694C398.278 170.994 397.414 171.144 396.418 171.144ZM407.359 171.126C406.471 171.126 405.691 170.934 405.019 170.55C404.347 170.166 403.825 169.62 403.453 168.912C403.093 168.204 402.913 167.376 402.913 166.428C402.913 165.48 403.093 164.652 403.453 163.944C403.825 163.224 404.347 162.672 405.019 162.288C405.691 161.904 406.471 161.712 407.359 161.712C408.235 161.712 409.009 161.904 409.681 162.288C410.353 162.672 410.869 163.224 411.229 163.944C411.601 164.652 411.787 165.48 411.787 166.428C411.787 167.376 411.601 168.204 411.229 168.912C410.869 169.62 410.353 170.166 409.681 170.55C409.009 170.934 408.235 171.126 407.359 171.126ZM407.341 169.686C408.181 169.686 408.823 169.41 409.267 168.858C409.711 168.306 409.933 167.496 409.933 166.428C409.933 165.384 409.705 164.58 409.249 164.016C408.805 163.452 408.175 163.17 407.359 163.17C406.531 163.17 405.889 163.452 405.433 164.016C404.977 164.58 404.749 165.384 404.749 166.428C404.749 167.496 404.971 168.306 405.415 168.858C405.871 169.41 406.513 169.686 407.341 169.686ZM418.736 161.712C420.908 161.712 421.994 162.924 421.994 165.348V171H420.176V165.456C420.176 164.664 420.02 164.088 419.708 163.728C419.408 163.368 418.922 163.188 418.25 163.188C417.482 163.188 416.864 163.428 416.396 163.908C415.94 164.388 415.712 165.03 415.712 165.834V171H413.912V164.484C413.912 163.536 413.864 162.684 413.768 161.928H415.46L415.622 163.494C415.91 162.918 416.324 162.48 416.864 162.18C417.416 161.868 418.04 161.712 418.736 161.712ZM432.952 161.928V170.838C432.952 172.218 432.586 173.256 431.854 173.952C431.134 174.66 430.06 175.014 428.632 175.014C427.252 175.014 426.046 174.714 425.014 174.114L425.32 172.692C425.884 172.992 426.424 173.214 426.94 173.358C427.468 173.502 428.026 173.574 428.614 173.574C430.306 173.574 431.152 172.71 431.152 170.982V169.02C430.876 169.548 430.474 169.968 429.946 170.28C429.418 170.58 428.806 170.73 428.11 170.73C427.318 170.73 426.61 170.544 425.986 170.172C425.374 169.8 424.894 169.272 424.546 168.588C424.21 167.904 424.042 167.118 424.042 166.23C424.042 165.342 424.21 164.556 424.546 163.872C424.894 163.188 425.374 162.66 425.986 162.288C426.61 161.904 427.318 161.712 428.11 161.712C428.806 161.712 429.418 161.862 429.946 162.162C430.474 162.45 430.876 162.864 431.152 163.404V161.928H432.952ZM428.524 169.272C429.34 169.272 429.982 169.002 430.45 168.462C430.918 167.922 431.152 167.178 431.152 166.23C431.152 165.282 430.918 164.538 430.45 163.998C429.994 163.446 429.352 163.17 428.524 163.17C427.708 163.17 427.06 163.446 426.58 163.998C426.112 164.538 425.878 165.282 425.878 166.23C425.878 167.166 426.112 167.91 426.58 168.462C427.06 169.002 427.708 169.272 428.524 169.272Z" fill="#3C3C43" fill-opacity="0.6"/>
<path d="M87.688 217.144C86.692 217.144 85.78 217.012 84.952 216.748C84.136 216.484 83.428 216.088 82.828 215.56L83.494 214.192C84.118 214.696 84.766 215.062 85.438 215.29C86.11 215.518 86.866 215.632 87.706 215.632C88.666 215.632 89.41 215.452 89.938 215.092C90.466 214.732 90.73 214.222 90.73 213.562C90.73 213.01 90.484 212.596 89.992 212.32C89.5 212.032 88.72 211.768 87.652 211.528C86.632 211.312 85.798 211.066 85.15 210.79C84.502 210.502 83.992 210.124 83.62 209.656C83.248 209.176 83.062 208.564 83.062 207.82C83.062 207.076 83.26 206.422 83.656 205.858C84.052 205.282 84.61 204.838 85.33 204.526C86.062 204.202 86.902 204.04 87.85 204.04C88.75 204.04 89.59 204.178 90.37 204.454C91.162 204.73 91.822 205.12 92.35 205.624L91.684 206.992C91.096 206.5 90.49 206.14 89.866 205.912C89.242 205.672 88.576 205.552 87.868 205.552C86.944 205.552 86.218 205.75 85.69 206.146C85.162 206.53 84.898 207.058 84.898 207.73C84.898 208.306 85.126 208.744 85.582 209.044C86.05 209.344 86.794 209.614 87.814 209.854C88.882 210.094 89.746 210.346 90.406 210.61C91.066 210.874 91.594 211.234 91.99 211.69C92.386 212.146 92.584 212.734 92.584 213.454C92.584 214.198 92.386 214.846 91.99 215.398C91.594 215.95 91.024 216.382 90.28 216.694C89.548 216.994 88.684 217.144 87.688 217.144ZM102.607 207.928V217H100.843V215.488C100.555 216.016 100.159 216.424 99.6546 216.712C99.1506 216.988 98.5806 217.126 97.9446 217.126C95.7606 217.126 94.6686 215.914 94.6686 213.49V207.928H96.4686V213.472C96.4686 214.216 96.6186 214.768 96.9186 215.128C97.2306 215.476 97.6986 215.65 98.3226 215.65C99.0666 215.65 99.6606 215.41 100.105 214.93C100.561 214.45 100.789 213.814 100.789 213.022V207.928H102.607ZM113.64 207.928V216.838C113.64 218.218 113.274 219.256 112.542 219.952C111.822 220.66 110.748 221.014 109.32 221.014C107.94 221.014 106.734 220.714 105.702 220.114L106.008 218.692C106.572 218.992 107.112 219.214 107.628 219.358C108.156 219.502 108.714 219.574 109.302 219.574C110.994 219.574 111.84 218.71 111.84 216.982V215.02C111.564 215.548 111.162 215.968 110.634 216.28C110.106 216.58 109.494 216.73 108.798 216.73C108.006 216.73 107.298 216.544 106.674 216.172C106.062 215.8 105.582 215.272 105.234 214.588C104.898 213.904 104.73 213.118 104.73 212.23C104.73 211.342 104.898 210.556 105.234 209.872C105.582 209.188 106.062 208.66 106.674 208.288C107.298 207.904 108.006 207.712 108.798 207.712C109.494 207.712 110.106 207.862 110.634 208.162C111.162 208.45 111.564 208.864 111.84 209.404V207.928H113.64ZM109.212 215.272C110.028 215.272 110.67 215.002 111.138 214.462C111.606 213.922 111.84 213.178 111.84 212.23C111.84 211.282 111.606 210.538 111.138 209.998C110.682 209.446 110.04 209.17 109.212 209.17C108.396 209.17 107.748 209.446 107.268 209.998C106.8 210.538 106.566 211.282 106.566 212.23C106.566 213.166 106.8 213.91 107.268 214.462C107.748 215.002 108.396 215.272 109.212 215.272ZM124.679 207.928V216.838C124.679 218.218 124.313 219.256 123.581 219.952C122.861 220.66 121.787 221.014 120.359 221.014C118.979 221.014 117.773 220.714 116.741 220.114L117.047 218.692C117.611 218.992 118.151 219.214 118.667 219.358C119.195 219.502 119.753 219.574 120.341 219.574C122.033 219.574 122.879 218.71 122.879 216.982V215.02C122.603 215.548 122.201 215.968 121.673 216.28C121.145 216.58 120.533 216.73 119.837 216.73C119.045 216.73 118.337 216.544 117.713 216.172C117.101 215.8 116.621 215.272 116.273 214.588C115.937 213.904 115.769 213.118 115.769 212.23C115.769 211.342 115.937 210.556 116.273 209.872C116.621 209.188 117.101 208.66 117.713 208.288C118.337 207.904 119.045 207.712 119.837 207.712C120.533 207.712 121.145 207.862 121.673 208.162C122.201 208.45 122.603 208.864 122.879 209.404V207.928H124.679ZM120.251 215.272C121.067 215.272 121.709 215.002 122.177 214.462C122.645 213.922 122.879 213.178 122.879 212.23C122.879 211.282 122.645 210.538 122.177 209.998C121.721 209.446 121.079 209.17 120.251 209.17C119.435 209.17 118.787 209.446 118.307 209.998C117.839 210.538 117.605 211.282 117.605 212.23C117.605 213.166 117.839 213.91 118.307 214.462C118.787 215.002 119.435 215.272 120.251 215.272ZM135.088 212.5H128.608C128.668 214.624 129.634 215.686 131.506 215.686C132.55 215.686 133.504 215.344 134.368 214.66L134.926 215.956C134.518 216.316 133.996 216.604 133.36 216.82C132.736 217.024 132.106 217.126 131.47 217.126C130.018 217.126 128.878 216.712 128.05 215.884C127.222 215.044 126.808 213.898 126.808 212.446C126.808 211.522 126.988 210.7 127.348 209.98C127.72 209.26 128.236 208.702 128.896 208.306C129.556 207.91 130.306 207.712 131.146 207.712C132.37 207.712 133.33 208.108 134.026 208.9C134.734 209.692 135.088 210.79 135.088 212.194V212.5ZM131.182 209.062C130.498 209.062 129.94 209.266 129.508 209.674C129.076 210.082 128.8 210.664 128.68 211.42H133.486C133.414 210.652 133.18 210.07 132.784 209.674C132.388 209.266 131.854 209.062 131.182 209.062ZM140.342 217.126C138.758 217.126 137.51 216.742 136.598 215.974L137.138 214.66C138.086 215.38 139.172 215.74 140.396 215.74C141.02 215.74 141.494 215.638 141.818 215.434C142.142 215.218 142.304 214.918 142.304 214.534C142.304 214.21 142.19 213.958 141.962 213.778C141.746 213.586 141.374 213.424 140.846 213.292L139.334 212.932C138.542 212.764 137.936 212.47 137.516 212.05C137.108 211.618 136.904 211.084 136.904 210.448C136.904 209.632 137.228 208.972 137.876 208.468C138.536 207.964 139.406 207.712 140.486 207.712C141.134 207.712 141.746 207.814 142.322 208.018C142.91 208.222 143.408 208.51 143.816 208.882L143.258 210.16C142.382 209.464 141.458 209.116 140.486 209.116C139.898 209.116 139.442 209.23 139.118 209.458C138.794 209.674 138.632 209.98 138.632 210.376C138.632 210.688 138.734 210.94 138.938 211.132C139.142 211.324 139.466 211.474 139.91 211.582L141.458 211.96C142.322 212.152 142.958 212.458 143.366 212.878C143.786 213.286 143.996 213.82 143.996 214.48C143.996 215.296 143.666 215.944 143.006 216.424C142.358 216.892 141.47 217.126 140.342 217.126ZM148.409 209.332V213.886C148.409 214.51 148.541 214.954 148.805 215.218C149.081 215.47 149.459 215.596 149.939 215.596C150.251 215.596 150.569 215.548 150.893 215.452V216.928C150.497 217.06 150.047 217.126 149.543 217.126C148.607 217.126 147.881 216.862 147.365 216.334C146.849 215.806 146.591 215.038 146.591 214.03V209.332H144.827V207.928H146.591V205.66L148.409 205.03V207.928H150.911V209.332H148.409ZM152.59 207.928H154.39V217H152.59V207.928ZM154.534 203.968V205.876H152.428V203.968H154.534ZM160.961 217.126C160.073 217.126 159.293 216.934 158.621 216.55C157.949 216.166 157.427 215.62 157.055 214.912C156.695 214.204 156.515 213.376 156.515 212.428C156.515 211.48 156.695 210.652 157.055 209.944C157.427 209.224 157.949 208.672 158.621 208.288C159.293 207.904 160.073 207.712 160.961 207.712C161.837 207.712 162.611 207.904 163.283 208.288C163.955 208.672 164.471 209.224 164.831 209.944C165.203 210.652 165.389 211.48 165.389 212.428C165.389 213.376 165.203 214.204 164.831 214.912C164.471 215.62 163.955 216.166 163.283 216.55C162.611 216.934 161.837 217.126 160.961 217.126ZM160.943 215.686C161.783 215.686 162.425 215.41 162.869 214.858C163.313 214.306 163.535 213.496 163.535 212.428C163.535 211.384 163.307 210.58 162.851 210.016C162.407 209.452 161.777 209.17 160.961 209.17C160.133 209.17 159.491 209.452 159.035 210.016C158.579 210.58 158.351 211.384 158.351 212.428C158.351 213.496 158.573 214.306 159.017 214.858C159.473 215.41 160.115 215.686 160.943 215.686ZM172.338 207.712C174.51 207.712 175.596 208.924 175.596 211.348V217H173.778V211.456C173.778 210.664 173.622 210.088 173.31 209.728C173.01 209.368 172.524 209.188 171.852 209.188C171.084 209.188 170.466 209.428 169.998 209.908C169.542 210.388 169.314 211.03 169.314 211.834V217H167.514V210.484C167.514 209.536 167.466 208.684 167.37 207.928H169.062L169.224 209.494C169.512 208.918 169.926 208.48 170.466 208.18C171.018 207.868 171.642 207.712 172.338 207.712ZM181.352 217.126C179.768 217.126 178.52 216.742 177.608 215.974L178.148 214.66C179.096 215.38 180.182 215.74 181.406 215.74C182.03 215.74 182.504 215.638 182.828 215.434C183.152 215.218 183.314 214.918 183.314 214.534C183.314 214.21 183.2 213.958 182.972 213.778C182.756 213.586 182.384 213.424 181.856 213.292L180.344 212.932C179.552 212.764 178.946 212.47 178.526 212.05C178.118 211.618 177.914 211.084 177.914 210.448C177.914 209.632 178.238 208.972 178.886 208.468C179.546 207.964 180.416 207.712 181.496 207.712C182.144 207.712 182.756 207.814 183.332 208.018C183.92 208.222 184.418 208.51 184.826 208.882L184.268 210.16C183.392 209.464 182.468 209.116 181.496 209.116C180.908 209.116 180.452 209.23 180.128 209.458C179.804 209.674 179.642 209.98 179.642 210.376C179.642 210.688 179.744 210.94 179.948 211.132C180.152 211.324 180.476 211.474 180.92 211.582L182.468 211.96C183.332 212.152 183.968 212.458 184.376 212.878C184.796 213.286 185.006 213.82 185.006 214.48C185.006 215.296 184.676 215.944 184.016 216.424C183.368 216.892 182.48 217.126 181.352 217.126Z" fill="#3C3C43" fill-opacity="0.6"/>
<path d="M350.494 200.184H352.348V211.452H358.576V213H350.494V200.184ZM360.264 203.928H362.064V213H360.264V203.928ZM362.208 199.968V201.876H360.102V199.968H362.208ZM370.866 213L366.528 208.716V213H364.728V199.752H366.528V208.032L370.56 203.946H372.81L368.472 208.302L373.188 213H370.866ZM381.89 208.5H375.41C375.47 210.624 376.436 211.686 378.308 211.686C379.352 211.686 380.306 211.344 381.17 210.66L381.728 211.956C381.32 212.316 380.798 212.604 380.162 212.82C379.538 213.024 378.908 213.126 378.272 213.126C376.82 213.126 375.68 212.712 374.852 211.884C374.024 211.044 373.61 209.898 373.61 208.446C373.61 207.522 373.79 206.7 374.15 205.98C374.522 205.26 375.038 204.702 375.698 204.306C376.358 203.91 377.108 203.712 377.948 203.712C379.172 203.712 380.132 204.108 380.828 204.9C381.536 205.692 381.89 206.79 381.89 208.194V208.5ZM377.984 205.062C377.3 205.062 376.742 205.266 376.31 205.674C375.878 206.082 375.602 206.664 375.482 207.42H380.288C380.216 206.652 379.982 206.07 379.586 205.674C379.19 205.266 378.656 205.062 377.984 205.062ZM393.131 213.144C392.135 213.144 391.223 213.012 390.395 212.748C389.579 212.484 388.871 212.088 388.271 211.56L388.937 210.192C389.561 210.696 390.209 211.062 390.881 211.29C391.553 211.518 392.309 211.632 393.149 211.632C394.109 211.632 394.853 211.452 395.381 211.092C395.909 210.732 396.173 210.222 396.173 209.562C396.173 209.01 395.927 208.596 395.435 208.32C394.943 208.032 394.163 207.768 393.095 207.528C392.075 207.312 391.241 207.066 390.593 206.79C389.945 206.502 389.435 206.124 389.063 205.656C388.691 205.176 388.505 204.564 388.505 203.82C388.505 203.076 388.703 202.422 389.099 201.858C389.495 201.282 390.053 200.838 390.773 200.526C391.505 200.202 392.345 200.04 393.293 200.04C394.193 200.04 395.033 200.178 395.813 200.454C396.605 200.73 397.265 201.12 397.793 201.624L397.127 202.992C396.539 202.5 395.933 202.14 395.309 201.912C394.685 201.672 394.019 201.552 393.311 201.552C392.387 201.552 391.661 201.75 391.133 202.146C390.605 202.53 390.341 203.058 390.341 203.73C390.341 204.306 390.569 204.744 391.025 205.044C391.493 205.344 392.237 205.614 393.257 205.854C394.325 206.094 395.189 206.346 395.849 206.61C396.509 206.874 397.037 207.234 397.433 207.69C397.829 208.146 398.027 208.734 398.027 209.454C398.027 210.198 397.829 210.846 397.433 211.398C397.037 211.95 396.467 212.382 395.723 212.694C394.991 212.994 394.127 213.144 393.131 213.144ZM404.072 213.126C403.184 213.126 402.404 212.934 401.732 212.55C401.06 212.166 400.538 211.62 400.166 210.912C399.806 210.204 399.626 209.376 399.626 208.428C399.626 207.48 399.806 206.652 400.166 205.944C400.538 205.224 401.06 204.672 401.732 204.288C402.404 203.904 403.184 203.712 404.072 203.712C404.948 203.712 405.722 203.904 406.394 204.288C407.066 204.672 407.582 205.224 407.942 205.944C408.314 206.652 408.5 207.48 408.5 208.428C408.5 209.376 408.314 210.204 407.942 210.912C407.582 211.62 407.066 212.166 406.394 212.55C405.722 212.934 404.948 213.126 404.072 213.126ZM404.054 211.686C404.894 211.686 405.536 211.41 405.98 210.858C406.424 210.306 406.646 209.496 406.646 208.428C406.646 207.384 406.418 206.58 405.962 206.016C405.518 205.452 404.888 205.17 404.072 205.17C403.244 205.17 402.602 205.452 402.146 206.016C401.69 206.58 401.462 207.384 401.462 208.428C401.462 209.496 401.684 210.306 402.128 210.858C402.584 211.41 403.226 211.686 404.054 211.686ZM415.449 203.712C417.621 203.712 418.707 204.924 418.707 207.348V213H416.889V207.456C416.889 206.664 416.733 206.088 416.421 205.728C416.121 205.368 415.635 205.188 414.963 205.188C414.195 205.188 413.577 205.428 413.109 205.908C412.653 206.388 412.425 207.03 412.425 207.834V213H410.625V206.484C410.625 205.536 410.577 204.684 410.481 203.928H412.173L412.335 205.494C412.623 204.918 413.037 204.48 413.577 204.18C414.129 203.868 414.753 203.712 415.449 203.712ZM429.665 203.928V212.838C429.665 214.218 429.299 215.256 428.567 215.952C427.847 216.66 426.773 217.014 425.345 217.014C423.965 217.014 422.759 216.714 421.727 216.114L422.033 214.692C422.597 214.992 423.137 215.214 423.653 215.358C424.181 215.502 424.739 215.574 425.327 215.574C427.019 215.574 427.865 214.71 427.865 212.982V211.02C427.589 211.548 427.187 211.968 426.659 212.28C426.131 212.58 425.519 212.73 424.823 212.73C424.031 212.73 423.323 212.544 422.699 212.172C422.087 211.8 421.607 211.272 421.259 210.588C420.923 209.904 420.755 209.118 420.755 208.23C420.755 207.342 420.923 206.556 421.259 205.872C421.607 205.188 422.087 204.66 422.699 204.288C423.323 203.904 424.031 203.712 424.823 203.712C425.519 203.712 426.131 203.862 426.659 204.162C427.187 204.45 427.589 204.864 427.865 205.404V203.928H429.665ZM425.237 211.272C426.053 211.272 426.695 211.002 427.163 210.462C427.631 209.922 427.865 209.178 427.865 208.23C427.865 207.282 427.631 206.538 427.163 205.998C426.707 205.446 426.065 205.17 425.237 205.17C424.421 205.17 423.773 205.446 423.293 205.998C422.825 206.538 422.591 207.282 422.591 208.23C422.591 209.166 422.825 209.91 423.293 210.462C423.773 211.002 424.421 211.272 425.237 211.272Z" fill="#3C3C43" fill-opacity="0.6"/>
<path d="M361.816 246.184L356.164 259H354.598L348.946 246.184H350.89L355.39 256.66L359.908 246.184H361.816ZM363.076 249.928H364.876V259H363.076V249.928ZM365.02 245.968V247.876H362.914V245.968H365.02ZM375.281 254.5H368.801C368.861 256.624 369.827 257.686 371.699 257.686C372.743 257.686 373.697 257.344 374.561 256.66L375.119 257.956C374.711 258.316 374.189 258.604 373.553 258.82C372.929 259.024 372.299 259.126 371.663 259.126C370.211 259.126 369.071 258.712 368.243 257.884C367.415 257.044 367.001 255.898 367.001 254.446C367.001 253.522 367.181 252.7 367.541 251.98C367.913 251.26 368.429 250.702 369.089 250.306C369.749 249.91 370.499 249.712 371.339 249.712C372.563 249.712 373.523 250.108 374.219 250.9C374.927 251.692 375.281 252.79 375.281 254.194V254.5ZM371.375 251.062C370.691 251.062 370.133 251.266 369.701 251.674C369.269 252.082 368.993 252.664 368.873 253.42H373.679C373.607 252.652 373.373 252.07 372.977 251.674C372.581 251.266 372.047 251.062 371.375 251.062ZM391.32 249.928L387.864 259H386.208L383.778 252.43L381.366 259H379.71L376.254 249.928H378.144L380.61 256.858L383.112 249.928H384.552L387.054 256.858L389.538 249.928H391.32ZM410.249 246.184V259H408.575V250.198L404.777 259H403.499L399.647 250.252L399.665 259H397.991V246.184H399.485L404.147 256.768L408.755 246.184H410.249ZM416.992 259.126C416.104 259.126 415.324 258.934 414.652 258.55C413.98 258.166 413.458 257.62 413.086 256.912C412.726 256.204 412.546 255.376 412.546 254.428C412.546 253.48 412.726 252.652 413.086 251.944C413.458 251.224 413.98 250.672 414.652 250.288C415.324 249.904 416.104 249.712 416.992 249.712C417.868 249.712 418.642 249.904 419.314 250.288C419.986 250.672 420.502 251.224 420.862 251.944C421.234 252.652 421.42 253.48 421.42 254.428C421.42 255.376 421.234 256.204 420.862 256.912C420.502 257.62 419.986 258.166 419.314 258.55C418.642 258.934 417.868 259.126 416.992 259.126ZM416.974 257.686C417.814 257.686 418.456 257.41 418.9 256.858C419.344 256.306 419.566 255.496 419.566 254.428C419.566 253.384 419.338 252.58 418.882 252.016C418.438 251.452 417.808 251.17 416.992 251.17C416.164 251.17 415.522 251.452 415.066 252.016C414.61 252.58 414.382 253.384 414.382 254.428C414.382 255.496 414.604 256.306 415.048 256.858C415.504 257.41 416.146 257.686 416.974 257.686ZM428.063 249.712C428.339 249.712 428.627 249.754 428.927 249.838L428.891 251.494C428.567 251.374 428.213 251.314 427.829 251.314C427.001 251.314 426.377 251.566 425.957 252.07C425.549 252.562 425.345 253.186 425.345 253.942V259H423.545V252.484C423.545 251.536 423.497 250.684 423.401 249.928H425.093L425.255 251.566C425.495 250.966 425.867 250.51 426.371 250.198C426.875 249.874 427.439 249.712 428.063 249.712ZM437.877 254.5H431.397C431.457 256.624 432.423 257.686 434.295 257.686C435.339 257.686 436.293 257.344 437.157 256.66L437.715 257.956C437.307 258.316 436.785 258.604 436.149 258.82C435.525 259.024 434.895 259.126 434.259 259.126C432.807 259.126 431.667 258.712 430.839 257.884C430.011 257.044 429.597 255.898 429.597 254.446C429.597 253.522 429.777 252.7 430.137 251.98C430.509 251.26 431.025 250.702 431.685 250.306C432.345 249.91 433.095 249.712 433.935 249.712C435.159 249.712 436.119 250.108 436.815 250.9C437.523 251.692 437.877 252.79 437.877 254.194V254.5ZM433.971 251.062C433.287 251.062 432.729 251.266 432.297 251.674C431.865 252.082 431.589 252.664 431.469 253.42H436.275C436.203 252.652 435.969 252.07 435.573 251.674C435.177 251.266 434.643 251.062 433.971 251.062Z" fill="#3C3C43" fill-opacity="0.6"/>
<path d="M83.278 246.42H88.516V247.896H83.278V246.42ZM101.793 239.184V252H100.371L93.0271 242.316V252H91.2811V239.184H92.6851L100.047 248.886V239.184H101.793ZM112.359 247.5H105.879C105.939 249.624 106.905 250.686 108.777 250.686C109.821 250.686 110.775 250.344 111.639 249.66L112.197 250.956C111.789 251.316 111.267 251.604 110.631 251.82C110.007 252.024 109.377 252.126 108.741 252.126C107.289 252.126 106.149 251.712 105.321 250.884C104.493 250.044 104.079 248.898 104.079 247.446C104.079 246.522 104.259 245.7 104.619 244.98C104.991 244.26 105.507 243.702 106.167 243.306C106.827 242.91 107.577 242.712 108.417 242.712C109.641 242.712 110.601 243.108 111.297 243.9C112.005 244.692 112.359 245.79 112.359 247.194V247.5ZM108.453 244.062C107.769 244.062 107.211 244.266 106.779 244.674C106.347 245.082 106.071 245.664 105.951 246.42H110.757C110.685 245.652 110.451 245.07 110.055 244.674C109.659 244.266 109.125 244.062 108.453 244.062ZM128.398 242.928L124.942 252H123.286L120.856 245.43L118.444 252H116.788L113.332 242.928H115.222L117.688 249.858L120.19 242.928H121.63L124.132 249.858L126.616 242.928H128.398ZM143.475 248.832H136.995L135.627 252H133.737L139.443 239.184H141.009L146.733 252H144.843L143.475 248.832ZM142.845 247.356L140.235 241.254L137.625 247.356H142.845ZM148.23 238.752H150.03V252H148.23V238.752ZM157.501 242.712C158.293 242.712 158.995 242.904 159.607 243.288C160.219 243.672 160.693 244.218 161.029 244.926C161.365 245.634 161.533 246.456 161.533 247.392C161.533 248.328 161.359 249.156 161.011 249.876C160.675 250.584 160.201 251.136 159.589 251.532C158.977 251.928 158.281 252.126 157.501 252.126C156.805 252.126 156.193 251.982 155.665 251.694C155.149 251.394 154.759 250.968 154.495 250.416V252H152.695V238.752H154.495V244.422C154.759 243.882 155.149 243.462 155.665 243.162C156.193 242.862 156.805 242.712 157.501 242.712ZM157.087 250.686C157.903 250.686 158.539 250.398 158.995 249.822C159.451 249.234 159.679 248.424 159.679 247.392C159.679 246.372 159.451 245.58 158.995 245.016C158.539 244.452 157.903 244.17 157.087 244.17C156.259 244.17 155.617 244.452 155.161 245.016C154.717 245.58 154.495 246.384 154.495 247.428C154.495 248.472 154.717 249.276 155.161 249.84C155.617 250.404 156.259 250.686 157.087 250.686ZM171.548 242.928V252H169.784V250.488C169.496 251.016 169.1 251.424 168.596 251.712C168.092 251.988 167.522 252.126 166.886 252.126C164.702 252.126 163.61 250.914 163.61 248.49V242.928H165.41V248.472C165.41 249.216 165.56 249.768 165.86 250.128C166.172 250.476 166.64 250.65 167.264 250.65C168.008 250.65 168.602 250.41 169.046 249.93C169.502 249.45 169.73 248.814 169.73 248.022V242.928H171.548ZM184.561 242.712C186.577 242.712 187.585 243.924 187.585 246.348V252H185.767V246.438C185.767 245.658 185.629 245.088 185.353 244.728C185.089 244.368 184.657 244.188 184.057 244.188C183.361 244.188 182.809 244.428 182.401 244.908C182.005 245.388 181.807 246.042 181.807 246.87V252H179.989V246.438C179.989 245.658 179.851 245.088 179.575 244.728C179.311 244.368 178.879 244.188 178.279 244.188C177.583 244.188 177.031 244.428 176.623 244.908C176.215 245.388 176.011 246.042 176.011 246.87V252H174.211V245.484C174.211 244.536 174.163 243.684 174.067 242.928H175.759L175.921 244.44C176.185 243.888 176.563 243.462 177.055 243.162C177.547 242.862 178.123 242.712 178.783 242.712C180.187 242.712 181.105 243.294 181.537 244.458C181.813 243.918 182.215 243.492 182.743 243.18C183.283 242.868 183.889 242.712 184.561 242.712Z" fill="#3C3C43" fill-opacity="0.6"/>
<path d="M83.278 279.42H88.516V280.896H83.278V279.42ZM101.559 285H99.5971L97.9951 280.734C97.8271 280.278 97.5811 279.966 97.2571 279.798C96.9331 279.618 96.4891 279.528 95.9251 279.528H93.1171V285H91.2811V272.184H96.5551C97.9591 272.184 99.0331 272.496 99.7771 273.12C100.533 273.744 100.911 274.638 100.911 275.802C100.911 276.642 100.689 277.356 100.245 277.944C99.8011 278.532 99.1711 278.946 98.3551 279.186C99.0991 279.318 99.6391 279.846 99.9751 280.77L101.559 285ZM96.3391 278.034C97.2751 278.034 97.9711 277.854 98.4271 277.494C98.8831 277.122 99.1111 276.57 99.1111 275.838C99.1111 275.106 98.8831 274.566 98.4271 274.218C97.9831 273.858 97.2871 273.678 96.3391 273.678H93.1171V278.034H96.3391ZM111.41 280.5H104.93C104.99 282.624 105.956 283.686 107.828 283.686C108.872 283.686 109.826 283.344 110.69 282.66L111.248 283.956C110.84 284.316 110.318 284.604 109.682 284.82C109.058 285.024 108.428 285.126 107.792 285.126C106.34 285.126 105.2 284.712 104.372 283.884C103.544 283.044 103.13 281.898 103.13 280.446C103.13 279.522 103.31 278.7 103.67 277.98C104.042 277.26 104.558 276.702 105.218 276.306C105.878 275.91 106.628 275.712 107.468 275.712C108.692 275.712 109.652 276.108 110.348 276.9C111.056 277.692 111.41 278.79 111.41 280.194V280.5ZM107.504 277.062C106.82 277.062 106.262 277.266 105.83 277.674C105.398 278.082 105.122 278.664 105.002 279.42H109.808C109.736 278.652 109.502 278.07 109.106 277.674C108.71 277.266 108.176 277.062 107.504 277.062ZM117.438 285.126C116.526 285.126 115.728 284.934 115.044 284.55C114.372 284.166 113.856 283.626 113.496 282.93C113.136 282.222 112.956 281.4 112.956 280.464C112.956 279.528 113.142 278.7 113.514 277.98C113.898 277.26 114.432 276.702 115.116 276.306C115.8 275.91 116.598 275.712 117.51 275.712C118.146 275.712 118.758 275.82 119.346 276.036C119.934 276.24 120.408 276.522 120.768 276.882L120.21 278.196C119.358 277.524 118.5 277.188 117.636 277.188C116.76 277.188 116.076 277.476 115.584 278.052C115.092 278.616 114.846 279.414 114.846 280.446C114.846 281.478 115.092 282.276 115.584 282.84C116.076 283.392 116.76 283.668 117.636 283.668C118.524 283.668 119.382 283.332 120.21 282.66L120.768 283.974C120.384 284.334 119.892 284.616 119.292 284.82C118.704 285.024 118.086 285.126 117.438 285.126ZM126.384 285.126C125.496 285.126 124.716 284.934 124.044 284.55C123.372 284.166 122.85 283.62 122.478 282.912C122.118 282.204 121.938 281.376 121.938 280.428C121.938 279.48 122.118 278.652 122.478 277.944C122.85 277.224 123.372 276.672 124.044 276.288C124.716 275.904 125.496 275.712 126.384 275.712C127.26 275.712 128.034 275.904 128.706 276.288C129.378 276.672 129.894 277.224 130.254 277.944C130.626 278.652 130.812 279.48 130.812 280.428C130.812 281.376 130.626 282.204 130.254 282.912C129.894 283.62 129.378 284.166 128.706 284.55C128.034 284.934 127.26 285.126 126.384 285.126ZM126.366 283.686C127.206 283.686 127.848 283.41 128.292 282.858C128.736 282.306 128.958 281.496 128.958 280.428C128.958 279.384 128.73 278.58 128.274 278.016C127.83 277.452 127.2 277.17 126.384 277.17C125.556 277.17 124.914 277.452 124.458 278.016C124.002 278.58 123.774 279.384 123.774 280.428C123.774 281.496 123.996 282.306 124.44 282.858C124.896 283.41 125.538 283.686 126.366 283.686ZM143.287 275.712C145.303 275.712 146.311 276.924 146.311 279.348V285H144.493V279.438C144.493 278.658 144.355 278.088 144.079 277.728C143.815 277.368 143.383 277.188 142.783 277.188C142.087 277.188 141.535 277.428 141.127 277.908C140.731 278.388 140.533 279.042 140.533 279.87V285H138.715V279.438C138.715 278.658 138.577 278.088 138.301 277.728C138.037 277.368 137.605 277.188 137.005 277.188C136.309 277.188 135.757 277.428 135.349 277.908C134.941 278.388 134.737 279.042 134.737 279.87V285H132.937V278.484C132.937 277.536 132.889 276.684 132.793 275.928H134.485L134.647 277.44C134.911 276.888 135.289 276.462 135.781 276.162C136.273 275.862 136.849 275.712 137.509 275.712C138.913 275.712 139.831 276.294 140.263 277.458C140.539 276.918 140.941 276.492 141.469 276.18C142.009 275.868 142.615 275.712 143.287 275.712ZM159.266 275.712C161.282 275.712 162.29 276.924 162.29 279.348V285H160.472V279.438C160.472 278.658 160.334 278.088 160.058 277.728C159.794 277.368 159.362 277.188 158.762 277.188C158.066 277.188 157.514 277.428 157.106 277.908C156.71 278.388 156.512 279.042 156.512 279.87V285H154.694V279.438C154.694 278.658 154.556 278.088 154.28 277.728C154.016 277.368 153.584 277.188 152.984 277.188C152.288 277.188 151.736 277.428 151.328 277.908C150.92 278.388 150.716 279.042 150.716 279.87V285H148.916V278.484C148.916 277.536 148.868 276.684 148.772 275.928H150.464L150.626 277.44C150.89 276.888 151.268 276.462 151.76 276.162C152.252 275.862 152.828 275.712 153.488 275.712C154.892 275.712 155.81 276.294 156.242 277.458C156.518 276.918 156.92 276.492 157.448 276.18C157.988 275.868 158.594 275.712 159.266 275.712ZM172.635 280.5H166.155C166.215 282.624 167.181 283.686 169.053 283.686C170.097 283.686 171.051 283.344 171.915 282.66L172.473 283.956C172.065 284.316 171.543 284.604 170.907 284.82C170.283 285.024 169.653 285.126 169.017 285.126C167.565 285.126 166.425 284.712 165.597 283.884C164.769 283.044 164.355 281.898 164.355 280.446C164.355 279.522 164.535 278.7 164.895 277.98C165.267 277.26 165.783 276.702 166.443 276.306C167.103 275.91 167.853 275.712 168.693 275.712C169.917 275.712 170.877 276.108 171.573 276.9C172.281 277.692 172.635 278.79 172.635 280.194V280.5ZM168.729 277.062C168.045 277.062 167.487 277.266 167.055 277.674C166.623 278.082 166.347 278.664 166.227 279.42H171.033C170.961 278.652 170.727 278.07 170.331 277.674C169.935 277.266 169.401 277.062 168.729 277.062ZM179.545 275.712C181.717 275.712 182.803 276.924 182.803 279.348V285H180.985V279.456C180.985 278.664 180.829 278.088 180.517 277.728C180.217 277.368 179.731 277.188 179.059 277.188C178.291 277.188 177.673 277.428 177.205 277.908C176.749 278.388 176.521 279.03 176.521 279.834V285H174.721V278.484C174.721 277.536 174.673 276.684 174.577 275.928H176.269L176.431 277.494C176.719 276.918 177.133 276.48 177.673 276.18C178.225 275.868 178.849 275.712 179.545 275.712ZM193.689 271.752V285H191.889V283.452C191.625 283.992 191.229 284.406 190.701 284.694C190.185 284.982 189.579 285.126 188.883 285.126C188.103 285.126 187.407 284.928 186.795 284.532C186.183 284.136 185.703 283.584 185.355 282.876C185.019 282.156 184.851 281.328 184.851 280.392C184.851 279.456 185.019 278.634 185.355 277.926C185.691 277.218 186.159 276.672 186.759 276.288C187.371 275.904 188.079 275.712 188.883 275.712C189.567 275.712 190.167 275.856 190.683 276.144C191.211 276.432 191.607 276.84 191.871 277.368V271.752H193.689ZM189.297 283.686C190.125 283.686 190.761 283.404 191.205 282.84C191.661 282.264 191.889 281.46 191.889 280.428C191.889 279.396 191.661 278.598 191.205 278.034C190.761 277.458 190.131 277.17 189.315 277.17C188.487 277.17 187.839 277.452 187.371 278.016C186.915 278.58 186.687 279.372 186.687 280.392C186.687 281.424 186.915 282.234 187.371 282.822C187.839 283.398 188.481 283.686 189.297 283.686ZM204.099 280.5H197.619C197.679 282.624 198.645 283.686 200.517 283.686C201.561 283.686 202.515 283.344 203.379 282.66L203.937 283.956C203.529 284.316 203.007 284.604 202.371 284.82C201.747 285.024 201.117 285.126 200.481 285.126C199.029 285.126 197.889 284.712 197.061 283.884C196.233 283.044 195.819 281.898 195.819 280.446C195.819 279.522 195.999 278.7 196.359 277.98C196.731 277.26 197.247 276.702 197.907 276.306C198.567 275.91 199.317 275.712 200.157 275.712C201.381 275.712 202.341 276.108 203.037 276.9C203.745 277.692 204.099 278.79 204.099 280.194V280.5ZM200.193 277.062C199.509 277.062 198.951 277.266 198.519 277.674C198.087 278.082 197.811 278.664 197.691 279.42H202.497C202.425 278.652 202.191 278.07 201.795 277.674C201.399 277.266 200.865 277.062 200.193 277.062ZM214.484 271.752V285H212.684V283.452C212.42 283.992 212.024 284.406 211.496 284.694C210.98 284.982 210.374 285.126 209.678 285.126C208.898 285.126 208.202 284.928 207.59 284.532C206.978 284.136 206.498 283.584 206.15 282.876C205.814 282.156 205.646 281.328 205.646 280.392C205.646 279.456 205.814 278.634 206.15 277.926C206.486 277.218 206.954 276.672 207.554 276.288C208.166 275.904 208.874 275.712 209.678 275.712C210.362 275.712 210.962 275.856 211.478 276.144C212.006 276.432 212.402 276.84 212.666 277.368V271.752H214.484ZM210.092 283.686C210.92 283.686 211.556 283.404 212 282.84C212.456 282.264 212.684 281.46 212.684 280.428C212.684 279.396 212.456 278.598 212 278.034C211.556 277.458 210.926 277.17 210.11 277.17C209.282 277.17 208.634 277.452 208.166 278.016C207.71 278.58 207.482 279.372 207.482 280.392C207.482 281.424 207.71 282.234 208.166 282.822C208.634 283.398 209.276 283.686 210.092 283.686ZM226.309 285.144C225.313 285.144 224.401 285.012 223.573 284.748C222.757 284.484 222.049 284.088 221.449 283.56L222.115 282.192C222.739 282.696 223.387 283.062 224.059 283.29C224.731 283.518 225.487 283.632 226.327 283.632C227.287 283.632 228.031 283.452 228.559 283.092C229.087 282.732 229.351 282.222 229.351 281.562C229.351 281.01 229.105 280.596 228.613 280.32C228.121 280.032 227.341 279.768 226.273 279.528C225.253 279.312 224.419 279.066 223.771 278.79C223.123 278.502 222.613 278.124 222.241 277.656C221.869 277.176 221.683 276.564 221.683 275.82C221.683 275.076 221.881 274.422 222.277 273.858C222.673 273.282 223.231 272.838 223.951 272.526C224.683 272.202 225.523 272.04 226.471 272.04C227.371 272.04 228.211 272.178 228.991 272.454C229.783 272.73 230.443 273.12 230.971 273.624L230.305 274.992C229.717 274.5 229.111 274.14 228.487 273.912C227.863 273.672 227.197 273.552 226.489 273.552C225.565 273.552 224.839 273.75 224.311 274.146C223.783 274.53 223.519 275.058 223.519 275.73C223.519 276.306 223.747 276.744 224.203 277.044C224.671 277.344 225.415 277.614 226.435 277.854C227.503 278.094 228.367 278.346 229.027 278.61C229.687 278.874 230.215 279.234 230.611 279.69C231.007 280.146 231.205 280.734 231.205 281.454C231.205 282.198 231.007 282.846 230.611 283.398C230.215 283.95 229.645 284.382 228.901 284.694C228.169 284.994 227.305 285.144 226.309 285.144ZM237.25 285.126C236.362 285.126 235.582 284.934 234.91 284.55C234.238 284.166 233.716 283.62 233.344 282.912C232.984 282.204 232.804 281.376 232.804 280.428C232.804 279.48 232.984 278.652 233.344 277.944C233.716 277.224 234.238 276.672 234.91 276.288C235.582 275.904 236.362 275.712 237.25 275.712C238.126 275.712 238.9 275.904 239.572 276.288C240.244 276.672 240.76 277.224 241.12 277.944C241.492 278.652 241.678 279.48 241.678 280.428C241.678 281.376 241.492 282.204 241.12 282.912C240.76 283.62 240.244 284.166 239.572 284.55C238.9 284.934 238.126 285.126 237.25 285.126ZM237.232 283.686C238.072 283.686 238.714 283.41 239.158 282.858C239.602 282.306 239.824 281.496 239.824 280.428C239.824 279.384 239.596 278.58 239.14 278.016C238.696 277.452 238.066 277.17 237.25 277.17C236.422 277.17 235.78 277.452 235.324 278.016C234.868 278.58 234.64 279.384 234.64 280.428C234.64 281.496 234.862 282.306 235.306 282.858C235.762 283.41 236.404 283.686 237.232 283.686ZM248.627 275.712C250.799 275.712 251.885 276.924 251.885 279.348V285H250.067V279.456C250.067 278.664 249.911 278.088 249.599 277.728C249.299 277.368 248.813 277.188 248.141 277.188C247.373 277.188 246.755 277.428 246.287 277.908C245.831 278.388 245.603 279.03 245.603 279.834V285H243.803V278.484C243.803 277.536 243.755 276.684 243.659 275.928H245.351L245.513 277.494C245.801 276.918 246.215 276.48 246.755 276.18C247.307 275.868 247.931 275.712 248.627 275.712ZM262.843 275.928V284.838C262.843 286.218 262.477 287.256 261.745 287.952C261.025 288.66 259.951 289.014 258.523 289.014C257.143 289.014 255.937 288.714 254.905 288.114L255.211 286.692C255.775 286.992 256.315 287.214 256.831 287.358C257.359 287.502 257.917 287.574 258.505 287.574C260.197 287.574 261.043 286.71 261.043 284.982V283.02C260.767 283.548 260.365 283.968 259.837 284.28C259.309 284.58 258.697 284.73 258.001 284.73C257.209 284.73 256.501 284.544 255.877 284.172C255.265 283.8 254.785 283.272 254.437 282.588C254.101 281.904 253.933 281.118 253.933 280.23C253.933 279.342 254.101 278.556 254.437 277.872C254.785 277.188 255.265 276.66 255.877 276.288C256.501 275.904 257.209 275.712 258.001 275.712C258.697 275.712 259.309 275.862 259.837 276.162C260.365 276.45 260.767 276.864 261.043 277.404V275.928H262.843ZM258.415 283.272C259.231 283.272 259.873 283.002 260.341 282.462C260.809 281.922 261.043 281.178 261.043 280.23C261.043 279.282 260.809 278.538 260.341 277.998C259.885 277.446 259.243 277.17 258.415 277.17C257.599 277.17 256.951 277.446 256.471 277.998C256.003 278.538 255.769 279.282 255.769 280.23C255.769 281.166 256.003 281.91 256.471 282.462C256.951 283.002 257.599 283.272 258.415 283.272ZM268.68 285.126C267.096 285.126 265.848 284.742 264.936 283.974L265.476 282.66C266.424 283.38 267.51 283.74 268.734 283.74C269.358 283.74 269.832 283.638 270.156 283.434C270.48 283.218 270.642 282.918 270.642 282.534C270.642 282.21 270.528 281.958 270.3 281.778C270.084 281.586 269.712 281.424 269.184 281.292L267.672 280.932C266.88 280.764 266.274 280.47 265.854 280.05C265.446 279.618 265.242 279.084 265.242 278.448C265.242 277.632 265.566 276.972 266.214 276.468C266.874 275.964 267.744 275.712 268.824 275.712C269.472 275.712 270.084 275.814 270.66 276.018C271.248 276.222 271.746 276.51 272.154 276.882L271.596 278.16C270.72 277.464 269.796 277.116 268.824 277.116C268.236 277.116 267.78 277.23 267.456 277.458C267.132 277.674 266.97 277.98 266.97 278.376C266.97 278.688 267.072 278.94 267.276 279.132C267.48 279.324 267.804 279.474 268.248 279.582L269.796 279.96C270.66 280.152 271.296 280.458 271.704 280.878C272.124 281.286 272.334 281.82 272.334 282.48C272.334 283.296 272.004 283.944 271.344 284.424C270.696 284.892 269.808 285.126 268.68 285.126Z" fill="#3C3C43" fill-opacity="0.6"/>
<path d="M83.278 312.42H88.516V313.896H83.278V312.42ZM91.2811 305.184H96.6091C97.9531 305.184 98.9971 305.514 99.7411 306.174C100.497 306.822 100.875 307.71 100.875 308.838C100.875 309.966 100.491 310.86 99.7231 311.52C98.9671 312.168 97.9291 312.492 96.6091 312.492H93.1351V318H91.2811V305.184ZM96.3931 311.016C97.2811 311.016 97.9471 310.83 98.3911 310.458C98.8471 310.086 99.0751 309.546 99.0751 308.838C99.0751 308.142 98.8471 307.608 98.3911 307.236C97.9471 306.864 97.2811 306.678 96.3931 306.678H93.1351V311.016H96.3931ZM106.574 318.126C105.686 318.126 104.906 317.934 104.234 317.55C103.562 317.166 103.04 316.62 102.668 315.912C102.308 315.204 102.128 314.376 102.128 313.428C102.128 312.48 102.308 311.652 102.668 310.944C103.04 310.224 103.562 309.672 104.234 309.288C104.906 308.904 105.686 308.712 106.574 308.712C107.45 308.712 108.224 308.904 108.896 309.288C109.568 309.672 110.084 310.224 110.444 310.944C110.816 311.652 111.002 312.48 111.002 313.428C111.002 314.376 110.816 315.204 110.444 315.912C110.084 316.62 109.568 317.166 108.896 317.55C108.224 317.934 107.45 318.126 106.574 318.126ZM106.556 316.686C107.396 316.686 108.038 316.41 108.482 315.858C108.926 315.306 109.148 314.496 109.148 313.428C109.148 312.384 108.92 311.58 108.464 311.016C108.02 310.452 107.39 310.17 106.574 310.17C105.746 310.17 105.104 310.452 104.648 311.016C104.192 311.58 103.964 312.384 103.964 313.428C103.964 314.496 104.186 315.306 104.63 315.858C105.086 316.41 105.728 316.686 106.556 316.686ZM117.933 308.712C118.713 308.712 119.409 308.91 120.021 309.306C120.633 309.702 121.107 310.26 121.443 310.98C121.791 311.7 121.965 312.528 121.965 313.464C121.965 314.4 121.797 315.222 121.461 315.93C121.125 316.626 120.651 317.166 120.039 317.55C119.427 317.934 118.725 318.126 117.933 318.126C117.237 318.126 116.625 317.982 116.097 317.694C115.581 317.394 115.191 316.968 114.927 316.416V321.888H113.127V311.484C113.127 310.536 113.079 309.684 112.983 308.928H114.675L114.855 310.602C115.095 310.002 115.485 309.54 116.025 309.216C116.565 308.88 117.201 308.712 117.933 308.712ZM117.519 316.686C118.335 316.686 118.971 316.404 119.427 315.84C119.883 315.276 120.111 314.484 120.111 313.464C120.111 312.432 119.883 311.628 119.427 311.052C118.971 310.464 118.335 310.17 117.519 310.17C116.679 310.17 116.037 310.452 115.593 311.016C115.149 311.58 114.927 312.384 114.927 313.428C114.927 314.472 115.149 315.276 115.593 315.84C116.049 316.404 116.691 316.686 117.519 316.686ZM131.98 308.928V318H130.216V316.488C129.928 317.016 129.532 317.424 129.028 317.712C128.524 317.988 127.954 318.126 127.318 318.126C125.134 318.126 124.042 316.914 124.042 314.49V308.928H125.842V314.472C125.842 315.216 125.992 315.768 126.292 316.128C126.604 316.476 127.072 316.65 127.696 316.65C128.44 316.65 129.034 316.41 129.478 315.93C129.934 315.45 130.162 314.814 130.162 314.022V308.928H131.98ZM134.643 304.752H136.443V318H134.643V304.752ZM147.405 308.928V318H145.605V316.452C145.341 316.992 144.945 317.406 144.417 317.694C143.901 317.982 143.295 318.126 142.599 318.126C141.795 318.126 141.087 317.934 140.475 317.55C139.875 317.166 139.407 316.626 139.071 315.93C138.735 315.222 138.567 314.4 138.567 313.464C138.567 312.528 138.735 311.7 139.071 310.98C139.419 310.26 139.899 309.702 140.511 309.306C141.123 308.91 141.819 308.712 142.599 308.712C143.295 308.712 143.901 308.862 144.417 309.162C144.933 309.45 145.329 309.864 145.605 310.404V308.928H147.405ZM143.031 316.686C143.847 316.686 144.477 316.404 144.921 315.84C145.377 315.264 145.605 314.46 145.605 313.428C145.605 312.384 145.377 311.58 144.921 311.016C144.477 310.452 143.841 310.17 143.013 310.17C142.197 310.17 141.555 310.464 141.087 311.052C140.631 311.628 140.403 312.432 140.403 313.464C140.403 314.484 140.631 315.276 141.087 315.84C141.555 316.404 142.203 316.686 143.031 316.686ZM154.594 308.712C154.87 308.712 155.158 308.754 155.458 308.838L155.422 310.494C155.098 310.374 154.744 310.314 154.36 310.314C153.532 310.314 152.908 310.566 152.488 311.07C152.08 311.562 151.876 312.186 151.876 312.942V318H150.076V311.484C150.076 310.536 150.028 309.684 149.932 308.928H151.624L151.786 310.566C152.026 309.966 152.398 309.51 152.902 309.198C153.406 308.874 153.97 308.712 154.594 308.712ZM170.229 314.832H163.749L162.381 318H160.491L166.197 305.184H167.763L173.487 318H171.597L170.229 314.832ZM169.599 313.356L166.989 307.254L164.379 313.356H169.599ZM179.502 308.712C179.778 308.712 180.066 308.754 180.366 308.838L180.33 310.494C180.006 310.374 179.652 310.314 179.268 310.314C178.44 310.314 177.816 310.566 177.396 311.07C176.988 311.562 176.784 312.186 176.784 312.942V318H174.984V311.484C174.984 310.536 174.936 309.684 174.84 308.928H176.532L176.694 310.566C176.934 309.966 177.306 309.51 177.81 309.198C178.314 308.874 178.878 308.712 179.502 308.712ZM184.866 310.332V314.886C184.866 315.51 184.998 315.954 185.262 316.218C185.538 316.47 185.916 316.596 186.396 316.596C186.708 316.596 187.026 316.548 187.35 316.452V317.928C186.954 318.06 186.504 318.126 186 318.126C185.064 318.126 184.338 317.862 183.822 317.334C183.306 316.806 183.048 316.038 183.048 315.03V310.332H181.284V308.928H183.048V306.66L184.866 306.03V308.928H187.368V310.332H184.866ZM189.047 308.928H190.847V318H189.047V308.928ZM190.991 304.968V306.876H188.885V304.968H190.991ZM196.68 318.126C195.096 318.126 193.848 317.742 192.936 316.974L193.476 315.66C194.424 316.38 195.51 316.74 196.734 316.74C197.358 316.74 197.832 316.638 198.156 316.434C198.48 316.218 198.642 315.918 198.642 315.534C198.642 315.21 198.528 314.958 198.3 314.778C198.084 314.586 197.712 314.424 197.184 314.292L195.672 313.932C194.88 313.764 194.274 313.47 193.854 313.05C193.446 312.618 193.242 312.084 193.242 311.448C193.242 310.632 193.566 309.972 194.214 309.468C194.874 308.964 195.744 308.712 196.824 308.712C197.472 308.712 198.084 308.814 198.66 309.018C199.248 309.222 199.746 309.51 200.154 309.882L199.596 311.16C198.72 310.464 197.796 310.116 196.824 310.116C196.236 310.116 195.78 310.23 195.456 310.458C195.132 310.674 194.97 310.98 194.97 311.376C194.97 311.688 195.072 311.94 195.276 312.132C195.48 312.324 195.804 312.474 196.248 312.582L197.796 312.96C198.66 313.152 199.296 313.458 199.704 313.878C200.124 314.286 200.334 314.82 200.334 315.48C200.334 316.296 200.004 316.944 199.344 317.424C198.696 317.892 197.808 318.126 196.68 318.126ZM204.747 310.332V314.886C204.747 315.51 204.879 315.954 205.143 316.218C205.419 316.47 205.797 316.596 206.277 316.596C206.589 316.596 206.907 316.548 207.231 316.452V317.928C206.835 318.06 206.385 318.126 205.881 318.126C204.945 318.126 204.219 317.862 203.703 317.334C203.187 316.806 202.929 316.038 202.929 315.03V310.332H201.165V308.928H202.929V306.66L204.747 306.03V308.928H207.249V310.332H204.747ZM212.096 318.126C210.512 318.126 209.264 317.742 208.352 316.974L208.892 315.66C209.84 316.38 210.926 316.74 212.15 316.74C212.774 316.74 213.248 316.638 213.572 316.434C213.896 316.218 214.058 315.918 214.058 315.534C214.058 315.21 213.944 314.958 213.716 314.778C213.5 314.586 213.128 314.424 212.6 314.292L211.088 313.932C210.296 313.764 209.69 313.47 209.27 313.05C208.862 312.618 208.658 312.084 208.658 311.448C208.658 310.632 208.982 309.972 209.63 309.468C210.29 308.964 211.16 308.712 212.24 308.712C212.888 308.712 213.5 308.814 214.076 309.018C214.664 309.222 215.162 309.51 215.57 309.882L215.012 311.16C214.136 310.464 213.212 310.116 212.24 310.116C211.652 310.116 211.196 310.23 210.872 310.458C210.548 310.674 210.386 310.98 210.386 311.376C210.386 311.688 210.488 311.94 210.692 312.132C210.896 312.324 211.22 312.474 211.664 312.582L213.212 312.96C214.076 313.152 214.712 313.458 215.12 313.878C215.54 314.286 215.75 314.82 215.75 315.48C215.75 316.296 215.42 316.944 214.76 317.424C214.112 317.892 213.224 318.126 212.096 318.126Z" fill="#3C3C43" fill-opacity="0.6"/>
<path d="M83.278 345.42H88.516V346.896H83.278V345.42ZM91.2811 338.184H96.6091C97.9531 338.184 98.9971 338.514 99.7411 339.174C100.497 339.822 100.875 340.71 100.875 341.838C100.875 342.966 100.491 343.86 99.7231 344.52C98.9671 345.168 97.9291 345.492 96.6091 345.492H93.1351V351H91.2811V338.184ZM96.3931 344.016C97.2811 344.016 97.9471 343.83 98.3911 343.458C98.8471 343.086 99.0751 342.546 99.0751 341.838C99.0751 341.142 98.8471 340.608 98.3911 340.236C97.9471 339.864 97.2811 339.678 96.3931 339.678H93.1351V344.016H96.3931ZM106.574 351.126C105.686 351.126 104.906 350.934 104.234 350.55C103.562 350.166 103.04 349.62 102.668 348.912C102.308 348.204 102.128 347.376 102.128 346.428C102.128 345.48 102.308 344.652 102.668 343.944C103.04 343.224 103.562 342.672 104.234 342.288C104.906 341.904 105.686 341.712 106.574 341.712C107.45 341.712 108.224 341.904 108.896 342.288C109.568 342.672 110.084 343.224 110.444 343.944C110.816 344.652 111.002 345.48 111.002 346.428C111.002 347.376 110.816 348.204 110.444 348.912C110.084 349.62 109.568 350.166 108.896 350.55C108.224 350.934 107.45 351.126 106.574 351.126ZM106.556 349.686C107.396 349.686 108.038 349.41 108.482 348.858C108.926 348.306 109.148 347.496 109.148 346.428C109.148 345.384 108.92 344.58 108.464 344.016C108.02 343.452 107.39 343.17 106.574 343.17C105.746 343.17 105.104 343.452 104.648 344.016C104.192 344.58 103.964 345.384 103.964 346.428C103.964 347.496 104.186 348.306 104.63 348.858C105.086 349.41 105.728 349.686 106.556 349.686ZM117.933 341.712C118.713 341.712 119.409 341.91 120.021 342.306C120.633 342.702 121.107 343.26 121.443 343.98C121.791 344.7 121.965 345.528 121.965 346.464C121.965 347.4 121.797 348.222 121.461 348.93C121.125 349.626 120.651 350.166 120.039 350.55C119.427 350.934 118.725 351.126 117.933 351.126C117.237 351.126 116.625 350.982 116.097 350.694C115.581 350.394 115.191 349.968 114.927 349.416V354.888H113.127V344.484C113.127 343.536 113.079 342.684 112.983 341.928H114.675L114.855 343.602C115.095 343.002 115.485 342.54 116.025 342.216C116.565 341.88 117.201 341.712 117.933 341.712ZM117.519 349.686C118.335 349.686 118.971 349.404 119.427 348.84C119.883 348.276 120.111 347.484 120.111 346.464C120.111 345.432 119.883 344.628 119.427 344.052C118.971 343.464 118.335 343.17 117.519 343.17C116.679 343.17 116.037 343.452 115.593 344.016C115.149 344.58 114.927 345.384 114.927 346.428C114.927 347.472 115.149 348.276 115.593 348.84C116.049 349.404 116.691 349.686 117.519 349.686ZM131.98 341.928V351H130.216V349.488C129.928 350.016 129.532 350.424 129.028 350.712C128.524 350.988 127.954 351.126 127.318 351.126C125.134 351.126 124.042 349.914 124.042 347.49V341.928H125.842V347.472C125.842 348.216 125.992 348.768 126.292 349.128C126.604 349.476 127.072 349.65 127.696 349.65C128.44 349.65 129.034 349.41 129.478 348.93C129.934 348.45 130.162 347.814 130.162 347.022V341.928H131.98ZM134.643 337.752H136.443V351H134.643V337.752ZM147.405 341.928V351H145.605V349.452C145.341 349.992 144.945 350.406 144.417 350.694C143.901 350.982 143.295 351.126 142.599 351.126C141.795 351.126 141.087 350.934 140.475 350.55C139.875 350.166 139.407 349.626 139.071 348.93C138.735 348.222 138.567 347.4 138.567 346.464C138.567 345.528 138.735 344.7 139.071 343.98C139.419 343.26 139.899 342.702 140.511 342.306C141.123 341.91 141.819 341.712 142.599 341.712C143.295 341.712 143.901 341.862 144.417 342.162C144.933 342.45 145.329 342.864 145.605 343.404V341.928H147.405ZM143.031 349.686C143.847 349.686 144.477 349.404 144.921 348.84C145.377 348.264 145.605 347.46 145.605 346.428C145.605 345.384 145.377 344.58 144.921 344.016C144.477 343.452 143.841 343.17 143.013 343.17C142.197 343.17 141.555 343.464 141.087 344.052C140.631 344.628 140.403 345.432 140.403 346.464C140.403 347.484 140.631 348.276 141.087 348.84C141.555 349.404 142.203 349.686 143.031 349.686ZM154.594 341.712C154.87 341.712 155.158 341.754 155.458 341.838L155.422 343.494C155.098 343.374 154.744 343.314 154.36 343.314C153.532 343.314 152.908 343.566 152.488 344.07C152.08 344.562 151.876 345.186 151.876 345.942V351H150.076V344.484C150.076 343.536 150.028 342.684 149.932 341.928H151.624L151.786 343.566C152.026 342.966 152.398 342.51 152.902 342.198C153.406 341.874 153.97 341.712 154.594 341.712ZM170.229 347.832H163.749L162.381 351H160.491L166.197 338.184H167.763L173.487 351H171.597L170.229 347.832ZM169.599 346.356L166.989 340.254L164.379 346.356H169.599ZM174.984 337.752H176.784V351H174.984V337.752ZM184.255 341.712C185.047 341.712 185.749 341.904 186.361 342.288C186.973 342.672 187.447 343.218 187.783 343.926C188.119 344.634 188.287 345.456 188.287 346.392C188.287 347.328 188.113 348.156 187.765 348.876C187.429 349.584 186.955 350.136 186.343 350.532C185.731 350.928 185.035 351.126 184.255 351.126C183.559 351.126 182.947 350.982 182.419 350.694C181.903 350.394 181.513 349.968 181.249 349.416V351H179.449V337.752H181.249V343.422C181.513 342.882 181.903 342.462 182.419 342.162C182.947 341.862 183.559 341.712 184.255 341.712ZM183.841 349.686C184.657 349.686 185.293 349.398 185.749 348.822C186.205 348.234 186.433 347.424 186.433 346.392C186.433 345.372 186.205 344.58 185.749 344.016C185.293 343.452 184.657 343.17 183.841 343.17C183.013 343.17 182.371 343.452 181.915 344.016C181.471 344.58 181.249 345.384 181.249 346.428C181.249 347.472 181.471 348.276 181.915 348.84C182.371 349.404 183.013 349.686 183.841 349.686ZM198.302 341.928V351H196.538V349.488C196.25 350.016 195.854 350.424 195.35 350.712C194.846 350.988 194.276 351.126 193.64 351.126C191.456 351.126 190.364 349.914 190.364 347.49V341.928H192.164V347.472C192.164 348.216 192.314 348.768 192.614 349.128C192.926 349.476 193.394 349.65 194.018 349.65C194.762 349.65 195.356 349.41 195.8 348.93C196.256 348.45 196.484 347.814 196.484 347.022V341.928H198.302ZM211.315 341.712C213.331 341.712 214.339 342.924 214.339 345.348V351H212.521V345.438C212.521 344.658 212.383 344.088 212.107 343.728C211.843 343.368 211.411 343.188 210.811 343.188C210.115 343.188 209.563 343.428 209.155 343.908C208.759 344.388 208.561 345.042 208.561 345.87V351H206.743V345.438C206.743 344.658 206.605 344.088 206.329 343.728C206.065 343.368 205.633 343.188 205.033 343.188C204.337 343.188 203.785 343.428 203.377 343.908C202.969 344.388 202.765 345.042 202.765 345.87V351H200.965V344.484C200.965 343.536 200.917 342.684 200.821 341.928H202.513L202.675 343.44C202.939 342.888 203.317 342.462 203.809 342.162C204.301 341.862 204.877 341.712 205.537 341.712C206.941 341.712 207.859 342.294 208.291 343.458C208.567 342.918 208.969 342.492 209.497 342.18C210.037 341.868 210.643 341.712 211.315 341.712ZM220.111 351.126C218.527 351.126 217.279 350.742 216.367 349.974L216.907 348.66C217.855 349.38 218.941 349.74 220.165 349.74C220.789 349.74 221.263 349.638 221.587 349.434C221.911 349.218 222.073 348.918 222.073 348.534C222.073 348.21 221.959 347.958 221.731 347.778C221.515 347.586 221.143 347.424 220.615 347.292L219.103 346.932C218.311 346.764 217.705 346.47 217.285 346.05C216.877 345.618 216.673 345.084 216.673 344.448C216.673 343.632 216.997 342.972 217.645 342.468C218.305 341.964 219.175 341.712 220.255 341.712C220.903 341.712 221.515 341.814 222.091 342.018C222.679 342.222 223.177 342.51 223.585 342.882L223.027 344.16C222.151 343.464 221.227 343.116 220.255 343.116C219.667 343.116 219.211 343.23 218.887 343.458C218.563 343.674 218.401 343.98 218.401 344.376C218.401 344.688 218.503 344.94 218.707 345.132C218.911 345.324 219.235 345.474 219.679 345.582L221.227 345.96C222.091 346.152 222.727 346.458 223.135 346.878C223.555 347.286 223.765 347.82 223.765 348.48C223.765 349.296 223.435 349.944 222.775 350.424C222.127 350.892 221.239 351.126 220.111 351.126Z" fill="#3C3C43" fill-opacity="0.6"/>
<path d="M83.278 378.42H88.516V379.896H83.278V378.42ZM91.2811 371.184H96.6091C97.9531 371.184 98.9971 371.514 99.7411 372.174C100.497 372.822 100.875 373.71 100.875 374.838C100.875 375.966 100.491 376.86 99.7231 377.52C98.9671 378.168 97.9291 378.492 96.6091 378.492H93.1351V384H91.2811V371.184ZM96.3931 377.016C97.2811 377.016 97.9471 376.83 98.3911 376.458C98.8471 376.086 99.0751 375.546 99.0751 374.838C99.0751 374.142 98.8471 373.608 98.3911 373.236C97.9471 372.864 97.2811 372.678 96.3931 372.678H93.1351V377.016H96.3931ZM106.574 384.126C105.686 384.126 104.906 383.934 104.234 383.55C103.562 383.166 103.04 382.62 102.668 381.912C102.308 381.204 102.128 380.376 102.128 379.428C102.128 378.48 102.308 377.652 102.668 376.944C103.04 376.224 103.562 375.672 104.234 375.288C104.906 374.904 105.686 374.712 106.574 374.712C107.45 374.712 108.224 374.904 108.896 375.288C109.568 375.672 110.084 376.224 110.444 376.944C110.816 377.652 111.002 378.48 111.002 379.428C111.002 380.376 110.816 381.204 110.444 381.912C110.084 382.62 109.568 383.166 108.896 383.55C108.224 383.934 107.45 384.126 106.574 384.126ZM106.556 382.686C107.396 382.686 108.038 382.41 108.482 381.858C108.926 381.306 109.148 380.496 109.148 379.428C109.148 378.384 108.92 377.58 108.464 377.016C108.02 376.452 107.39 376.17 106.574 376.17C105.746 376.17 105.104 376.452 104.648 377.016C104.192 377.58 103.964 378.384 103.964 379.428C103.964 380.496 104.186 381.306 104.63 381.858C105.086 382.41 105.728 382.686 106.556 382.686ZM117.933 374.712C118.713 374.712 119.409 374.91 120.021 375.306C120.633 375.702 121.107 376.26 121.443 376.98C121.791 377.7 121.965 378.528 121.965 379.464C121.965 380.4 121.797 381.222 121.461 381.93C121.125 382.626 120.651 383.166 120.039 383.55C119.427 383.934 118.725 384.126 117.933 384.126C117.237 384.126 116.625 383.982 116.097 383.694C115.581 383.394 115.191 382.968 114.927 382.416V387.888H113.127V377.484C113.127 376.536 113.079 375.684 112.983 374.928H114.675L114.855 376.602C115.095 376.002 115.485 375.54 116.025 375.216C116.565 374.88 117.201 374.712 117.933 374.712ZM117.519 382.686C118.335 382.686 118.971 382.404 119.427 381.84C119.883 381.276 120.111 380.484 120.111 379.464C120.111 378.432 119.883 377.628 119.427 377.052C118.971 376.464 118.335 376.17 117.519 376.17C116.679 376.17 116.037 376.452 115.593 377.016C115.149 377.58 114.927 378.384 114.927 379.428C114.927 380.472 115.149 381.276 115.593 381.84C116.049 382.404 116.691 382.686 117.519 382.686ZM131.98 374.928V384H130.216V382.488C129.928 383.016 129.532 383.424 129.028 383.712C128.524 383.988 127.954 384.126 127.318 384.126C125.134 384.126 124.042 382.914 124.042 380.49V374.928H125.842V380.472C125.842 381.216 125.992 381.768 126.292 382.128C126.604 382.476 127.072 382.65 127.696 382.65C128.44 382.65 129.034 382.41 129.478 381.93C129.934 381.45 130.162 380.814 130.162 380.022V374.928H131.98ZM134.643 370.752H136.443V384H134.643V370.752ZM147.405 374.928V384H145.605V382.452C145.341 382.992 144.945 383.406 144.417 383.694C143.901 383.982 143.295 384.126 142.599 384.126C141.795 384.126 141.087 383.934 140.475 383.55C139.875 383.166 139.407 382.626 139.071 381.93C138.735 381.222 138.567 380.4 138.567 379.464C138.567 378.528 138.735 377.7 139.071 376.98C139.419 376.26 139.899 375.702 140.511 375.306C141.123 374.91 141.819 374.712 142.599 374.712C143.295 374.712 143.901 374.862 144.417 375.162C144.933 375.45 145.329 375.864 145.605 376.404V374.928H147.405ZM143.031 382.686C143.847 382.686 144.477 382.404 144.921 381.84C145.377 381.264 145.605 380.46 145.605 379.428C145.605 378.384 145.377 377.58 144.921 377.016C144.477 376.452 143.841 376.17 143.013 376.17C142.197 376.17 141.555 376.464 141.087 377.052C140.631 377.628 140.403 378.432 140.403 379.464C140.403 380.484 140.631 381.276 141.087 381.84C141.555 382.404 142.203 382.686 143.031 382.686ZM154.594 374.712C154.87 374.712 155.158 374.754 155.458 374.838L155.422 376.494C155.098 376.374 154.744 376.314 154.36 376.314C153.532 376.314 152.908 376.566 152.488 377.07C152.08 377.562 151.876 378.186 151.876 378.942V384H150.076V377.484C150.076 376.536 150.028 375.684 149.932 374.928H151.624L151.786 376.566C152.026 375.966 152.398 375.51 152.902 375.198C153.406 374.874 153.97 374.712 154.594 374.712ZM165.999 384.144C165.003 384.144 164.091 384.012 163.263 383.748C162.447 383.484 161.739 383.088 161.139 382.56L161.805 381.192C162.429 381.696 163.077 382.062 163.749 382.29C164.421 382.518 165.177 382.632 166.017 382.632C166.977 382.632 167.721 382.452 168.249 382.092C168.777 381.732 169.041 381.222 169.041 380.562C169.041 380.01 168.795 379.596 168.303 379.32C167.811 379.032 167.031 378.768 165.963 378.528C164.943 378.312 164.109 378.066 163.461 377.79C162.813 377.502 162.303 377.124 161.931 376.656C161.559 376.176 161.373 375.564 161.373 374.82C161.373 374.076 161.571 373.422 161.967 372.858C162.363 372.282 162.921 371.838 163.641 371.526C164.373 371.202 165.213 371.04 166.161 371.04C167.061 371.04 167.901 371.178 168.681 371.454C169.473 371.73 170.133 372.12 170.661 372.624L169.995 373.992C169.407 373.5 168.801 373.14 168.177 372.912C167.553 372.672 166.887 372.552 166.179 372.552C165.255 372.552 164.529 372.75 164.001 373.146C163.473 373.53 163.209 374.058 163.209 374.73C163.209 375.306 163.437 375.744 163.893 376.044C164.361 376.344 165.105 376.614 166.125 376.854C167.193 377.094 168.057 377.346 168.717 377.61C169.377 377.874 169.905 378.234 170.301 378.69C170.697 379.146 170.895 379.734 170.895 380.454C170.895 381.198 170.697 381.846 170.301 382.398C169.905 382.95 169.335 383.382 168.591 383.694C167.859 383.994 166.995 384.144 165.999 384.144ZM176.939 384.126C176.051 384.126 175.271 383.934 174.599 383.55C173.927 383.166 173.405 382.62 173.033 381.912C172.673 381.204 172.493 380.376 172.493 379.428C172.493 378.48 172.673 377.652 173.033 376.944C173.405 376.224 173.927 375.672 174.599 375.288C175.271 374.904 176.051 374.712 176.939 374.712C177.815 374.712 178.589 374.904 179.261 375.288C179.933 375.672 180.449 376.224 180.809 376.944C181.181 377.652 181.367 378.48 181.367 379.428C181.367 380.376 181.181 381.204 180.809 381.912C180.449 382.62 179.933 383.166 179.261 383.55C178.589 383.934 177.815 384.126 176.939 384.126ZM176.921 382.686C177.761 382.686 178.403 382.41 178.847 381.858C179.291 381.306 179.513 380.496 179.513 379.428C179.513 378.384 179.285 377.58 178.829 377.016C178.385 376.452 177.755 376.17 176.939 376.17C176.111 376.17 175.469 376.452 175.013 377.016C174.557 377.58 174.329 378.384 174.329 379.428C174.329 380.496 174.551 381.306 174.995 381.858C175.451 382.41 176.093 382.686 176.921 382.686ZM188.316 374.712C190.488 374.712 191.574 375.924 191.574 378.348V384H189.756V378.456C189.756 377.664 189.6 377.088 189.288 376.728C188.988 376.368 188.502 376.188 187.83 376.188C187.062 376.188 186.444 376.428 185.976 376.908C185.52 377.388 185.292 378.03 185.292 378.834V384H183.492V377.484C183.492 376.536 183.444 375.684 183.348 374.928H185.04L185.202 376.494C185.49 375.918 185.904 375.48 186.444 375.18C186.996 374.868 187.62 374.712 188.316 374.712ZM202.532 374.928V383.838C202.532 385.218 202.166 386.256 201.434 386.952C200.714 387.66 199.64 388.014 198.212 388.014C196.832 388.014 195.626 387.714 194.594 387.114L194.9 385.692C195.464 385.992 196.004 386.214 196.52 386.358C197.048 386.502 197.606 386.574 198.194 386.574C199.886 386.574 200.732 385.71 200.732 383.982V382.02C200.456 382.548 200.054 382.968 199.526 383.28C198.998 383.58 198.386 383.73 197.69 383.73C196.898 383.73 196.19 383.544 195.566 383.172C194.954 382.8 194.474 382.272 194.126 381.588C193.79 380.904 193.622 380.118 193.622 379.23C193.622 378.342 193.79 377.556 194.126 376.872C194.474 376.188 194.954 375.66 195.566 375.288C196.19 374.904 196.898 374.712 197.69 374.712C198.386 374.712 198.998 374.862 199.526 375.162C200.054 375.45 200.456 375.864 200.732 376.404V374.928H202.532ZM198.104 382.272C198.92 382.272 199.562 382.002 200.03 381.462C200.498 380.922 200.732 380.178 200.732 379.23C200.732 378.282 200.498 377.538 200.03 376.998C199.574 376.446 198.932 376.17 198.104 376.17C197.288 376.17 196.64 376.446 196.16 376.998C195.692 377.538 195.458 378.282 195.458 379.23C195.458 380.166 195.692 380.91 196.16 381.462C196.64 382.002 197.288 382.272 198.104 382.272ZM208.369 384.126C206.785 384.126 205.537 383.742 204.625 382.974L205.165 381.66C206.113 382.38 207.199 382.74 208.423 382.74C209.047 382.74 209.521 382.638 209.845 382.434C210.169 382.218 210.331 381.918 210.331 381.534C210.331 381.21 210.217 380.958 209.989 380.778C209.773 380.586 209.401 380.424 208.873 380.292L207.361 379.932C206.569 379.764 205.963 379.47 205.543 379.05C205.135 378.618 204.931 378.084 204.931 377.448C204.931 376.632 205.255 375.972 205.903 375.468C206.563 374.964 207.433 374.712 208.513 374.712C209.161 374.712 209.773 374.814 210.349 375.018C210.937 375.222 211.435 375.51 211.843 375.882L211.285 377.16C210.409 376.464 209.485 376.116 208.513 376.116C207.925 376.116 207.469 376.23 207.145 376.458C206.821 376.674 206.659 376.98 206.659 377.376C206.659 377.688 206.761 377.94 206.965 378.132C207.169 378.324 207.493 378.474 207.937 378.582L209.485 378.96C210.349 379.152 210.985 379.458 211.393 379.878C211.813 380.286 212.023 380.82 212.023 381.48C212.023 382.296 211.693 382.944 211.033 383.424C210.385 383.892 209.497 384.126 208.369 384.126Z" fill="#3C3C43" fill-opacity="0.6"/>
<path fill-rule="evenodd" clip-rule="evenodd" d="M207.735 12.3034C208.103 11.7042 208.026 10.9282 207.489 10.4218L199.011 2.40933C198.432 1.8633 197.529 1.8633 196.951 2.40894L188.471 10.4223C187.486 11.354 188.146 13.0127 189.502 13.0127H190.962V20.5033C190.962 21.3322 191.634 22.0033 192.462 22.0033H203.499C204.328 22.0033 204.999 21.3322 204.999 20.5033V11.4783C204.999 10.6494 204.328 9.97831 203.499 9.97831H192.462C191.634 9.97831 190.962 10.6494 190.962 11.4783V12.0127H189.502C189.05 12.0127 188.83 11.4594 189.158 11.1491L197.637 3.13611C197.83 2.95412 198.131 2.95412 198.325 3.13647L206.802 11.1491C206.982 11.3183 207.009 11.5651 206.889 11.77C206.887 11.7729 206.885 11.7759 206.883 11.7789C206.792 11.926 206.644 12.0124 206.46 12.0124C206.184 12.0124 205.96 12.2363 205.96 12.5124C205.96 12.7885 206.184 13.0124 206.46 13.0124C206.991 13.0124 207.453 12.7475 207.724 12.3204C207.728 12.3149 207.731 12.3092 207.735 12.3034ZM191.962 20.5033V13.0127H197.918C198.194 13.0127 198.418 12.7888 198.418 12.5127C198.418 12.2366 198.194 12.0127 197.918 12.0127H191.962V11.4783C191.962 11.2019 192.186 10.9783 192.462 10.9783H203.499C203.776 10.9783 203.999 11.2019 203.999 11.4783V20.5033C203.999 20.7797 203.776 21.0033 203.499 21.0033H192.462C192.186 21.0033 191.962 20.7797 191.962 20.5033Z" fill="url(#paint0_linear)"/>
<defs>
<linearGradient id="paint0_linear" x1="199.697" y1="35.2615" x2="196.488" y2="22.7619" gradientUnits="userSpaceOnUse">
<stop offset="0.21875" stop-color="#969BFF"/>
<stop offset="1" stop-color="#656CEE"/>
</linearGradient>
</defs>
</svg>
