<svg width="602" height="81" viewBox="0 0 602 81" fill="none" xmlns="http://www.w3.org/2000/svg">
<g filter="url(#filter0_d)">
<path d="M15 20C15 17.2386 17.2386 15 20 15H138C140.761 15 143 17.2386 143 20V61C143 63.7614 140.761 66 138 66H20C17.2386 66 15 63.7614 15 61V20Z" fill="#FFFBF4"/>
</g>
<path d="M52.3817 34.28C53.555 34.28 54.563 34.536 55.4057 35.048C56.2484 35.56 56.883 36.2267 57.3097 37.048C57.747 37.8587 57.9657 38.712 57.9657 39.608C57.9657 41.176 57.4644 42.4613 56.4617 43.464C55.459 44.456 54.1364 44.968 52.4937 45H46.9097L46.8137 44.488C47.219 44.2107 47.6724 43.96 48.1737 43.736V35.416L47.0377 35.256L47.0537 34.408C48.6644 34.3227 50.4404 34.28 52.3817 34.28ZM52.1417 43.528C52.9844 43.528 53.6617 43.176 54.1737 42.472C54.6857 41.7573 54.9417 40.8507 54.9417 39.752C54.9417 38.9093 54.771 38.1093 54.4297 37.352C54.099 36.5947 53.651 36.0347 53.0857 35.672L51.0697 35.912V43.368C51.4324 43.4747 51.7897 43.528 52.1417 43.528ZM60.7479 36.184C60.0119 35.8533 59.3773 35.368 58.8439 34.728C59.2706 33.9067 59.7986 33.2667 60.4279 32.808C61.1426 33.1813 61.7453 33.7253 62.2359 34.44C61.8839 35.144 61.3879 35.7253 60.7479 36.184ZM61.9799 43.656C62.4493 43.816 62.8333 44.0027 63.1319 44.216L63.0999 45H58.0279L57.9959 44.44C58.3693 44.2267 58.7746 44.0453 59.2119 43.896V38.616L58.0279 38.392L57.9479 37.624C58.8973 37.2613 59.9533 37.064 61.1159 37.032L61.9799 37.8V43.656ZM66.3756 38.904C66.3756 39.096 66.4449 39.272 66.5836 39.432C66.7222 39.5813 67.2182 39.88 68.0716 40.328C68.9249 40.7653 69.5009 41.176 69.7996 41.56C70.0982 41.9333 70.2476 42.36 70.2476 42.84C70.2476 43.5653 69.9489 44.1627 69.3516 44.632C68.7542 45.0907 67.9596 45.32 66.9676 45.32C65.8476 45.32 64.7329 45.032 63.6236 44.456L64.5356 42.36C65.4636 43.0747 66.4236 43.608 67.4156 43.96C67.6076 43.7893 67.7036 43.592 67.7036 43.368C67.7036 43.1653 67.6236 42.984 67.4636 42.824C67.3142 42.664 66.8236 42.376 65.9916 41.96C65.1702 41.5333 64.6102 41.1387 64.3116 40.776C64.0236 40.4027 63.8796 39.9813 63.8796 39.512C63.8796 38.7653 64.2049 38.1627 64.8556 37.704C65.5169 37.2347 66.3702 37 67.4156 37C68.3862 37 69.2129 37.176 69.8956 37.528L69.9276 38.088C69.9276 38.6427 69.8369 39.2027 69.6556 39.768H68.2476L67.7516 38.312L67.0156 38.232C66.5889 38.36 66.3756 38.584 66.3756 38.904ZM75.5913 45.208L74.8873 45.256C73.7353 45.256 72.7753 44.8773 72.0073 44.12C71.25 43.352 70.8713 42.3707 70.8713 41.176C70.8713 39.9707 71.2553 38.9733 72.0233 38.184C72.7913 37.3947 73.7566 37 74.9193 37C75.666 37 76.3326 37.1813 76.9193 37.544C77.506 37.896 77.9006 38.408 78.1033 39.08L75.9113 40.312C75.4526 39.4053 74.9193 38.7867 74.3113 38.456C73.7993 39.0107 73.5433 39.7787 73.5433 40.76C73.5433 41.56 73.7353 42.2107 74.1193 42.712C74.514 43.2133 75.0686 43.464 75.7833 43.464C76.2846 43.464 76.866 43.304 77.5273 42.984L77.9113 43.864L75.5913 45.208ZM78.2776 41.112C78.2776 39.9067 78.6562 38.92 79.4136 38.152C80.1709 37.384 81.1309 37 82.2936 37C83.4562 37 84.4109 37.3893 85.1576 38.168C85.9042 38.9467 86.2776 39.9547 86.2776 41.192C86.2776 42.4187 85.9096 43.416 85.1736 44.184C84.4482 44.9413 83.5096 45.32 82.3576 45.32C81.1842 45.32 80.2082 44.9253 79.4296 44.136C78.6616 43.336 78.2776 42.328 78.2776 41.112ZM82.8856 43.8C83.2802 43.5013 83.4776 42.6907 83.4776 41.368C83.4776 39.48 83.0456 38.536 82.1816 38.536C81.9149 38.536 81.7069 38.5947 81.5576 38.712C81.2376 39.1387 81.0776 39.9493 81.0776 41.144C81.0776 41.9547 81.1896 42.616 81.4136 43.128C81.6376 43.6293 81.9789 43.88 82.4376 43.88C82.5869 43.88 82.7362 43.8533 82.8856 43.8ZM95.1706 38.12L94.3866 38.568L92.4666 43.416L91.8106 44.952C91.4266 45.0693 90.8826 45.128 90.1786 45.128C89.7412 45.128 89.4106 45.1067 89.1866 45.064L86.8826 38.792L85.8586 38.216L85.8746 37.336H89.3626L90.6266 41.384L90.8506 42.6H91.0746C91.4052 40.872 91.6826 39.1173 91.9066 37.336H95.1226L95.1706 38.12ZM101.621 41.336L97.5887 41.304C97.6634 41.9973 97.9087 42.5307 98.3247 42.904C98.7514 43.2773 99.2847 43.464 99.9247 43.464C100.49 43.464 101.167 43.2613 101.957 42.856L102.357 43.768L99.8447 45.192L99.1087 45.24C97.9247 45.24 96.938 44.8667 96.1487 44.12C95.37 43.3733 94.9807 42.4187 94.9807 41.256C94.9807 40.072 95.3754 39.0693 96.1647 38.248C96.9647 37.416 97.93 37 99.0607 37C100.095 37 100.938 37.3147 101.589 37.944C102.239 38.5627 102.559 39.384 102.549 40.408L101.621 41.336ZM98.6287 38.328C98.1167 38.648 97.7914 39.2347 97.6527 40.088L100.053 39.944C99.9887 39.5067 99.8234 39.1333 99.5567 38.824C99.3007 38.504 98.9914 38.3387 98.6287 38.328ZM106.841 39.752V43.544C107.555 43.7147 108.137 43.9387 108.585 44.216L108.553 45H102.921L102.889 44.44C103.219 44.248 103.614 44.072 104.073 43.912V38.616L102.889 38.392L102.809 37.624C103.758 37.2613 104.814 37.064 105.977 37.032L106.841 38.232V38.52L108.105 37.096C108.265 37.0427 108.467 37.016 108.713 37.016C109.139 37.016 109.529 37.1227 109.881 37.336C110.243 37.5493 110.494 37.848 110.633 38.232L108.793 40.552C108.078 39.9547 107.507 39.6293 107.081 39.576L106.841 39.752Z" fill="#70685B"/>
<g filter="url(#filter1_d)">
<path d="M163 20C163 17.2386 165.239 15 168 15H286C288.761 15 291 17.2386 291 20V61C291 63.7614 288.761 66 286 66H168C165.239 66 163 63.7614 163 61V20Z" fill="#FFFBF4"/>
</g>
<path d="M207.655 34.28C208.828 34.28 209.836 34.536 210.679 35.048C211.522 35.56 212.156 36.2267 212.583 37.048C213.02 37.8587 213.239 38.712 213.239 39.608C213.239 41.176 212.738 42.4613 211.735 43.464C210.732 44.456 209.41 44.968 207.767 45H202.183L202.087 44.488C202.492 44.2107 202.946 43.96 203.447 43.736V35.416L202.311 35.256L202.327 34.408C203.938 34.3227 205.714 34.28 207.655 34.28ZM207.415 43.528C208.258 43.528 208.935 43.176 209.447 42.472C209.959 41.7573 210.215 40.8507 210.215 39.752C210.215 38.9093 210.044 38.1093 209.703 37.352C209.372 36.5947 208.924 36.0347 208.359 35.672L206.343 35.912V43.368C206.706 43.4747 207.063 43.528 207.415 43.528ZM220.238 41.336L216.206 41.304C216.281 41.9973 216.526 42.5307 216.942 42.904C217.369 43.2773 217.902 43.464 218.542 43.464C219.107 43.464 219.785 43.2613 220.574 42.856L220.974 43.768L218.462 45.192L217.726 45.24C216.542 45.24 215.555 44.8667 214.766 44.12C213.987 43.3733 213.598 42.4187 213.598 41.256C213.598 40.072 213.993 39.0693 214.782 38.248C215.582 37.416 216.547 37 217.678 37C218.713 37 219.555 37.3147 220.206 37.944C220.857 38.5627 221.177 39.384 221.166 40.408L220.238 41.336ZM217.246 38.328C216.734 38.648 216.409 39.2347 216.27 40.088L218.67 39.944C218.606 39.5067 218.441 39.1333 218.174 38.824C217.918 38.504 217.609 38.3387 217.246 38.328ZM225.518 39.24V43.592C226.051 43.7413 226.537 43.9493 226.974 44.216L226.942 45H221.71L221.678 44.44C221.977 44.2587 222.329 44.0987 222.734 43.96V39.224L221.55 39.24L221.518 38.36L222.734 37.656V36.472C222.734 35.48 223.049 34.6533 223.678 33.992C224.307 33.32 225.081 32.984 225.998 32.984C226.83 32.984 227.625 33.2453 228.382 33.768L226.942 36.184C226.259 35.512 225.454 35.032 224.526 34.744L225.502 37.432H227.294L227.326 38.216L226.51 39.24H225.518ZM230.494 36.184C229.758 35.8533 229.123 35.368 228.59 34.728C229.017 33.9067 229.545 33.2667 230.174 32.808C230.889 33.1813 231.491 33.7253 231.982 34.44C231.63 35.144 231.134 35.7253 230.494 36.184ZM231.726 43.656C232.195 43.816 232.579 44.0027 232.878 44.216L232.846 45H227.774L227.742 44.44C228.115 44.2267 228.521 44.0453 228.958 43.896V38.616L227.774 38.392L227.694 37.624C228.643 37.2613 229.699 37.064 230.862 37.032L231.726 37.8V43.656ZM242.165 43.656C242.634 43.816 243.018 44.0027 243.317 44.216L243.269 45H239.397V40.568C239.397 39.4907 239.056 38.952 238.373 38.952C238.064 38.952 237.717 39.048 237.333 39.24V43.704C237.717 43.8747 238.026 44.0453 238.261 44.216L238.229 45H233.413L233.381 44.44C233.712 44.248 234.106 44.072 234.565 43.912V38.616L233.381 38.392L233.301 37.624C234.25 37.2613 235.306 37.064 236.469 37.032L237.333 37.896V38.408C238.197 37.7573 239.002 37.3147 239.749 37.08C240.752 37.112 241.493 37.496 241.973 38.232C242.09 38.4453 242.154 38.9307 242.165 39.688V43.656ZM250.113 41.336L246.081 41.304C246.156 41.9973 246.401 42.5307 246.817 42.904C247.244 43.2773 247.777 43.464 248.417 43.464C248.982 43.464 249.66 43.2613 250.449 42.856L250.849 43.768L248.337 45.192L247.601 45.24C246.417 45.24 245.43 44.8667 244.641 44.12C243.862 43.3733 243.473 42.4187 243.473 41.256C243.473 40.072 243.868 39.0693 244.657 38.248C245.457 37.416 246.422 37 247.553 37C248.588 37 249.43 37.3147 250.081 37.944C250.732 38.5627 251.052 39.384 251.041 40.408L250.113 41.336ZM247.121 38.328C246.609 38.648 246.284 39.2347 246.145 40.088L248.545 39.944C248.481 39.5067 248.316 39.1333 248.049 38.824C247.793 38.504 247.484 38.3387 247.121 38.328Z" fill="#70685B"/>
<g filter="url(#filter2_d)">
<path d="M311 20C311 17.2386 313.239 15 316 15H434C436.761 15 439 17.2386 439 20V61C439 63.7614 436.761 66 434 66H316C313.239 66 311 63.7614 311 61V20Z" fill="#FFFBF4"/>
</g>
<path d="M354.405 34.28C355.578 34.28 356.586 34.536 357.429 35.048C358.272 35.56 358.906 36.2267 359.333 37.048C359.77 37.8587 359.989 38.712 359.989 39.608C359.989 41.176 359.488 42.4613 358.485 43.464C357.482 44.456 356.16 44.968 354.517 45H348.933L348.837 44.488C349.242 44.2107 349.696 43.96 350.197 43.736V35.416L349.061 35.256L349.077 34.408C350.688 34.3227 352.464 34.28 354.405 34.28ZM354.165 43.528C355.008 43.528 355.685 43.176 356.197 42.472C356.709 41.7573 356.965 40.8507 356.965 39.752C356.965 38.9093 356.794 38.1093 356.453 37.352C356.122 36.5947 355.674 36.0347 355.109 35.672L353.093 35.912V43.368C353.456 43.4747 353.813 43.528 354.165 43.528ZM366.988 41.336L362.956 41.304C363.031 41.9973 363.276 42.5307 363.692 42.904C364.119 43.2773 364.652 43.464 365.292 43.464C365.857 43.464 366.535 43.2613 367.324 42.856L367.724 43.768L365.212 45.192L364.476 45.24C363.292 45.24 362.305 44.8667 361.516 44.12C360.737 43.3733 360.348 42.4187 360.348 41.256C360.348 40.072 360.743 39.0693 361.532 38.248C362.332 37.416 363.297 37 364.428 37C365.463 37 366.305 37.3147 366.956 37.944C367.607 38.5627 367.927 39.384 367.916 40.408L366.988 41.336ZM363.996 38.328C363.484 38.648 363.159 39.2347 363.02 40.088L365.42 39.944C365.356 39.5067 365.191 39.1333 364.924 38.824C364.668 38.504 364.359 38.3387 363.996 38.328ZM371.196 38.904C371.196 39.096 371.265 39.272 371.404 39.432C371.543 39.5813 372.039 39.88 372.892 40.328C373.745 40.7653 374.321 41.176 374.62 41.56C374.919 41.9333 375.068 42.36 375.068 42.84C375.068 43.5653 374.769 44.1627 374.172 44.632C373.575 45.0907 372.78 45.32 371.788 45.32C370.668 45.32 369.553 45.032 368.444 44.456L369.356 42.36C370.284 43.0747 371.244 43.608 372.236 43.96C372.428 43.7893 372.524 43.592 372.524 43.368C372.524 43.1653 372.444 42.984 372.284 42.824C372.135 42.664 371.644 42.376 370.812 41.96C369.991 41.5333 369.431 41.1387 369.132 40.776C368.844 40.4027 368.7 39.9813 368.7 39.512C368.7 38.7653 369.025 38.1627 369.676 37.704C370.337 37.2347 371.191 37 372.236 37C373.207 37 374.033 37.176 374.716 37.528L374.748 38.088C374.748 38.6427 374.657 39.2027 374.476 39.768H373.068L372.572 38.312L371.836 38.232C371.409 38.36 371.196 38.584 371.196 38.904ZM378.428 36.184C377.692 35.8533 377.057 35.368 376.524 34.728C376.95 33.9067 377.478 33.2667 378.108 32.808C378.822 33.1813 379.425 33.7253 379.916 34.44C379.564 35.144 379.068 35.7253 378.428 36.184ZM379.66 43.656C380.129 43.816 380.513 44.0027 380.812 44.216L380.78 45H375.708L375.676 44.44C376.049 44.2267 376.454 44.0453 376.892 43.896V38.616L375.708 38.392L375.628 37.624C376.577 37.2613 377.633 37.064 378.796 37.032L379.66 37.8V43.656ZM383.883 43.096C384.747 43.1067 385.675 43.1973 386.667 43.368C387.659 43.528 388.555 43.736 389.355 43.992C389.505 44.3547 389.579 44.7067 389.579 45.048C389.579 46.072 389.078 46.9787 388.075 47.768C387.083 48.5573 385.915 48.952 384.571 48.952C383.675 48.952 382.886 48.7493 382.203 48.344C381.521 47.9493 381.147 47.3307 381.083 46.488L382.747 45L381.899 44.952L381.563 43.768C382.182 43.128 382.79 42.6267 383.387 42.264C382.737 42.04 382.23 41.7093 381.867 41.272C381.515 40.824 381.339 40.328 381.339 39.784C381.339 38.984 381.697 38.312 382.411 37.768C383.137 37.2133 384.043 36.936 385.131 36.936C385.995 36.936 386.753 37.112 387.403 37.464C387.723 36.568 388.443 36.088 389.563 36.024L390.011 38.296L389.451 38.248C389.11 38.248 388.79 38.3067 388.491 38.424C388.758 38.8187 388.891 39.256 388.891 39.736C388.891 40.536 388.534 41.1973 387.819 41.72C387.105 42.2427 386.187 42.504 385.067 42.504L384.587 42.488L383.883 43.096ZM384.443 38.28C384.166 38.5147 384.027 38.9947 384.027 39.72C384.027 40.1893 384.134 40.5787 384.347 40.888C384.561 41.1973 384.865 41.352 385.259 41.352C385.409 41.352 385.553 41.3307 385.691 41.288C386.043 41.0427 386.219 40.5787 386.219 39.896C386.219 39.448 386.097 39.0533 385.851 38.712C385.606 38.36 385.291 38.184 384.907 38.184C384.758 38.184 384.603 38.216 384.443 38.28ZM385.003 46.904C385.537 46.904 386.049 46.8187 386.539 46.648C387.03 46.4773 387.393 46.2373 387.627 45.928C386.71 45.5653 385.419 45.288 383.755 45.096C383.403 45.416 383.227 45.7093 383.227 45.976C383.227 46.5947 383.819 46.904 385.003 46.904ZM399.181 43.656C399.65 43.816 400.034 44.0027 400.333 44.216L400.285 45H396.413V40.568C396.413 39.4907 396.071 38.952 395.389 38.952C395.079 38.952 394.733 39.048 394.349 39.24V43.704C394.733 43.8747 395.042 44.0453 395.277 44.216L395.245 45H390.429L390.397 44.44C390.727 44.248 391.122 44.072 391.581 43.912V38.616L390.397 38.392L390.317 37.624C391.266 37.2613 392.322 37.064 393.485 37.032L394.349 37.896V38.408C395.213 37.7573 396.018 37.3147 396.765 37.08C397.767 37.112 398.509 37.496 398.989 38.232C399.106 38.4453 399.17 38.9307 399.181 39.688V43.656Z" fill="#70685B"/>
<g filter="url(#filter3_d)">
<path d="M459 20C459 17.2386 461.239 15 464 15H582C584.761 15 587 17.2386 587 20V61C587 63.7614 584.761 66 582 66H464C461.239 66 459 63.7614 459 61V20Z" fill="#FFFBF4"/>
</g>
<path d="M501.015 34.28C502.188 34.28 503.196 34.536 504.039 35.048C504.881 35.56 505.516 36.2267 505.943 37.048C506.38 37.8587 506.599 38.712 506.599 39.608C506.599 41.176 506.097 42.4613 505.095 43.464C504.092 44.456 502.769 44.968 501.127 45H495.543L495.447 44.488C495.852 44.2107 496.305 43.96 496.807 43.736V35.416L495.671 35.256L495.687 34.408C497.297 34.3227 499.073 34.28 501.015 34.28ZM500.775 43.528C501.617 43.528 502.295 43.176 502.807 42.472C503.319 41.7573 503.575 40.8507 503.575 39.752C503.575 38.9093 503.404 38.1093 503.062 37.352C502.732 36.5947 502.284 36.0347 501.719 35.672L499.703 35.912V43.368C500.065 43.4747 500.423 43.528 500.775 43.528ZM513.597 41.336L509.565 41.304C509.64 41.9973 509.885 42.5307 510.301 42.904C510.728 43.2773 511.261 43.464 511.901 43.464C512.467 43.464 513.144 43.2613 513.933 42.856L514.333 43.768L511.821 45.192L511.085 45.24C509.901 45.24 508.915 44.8667 508.125 44.12C507.347 43.3733 506.957 42.4187 506.957 41.256C506.957 40.072 507.352 39.0693 508.141 38.248C508.941 37.416 509.907 37 511.037 37C512.072 37 512.915 37.3147 513.565 37.944C514.216 38.5627 514.536 39.384 514.525 40.408L513.597 41.336ZM510.605 38.328C510.093 38.648 509.768 39.2347 509.629 40.088L512.029 39.944C511.965 39.5067 511.8 39.1333 511.533 38.824C511.277 38.504 510.968 38.3387 510.605 38.328ZM518.925 43.656C519.395 43.816 519.779 44.0027 520.077 44.216L520.045 45H514.973L514.941 44.44C515.315 44.2267 515.72 44.0453 516.157 43.896V34.808L514.973 34.6L514.893 33.8C515.789 33.48 516.845 33.2827 518.061 33.208L518.925 34.008V43.656ZM522.99 36.184C522.254 35.8533 521.619 35.368 521.086 34.728C521.513 33.9067 522.041 33.2667 522.67 32.808C523.385 33.1813 523.987 33.7253 524.478 34.44C524.126 35.144 523.63 35.7253 522.99 36.184ZM524.222 43.656C524.691 43.816 525.075 44.0027 525.374 44.216L525.342 45H520.27L520.238 44.44C520.611 44.2267 521.017 44.0453 521.454 43.896V38.616L520.27 38.392L520.19 37.624C521.139 37.2613 522.195 37.064 523.358 37.032L524.222 37.8V43.656ZM534.538 38.12L533.754 38.568L531.834 43.416L531.178 44.952C530.794 45.0693 530.25 45.128 529.546 45.128C529.108 45.128 528.778 45.1067 528.554 45.064L526.25 38.792L525.226 38.216L525.242 37.336H528.73L529.994 41.384L530.218 42.6H530.442C530.772 40.872 531.05 39.1173 531.274 37.336H534.49L534.538 38.12ZM540.988 41.336L536.956 41.304C537.031 41.9973 537.276 42.5307 537.692 42.904C538.119 43.2773 538.652 43.464 539.292 43.464C539.857 43.464 540.535 43.2613 541.324 42.856L541.724 43.768L539.212 45.192L538.476 45.24C537.292 45.24 536.305 44.8667 535.516 44.12C534.737 43.3733 534.348 42.4187 534.348 41.256C534.348 40.072 534.743 39.0693 535.532 38.248C536.332 37.416 537.297 37 538.428 37C539.463 37 540.305 37.3147 540.956 37.944C541.607 38.5627 541.927 39.384 541.916 40.408L540.988 41.336ZM537.996 38.328C537.484 38.648 537.159 39.2347 537.02 40.088L539.42 39.944C539.356 39.5067 539.191 39.1333 538.924 38.824C538.668 38.504 538.359 38.3387 537.996 38.328ZM546.208 39.752V43.544C546.923 43.7147 547.504 43.9387 547.952 44.216L547.92 45H542.288L542.256 44.44C542.587 44.248 542.981 44.072 543.44 43.912V38.616L542.256 38.392L542.176 37.624C543.125 37.2613 544.181 37.064 545.344 37.032L546.208 38.232V38.52L547.472 37.096C547.632 37.0427 547.835 37.016 548.08 37.016C548.507 37.016 548.896 37.1227 549.248 37.336C549.611 37.5493 549.861 37.848 550 38.232L548.16 40.552C547.445 39.9547 546.875 39.6293 546.448 39.576L546.208 39.752Z" fill="#70685B"/>
<path d="M160.5 40.9805L154.809 45.3708C154.695 45.4581 154.539 45.4844 154.399 45.4396C154.197 45.3755 154.085 45.1862 154.131 45.0032L154.145 44.9611L155.259 42.125L145.5 42.125L145.5 39.875L155.275 39.875L154.145 37C154.101 36.8893 154.118 36.7678 154.188 36.6709L154.221 36.631C154.359 36.4858 154.594 36.4591 154.767 36.5619L154.809 36.5903L160.5 40.9805Z" fill="#70685B"/>
<path d="M308.5 40.9805L302.809 45.3708C302.695 45.4581 302.539 45.4844 302.399 45.4396C302.197 45.3755 302.085 45.1862 302.131 45.0032L302.145 44.9611L303.259 42.125L293.5 42.125L293.5 39.875L303.275 39.875L302.145 37C302.101 36.8893 302.118 36.7678 302.188 36.6709L302.221 36.631C302.359 36.4858 302.594 36.4591 302.767 36.5619L302.809 36.5903L308.5 40.9805Z" fill="#70685B"/>
<path d="M456.5 40.9805L450.809 45.3708C450.695 45.4581 450.539 45.4844 450.399 45.4396C450.197 45.3755 450.085 45.1862 450.131 45.0032L450.145 44.9611L451.259 42.125L441.5 42.125L441.5 39.875L451.275 39.875L450.145 37C450.101 36.8893 450.118 36.7678 450.188 36.6709L450.221 36.631C450.359 36.4858 450.594 36.4591 450.767 36.5619L450.809 36.5903L456.5 40.9805Z" fill="#70685B"/>
<defs>
<filter id="filter0_d" x="0" y="0" width="158" height="81" filterUnits="userSpaceOnUse" color-interpolation-filters="sRGB">
<feFlood flood-opacity="0" result="BackgroundImageFix"/>
<feColorMatrix in="SourceAlpha" type="matrix" values="0 0 0 0 0 0 0 0 0 0 0 0 0 0 0 0 0 0 127 0"/>
<feOffset/>
<feGaussianBlur stdDeviation="7.5"/>
<feColorMatrix type="matrix" values="0 0 0 0 0.439216 0 0 0 0 0.407843 0 0 0 0 0.356863 0 0 0 0.23 0"/>
<feBlend mode="normal" in2="BackgroundImageFix" result="effect1_dropShadow"/>
<feBlend mode="normal" in="SourceGraphic" in2="effect1_dropShadow" result="shape"/>
</filter>
<filter id="filter1_d" x="148" y="0" width="158" height="81" filterUnits="userSpaceOnUse" color-interpolation-filters="sRGB">
<feFlood flood-opacity="0" result="BackgroundImageFix"/>
<feColorMatrix in="SourceAlpha" type="matrix" values="0 0 0 0 0 0 0 0 0 0 0 0 0 0 0 0 0 0 127 0"/>
<feOffset/>
<feGaussianBlur stdDeviation="7.5"/>
<feColorMatrix type="matrix" values="0 0 0 0 0.439216 0 0 0 0 0.407843 0 0 0 0 0.356863 0 0 0 0.23 0"/>
<feBlend mode="normal" in2="BackgroundImageFix" result="effect1_dropShadow"/>
<feBlend mode="normal" in="SourceGraphic" in2="effect1_dropShadow" result="shape"/>
</filter>
<filter id="filter2_d" x="296" y="0" width="158" height="81" filterUnits="userSpaceOnUse" color-interpolation-filters="sRGB">
<feFlood flood-opacity="0" result="BackgroundImageFix"/>
<feColorMatrix in="SourceAlpha" type="matrix" values="0 0 0 0 0 0 0 0 0 0 0 0 0 0 0 0 0 0 127 0"/>
<feOffset/>
<feGaussianBlur stdDeviation="7.5"/>
<feColorMatrix type="matrix" values="0 0 0 0 0.439216 0 0 0 0 0.407843 0 0 0 0 0.356863 0 0 0 0.23 0"/>
<feBlend mode="normal" in2="BackgroundImageFix" result="effect1_dropShadow"/>
<feBlend mode="normal" in="SourceGraphic" in2="effect1_dropShadow" result="shape"/>
</filter>
<filter id="filter3_d" x="444" y="0" width="158" height="81" filterUnits="userSpaceOnUse" color-interpolation-filters="sRGB">
<feFlood flood-opacity="0" result="BackgroundImageFix"/>
<feColorMatrix in="SourceAlpha" type="matrix" values="0 0 0 0 0 0 0 0 0 0 0 0 0 0 0 0 0 0 127 0"/>
<feOffset/>
<feGaussianBlur stdDeviation="7.5"/>
<feColorMatrix type="matrix" values="0 0 0 0 0.439216 0 0 0 0 0.407843 0 0 0 0 0.356863 0 0 0 0.23 0"/>
<feBlend mode="normal" in2="BackgroundImageFix" result="effect1_dropShadow"/>
<feBlend mode="normal" in="SourceGraphic" in2="effect1_dropShadow" result="shape"/>
</filter>
</defs>
</svg>
