<svg width="514" height="422" viewBox="0 0 514 422" fill="none" xmlns="http://www.w3.org/2000/svg">
<path d="M37 140V152.1C37 157.606 37 160.359 38.0546 162.47C39.0225 164.407 40.5931 165.978 42.5302 166.945C44.6407 168 47.3938 168 52.9 168H83" stroke="#C4C4C4"/>
<path fill-rule="evenodd" clip-rule="evenodd" d="M82 171V165L85 168L82 171Z" fill="#C4C4C4"/>
<path d="M334 140V152.1C334 157.606 334 160.359 335.055 162.47C336.022 164.407 337.593 165.978 339.53 166.945C341.641 168 344.394 168 349.9 168H380" stroke="#C4C4C4"/>
<path fill-rule="evenodd" clip-rule="evenodd" d="M379 171V165L382 168L379 171Z" fill="#C4C4C4"/>
<path d="M37 155V199.1C37 204.606 37 207.359 38.0546 209.47C39.0225 211.407 40.5931 212.978 42.5302 213.945C44.6407 215 47.3938 215 52.9 215H83" stroke="#C4C4C4"/>
<path fill-rule="evenodd" clip-rule="evenodd" d="M82 218V212L85 215L82 218Z" fill="#C4C4C4"/>
<path d="M37 204V248.1C37 253.606 37 256.359 38.0546 258.47C39.0225 260.407 40.5931 261.978 42.5302 262.945C44.6407 264 47.3938 264 52.9 264H83" stroke="#C4C4C4"/>
<path fill-rule="evenodd" clip-rule="evenodd" d="M82 267V261L85 264L82 267Z" fill="#C4C4C4"/>
<path d="M37 254V298.1C37 303.606 37 306.359 38.0546 308.47C39.0225 310.407 40.5931 311.978 42.5302 312.945C44.6407 314 47.3938 314 52.9 314H83" stroke="#C4C4C4"/>
<path fill-rule="evenodd" clip-rule="evenodd" d="M82 317V311L85 314L82 317Z" fill="#C4C4C4"/>
<path d="M37 304V348.1C37 353.606 37 356.359 38.0546 358.47C39.0225 360.407 40.5931 361.978 42.5302 362.945C44.6407 364 47.3938 364 52.9 364H83" stroke="#C4C4C4"/>
<path fill-rule="evenodd" clip-rule="evenodd" d="M82 367V361L85 364L82 367Z" fill="#C4C4C4"/>
<path d="M37 350V394.1C37 399.606 37 402.359 38.0546 404.47C39.0225 406.407 40.5931 407.978 42.5302 408.945C44.6407 410 47.3938 410 52.9 410H83" stroke="#C4C4C4"/>
<path fill-rule="evenodd" clip-rule="evenodd" d="M82 413V407L85 410L82 413Z" fill="#C4C4C4"/>
<path d="M334 151V195.1C334 200.606 334 203.359 335.055 205.47C336.022 207.407 337.593 208.978 339.53 209.945C341.641 211 344.394 211 349.9 211H380" stroke="#C4C4C4"/>
<path fill-rule="evenodd" clip-rule="evenodd" d="M379 214V208L382 211L379 214Z" fill="#C4C4C4"/>
<path d="M334 195V239.1C334 244.606 334 247.359 335.055 249.47C336.022 251.407 337.593 252.978 339.53 253.945C341.641 255 344.394 255 349.9 255H380" stroke="#C4C4C4"/>
<path fill-rule="evenodd" clip-rule="evenodd" d="M379 258V252L382 255L379 258Z" fill="#C4C4C4"/>
<path d="M334 243V287.1C334 292.606 334 295.359 335.055 297.47C336.022 299.407 337.593 300.978 339.53 301.945C341.641 303 344.394 303 349.9 303H380" stroke="#C4C4C4"/>
<path fill-rule="evenodd" clip-rule="evenodd" d="M379 306V300L382 303L379 306Z" fill="#C4C4C4"/>
<path d="M228.5 113L228.5 62.1288" stroke="#C4C4C4" stroke-linecap="square"/>
<path fill-rule="evenodd" clip-rule="evenodd" d="M231 64L226 64L228.5 61L231 64Z" fill="#C4C4C4"/>
<path d="M184.229 45.184H188.711C190.787 45.184 192.395 45.742 193.535 46.858C194.675 47.974 195.245 49.546 195.245 51.574C195.245 53.614 194.675 55.198 193.535 56.326C192.395 57.442 190.787 58 188.711 58H184.229V45.184ZM188.603 56.452C191.759 56.452 193.337 54.826 193.337 51.574C193.337 48.346 191.759 46.732 188.603 46.732H186.083V56.452H188.603ZM197.782 45.184H199.636V58H197.782V45.184ZM206.81 58.144C205.814 58.144 204.902 58.012 204.074 57.748C203.258 57.484 202.55 57.088 201.95 56.56L202.616 55.192C203.24 55.696 203.888 56.062 204.56 56.29C205.232 56.518 205.988 56.632 206.828 56.632C207.788 56.632 208.532 56.452 209.06 56.092C209.588 55.732 209.852 55.222 209.852 54.562C209.852 54.01 209.606 53.596 209.114 53.32C208.622 53.032 207.842 52.768 206.774 52.528C205.754 52.312 204.92 52.066 204.272 51.79C203.624 51.502 203.114 51.124 202.742 50.656C202.37 50.176 202.184 49.564 202.184 48.82C202.184 48.076 202.382 47.422 202.778 46.858C203.174 46.282 203.732 45.838 204.452 45.526C205.184 45.202 206.024 45.04 206.972 45.04C207.872 45.04 208.712 45.178 209.492 45.454C210.284 45.73 210.944 46.12 211.472 46.624L210.806 47.992C210.218 47.5 209.612 47.14 208.988 46.912C208.364 46.672 207.698 46.552 206.99 46.552C206.066 46.552 205.34 46.75 204.812 47.146C204.284 47.53 204.02 48.058 204.02 48.73C204.02 49.306 204.248 49.744 204.704 50.044C205.172 50.344 205.916 50.614 206.936 50.854C208.004 51.094 208.868 51.346 209.528 51.61C210.188 51.874 210.716 52.234 211.112 52.69C211.508 53.146 211.706 53.734 211.706 54.454C211.706 55.198 211.508 55.846 211.112 56.398C210.716 56.95 210.146 57.382 209.402 57.694C208.67 57.994 207.806 58.144 206.81 58.144ZM219.641 58.144C218.405 58.144 217.325 57.88 216.401 57.352C215.489 56.812 214.787 56.05 214.295 55.066C213.803 54.082 213.557 52.918 213.557 51.574C213.557 50.242 213.803 49.084 214.295 48.1C214.787 47.116 215.489 46.36 216.401 45.832C217.325 45.304 218.405 45.04 219.641 45.04C220.517 45.04 221.327 45.178 222.071 45.454C222.827 45.718 223.463 46.108 223.979 46.624L223.331 47.992C222.731 47.5 222.137 47.146 221.549 46.93C220.973 46.702 220.343 46.588 219.659 46.588C218.327 46.588 217.295 47.02 216.563 47.884C215.843 48.748 215.483 49.978 215.483 51.574C215.483 53.182 215.843 54.424 216.563 55.3C217.295 56.164 218.327 56.596 219.659 56.596C220.343 56.596 220.973 56.488 221.549 56.272C222.137 56.044 222.731 55.684 223.331 55.192L223.979 56.56C223.463 57.076 222.827 57.472 222.071 57.748C221.327 58.012 220.517 58.144 219.641 58.144ZM231.608 58.144C230.396 58.144 229.34 57.88 228.44 57.352C227.552 56.812 226.862 56.05 226.37 55.066C225.89 54.082 225.65 52.924 225.65 51.592C225.65 50.248 225.89 49.084 226.37 48.1C226.85 47.116 227.54 46.36 228.44 45.832C229.34 45.304 230.396 45.04 231.608 45.04C232.832 45.04 233.888 45.304 234.776 45.832C235.676 46.36 236.366 47.116 236.846 48.1C237.326 49.084 237.566 50.242 237.566 51.574C237.566 52.918 237.326 54.082 236.846 55.066C236.366 56.05 235.676 56.812 234.776 57.352C233.876 57.88 232.82 58.144 231.608 58.144ZM231.608 56.632C232.892 56.632 233.888 56.194 234.596 55.318C235.316 54.442 235.676 53.194 235.676 51.574C235.676 49.966 235.316 48.73 234.596 47.866C233.888 46.99 232.892 46.552 231.608 46.552C230.324 46.552 229.328 46.99 228.62 47.866C227.912 48.73 227.558 49.966 227.558 51.574C227.558 53.194 227.912 54.442 228.62 55.318C229.34 56.194 230.336 56.632 231.608 56.632ZM251.151 45.184L245.499 58H243.933L238.281 45.184H240.225L244.725 55.66L249.243 45.184H251.151ZM252.573 45.184H260.889V46.696H254.409V50.728H260.529V52.24H254.409V56.488H260.889V58H252.573V45.184ZM273.486 58H271.524L269.922 53.734C269.754 53.278 269.508 52.966 269.184 52.798C268.86 52.618 268.416 52.528 267.852 52.528H265.044V58H263.208V45.184H268.482C269.886 45.184 270.96 45.496 271.704 46.12C272.46 46.744 272.838 47.638 272.838 48.802C272.838 49.642 272.616 50.356 272.172 50.944C271.728 51.532 271.098 51.946 270.282 52.186C271.026 52.318 271.566 52.846 271.902 53.77L273.486 58ZM268.266 51.034C269.202 51.034 269.898 50.854 270.354 50.494C270.81 50.122 271.038 49.57 271.038 48.838C271.038 48.106 270.81 47.566 270.354 47.218C269.91 46.858 269.214 46.678 268.266 46.678H265.044V51.034H268.266Z" fill="#3C3C43" fill-opacity="0.6"/>
<path d="M93.494 161.184H97.976C100.052 161.184 101.66 161.742 102.8 162.858C103.94 163.974 104.51 165.546 104.51 167.574C104.51 169.614 103.94 171.198 102.8 172.326C101.66 173.442 100.052 174 97.976 174H93.494V161.184ZM97.868 172.452C101.024 172.452 102.602 170.826 102.602 167.574C102.602 164.346 101.024 162.732 97.868 162.732H95.348V172.452H97.868ZM106.885 164.928H108.685V174H106.885V164.928ZM108.829 160.968V162.876H106.723V160.968H108.829ZM114.518 174.126C112.934 174.126 111.686 173.742 110.774 172.974L111.314 171.66C112.262 172.38 113.348 172.74 114.572 172.74C115.196 172.74 115.67 172.638 115.994 172.434C116.318 172.218 116.48 171.918 116.48 171.534C116.48 171.21 116.366 170.958 116.138 170.778C115.922 170.586 115.55 170.424 115.022 170.292L113.51 169.932C112.718 169.764 112.112 169.47 111.692 169.05C111.284 168.618 111.08 168.084 111.08 167.448C111.08 166.632 111.404 165.972 112.052 165.468C112.712 164.964 113.582 164.712 114.662 164.712C115.31 164.712 115.922 164.814 116.498 165.018C117.086 165.222 117.584 165.51 117.992 165.882L117.434 167.16C116.558 166.464 115.634 166.116 114.662 166.116C114.074 166.116 113.618 166.23 113.294 166.458C112.97 166.674 112.808 166.98 112.808 167.376C112.808 167.688 112.91 167.94 113.114 168.132C113.318 168.324 113.642 168.474 114.086 168.582L115.634 168.96C116.498 169.152 117.134 169.458 117.542 169.878C117.962 170.286 118.172 170.82 118.172 171.48C118.172 172.296 117.842 172.944 117.182 173.424C116.534 173.892 115.646 174.126 114.518 174.126ZM124.256 174.126C123.344 174.126 122.546 173.934 121.862 173.55C121.19 173.166 120.674 172.626 120.314 171.93C119.954 171.222 119.774 170.4 119.774 169.464C119.774 168.528 119.96 167.7 120.332 166.98C120.716 166.26 121.25 165.702 121.934 165.306C122.618 164.91 123.416 164.712 124.328 164.712C124.964 164.712 125.576 164.82 126.164 165.036C126.752 165.24 127.226 165.522 127.586 165.882L127.028 167.196C126.176 166.524 125.318 166.188 124.454 166.188C123.578 166.188 122.894 166.476 122.402 167.052C121.91 167.616 121.664 168.414 121.664 169.446C121.664 170.478 121.91 171.276 122.402 171.84C122.894 172.392 123.578 172.668 124.454 172.668C125.342 172.668 126.2 172.332 127.028 171.66L127.586 172.974C127.202 173.334 126.71 173.616 126.11 173.82C125.522 174.024 124.904 174.126 124.256 174.126ZM133.203 174.126C132.315 174.126 131.535 173.934 130.863 173.55C130.191 173.166 129.669 172.62 129.297 171.912C128.937 171.204 128.757 170.376 128.757 169.428C128.757 168.48 128.937 167.652 129.297 166.944C129.669 166.224 130.191 165.672 130.863 165.288C131.535 164.904 132.315 164.712 133.203 164.712C134.079 164.712 134.853 164.904 135.525 165.288C136.197 165.672 136.713 166.224 137.073 166.944C137.445 167.652 137.631 168.48 137.631 169.428C137.631 170.376 137.445 171.204 137.073 171.912C136.713 172.62 136.197 173.166 135.525 173.55C134.853 173.934 134.079 174.126 133.203 174.126ZM133.185 172.686C134.025 172.686 134.667 172.41 135.111 171.858C135.555 171.306 135.777 170.496 135.777 169.428C135.777 168.384 135.549 167.58 135.093 167.016C134.649 166.452 134.019 166.17 133.203 166.17C132.375 166.17 131.733 166.452 131.277 167.016C130.821 167.58 130.593 168.384 130.593 169.428C130.593 170.496 130.815 171.306 131.259 171.858C131.715 172.41 132.357 172.686 133.185 172.686ZM147.877 164.946L143.935 174H142.297L138.391 164.946H140.317L143.161 171.948L146.059 164.946H147.877ZM156.9 169.5H150.42C150.48 171.624 151.446 172.686 153.318 172.686C154.362 172.686 155.316 172.344 156.18 171.66L156.738 172.956C156.33 173.316 155.808 173.604 155.172 173.82C154.548 174.024 153.918 174.126 153.282 174.126C151.83 174.126 150.69 173.712 149.862 172.884C149.034 172.044 148.62 170.898 148.62 169.446C148.62 168.522 148.8 167.7 149.16 166.98C149.532 166.26 150.048 165.702 150.708 165.306C151.368 164.91 152.118 164.712 152.958 164.712C154.182 164.712 155.142 165.108 155.838 165.9C156.546 166.692 156.9 167.79 156.9 169.194V169.5ZM152.994 166.062C152.31 166.062 151.752 166.266 151.32 166.674C150.888 167.082 150.612 167.664 150.492 168.42H155.298C155.226 167.652 154.992 167.07 154.596 166.674C154.2 166.266 153.666 166.062 152.994 166.062ZM163.504 164.712C163.78 164.712 164.068 164.754 164.368 164.838L164.332 166.494C164.008 166.374 163.654 166.314 163.27 166.314C162.442 166.314 161.818 166.566 161.398 167.07C160.99 167.562 160.786 168.186 160.786 168.942V174H158.986V167.484C158.986 166.536 158.938 165.684 158.842 164.928H160.534L160.696 166.566C160.936 165.966 161.308 165.51 161.812 165.198C162.316 164.874 162.88 164.712 163.504 164.712ZM174.909 174.144C173.913 174.144 173.001 174.012 172.173 173.748C171.357 173.484 170.649 173.088 170.049 172.56L170.715 171.192C171.339 171.696 171.987 172.062 172.659 172.29C173.331 172.518 174.087 172.632 174.927 172.632C175.887 172.632 176.631 172.452 177.159 172.092C177.687 171.732 177.951 171.222 177.951 170.562C177.951 170.01 177.705 169.596 177.213 169.32C176.721 169.032 175.941 168.768 174.873 168.528C173.853 168.312 173.019 168.066 172.371 167.79C171.723 167.502 171.213 167.124 170.841 166.656C170.469 166.176 170.283 165.564 170.283 164.82C170.283 164.076 170.481 163.422 170.877 162.858C171.273 162.282 171.831 161.838 172.551 161.526C173.283 161.202 174.123 161.04 175.071 161.04C175.971 161.04 176.811 161.178 177.591 161.454C178.383 161.73 179.043 162.12 179.571 162.624L178.905 163.992C178.317 163.5 177.711 163.14 177.087 162.912C176.463 162.672 175.797 162.552 175.089 162.552C174.165 162.552 173.439 162.75 172.911 163.146C172.383 163.53 172.119 164.058 172.119 164.73C172.119 165.306 172.347 165.744 172.803 166.044C173.271 166.344 174.015 166.614 175.035 166.854C176.103 167.094 176.967 167.346 177.627 167.61C178.287 167.874 178.815 168.234 179.211 168.69C179.607 169.146 179.805 169.734 179.805 170.454C179.805 171.198 179.607 171.846 179.211 172.398C178.815 172.95 178.245 173.382 177.501 173.694C176.769 173.994 175.905 174.144 174.909 174.144ZM185.849 174.126C184.961 174.126 184.181 173.934 183.509 173.55C182.837 173.166 182.315 172.62 181.943 171.912C181.583 171.204 181.403 170.376 181.403 169.428C181.403 168.48 181.583 167.652 181.943 166.944C182.315 166.224 182.837 165.672 183.509 165.288C184.181 164.904 184.961 164.712 185.849 164.712C186.725 164.712 187.499 164.904 188.171 165.288C188.843 165.672 189.359 166.224 189.719 166.944C190.091 167.652 190.277 168.48 190.277 169.428C190.277 170.376 190.091 171.204 189.719 171.912C189.359 172.62 188.843 173.166 188.171 173.55C187.499 173.934 186.725 174.126 185.849 174.126ZM185.831 172.686C186.671 172.686 187.313 172.41 187.757 171.858C188.201 171.306 188.423 170.496 188.423 169.428C188.423 168.384 188.195 167.58 187.739 167.016C187.295 166.452 186.665 166.17 185.849 166.17C185.021 166.17 184.379 166.452 183.923 167.016C183.467 167.58 183.239 168.384 183.239 169.428C183.239 170.496 183.461 171.306 183.905 171.858C184.361 172.41 185.003 172.686 185.831 172.686ZM197.226 164.712C199.398 164.712 200.484 165.924 200.484 168.348V174H198.666V168.456C198.666 167.664 198.51 167.088 198.198 166.728C197.898 166.368 197.412 166.188 196.74 166.188C195.972 166.188 195.354 166.428 194.886 166.908C194.43 167.388 194.202 168.03 194.202 168.834V174H192.402V167.484C192.402 166.536 192.354 165.684 192.258 164.928H193.95L194.112 166.494C194.4 165.918 194.814 165.48 195.354 165.18C195.906 164.868 196.53 164.712 197.226 164.712ZM211.442 164.928V173.838C211.442 175.218 211.076 176.256 210.344 176.952C209.624 177.66 208.55 178.014 207.122 178.014C205.742 178.014 204.536 177.714 203.504 177.114L203.81 175.692C204.374 175.992 204.914 176.214 205.43 176.358C205.958 176.502 206.516 176.574 207.104 176.574C208.796 176.574 209.642 175.71 209.642 173.982V172.02C209.366 172.548 208.964 172.968 208.436 173.28C207.908 173.58 207.296 173.73 206.6 173.73C205.808 173.73 205.1 173.544 204.476 173.172C203.864 172.8 203.384 172.272 203.036 171.588C202.7 170.904 202.532 170.118 202.532 169.23C202.532 168.342 202.7 167.556 203.036 166.872C203.384 166.188 203.864 165.66 204.476 165.288C205.1 164.904 205.808 164.712 206.6 164.712C207.296 164.712 207.908 164.862 208.436 165.162C208.964 165.45 209.366 165.864 209.642 166.404V164.928H211.442ZM207.014 172.272C207.83 172.272 208.472 172.002 208.94 171.462C209.408 170.922 209.642 170.178 209.642 169.23C209.642 168.282 209.408 167.538 208.94 166.998C208.484 166.446 207.842 166.17 207.014 166.17C206.198 166.17 205.55 166.446 205.07 166.998C204.602 167.538 204.368 168.282 204.368 169.23C204.368 170.166 204.602 170.91 205.07 171.462C205.55 172.002 206.198 172.272 207.014 172.272ZM216.019 171.84V173.316C216.019 173.88 215.923 174.39 215.731 174.846C215.539 175.314 215.215 175.776 214.759 176.232L213.985 175.602C214.489 175.05 214.777 174.516 214.849 174H213.859V171.84H216.019ZM231.82 170.832H225.34L223.972 174H222.082L227.788 161.184H229.354L235.078 174H233.188L231.82 170.832ZM231.19 169.356L228.58 163.254L225.97 169.356H231.19ZM236.576 160.752H238.376V174H236.576V160.752ZM245.847 164.712C246.639 164.712 247.341 164.904 247.953 165.288C248.565 165.672 249.039 166.218 249.375 166.926C249.711 167.634 249.879 168.456 249.879 169.392C249.879 170.328 249.705 171.156 249.357 171.876C249.021 172.584 248.547 173.136 247.935 173.532C247.323 173.928 246.627 174.126 245.847 174.126C245.151 174.126 244.539 173.982 244.011 173.694C243.495 173.394 243.105 172.968 242.841 172.416V174H241.041V160.752H242.841V166.422C243.105 165.882 243.495 165.462 244.011 165.162C244.539 164.862 245.151 164.712 245.847 164.712ZM245.433 172.686C246.249 172.686 246.885 172.398 247.341 171.822C247.797 171.234 248.025 170.424 248.025 169.392C248.025 168.372 247.797 167.58 247.341 167.016C246.885 166.452 246.249 166.17 245.433 166.17C244.605 166.17 243.963 166.452 243.507 167.016C243.063 167.58 242.841 168.384 242.841 169.428C242.841 170.472 243.063 171.276 243.507 171.84C243.963 172.404 244.605 172.686 245.433 172.686ZM259.894 164.928V174H258.13V172.488C257.842 173.016 257.446 173.424 256.942 173.712C256.438 173.988 255.868 174.126 255.232 174.126C253.048 174.126 251.956 172.914 251.956 170.49V164.928H253.756V170.472C253.756 171.216 253.906 171.768 254.206 172.128C254.518 172.476 254.986 172.65 255.61 172.65C256.354 172.65 256.948 172.41 257.392 171.93C257.848 171.45 258.076 170.814 258.076 170.022V164.928H259.894ZM272.907 164.712C274.923 164.712 275.931 165.924 275.931 168.348V174H274.113V168.438C274.113 167.658 273.975 167.088 273.699 166.728C273.435 166.368 273.003 166.188 272.403 166.188C271.707 166.188 271.155 166.428 270.747 166.908C270.351 167.388 270.153 168.042 270.153 168.87V174H268.335V168.438C268.335 167.658 268.197 167.088 267.921 166.728C267.657 166.368 267.225 166.188 266.625 166.188C265.929 166.188 265.377 166.428 264.969 166.908C264.561 167.388 264.357 168.042 264.357 168.87V174H262.557V167.484C262.557 166.536 262.509 165.684 262.413 164.928H264.105L264.267 166.44C264.531 165.888 264.909 165.462 265.401 165.162C265.893 164.862 266.469 164.712 267.129 164.712C268.533 164.712 269.451 165.294 269.883 166.458C270.159 165.918 270.561 165.492 271.089 165.18C271.629 164.868 272.235 164.712 272.907 164.712Z" fill="#3C3C43" fill-opacity="0.6"/>
<path d="M394.688 174.144C393.692 174.144 392.78 174.012 391.952 173.748C391.136 173.484 390.428 173.088 389.828 172.56L390.494 171.192C391.118 171.696 391.766 172.062 392.438 172.29C393.11 172.518 393.866 172.632 394.706 172.632C395.666 172.632 396.41 172.452 396.938 172.092C397.466 171.732 397.73 171.222 397.73 170.562C397.73 170.01 397.484 169.596 396.992 169.32C396.5 169.032 395.72 168.768 394.652 168.528C393.632 168.312 392.798 168.066 392.15 167.79C391.502 167.502 390.992 167.124 390.62 166.656C390.248 166.176 390.062 165.564 390.062 164.82C390.062 164.076 390.26 163.422 390.656 162.858C391.052 162.282 391.61 161.838 392.33 161.526C393.062 161.202 393.902 161.04 394.85 161.04C395.75 161.04 396.59 161.178 397.37 161.454C398.162 161.73 398.822 162.12 399.35 162.624L398.684 163.992C398.096 163.5 397.49 163.14 396.866 162.912C396.242 162.672 395.576 162.552 394.868 162.552C393.944 162.552 393.218 162.75 392.69 163.146C392.162 163.53 391.898 164.058 391.898 164.73C391.898 165.306 392.126 165.744 392.582 166.044C393.05 166.344 393.794 166.614 394.814 166.854C395.882 167.094 396.746 167.346 397.406 167.61C398.066 167.874 398.594 168.234 398.99 168.69C399.386 169.146 399.584 169.734 399.584 170.454C399.584 171.198 399.386 171.846 398.99 172.398C398.594 172.95 398.024 173.382 397.28 173.694C396.548 173.994 395.684 174.144 394.688 174.144ZM405.629 174.126C404.741 174.126 403.961 173.934 403.289 173.55C402.617 173.166 402.095 172.62 401.723 171.912C401.363 171.204 401.183 170.376 401.183 169.428C401.183 168.48 401.363 167.652 401.723 166.944C402.095 166.224 402.617 165.672 403.289 165.288C403.961 164.904 404.741 164.712 405.629 164.712C406.505 164.712 407.279 164.904 407.951 165.288C408.623 165.672 409.139 166.224 409.499 166.944C409.871 167.652 410.057 168.48 410.057 169.428C410.057 170.376 409.871 171.204 409.499 171.912C409.139 172.62 408.623 173.166 407.951 173.55C407.279 173.934 406.505 174.126 405.629 174.126ZM405.611 172.686C406.451 172.686 407.093 172.41 407.537 171.858C407.981 171.306 408.203 170.496 408.203 169.428C408.203 168.384 407.975 167.58 407.519 167.016C407.075 166.452 406.445 166.17 405.629 166.17C404.801 166.17 404.159 166.452 403.703 167.016C403.247 167.58 403.019 168.384 403.019 169.428C403.019 170.496 403.241 171.306 403.685 171.858C404.141 172.41 404.783 172.686 405.611 172.686ZM417.006 164.712C419.178 164.712 420.264 165.924 420.264 168.348V174H418.446V168.456C418.446 167.664 418.29 167.088 417.978 166.728C417.678 166.368 417.192 166.188 416.52 166.188C415.752 166.188 415.134 166.428 414.666 166.908C414.21 167.388 413.982 168.03 413.982 168.834V174H412.182V167.484C412.182 166.536 412.134 165.684 412.038 164.928H413.73L413.892 166.494C414.18 165.918 414.594 165.48 415.134 165.18C415.686 164.868 416.31 164.712 417.006 164.712ZM431.222 164.928V173.838C431.222 175.218 430.856 176.256 430.124 176.952C429.404 177.66 428.33 178.014 426.902 178.014C425.522 178.014 424.316 177.714 423.284 177.114L423.59 175.692C424.154 175.992 424.694 176.214 425.21 176.358C425.738 176.502 426.296 176.574 426.884 176.574C428.576 176.574 429.422 175.71 429.422 173.982V172.02C429.146 172.548 428.744 172.968 428.216 173.28C427.688 173.58 427.076 173.73 426.38 173.73C425.588 173.73 424.88 173.544 424.256 173.172C423.644 172.8 423.164 172.272 422.816 171.588C422.48 170.904 422.312 170.118 422.312 169.23C422.312 168.342 422.48 167.556 422.816 166.872C423.164 166.188 423.644 165.66 424.256 165.288C424.88 164.904 425.588 164.712 426.38 164.712C427.076 164.712 427.688 164.862 428.216 165.162C428.744 165.45 429.146 165.864 429.422 166.404V164.928H431.222ZM426.794 172.272C427.61 172.272 428.252 172.002 428.72 171.462C429.188 170.922 429.422 170.178 429.422 169.23C429.422 168.282 429.188 167.538 428.72 166.998C428.264 166.446 427.622 166.17 426.794 166.17C425.978 166.17 425.33 166.446 424.85 166.998C424.382 167.538 424.148 168.282 424.148 169.23C424.148 170.166 424.382 170.91 424.85 171.462C425.33 172.002 425.978 172.272 426.794 172.272ZM449.129 174H447.167L445.565 169.734C445.397 169.278 445.151 168.966 444.827 168.798C444.503 168.618 444.059 168.528 443.495 168.528H440.687V174H438.851V161.184H444.125C445.529 161.184 446.603 161.496 447.347 162.12C448.103 162.744 448.481 163.638 448.481 164.802C448.481 165.642 448.259 166.356 447.815 166.944C447.371 167.532 446.741 167.946 445.925 168.186C446.669 168.318 447.209 168.846 447.545 169.77L449.129 174ZM443.909 167.034C444.845 167.034 445.541 166.854 445.997 166.494C446.453 166.122 446.681 165.57 446.681 164.838C446.681 164.106 446.453 163.566 445.997 163.218C445.553 162.858 444.857 162.678 443.909 162.678H440.687V167.034H443.909ZM458.98 169.5H452.5C452.56 171.624 453.526 172.686 455.398 172.686C456.442 172.686 457.396 172.344 458.26 171.66L458.818 172.956C458.41 173.316 457.888 173.604 457.252 173.82C456.628 174.024 455.998 174.126 455.362 174.126C453.91 174.126 452.77 173.712 451.942 172.884C451.114 172.044 450.7 170.898 450.7 169.446C450.7 168.522 450.88 167.7 451.24 166.98C451.612 166.26 452.128 165.702 452.788 165.306C453.448 164.91 454.198 164.712 455.038 164.712C456.262 164.712 457.222 165.108 457.918 165.9C458.626 166.692 458.98 167.79 458.98 169.194V169.5ZM455.074 166.062C454.39 166.062 453.832 166.266 453.4 166.674C452.968 167.082 452.692 167.664 452.572 168.42H457.378C457.306 167.652 457.072 167.07 456.676 166.674C456.28 166.266 455.746 166.062 455.074 166.062ZM464.234 174.126C462.65 174.126 461.402 173.742 460.49 172.974L461.03 171.66C461.978 172.38 463.064 172.74 464.288 172.74C464.912 172.74 465.386 172.638 465.71 172.434C466.034 172.218 466.196 171.918 466.196 171.534C466.196 171.21 466.082 170.958 465.854 170.778C465.638 170.586 465.266 170.424 464.738 170.292L463.226 169.932C462.434 169.764 461.828 169.47 461.408 169.05C461 168.618 460.796 168.084 460.796 167.448C460.796 166.632 461.12 165.972 461.768 165.468C462.428 164.964 463.298 164.712 464.378 164.712C465.026 164.712 465.638 164.814 466.214 165.018C466.802 165.222 467.3 165.51 467.708 165.882L467.15 167.16C466.274 166.464 465.35 166.116 464.378 166.116C463.79 166.116 463.334 166.23 463.01 166.458C462.686 166.674 462.524 166.98 462.524 167.376C462.524 167.688 462.626 167.94 462.83 168.132C463.034 168.324 463.358 168.474 463.802 168.582L465.35 168.96C466.214 169.152 466.85 169.458 467.258 169.878C467.678 170.286 467.888 170.82 467.888 171.48C467.888 172.296 467.558 172.944 466.898 173.424C466.25 173.892 465.362 174.126 464.234 174.126ZM477.915 164.928V174H476.151V172.488C475.863 173.016 475.467 173.424 474.963 173.712C474.459 173.988 473.889 174.126 473.253 174.126C471.069 174.126 469.977 172.914 469.977 170.49V164.928H471.777V170.472C471.777 171.216 471.927 171.768 472.227 172.128C472.539 172.476 473.007 172.65 473.631 172.65C474.375 172.65 474.969 172.41 475.413 171.93C475.869 171.45 476.097 170.814 476.097 170.022V164.928H477.915ZM480.578 160.752H482.378V174H480.578V160.752ZM487.401 166.332V170.886C487.401 171.51 487.533 171.954 487.797 172.218C488.073 172.47 488.451 172.596 488.931 172.596C489.243 172.596 489.561 172.548 489.885 172.452V173.928C489.489 174.06 489.039 174.126 488.535 174.126C487.599 174.126 486.873 173.862 486.357 173.334C485.841 172.806 485.583 172.038 485.583 171.03V166.332H483.819V164.928H485.583V162.66L487.401 162.03V164.928H489.903V166.332H487.401Z" fill="#3C3C43" fill-opacity="0.6"/>
<path d="M103.772 220H101.81L100.208 215.734C100.04 215.278 99.794 214.966 99.47 214.798C99.146 214.618 98.702 214.528 98.138 214.528H95.33V220H93.494V207.184H98.768C100.172 207.184 101.246 207.496 101.99 208.12C102.746 208.744 103.124 209.638 103.124 210.802C103.124 211.642 102.902 212.356 102.458 212.944C102.014 213.532 101.384 213.946 100.568 214.186C101.312 214.318 101.852 214.846 102.188 215.77L103.772 220ZM98.552 213.034C99.488 213.034 100.184 212.854 100.64 212.494C101.096 212.122 101.324 211.57 101.324 210.838C101.324 210.106 101.096 209.566 100.64 209.218C100.196 208.858 99.5 208.678 98.552 208.678H95.33V213.034H98.552ZM113.623 215.5H107.143C107.203 217.624 108.169 218.686 110.041 218.686C111.085 218.686 112.039 218.344 112.903 217.66L113.461 218.956C113.053 219.316 112.531 219.604 111.895 219.82C111.271 220.024 110.641 220.126 110.005 220.126C108.553 220.126 107.413 219.712 106.585 218.884C105.757 218.044 105.343 216.898 105.343 215.446C105.343 214.522 105.523 213.7 105.883 212.98C106.255 212.26 106.771 211.702 107.431 211.306C108.091 210.91 108.841 210.712 109.681 210.712C110.905 210.712 111.865 211.108 112.561 211.9C113.269 212.692 113.623 213.79 113.623 215.194V215.5ZM109.717 212.062C109.033 212.062 108.475 212.266 108.043 212.674C107.611 213.082 107.335 213.664 107.215 214.42H112.021C111.949 213.652 111.715 213.07 111.319 212.674C110.923 212.266 110.389 212.062 109.717 212.062ZM119.651 220.126C118.739 220.126 117.941 219.934 117.257 219.55C116.585 219.166 116.069 218.626 115.709 217.93C115.349 217.222 115.169 216.4 115.169 215.464C115.169 214.528 115.355 213.7 115.727 212.98C116.111 212.26 116.645 211.702 117.329 211.306C118.013 210.91 118.811 210.712 119.723 210.712C120.359 210.712 120.971 210.82 121.559 211.036C122.147 211.24 122.621 211.522 122.981 211.882L122.423 213.196C121.571 212.524 120.713 212.188 119.849 212.188C118.973 212.188 118.289 212.476 117.797 213.052C117.305 213.616 117.059 214.414 117.059 215.446C117.059 216.478 117.305 217.276 117.797 217.84C118.289 218.392 118.973 218.668 119.849 218.668C120.737 218.668 121.595 218.332 122.423 217.66L122.981 218.974C122.597 219.334 122.105 219.616 121.505 219.82C120.917 220.024 120.299 220.126 119.651 220.126ZM128.597 220.126C127.709 220.126 126.929 219.934 126.257 219.55C125.585 219.166 125.063 218.62 124.691 217.912C124.331 217.204 124.151 216.376 124.151 215.428C124.151 214.48 124.331 213.652 124.691 212.944C125.063 212.224 125.585 211.672 126.257 211.288C126.929 210.904 127.709 210.712 128.597 210.712C129.473 210.712 130.247 210.904 130.919 211.288C131.591 211.672 132.107 212.224 132.467 212.944C132.839 213.652 133.025 214.48 133.025 215.428C133.025 216.376 132.839 217.204 132.467 217.912C132.107 218.62 131.591 219.166 130.919 219.55C130.247 219.934 129.473 220.126 128.597 220.126ZM128.579 218.686C129.419 218.686 130.061 218.41 130.505 217.858C130.949 217.306 131.171 216.496 131.171 215.428C131.171 214.384 130.943 213.58 130.487 213.016C130.043 212.452 129.413 212.17 128.597 212.17C127.769 212.17 127.127 212.452 126.671 213.016C126.215 213.58 125.987 214.384 125.987 215.428C125.987 216.496 126.209 217.306 126.653 217.858C127.109 218.41 127.751 218.686 128.579 218.686ZM145.5 210.712C147.516 210.712 148.524 211.924 148.524 214.348V220H146.706V214.438C146.706 213.658 146.568 213.088 146.292 212.728C146.028 212.368 145.596 212.188 144.996 212.188C144.3 212.188 143.748 212.428 143.34 212.908C142.944 213.388 142.746 214.042 142.746 214.87V220H140.928V214.438C140.928 213.658 140.79 213.088 140.514 212.728C140.25 212.368 139.818 212.188 139.218 212.188C138.522 212.188 137.97 212.428 137.562 212.908C137.154 213.388 136.95 214.042 136.95 214.87V220H135.15V213.484C135.15 212.536 135.102 211.684 135.006 210.928H136.698L136.86 212.44C137.124 211.888 137.502 211.462 137.994 211.162C138.486 210.862 139.062 210.712 139.722 210.712C141.126 210.712 142.044 211.294 142.476 212.458C142.752 211.918 143.154 211.492 143.682 211.18C144.222 210.868 144.828 210.712 145.5 210.712ZM161.479 210.712C163.495 210.712 164.503 211.924 164.503 214.348V220H162.685V214.438C162.685 213.658 162.547 213.088 162.271 212.728C162.007 212.368 161.575 212.188 160.975 212.188C160.279 212.188 159.727 212.428 159.319 212.908C158.923 213.388 158.725 214.042 158.725 214.87V220H156.907V214.438C156.907 213.658 156.769 213.088 156.493 212.728C156.229 212.368 155.797 212.188 155.197 212.188C154.501 212.188 153.949 212.428 153.541 212.908C153.133 213.388 152.929 214.042 152.929 214.87V220H151.129V213.484C151.129 212.536 151.081 211.684 150.985 210.928H152.677L152.839 212.44C153.103 211.888 153.481 211.462 153.973 211.162C154.465 210.862 155.041 210.712 155.701 210.712C157.105 210.712 158.023 211.294 158.455 212.458C158.731 211.918 159.133 211.492 159.661 211.18C160.201 210.868 160.807 210.712 161.479 210.712ZM174.847 215.5H168.367C168.427 217.624 169.393 218.686 171.265 218.686C172.309 218.686 173.263 218.344 174.127 217.66L174.685 218.956C174.277 219.316 173.755 219.604 173.119 219.82C172.495 220.024 171.865 220.126 171.229 220.126C169.777 220.126 168.637 219.712 167.809 218.884C166.981 218.044 166.567 216.898 166.567 215.446C166.567 214.522 166.747 213.7 167.107 212.98C167.479 212.26 167.995 211.702 168.655 211.306C169.315 210.91 170.065 210.712 170.905 210.712C172.129 210.712 173.089 211.108 173.785 211.9C174.493 212.692 174.847 213.79 174.847 215.194V215.5ZM170.941 212.062C170.257 212.062 169.699 212.266 169.267 212.674C168.835 213.082 168.559 213.664 168.439 214.42H173.245C173.173 213.652 172.939 213.07 172.543 212.674C172.147 212.266 171.613 212.062 170.941 212.062ZM181.758 210.712C183.93 210.712 185.016 211.924 185.016 214.348V220H183.198V214.456C183.198 213.664 183.042 213.088 182.73 212.728C182.43 212.368 181.944 212.188 181.272 212.188C180.504 212.188 179.886 212.428 179.418 212.908C178.962 213.388 178.734 214.03 178.734 214.834V220H176.934V213.484C176.934 212.536 176.886 211.684 176.79 210.928H178.482L178.644 212.494C178.932 211.918 179.346 211.48 179.886 211.18C180.438 210.868 181.062 210.712 181.758 210.712ZM195.901 206.752V220H194.101V218.452C193.837 218.992 193.441 219.406 192.913 219.694C192.397 219.982 191.791 220.126 191.095 220.126C190.315 220.126 189.619 219.928 189.007 219.532C188.395 219.136 187.915 218.584 187.567 217.876C187.231 217.156 187.063 216.328 187.063 215.392C187.063 214.456 187.231 213.634 187.567 212.926C187.903 212.218 188.371 211.672 188.971 211.288C189.583 210.904 190.291 210.712 191.095 210.712C191.779 210.712 192.379 210.856 192.895 211.144C193.423 211.432 193.819 211.84 194.083 212.368V206.752H195.901ZM191.509 218.686C192.337 218.686 192.973 218.404 193.417 217.84C193.873 217.264 194.101 216.46 194.101 215.428C194.101 214.396 193.873 213.598 193.417 213.034C192.973 212.458 192.343 212.17 191.527 212.17C190.699 212.17 190.051 212.452 189.583 213.016C189.127 213.58 188.899 214.372 188.899 215.392C188.899 216.424 189.127 217.234 189.583 217.822C190.051 218.398 190.693 218.686 191.509 218.686ZM206.312 215.5H199.832C199.892 217.624 200.858 218.686 202.73 218.686C203.774 218.686 204.728 218.344 205.592 217.66L206.15 218.956C205.742 219.316 205.22 219.604 204.584 219.82C203.96 220.024 203.33 220.126 202.694 220.126C201.242 220.126 200.102 219.712 199.274 218.884C198.446 218.044 198.032 216.898 198.032 215.446C198.032 214.522 198.212 213.7 198.572 212.98C198.944 212.26 199.46 211.702 200.12 211.306C200.78 210.91 201.53 210.712 202.37 210.712C203.594 210.712 204.554 211.108 205.25 211.9C205.958 212.692 206.312 213.79 206.312 215.194V215.5ZM202.406 212.062C201.722 212.062 201.164 212.266 200.732 212.674C200.3 213.082 200.024 213.664 199.904 214.42H204.71C204.638 213.652 204.404 213.07 204.008 212.674C203.612 212.266 203.078 212.062 202.406 212.062ZM216.696 206.752V220H214.896V218.452C214.632 218.992 214.236 219.406 213.708 219.694C213.192 219.982 212.586 220.126 211.89 220.126C211.11 220.126 210.414 219.928 209.802 219.532C209.19 219.136 208.71 218.584 208.362 217.876C208.026 217.156 207.858 216.328 207.858 215.392C207.858 214.456 208.026 213.634 208.362 212.926C208.698 212.218 209.166 211.672 209.766 211.288C210.378 210.904 211.086 210.712 211.89 210.712C212.574 210.712 213.174 210.856 213.69 211.144C214.218 211.432 214.614 211.84 214.878 212.368V206.752H216.696ZM212.304 218.686C213.132 218.686 213.768 218.404 214.212 217.84C214.668 217.264 214.896 216.46 214.896 215.428C214.896 214.396 214.668 213.598 214.212 213.034C213.768 212.458 213.138 212.17 212.322 212.17C211.494 212.17 210.846 212.452 210.378 213.016C209.922 213.58 209.694 214.372 209.694 215.392C209.694 216.424 209.922 217.234 210.378 217.822C210.846 218.398 211.488 218.686 212.304 218.686ZM227.388 208.732H223.05V207.184H233.598V208.732H229.26V220H227.388V208.732ZM242.044 210.928V220H240.244V218.452C239.98 218.992 239.584 219.406 239.056 219.694C238.54 219.982 237.934 220.126 237.238 220.126C236.434 220.126 235.726 219.934 235.114 219.55C234.514 219.166 234.046 218.626 233.71 217.93C233.374 217.222 233.206 216.4 233.206 215.464C233.206 214.528 233.374 213.7 233.71 212.98C234.058 212.26 234.538 211.702 235.15 211.306C235.762 210.91 236.458 210.712 237.238 210.712C237.934 210.712 238.54 210.862 239.056 211.162C239.572 211.45 239.968 211.864 240.244 212.404V210.928H242.044ZM237.67 218.686C238.486 218.686 239.116 218.404 239.56 217.84C240.016 217.264 240.244 216.46 240.244 215.428C240.244 214.384 240.016 213.58 239.56 213.016C239.116 212.452 238.48 212.17 237.652 212.17C236.836 212.17 236.194 212.464 235.726 213.052C235.27 213.628 235.042 214.432 235.042 215.464C235.042 216.484 235.27 217.276 235.726 217.84C236.194 218.404 236.842 218.686 237.67 218.686ZM253.085 210.928V219.838C253.085 221.218 252.719 222.256 251.987 222.952C251.267 223.66 250.193 224.014 248.765 224.014C247.385 224.014 246.179 223.714 245.147 223.114L245.453 221.692C246.017 221.992 246.557 222.214 247.073 222.358C247.601 222.502 248.159 222.574 248.747 222.574C250.439 222.574 251.285 221.71 251.285 219.982V218.02C251.009 218.548 250.607 218.968 250.079 219.28C249.551 219.58 248.939 219.73 248.243 219.73C247.451 219.73 246.743 219.544 246.119 219.172C245.507 218.8 245.027 218.272 244.679 217.588C244.343 216.904 244.175 216.118 244.175 215.23C244.175 214.342 244.343 213.556 244.679 212.872C245.027 212.188 245.507 211.66 246.119 211.288C246.743 210.904 247.451 210.712 248.243 210.712C248.939 210.712 249.551 210.862 250.079 211.162C250.607 211.45 251.009 211.864 251.285 212.404V210.928H253.085ZM248.657 218.272C249.473 218.272 250.115 218.002 250.583 217.462C251.051 216.922 251.285 216.178 251.285 215.23C251.285 214.282 251.051 213.538 250.583 212.998C250.127 212.446 249.485 212.17 248.657 212.17C247.841 212.17 247.193 212.446 246.713 212.998C246.245 213.538 246.011 214.282 246.011 215.23C246.011 216.166 246.245 216.91 246.713 217.462C247.193 218.002 247.841 218.272 248.657 218.272ZM258.922 220.126C257.338 220.126 256.09 219.742 255.178 218.974L255.718 217.66C256.666 218.38 257.752 218.74 258.976 218.74C259.6 218.74 260.074 218.638 260.398 218.434C260.722 218.218 260.884 217.918 260.884 217.534C260.884 217.21 260.77 216.958 260.542 216.778C260.326 216.586 259.954 216.424 259.426 216.292L257.914 215.932C257.122 215.764 256.516 215.47 256.096 215.05C255.688 214.618 255.484 214.084 255.484 213.448C255.484 212.632 255.808 211.972 256.456 211.468C257.116 210.964 257.986 210.712 259.066 210.712C259.714 210.712 260.326 210.814 260.902 211.018C261.49 211.222 261.988 211.51 262.396 211.882L261.838 213.16C260.962 212.464 260.038 212.116 259.066 212.116C258.478 212.116 258.022 212.23 257.698 212.458C257.374 212.674 257.212 212.98 257.212 213.376C257.212 213.688 257.314 213.94 257.518 214.132C257.722 214.324 258.046 214.474 258.49 214.582L260.038 214.96C260.902 215.152 261.538 215.458 261.946 215.878C262.366 216.286 262.576 216.82 262.576 217.48C262.576 218.296 262.246 218.944 261.586 219.424C260.938 219.892 260.05 220.126 258.922 220.126Z" fill="#3C3C43" fill-opacity="0.6"/>
<path d="M97.688 269.144C96.692 269.144 95.78 269.012 94.952 268.748C94.136 268.484 93.428 268.088 92.828 267.56L93.494 266.192C94.118 266.696 94.766 267.062 95.438 267.29C96.11 267.518 96.866 267.632 97.706 267.632C98.666 267.632 99.41 267.452 99.938 267.092C100.466 266.732 100.73 266.222 100.73 265.562C100.73 265.01 100.484 264.596 99.992 264.32C99.5 264.032 98.72 263.768 97.652 263.528C96.632 263.312 95.798 263.066 95.15 262.79C94.502 262.502 93.992 262.124 93.62 261.656C93.248 261.176 93.062 260.564 93.062 259.82C93.062 259.076 93.26 258.422 93.656 257.858C94.052 257.282 94.61 256.838 95.33 256.526C96.062 256.202 96.902 256.04 97.85 256.04C98.75 256.04 99.59 256.178 100.37 256.454C101.162 256.73 101.822 257.12 102.35 257.624L101.684 258.992C101.096 258.5 100.49 258.14 99.866 257.912C99.242 257.672 98.576 257.552 97.868 257.552C96.944 257.552 96.218 257.75 95.69 258.146C95.162 258.53 94.898 259.058 94.898 259.73C94.898 260.306 95.126 260.744 95.582 261.044C96.05 261.344 96.794 261.614 97.814 261.854C98.882 262.094 99.746 262.346 100.406 262.61C101.066 262.874 101.594 263.234 101.99 263.69C102.386 264.146 102.584 264.734 102.584 265.454C102.584 266.198 102.386 266.846 101.99 267.398C101.594 267.95 101.024 268.382 100.28 268.694C99.548 268.994 98.684 269.144 97.688 269.144ZM112.463 264.5H105.983C106.043 266.624 107.009 267.686 108.881 267.686C109.925 267.686 110.879 267.344 111.743 266.66L112.301 267.956C111.893 268.316 111.371 268.604 110.735 268.82C110.111 269.024 109.481 269.126 108.845 269.126C107.393 269.126 106.253 268.712 105.425 267.884C104.597 267.044 104.183 265.898 104.183 264.446C104.183 263.522 104.363 262.7 104.723 261.98C105.095 261.26 105.611 260.702 106.271 260.306C106.931 259.91 107.681 259.712 108.521 259.712C109.745 259.712 110.705 260.108 111.401 260.9C112.109 261.692 112.463 262.79 112.463 264.194V264.5ZM108.557 261.062C107.873 261.062 107.315 261.266 106.883 261.674C106.451 262.082 106.175 262.664 106.055 263.42H110.861C110.789 262.652 110.555 262.07 110.159 261.674C109.763 261.266 109.229 261.062 108.557 261.062ZM122.847 259.928V269H121.047V267.452C120.783 267.992 120.387 268.406 119.859 268.694C119.343 268.982 118.737 269.126 118.041 269.126C117.237 269.126 116.529 268.934 115.917 268.55C115.317 268.166 114.849 267.626 114.513 266.93C114.177 266.222 114.009 265.4 114.009 264.464C114.009 263.528 114.177 262.7 114.513 261.98C114.861 261.26 115.341 260.702 115.953 260.306C116.565 259.91 117.261 259.712 118.041 259.712C118.737 259.712 119.343 259.862 119.859 260.162C120.375 260.45 120.771 260.864 121.047 261.404V259.928H122.847ZM118.473 267.686C119.289 267.686 119.919 267.404 120.363 266.84C120.819 266.264 121.047 265.46 121.047 264.428C121.047 263.384 120.819 262.58 120.363 262.016C119.919 261.452 119.283 261.17 118.455 261.17C117.639 261.17 116.997 261.464 116.529 262.052C116.073 262.628 115.845 263.432 115.845 264.464C115.845 265.484 116.073 266.276 116.529 266.84C116.997 267.404 117.645 267.686 118.473 267.686ZM130.036 259.712C130.312 259.712 130.6 259.754 130.9 259.838L130.864 261.494C130.54 261.374 130.186 261.314 129.802 261.314C128.974 261.314 128.35 261.566 127.93 262.07C127.522 262.562 127.318 263.186 127.318 263.942V269H125.518V262.484C125.518 261.536 125.47 260.684 125.374 259.928H127.066L127.228 261.566C127.468 260.966 127.84 260.51 128.344 260.198C128.848 259.874 129.412 259.712 130.036 259.712ZM136.051 269.126C135.139 269.126 134.341 268.934 133.657 268.55C132.985 268.166 132.469 267.626 132.109 266.93C131.749 266.222 131.569 265.4 131.569 264.464C131.569 263.528 131.755 262.7 132.127 261.98C132.511 261.26 133.045 260.702 133.729 260.306C134.413 259.91 135.211 259.712 136.123 259.712C136.759 259.712 137.371 259.82 137.959 260.036C138.547 260.24 139.021 260.522 139.381 260.882L138.823 262.196C137.971 261.524 137.113 261.188 136.249 261.188C135.373 261.188 134.689 261.476 134.197 262.052C133.705 262.616 133.459 263.414 133.459 264.446C133.459 265.478 133.705 266.276 134.197 266.84C134.689 267.392 135.373 267.668 136.249 267.668C137.137 267.668 137.995 267.332 138.823 266.66L139.381 267.974C138.997 268.334 138.505 268.616 137.905 268.82C137.317 269.024 136.699 269.126 136.051 269.126ZM145.916 259.712C148.088 259.712 149.174 260.924 149.174 263.348V269H147.356V263.456C147.356 262.664 147.2 262.088 146.888 261.728C146.588 261.368 146.102 261.188 145.43 261.188C144.662 261.188 144.044 261.428 143.576 261.908C143.12 262.388 142.892 263.03 142.892 263.834V269H141.092V255.752H142.892V261.332C143.192 260.804 143.606 260.402 144.134 260.126C144.662 259.85 145.256 259.712 145.916 259.712ZM161.367 259.712C162.159 259.712 162.861 259.904 163.473 260.288C164.085 260.672 164.559 261.218 164.895 261.926C165.231 262.634 165.399 263.456 165.399 264.392C165.399 265.328 165.225 266.156 164.877 266.876C164.541 267.584 164.067 268.136 163.455 268.532C162.843 268.928 162.147 269.126 161.367 269.126C160.671 269.126 160.059 268.982 159.531 268.694C159.015 268.394 158.625 267.968 158.361 267.416V269H156.561V255.752H158.361V261.422C158.625 260.882 159.015 260.462 159.531 260.162C160.059 259.862 160.671 259.712 161.367 259.712ZM160.953 267.686C161.769 267.686 162.405 267.398 162.861 266.822C163.317 266.234 163.545 265.424 163.545 264.392C163.545 263.372 163.317 262.58 162.861 262.016C162.405 261.452 161.769 261.17 160.953 261.17C160.125 261.17 159.483 261.452 159.027 262.016C158.583 262.58 158.361 263.384 158.361 264.428C158.361 265.472 158.583 266.276 159.027 266.84C159.483 267.404 160.125 267.686 160.953 267.686ZM175.65 259.928L171.42 269.738C170.952 270.806 170.364 271.586 169.656 272.078C168.96 272.582 168.096 272.918 167.064 273.086L166.668 271.682C167.52 271.49 168.162 271.238 168.594 270.926C169.038 270.626 169.392 270.17 169.656 269.558L169.98 268.802L166.164 259.928H168.09L170.934 266.948L173.832 259.928H175.65ZM192.403 262.196V268.244C191.863 268.52 191.179 268.742 190.351 268.91C189.535 269.066 188.701 269.144 187.849 269.144C186.553 269.144 185.431 268.886 184.483 268.37C183.535 267.842 182.809 267.086 182.305 266.102C181.813 265.118 181.567 263.942 181.567 262.574C181.567 261.23 181.813 260.066 182.305 259.082C182.809 258.098 183.523 257.348 184.447 256.832C185.383 256.304 186.481 256.04 187.741 256.04C188.641 256.04 189.469 256.178 190.225 256.454C190.993 256.718 191.647 257.102 192.187 257.606L191.521 258.992C190.909 258.488 190.309 258.128 189.721 257.912C189.133 257.696 188.479 257.588 187.759 257.588C186.367 257.588 185.305 258.014 184.573 258.866C183.853 259.718 183.493 260.954 183.493 262.574C183.493 264.242 183.865 265.508 184.609 266.372C185.353 267.224 186.451 267.65 187.903 267.65C188.875 267.65 189.811 267.506 190.711 267.218V263.618H187.723V262.196H192.403ZM202.832 264.5H196.352C196.412 266.624 197.378 267.686 199.25 267.686C200.294 267.686 201.248 267.344 202.112 266.66L202.67 267.956C202.262 268.316 201.74 268.604 201.104 268.82C200.48 269.024 199.85 269.126 199.214 269.126C197.762 269.126 196.622 268.712 195.794 267.884C194.966 267.044 194.552 265.898 194.552 264.446C194.552 263.522 194.732 262.7 195.092 261.98C195.464 261.26 195.98 260.702 196.64 260.306C197.3 259.91 198.05 259.712 198.89 259.712C200.114 259.712 201.074 260.108 201.77 260.9C202.478 261.692 202.832 262.79 202.832 264.194V264.5ZM198.926 261.062C198.242 261.062 197.684 261.266 197.252 261.674C196.82 262.082 196.544 262.664 196.424 263.42H201.23C201.158 262.652 200.924 262.07 200.528 261.674C200.132 261.266 199.598 261.062 198.926 261.062ZM209.742 259.712C211.914 259.712 213 260.924 213 263.348V269H211.182V263.456C211.182 262.664 211.026 262.088 210.714 261.728C210.414 261.368 209.928 261.188 209.256 261.188C208.488 261.188 207.87 261.428 207.402 261.908C206.946 262.388 206.718 263.03 206.718 263.834V269H204.918V262.484C204.918 261.536 204.87 260.684 204.774 259.928H206.466L206.628 261.494C206.916 260.918 207.33 260.48 207.87 260.18C208.422 259.868 209.046 259.712 209.742 259.712ZM220.106 259.712C220.382 259.712 220.67 259.754 220.97 259.838L220.934 261.494C220.61 261.374 220.256 261.314 219.872 261.314C219.044 261.314 218.42 261.566 218 262.07C217.592 262.562 217.388 263.186 217.388 263.942V269H215.588V262.484C215.588 261.536 215.54 260.684 215.444 259.928H217.136L217.298 261.566C217.538 260.966 217.91 260.51 218.414 260.198C218.918 259.874 219.482 259.712 220.106 259.712ZM229.92 264.5H223.44C223.5 266.624 224.466 267.686 226.338 267.686C227.382 267.686 228.336 267.344 229.2 266.66L229.758 267.956C229.35 268.316 228.828 268.604 228.192 268.82C227.568 269.024 226.938 269.126 226.302 269.126C224.85 269.126 223.71 268.712 222.882 267.884C222.054 267.044 221.64 265.898 221.64 264.446C221.64 263.522 221.82 262.7 222.18 261.98C222.552 261.26 223.068 260.702 223.728 260.306C224.388 259.91 225.138 259.712 225.978 259.712C227.202 259.712 228.162 260.108 228.858 260.9C229.566 261.692 229.92 262.79 229.92 264.194V264.5ZM226.014 261.062C225.33 261.062 224.772 261.266 224.34 261.674C223.908 262.082 223.632 262.664 223.512 263.42H228.318C228.246 262.652 228.012 262.07 227.616 261.674C227.22 261.266 226.686 261.062 226.014 261.062ZM235.174 269.126C233.59 269.126 232.342 268.742 231.43 267.974L231.97 266.66C232.918 267.38 234.004 267.74 235.228 267.74C235.852 267.74 236.326 267.638 236.65 267.434C236.974 267.218 237.136 266.918 237.136 266.534C237.136 266.21 237.022 265.958 236.794 265.778C236.578 265.586 236.206 265.424 235.678 265.292L234.166 264.932C233.374 264.764 232.768 264.47 232.348 264.05C231.94 263.618 231.736 263.084 231.736 262.448C231.736 261.632 232.06 260.972 232.708 260.468C233.368 259.964 234.238 259.712 235.318 259.712C235.966 259.712 236.578 259.814 237.154 260.018C237.742 260.222 238.24 260.51 238.648 260.882L238.09 262.16C237.214 261.464 236.29 261.116 235.318 261.116C234.73 261.116 234.274 261.23 233.95 261.458C233.626 261.674 233.464 261.98 233.464 262.376C233.464 262.688 233.566 262.94 233.77 263.132C233.974 263.324 234.298 263.474 234.742 263.582L236.29 263.96C237.154 264.152 237.79 264.458 238.198 264.878C238.618 265.286 238.828 265.82 238.828 266.48C238.828 267.296 238.498 267.944 237.838 268.424C237.19 268.892 236.302 269.126 235.174 269.126Z" fill="#3C3C43" fill-opacity="0.6"/>
<path d="M97.688 319.144C96.692 319.144 95.78 319.012 94.952 318.748C94.136 318.484 93.428 318.088 92.828 317.56L93.494 316.192C94.118 316.696 94.766 317.062 95.438 317.29C96.11 317.518 96.866 317.632 97.706 317.632C98.666 317.632 99.41 317.452 99.938 317.092C100.466 316.732 100.73 316.222 100.73 315.562C100.73 315.01 100.484 314.596 99.992 314.32C99.5 314.032 98.72 313.768 97.652 313.528C96.632 313.312 95.798 313.066 95.15 312.79C94.502 312.502 93.992 312.124 93.62 311.656C93.248 311.176 93.062 310.564 93.062 309.82C93.062 309.076 93.26 308.422 93.656 307.858C94.052 307.282 94.61 306.838 95.33 306.526C96.062 306.202 96.902 306.04 97.85 306.04C98.75 306.04 99.59 306.178 100.37 306.454C101.162 306.73 101.822 307.12 102.35 307.624L101.684 308.992C101.096 308.5 100.49 308.14 99.866 307.912C99.242 307.672 98.576 307.552 97.868 307.552C96.944 307.552 96.218 307.75 95.69 308.146C95.162 308.53 94.898 309.058 94.898 309.73C94.898 310.306 95.126 310.744 95.582 311.044C96.05 311.344 96.794 311.614 97.814 311.854C98.882 312.094 99.746 312.346 100.406 312.61C101.066 312.874 101.594 313.234 101.99 313.69C102.386 314.146 102.584 314.734 102.584 315.454C102.584 316.198 102.386 316.846 101.99 317.398C101.594 317.95 101.024 318.382 100.28 318.694C99.548 318.994 98.684 319.144 97.688 319.144ZM112.607 309.928V319H110.843V317.488C110.555 318.016 110.159 318.424 109.655 318.712C109.151 318.988 108.581 319.126 107.945 319.126C105.761 319.126 104.669 317.914 104.669 315.49V309.928H106.469V315.472C106.469 316.216 106.619 316.768 106.919 317.128C107.231 317.476 107.699 317.65 108.323 317.65C109.067 317.65 109.661 317.41 110.105 316.93C110.561 316.45 110.789 315.814 110.789 315.022V309.928H112.607ZM123.64 309.928V318.838C123.64 320.218 123.274 321.256 122.542 321.952C121.822 322.66 120.748 323.014 119.32 323.014C117.94 323.014 116.734 322.714 115.702 322.114L116.008 320.692C116.572 320.992 117.112 321.214 117.628 321.358C118.156 321.502 118.714 321.574 119.302 321.574C120.994 321.574 121.84 320.71 121.84 318.982V317.02C121.564 317.548 121.162 317.968 120.634 318.28C120.106 318.58 119.494 318.73 118.798 318.73C118.006 318.73 117.298 318.544 116.674 318.172C116.062 317.8 115.582 317.272 115.234 316.588C114.898 315.904 114.73 315.118 114.73 314.23C114.73 313.342 114.898 312.556 115.234 311.872C115.582 311.188 116.062 310.66 116.674 310.288C117.298 309.904 118.006 309.712 118.798 309.712C119.494 309.712 120.106 309.862 120.634 310.162C121.162 310.45 121.564 310.864 121.84 311.404V309.928H123.64ZM119.212 317.272C120.028 317.272 120.67 317.002 121.138 316.462C121.606 315.922 121.84 315.178 121.84 314.23C121.84 313.282 121.606 312.538 121.138 311.998C120.682 311.446 120.04 311.17 119.212 311.17C118.396 311.17 117.748 311.446 117.268 311.998C116.8 312.538 116.566 313.282 116.566 314.23C116.566 315.166 116.8 315.91 117.268 316.462C117.748 317.002 118.396 317.272 119.212 317.272ZM134.679 309.928V318.838C134.679 320.218 134.313 321.256 133.581 321.952C132.861 322.66 131.787 323.014 130.359 323.014C128.979 323.014 127.773 322.714 126.741 322.114L127.047 320.692C127.611 320.992 128.151 321.214 128.667 321.358C129.195 321.502 129.753 321.574 130.341 321.574C132.033 321.574 132.879 320.71 132.879 318.982V317.02C132.603 317.548 132.201 317.968 131.673 318.28C131.145 318.58 130.533 318.73 129.837 318.73C129.045 318.73 128.337 318.544 127.713 318.172C127.101 317.8 126.621 317.272 126.273 316.588C125.937 315.904 125.769 315.118 125.769 314.23C125.769 313.342 125.937 312.556 126.273 311.872C126.621 311.188 127.101 310.66 127.713 310.288C128.337 309.904 129.045 309.712 129.837 309.712C130.533 309.712 131.145 309.862 131.673 310.162C132.201 310.45 132.603 310.864 132.879 311.404V309.928H134.679ZM130.251 317.272C131.067 317.272 131.709 317.002 132.177 316.462C132.645 315.922 132.879 315.178 132.879 314.23C132.879 313.282 132.645 312.538 132.177 311.998C131.721 311.446 131.079 311.17 130.251 311.17C129.435 311.17 128.787 311.446 128.307 311.998C127.839 312.538 127.605 313.282 127.605 314.23C127.605 315.166 127.839 315.91 128.307 316.462C128.787 317.002 129.435 317.272 130.251 317.272ZM145.088 314.5H138.608C138.668 316.624 139.634 317.686 141.506 317.686C142.55 317.686 143.504 317.344 144.368 316.66L144.926 317.956C144.518 318.316 143.996 318.604 143.36 318.82C142.736 319.024 142.106 319.126 141.47 319.126C140.018 319.126 138.878 318.712 138.05 317.884C137.222 317.044 136.808 315.898 136.808 314.446C136.808 313.522 136.988 312.7 137.348 311.98C137.72 311.26 138.236 310.702 138.896 310.306C139.556 309.91 140.306 309.712 141.146 309.712C142.37 309.712 143.33 310.108 144.026 310.9C144.734 311.692 145.088 312.79 145.088 314.194V314.5ZM141.182 311.062C140.498 311.062 139.94 311.266 139.508 311.674C139.076 312.082 138.8 312.664 138.68 313.42H143.486C143.414 312.652 143.18 312.07 142.784 311.674C142.388 311.266 141.854 311.062 141.182 311.062ZM150.342 319.126C148.758 319.126 147.51 318.742 146.598 317.974L147.138 316.66C148.086 317.38 149.172 317.74 150.396 317.74C151.02 317.74 151.494 317.638 151.818 317.434C152.142 317.218 152.304 316.918 152.304 316.534C152.304 316.21 152.19 315.958 151.962 315.778C151.746 315.586 151.374 315.424 150.846 315.292L149.334 314.932C148.542 314.764 147.936 314.47 147.516 314.05C147.108 313.618 146.904 313.084 146.904 312.448C146.904 311.632 147.228 310.972 147.876 310.468C148.536 309.964 149.406 309.712 150.486 309.712C151.134 309.712 151.746 309.814 152.322 310.018C152.91 310.222 153.408 310.51 153.816 310.882L153.258 312.16C152.382 311.464 151.458 311.116 150.486 311.116C149.898 311.116 149.442 311.23 149.118 311.458C148.794 311.674 148.632 311.98 148.632 312.376C148.632 312.688 148.734 312.94 148.938 313.132C149.142 313.324 149.466 313.474 149.91 313.582L151.458 313.96C152.322 314.152 152.958 314.458 153.366 314.878C153.786 315.286 153.996 315.82 153.996 316.48C153.996 317.296 153.666 317.944 153.006 318.424C152.358 318.892 151.47 319.126 150.342 319.126ZM158.409 311.332V315.886C158.409 316.51 158.541 316.954 158.805 317.218C159.081 317.47 159.459 317.596 159.939 317.596C160.251 317.596 160.569 317.548 160.893 317.452V318.928C160.497 319.06 160.047 319.126 159.543 319.126C158.607 319.126 157.881 318.862 157.365 318.334C156.849 317.806 156.591 317.038 156.591 316.03V311.332H154.827V309.928H156.591V307.66L158.409 307.03V309.928H160.911V311.332H158.409ZM162.59 309.928H164.39V319H162.59V309.928ZM164.534 305.968V307.876H162.428V305.968H164.534ZM170.961 319.126C170.073 319.126 169.293 318.934 168.621 318.55C167.949 318.166 167.427 317.62 167.055 316.912C166.695 316.204 166.515 315.376 166.515 314.428C166.515 313.48 166.695 312.652 167.055 311.944C167.427 311.224 167.949 310.672 168.621 310.288C169.293 309.904 170.073 309.712 170.961 309.712C171.837 309.712 172.611 309.904 173.283 310.288C173.955 310.672 174.471 311.224 174.831 311.944C175.203 312.652 175.389 313.48 175.389 314.428C175.389 315.376 175.203 316.204 174.831 316.912C174.471 317.62 173.955 318.166 173.283 318.55C172.611 318.934 171.837 319.126 170.961 319.126ZM170.943 317.686C171.783 317.686 172.425 317.41 172.869 316.858C173.313 316.306 173.535 315.496 173.535 314.428C173.535 313.384 173.307 312.58 172.851 312.016C172.407 311.452 171.777 311.17 170.961 311.17C170.133 311.17 169.491 311.452 169.035 312.016C168.579 312.58 168.351 313.384 168.351 314.428C168.351 315.496 168.573 316.306 169.017 316.858C169.473 317.41 170.115 317.686 170.943 317.686ZM182.338 309.712C184.51 309.712 185.596 310.924 185.596 313.348V319H183.778V313.456C183.778 312.664 183.622 312.088 183.31 311.728C183.01 311.368 182.524 311.188 181.852 311.188C181.084 311.188 180.466 311.428 179.998 311.908C179.542 312.388 179.314 313.03 179.314 313.834V319H177.514V312.484C177.514 311.536 177.466 310.684 177.37 309.928H179.062L179.224 311.494C179.512 310.918 179.926 310.48 180.466 310.18C181.018 309.868 181.642 309.712 182.338 309.712ZM191.352 319.126C189.768 319.126 188.52 318.742 187.608 317.974L188.148 316.66C189.096 317.38 190.182 317.74 191.406 317.74C192.03 317.74 192.504 317.638 192.828 317.434C193.152 317.218 193.314 316.918 193.314 316.534C193.314 316.21 193.2 315.958 192.972 315.778C192.756 315.586 192.384 315.424 191.856 315.292L190.344 314.932C189.552 314.764 188.946 314.47 188.526 314.05C188.118 313.618 187.914 313.084 187.914 312.448C187.914 311.632 188.238 310.972 188.886 310.468C189.546 309.964 190.416 309.712 191.496 309.712C192.144 309.712 192.756 309.814 193.332 310.018C193.92 310.222 194.418 310.51 194.826 310.882L194.268 312.16C193.392 311.464 192.468 311.116 191.496 311.116C190.908 311.116 190.452 311.23 190.128 311.458C189.804 311.674 189.642 311.98 189.642 312.376C189.642 312.688 189.744 312.94 189.948 313.132C190.152 313.324 190.476 313.474 190.92 313.582L192.468 313.96C193.332 314.152 193.968 314.458 194.376 314.878C194.796 315.286 195.006 315.82 195.006 316.48C195.006 317.296 194.676 317.944 194.016 318.424C193.368 318.892 192.48 319.126 191.352 319.126Z" fill="#3C3C43" fill-opacity="0.6"/>
<path d="M103.772 370H101.81L100.208 365.734C100.04 365.278 99.794 364.966 99.47 364.798C99.146 364.618 98.702 364.528 98.138 364.528H95.33V370H93.494V357.184H98.768C100.172 357.184 101.246 357.496 101.99 358.12C102.746 358.744 103.124 359.638 103.124 360.802C103.124 361.642 102.902 362.356 102.458 362.944C102.014 363.532 101.384 363.946 100.568 364.186C101.312 364.318 101.852 364.846 102.188 365.77L103.772 370ZM98.552 363.034C99.488 363.034 100.184 362.854 100.64 362.494C101.096 362.122 101.324 361.57 101.324 360.838C101.324 360.106 101.096 359.566 100.64 359.218C100.196 358.858 99.5 358.678 98.552 358.678H95.33V363.034H98.552ZM113.623 365.5H107.143C107.203 367.624 108.169 368.686 110.041 368.686C111.085 368.686 112.039 368.344 112.903 367.66L113.461 368.956C113.053 369.316 112.531 369.604 111.895 369.82C111.271 370.024 110.641 370.126 110.005 370.126C108.553 370.126 107.413 369.712 106.585 368.884C105.757 368.044 105.343 366.898 105.343 365.446C105.343 364.522 105.523 363.7 105.883 362.98C106.255 362.26 106.771 361.702 107.431 361.306C108.091 360.91 108.841 360.712 109.681 360.712C110.905 360.712 111.865 361.108 112.561 361.9C113.269 362.692 113.623 363.79 113.623 365.194V365.5ZM109.717 362.062C109.033 362.062 108.475 362.266 108.043 362.674C107.611 363.082 107.335 363.664 107.215 364.42H112.021C111.949 363.652 111.715 363.07 111.319 362.674C110.923 362.266 110.389 362.062 109.717 362.062ZM119.651 370.126C118.739 370.126 117.941 369.934 117.257 369.55C116.585 369.166 116.069 368.626 115.709 367.93C115.349 367.222 115.169 366.4 115.169 365.464C115.169 364.528 115.355 363.7 115.727 362.98C116.111 362.26 116.645 361.702 117.329 361.306C118.013 360.91 118.811 360.712 119.723 360.712C120.359 360.712 120.971 360.82 121.559 361.036C122.147 361.24 122.621 361.522 122.981 361.882L122.423 363.196C121.571 362.524 120.713 362.188 119.849 362.188C118.973 362.188 118.289 362.476 117.797 363.052C117.305 363.616 117.059 364.414 117.059 365.446C117.059 366.478 117.305 367.276 117.797 367.84C118.289 368.392 118.973 368.668 119.849 368.668C120.737 368.668 121.595 368.332 122.423 367.66L122.981 368.974C122.597 369.334 122.105 369.616 121.505 369.82C120.917 370.024 120.299 370.126 119.651 370.126ZM132.431 365.5H125.951C126.011 367.624 126.977 368.686 128.849 368.686C129.893 368.686 130.847 368.344 131.711 367.66L132.269 368.956C131.861 369.316 131.339 369.604 130.703 369.82C130.079 370.024 129.449 370.126 128.813 370.126C127.361 370.126 126.221 369.712 125.393 368.884C124.565 368.044 124.151 366.898 124.151 365.446C124.151 364.522 124.331 363.7 124.691 362.98C125.063 362.26 125.579 361.702 126.239 361.306C126.899 360.91 127.649 360.712 128.489 360.712C129.713 360.712 130.673 361.108 131.369 361.9C132.077 362.692 132.431 363.79 132.431 365.194V365.5ZM128.525 362.062C127.841 362.062 127.283 362.266 126.851 362.674C126.419 363.082 126.143 363.664 126.023 364.42H130.829C130.757 363.652 130.523 363.07 130.127 362.674C129.731 362.266 129.197 362.062 128.525 362.062ZM139.342 360.712C141.514 360.712 142.6 361.924 142.6 364.348V370H140.782V364.456C140.782 363.664 140.626 363.088 140.314 362.728C140.014 362.368 139.528 362.188 138.856 362.188C138.088 362.188 137.47 362.428 137.002 362.908C136.546 363.388 136.318 364.03 136.318 364.834V370H134.518V363.484C134.518 362.536 134.47 361.684 134.374 360.928H136.066L136.228 362.494C136.516 361.918 136.93 361.48 137.47 361.18C138.022 360.868 138.646 360.712 139.342 360.712ZM147.545 362.332V366.886C147.545 367.51 147.677 367.954 147.941 368.218C148.217 368.47 148.595 368.596 149.075 368.596C149.387 368.596 149.705 368.548 150.029 368.452V369.928C149.633 370.06 149.183 370.126 148.679 370.126C147.743 370.126 147.017 369.862 146.501 369.334C145.985 368.806 145.727 368.038 145.727 367.03V362.332H143.963V360.928H145.727V358.66L147.545 358.03V360.928H150.047V362.332H147.545ZM160.881 370.144C159.885 370.144 158.973 370.012 158.145 369.748C157.329 369.484 156.621 369.088 156.021 368.56L156.687 367.192C157.311 367.696 157.959 368.062 158.631 368.29C159.303 368.518 160.059 368.632 160.899 368.632C161.859 368.632 162.603 368.452 163.131 368.092C163.659 367.732 163.923 367.222 163.923 366.562C163.923 366.01 163.677 365.596 163.185 365.32C162.693 365.032 161.913 364.768 160.845 364.528C159.825 364.312 158.991 364.066 158.343 363.79C157.695 363.502 157.185 363.124 156.813 362.656C156.441 362.176 156.255 361.564 156.255 360.82C156.255 360.076 156.453 359.422 156.849 358.858C157.245 358.282 157.803 357.838 158.523 357.526C159.255 357.202 160.095 357.04 161.043 357.04C161.943 357.04 162.783 357.178 163.563 357.454C164.355 357.73 165.015 358.12 165.543 358.624L164.877 359.992C164.289 359.5 163.683 359.14 163.059 358.912C162.435 358.672 161.769 358.552 161.061 358.552C160.137 358.552 159.411 358.75 158.883 359.146C158.355 359.53 158.091 360.058 158.091 360.73C158.091 361.306 158.319 361.744 158.775 362.044C159.243 362.344 159.987 362.614 161.007 362.854C162.075 363.094 162.939 363.346 163.599 363.61C164.259 363.874 164.787 364.234 165.183 364.69C165.579 365.146 165.777 365.734 165.777 366.454C165.777 367.198 165.579 367.846 165.183 368.398C164.787 368.95 164.217 369.382 163.473 369.694C162.741 369.994 161.877 370.144 160.881 370.144ZM175.656 365.5H169.176C169.236 367.624 170.202 368.686 172.074 368.686C173.118 368.686 174.072 368.344 174.936 367.66L175.494 368.956C175.086 369.316 174.564 369.604 173.928 369.82C173.304 370.024 172.674 370.126 172.038 370.126C170.586 370.126 169.446 369.712 168.618 368.884C167.79 368.044 167.376 366.898 167.376 365.446C167.376 364.522 167.556 363.7 167.916 362.98C168.288 362.26 168.804 361.702 169.464 361.306C170.124 360.91 170.874 360.712 171.714 360.712C172.938 360.712 173.898 361.108 174.594 361.9C175.302 362.692 175.656 363.79 175.656 365.194V365.5ZM171.75 362.062C171.066 362.062 170.508 362.266 170.076 362.674C169.644 363.082 169.368 363.664 169.248 364.42H174.054C173.982 363.652 173.748 363.07 173.352 362.674C172.956 362.266 172.422 362.062 171.75 362.062ZM186.04 360.928V370H184.24V368.452C183.976 368.992 183.58 369.406 183.052 369.694C182.536 369.982 181.93 370.126 181.234 370.126C180.43 370.126 179.722 369.934 179.11 369.55C178.51 369.166 178.042 368.626 177.706 367.93C177.37 367.222 177.202 366.4 177.202 365.464C177.202 364.528 177.37 363.7 177.706 362.98C178.054 362.26 178.534 361.702 179.146 361.306C179.758 360.91 180.454 360.712 181.234 360.712C181.93 360.712 182.536 360.862 183.052 361.162C183.568 361.45 183.964 361.864 184.24 362.404V360.928H186.04ZM181.666 368.686C182.482 368.686 183.112 368.404 183.556 367.84C184.012 367.264 184.24 366.46 184.24 365.428C184.24 364.384 184.012 363.58 183.556 363.016C183.112 362.452 182.476 362.17 181.648 362.17C180.832 362.17 180.19 362.464 179.722 363.052C179.266 363.628 179.038 364.432 179.038 365.464C179.038 366.484 179.266 367.276 179.722 367.84C180.19 368.404 180.838 368.686 181.666 368.686ZM193.229 360.712C193.505 360.712 193.793 360.754 194.093 360.838L194.057 362.494C193.733 362.374 193.379 362.314 192.995 362.314C192.167 362.314 191.543 362.566 191.123 363.07C190.715 363.562 190.511 364.186 190.511 364.942V370H188.711V363.484C188.711 362.536 188.663 361.684 188.567 360.928H190.259L190.421 362.566C190.661 361.966 191.033 361.51 191.537 361.198C192.041 360.874 192.605 360.712 193.229 360.712ZM199.245 370.126C198.333 370.126 197.535 369.934 196.851 369.55C196.179 369.166 195.663 368.626 195.303 367.93C194.943 367.222 194.763 366.4 194.763 365.464C194.763 364.528 194.949 363.7 195.321 362.98C195.705 362.26 196.239 361.702 196.923 361.306C197.607 360.91 198.405 360.712 199.317 360.712C199.953 360.712 200.565 360.82 201.153 361.036C201.741 361.24 202.215 361.522 202.575 361.882L202.017 363.196C201.165 362.524 200.307 362.188 199.443 362.188C198.567 362.188 197.883 362.476 197.391 363.052C196.899 363.616 196.653 364.414 196.653 365.446C196.653 366.478 196.899 367.276 197.391 367.84C197.883 368.392 198.567 368.668 199.443 368.668C200.331 368.668 201.189 368.332 202.017 367.66L202.575 368.974C202.191 369.334 201.699 369.616 201.099 369.82C200.511 370.024 199.893 370.126 199.245 370.126ZM209.109 360.712C211.281 360.712 212.367 361.924 212.367 364.348V370H210.549V364.456C210.549 363.664 210.393 363.088 210.081 362.728C209.781 362.368 209.295 362.188 208.623 362.188C207.855 362.188 207.237 362.428 206.769 362.908C206.313 363.388 206.085 364.03 206.085 364.834V370H204.285V356.752H206.085V362.332C206.385 361.804 206.799 361.402 207.327 361.126C207.855 360.85 208.449 360.712 209.109 360.712ZM222.695 365.5H216.215C216.275 367.624 217.241 368.686 219.113 368.686C220.157 368.686 221.111 368.344 221.975 367.66L222.533 368.956C222.125 369.316 221.603 369.604 220.967 369.82C220.343 370.024 219.713 370.126 219.077 370.126C217.625 370.126 216.485 369.712 215.657 368.884C214.829 368.044 214.415 366.898 214.415 365.446C214.415 364.522 214.595 363.7 214.955 362.98C215.327 362.26 215.843 361.702 216.503 361.306C217.163 360.91 217.913 360.712 218.753 360.712C219.977 360.712 220.937 361.108 221.633 361.9C222.341 362.692 222.695 363.79 222.695 365.194V365.5ZM218.789 362.062C218.105 362.062 217.547 362.266 217.115 362.674C216.683 363.082 216.407 363.664 216.287 364.42H221.093C221.021 363.652 220.787 363.07 220.391 362.674C219.995 362.266 219.461 362.062 218.789 362.062ZM227.949 370.126C226.365 370.126 225.117 369.742 224.205 368.974L224.745 367.66C225.693 368.38 226.779 368.74 228.003 368.74C228.627 368.74 229.101 368.638 229.425 368.434C229.749 368.218 229.911 367.918 229.911 367.534C229.911 367.21 229.797 366.958 229.569 366.778C229.353 366.586 228.981 366.424 228.453 366.292L226.941 365.932C226.149 365.764 225.543 365.47 225.123 365.05C224.715 364.618 224.511 364.084 224.511 363.448C224.511 362.632 224.835 361.972 225.483 361.468C226.143 360.964 227.013 360.712 228.093 360.712C228.741 360.712 229.353 360.814 229.929 361.018C230.517 361.222 231.015 361.51 231.423 361.882L230.865 363.16C229.989 362.464 229.065 362.116 228.093 362.116C227.505 362.116 227.049 362.23 226.725 362.458C226.401 362.674 226.239 362.98 226.239 363.376C226.239 363.688 226.341 363.94 226.545 364.132C226.749 364.324 227.073 364.474 227.517 364.582L229.065 364.96C229.929 365.152 230.565 365.458 230.973 365.878C231.393 366.286 231.603 366.82 231.603 367.48C231.603 368.296 231.273 368.944 230.613 369.424C229.965 369.892 229.077 370.126 227.949 370.126Z" fill="#3C3C43" fill-opacity="0.6"/>
<path d="M93.494 403.184H98.822C100.166 403.184 101.21 403.514 101.954 404.174C102.71 404.822 103.088 405.71 103.088 406.838C103.088 407.966 102.704 408.86 101.936 409.52C101.18 410.168 100.142 410.492 98.822 410.492H95.348V416H93.494V403.184ZM98.606 409.016C99.494 409.016 100.16 408.83 100.604 408.458C101.06 408.086 101.288 407.546 101.288 406.838C101.288 406.142 101.06 405.608 100.604 405.236C100.16 404.864 99.494 404.678 98.606 404.678H95.348V409.016H98.606ZM108.787 416.126C107.899 416.126 107.119 415.934 106.447 415.55C105.775 415.166 105.253 414.62 104.881 413.912C104.521 413.204 104.341 412.376 104.341 411.428C104.341 410.48 104.521 409.652 104.881 408.944C105.253 408.224 105.775 407.672 106.447 407.288C107.119 406.904 107.899 406.712 108.787 406.712C109.663 406.712 110.437 406.904 111.109 407.288C111.781 407.672 112.297 408.224 112.657 408.944C113.029 409.652 113.215 410.48 113.215 411.428C113.215 412.376 113.029 413.204 112.657 413.912C112.297 414.62 111.781 415.166 111.109 415.55C110.437 415.934 109.663 416.126 108.787 416.126ZM108.769 414.686C109.609 414.686 110.251 414.41 110.695 413.858C111.139 413.306 111.361 412.496 111.361 411.428C111.361 410.384 111.133 409.58 110.677 409.016C110.233 408.452 109.603 408.17 108.787 408.17C107.959 408.17 107.317 408.452 106.861 409.016C106.405 409.58 106.177 410.384 106.177 411.428C106.177 412.496 106.399 413.306 106.843 413.858C107.299 414.41 107.941 414.686 108.769 414.686ZM120.146 406.712C120.926 406.712 121.622 406.91 122.234 407.306C122.846 407.702 123.32 408.26 123.656 408.98C124.004 409.7 124.178 410.528 124.178 411.464C124.178 412.4 124.01 413.222 123.674 413.93C123.338 414.626 122.864 415.166 122.252 415.55C121.64 415.934 120.938 416.126 120.146 416.126C119.45 416.126 118.838 415.982 118.31 415.694C117.794 415.394 117.404 414.968 117.14 414.416V419.888H115.34V409.484C115.34 408.536 115.292 407.684 115.196 406.928H116.888L117.068 408.602C117.308 408.002 117.698 407.54 118.238 407.216C118.778 406.88 119.414 406.712 120.146 406.712ZM119.732 414.686C120.548 414.686 121.184 414.404 121.64 413.84C122.096 413.276 122.324 412.484 122.324 411.464C122.324 410.432 122.096 409.628 121.64 409.052C121.184 408.464 120.548 408.17 119.732 408.17C118.892 408.17 118.25 408.452 117.806 409.016C117.362 409.58 117.14 410.384 117.14 411.428C117.14 412.472 117.362 413.276 117.806 413.84C118.262 414.404 118.904 414.686 119.732 414.686ZM134.193 406.928V416H132.429V414.488C132.141 415.016 131.745 415.424 131.241 415.712C130.737 415.988 130.167 416.126 129.531 416.126C127.347 416.126 126.255 414.914 126.255 412.49V406.928H128.055V412.472C128.055 413.216 128.205 413.768 128.505 414.128C128.817 414.476 129.285 414.65 129.909 414.65C130.653 414.65 131.247 414.41 131.691 413.93C132.147 413.45 132.375 412.814 132.375 412.022V406.928H134.193ZM136.855 402.752H138.655V416H136.855V402.752ZM149.618 406.928V416H147.818V414.452C147.554 414.992 147.158 415.406 146.63 415.694C146.114 415.982 145.508 416.126 144.812 416.126C144.008 416.126 143.3 415.934 142.688 415.55C142.088 415.166 141.62 414.626 141.284 413.93C140.948 413.222 140.78 412.4 140.78 411.464C140.78 410.528 140.948 409.7 141.284 408.98C141.632 408.26 142.112 407.702 142.724 407.306C143.336 406.91 144.032 406.712 144.812 406.712C145.508 406.712 146.114 406.862 146.63 407.162C147.146 407.45 147.542 407.864 147.818 408.404V406.928H149.618ZM145.244 414.686C146.06 414.686 146.69 414.404 147.134 413.84C147.59 413.264 147.818 412.46 147.818 411.428C147.818 410.384 147.59 409.58 147.134 409.016C146.69 408.452 146.054 408.17 145.226 408.17C144.41 408.17 143.768 408.464 143.3 409.052C142.844 409.628 142.616 410.432 142.616 411.464C142.616 412.484 142.844 413.276 143.3 413.84C143.768 414.404 144.416 414.686 145.244 414.686ZM156.807 406.712C157.083 406.712 157.371 406.754 157.671 406.838L157.635 408.494C157.311 408.374 156.957 408.314 156.573 408.314C155.745 408.314 155.121 408.566 154.701 409.07C154.293 409.562 154.089 410.186 154.089 410.942V416H152.289V409.484C152.289 408.536 152.241 407.684 152.145 406.928H153.837L153.999 408.566C154.239 407.966 154.611 407.51 155.115 407.198C155.619 406.874 156.183 406.712 156.807 406.712ZM168.211 416.144C167.215 416.144 166.303 416.012 165.475 415.748C164.659 415.484 163.951 415.088 163.351 414.56L164.017 413.192C164.641 413.696 165.289 414.062 165.961 414.29C166.633 414.518 167.389 414.632 168.229 414.632C169.189 414.632 169.933 414.452 170.461 414.092C170.989 413.732 171.253 413.222 171.253 412.562C171.253 412.01 171.007 411.596 170.515 411.32C170.023 411.032 169.243 410.768 168.175 410.528C167.155 410.312 166.321 410.066 165.673 409.79C165.025 409.502 164.515 409.124 164.143 408.656C163.771 408.176 163.585 407.564 163.585 406.82C163.585 406.076 163.783 405.422 164.179 404.858C164.575 404.282 165.133 403.838 165.853 403.526C166.585 403.202 167.425 403.04 168.373 403.04C169.273 403.04 170.113 403.178 170.893 403.454C171.685 403.73 172.345 404.12 172.873 404.624L172.207 405.992C171.619 405.5 171.013 405.14 170.389 404.912C169.765 404.672 169.099 404.552 168.391 404.552C167.467 404.552 166.741 404.75 166.213 405.146C165.685 405.53 165.421 406.058 165.421 406.73C165.421 407.306 165.649 407.744 166.105 408.044C166.573 408.344 167.317 408.614 168.337 408.854C169.405 409.094 170.269 409.346 170.929 409.61C171.589 409.874 172.117 410.234 172.513 410.69C172.909 411.146 173.107 411.734 173.107 412.454C173.107 413.198 172.909 413.846 172.513 414.398C172.117 414.95 171.547 415.382 170.803 415.694C170.071 415.994 169.207 416.144 168.211 416.144ZM182.986 411.5H176.506C176.566 413.624 177.532 414.686 179.404 414.686C180.448 414.686 181.402 414.344 182.266 413.66L182.824 414.956C182.416 415.316 181.894 415.604 181.258 415.82C180.634 416.024 180.004 416.126 179.368 416.126C177.916 416.126 176.776 415.712 175.948 414.884C175.12 414.044 174.706 412.898 174.706 411.446C174.706 410.522 174.886 409.7 175.246 408.98C175.618 408.26 176.134 407.702 176.794 407.306C177.454 406.91 178.204 406.712 179.044 406.712C180.268 406.712 181.228 407.108 181.924 407.9C182.632 408.692 182.986 409.79 182.986 411.194V411.5ZM179.08 408.062C178.396 408.062 177.838 408.266 177.406 408.674C176.974 409.082 176.698 409.664 176.578 410.42H181.384C181.312 409.652 181.078 409.07 180.682 408.674C180.286 408.266 179.752 408.062 179.08 408.062ZM193.37 406.928V416H191.57V414.452C191.306 414.992 190.91 415.406 190.382 415.694C189.866 415.982 189.26 416.126 188.564 416.126C187.76 416.126 187.052 415.934 186.44 415.55C185.84 415.166 185.372 414.626 185.036 413.93C184.7 413.222 184.532 412.4 184.532 411.464C184.532 410.528 184.7 409.7 185.036 408.98C185.384 408.26 185.864 407.702 186.476 407.306C187.088 406.91 187.784 406.712 188.564 406.712C189.26 406.712 189.866 406.862 190.382 407.162C190.898 407.45 191.294 407.864 191.57 408.404V406.928H193.37ZM188.996 414.686C189.812 414.686 190.442 414.404 190.886 413.84C191.342 413.264 191.57 412.46 191.57 411.428C191.57 410.384 191.342 409.58 190.886 409.016C190.442 408.452 189.806 408.17 188.978 408.17C188.162 408.17 187.52 408.464 187.052 409.052C186.596 409.628 186.368 410.432 186.368 411.464C186.368 412.484 186.596 413.276 187.052 413.84C187.52 414.404 188.168 414.686 188.996 414.686ZM200.559 406.712C200.835 406.712 201.123 406.754 201.423 406.838L201.387 408.494C201.063 408.374 200.709 408.314 200.325 408.314C199.497 408.314 198.873 408.566 198.453 409.07C198.045 409.562 197.841 410.186 197.841 410.942V416H196.041V409.484C196.041 408.536 195.993 407.684 195.897 406.928H197.589L197.751 408.566C197.991 407.966 198.363 407.51 198.867 407.198C199.371 406.874 199.935 406.712 200.559 406.712ZM206.575 416.126C205.663 416.126 204.865 415.934 204.181 415.55C203.509 415.166 202.993 414.626 202.633 413.93C202.273 413.222 202.093 412.4 202.093 411.464C202.093 410.528 202.279 409.7 202.651 408.98C203.035 408.26 203.569 407.702 204.253 407.306C204.937 406.91 205.735 406.712 206.647 406.712C207.283 406.712 207.895 406.82 208.483 407.036C209.071 407.24 209.545 407.522 209.905 407.882L209.347 409.196C208.495 408.524 207.637 408.188 206.773 408.188C205.897 408.188 205.213 408.476 204.721 409.052C204.229 409.616 203.983 410.414 203.983 411.446C203.983 412.478 204.229 413.276 204.721 413.84C205.213 414.392 205.897 414.668 206.773 414.668C207.661 414.668 208.519 414.332 209.347 413.66L209.905 414.974C209.521 415.334 209.029 415.616 208.429 415.82C207.841 416.024 207.223 416.126 206.575 416.126ZM216.439 406.712C218.611 406.712 219.697 407.924 219.697 410.348V416H217.879V410.456C217.879 409.664 217.723 409.088 217.411 408.728C217.111 408.368 216.625 408.188 215.953 408.188C215.185 408.188 214.567 408.428 214.099 408.908C213.643 409.388 213.415 410.03 213.415 410.834V416H211.615V402.752H213.415V408.332C213.715 407.804 214.129 407.402 214.657 407.126C215.185 406.85 215.779 406.712 216.439 406.712ZM230.025 411.5H223.545C223.605 413.624 224.571 414.686 226.443 414.686C227.487 414.686 228.441 414.344 229.305 413.66L229.863 414.956C229.455 415.316 228.933 415.604 228.297 415.82C227.673 416.024 227.043 416.126 226.407 416.126C224.955 416.126 223.815 415.712 222.987 414.884C222.159 414.044 221.745 412.898 221.745 411.446C221.745 410.522 221.925 409.7 222.285 408.98C222.657 408.26 223.173 407.702 223.833 407.306C224.493 406.91 225.243 406.712 226.083 406.712C227.307 406.712 228.267 407.108 228.963 407.9C229.671 408.692 230.025 409.79 230.025 411.194V411.5ZM226.119 408.062C225.435 408.062 224.877 408.266 224.445 408.674C224.013 409.082 223.737 409.664 223.617 410.42H228.423C228.351 409.652 228.117 409.07 227.721 408.674C227.325 408.266 226.791 408.062 226.119 408.062ZM235.279 416.126C233.695 416.126 232.447 415.742 231.535 414.974L232.075 413.66C233.023 414.38 234.109 414.74 235.333 414.74C235.957 414.74 236.431 414.638 236.755 414.434C237.079 414.218 237.241 413.918 237.241 413.534C237.241 413.21 237.127 412.958 236.899 412.778C236.683 412.586 236.311 412.424 235.783 412.292L234.271 411.932C233.479 411.764 232.873 411.47 232.453 411.05C232.045 410.618 231.841 410.084 231.841 409.448C231.841 408.632 232.165 407.972 232.813 407.468C233.473 406.964 234.343 406.712 235.423 406.712C236.071 406.712 236.683 406.814 237.259 407.018C237.847 407.222 238.345 407.51 238.753 407.882L238.195 409.16C237.319 408.464 236.395 408.116 235.423 408.116C234.835 408.116 234.379 408.23 234.055 408.458C233.731 408.674 233.569 408.98 233.569 409.376C233.569 409.688 233.671 409.94 233.875 410.132C234.079 410.324 234.403 410.474 234.847 410.582L236.395 410.96C237.259 411.152 237.895 411.458 238.303 411.878C238.723 412.286 238.933 412.82 238.933 413.48C238.933 414.296 238.603 414.944 237.943 415.424C237.295 415.892 236.407 416.126 235.279 416.126Z" fill="#3C3C43" fill-opacity="0.6"/>
<path d="M390.494 203.184H395.822C397.166 203.184 398.21 203.514 398.954 204.174C399.71 204.822 400.088 205.71 400.088 206.838C400.088 207.966 399.704 208.86 398.936 209.52C398.18 210.168 397.142 210.492 395.822 210.492H392.348V216H390.494V203.184ZM395.606 209.016C396.494 209.016 397.16 208.83 397.604 208.458C398.06 208.086 398.288 207.546 398.288 206.838C398.288 206.142 398.06 205.608 397.604 205.236C397.16 204.864 396.494 204.678 395.606 204.678H392.348V209.016H395.606ZM402.18 202.752H403.98V216H402.18V202.752ZM414.943 206.928V216H413.143V214.452C412.879 214.992 412.483 215.406 411.955 215.694C411.439 215.982 410.833 216.126 410.137 216.126C409.333 216.126 408.625 215.934 408.013 215.55C407.413 215.166 406.945 214.626 406.609 213.93C406.273 213.222 406.105 212.4 406.105 211.464C406.105 210.528 406.273 209.7 406.609 208.98C406.957 208.26 407.437 207.702 408.049 207.306C408.661 206.91 409.357 206.712 410.137 206.712C410.833 206.712 411.439 206.862 411.955 207.162C412.471 207.45 412.867 207.864 413.143 208.404V206.928H414.943ZM410.569 214.686C411.385 214.686 412.015 214.404 412.459 213.84C412.915 213.264 413.143 212.46 413.143 211.428C413.143 210.384 412.915 209.58 412.459 209.016C412.015 208.452 411.379 208.17 410.551 208.17C409.735 208.17 409.093 208.464 408.625 209.052C408.169 209.628 407.941 210.432 407.941 211.464C407.941 212.484 408.169 213.276 408.625 213.84C409.093 214.404 409.741 214.686 410.569 214.686ZM425.857 206.928L421.627 216.738C421.159 217.806 420.571 218.586 419.863 219.078C419.167 219.582 418.303 219.918 417.271 220.086L416.875 218.682C417.727 218.49 418.369 218.238 418.801 217.926C419.245 217.626 419.599 217.17 419.863 216.558L420.187 215.802L416.371 206.928H418.297L421.141 213.948L424.039 206.928H425.857ZM442.502 216H440.54L438.938 211.734C438.77 211.278 438.524 210.966 438.2 210.798C437.876 210.618 437.432 210.528 436.868 210.528H434.06V216H432.224V203.184H437.498C438.902 203.184 439.976 203.496 440.72 204.12C441.476 204.744 441.854 205.638 441.854 206.802C441.854 207.642 441.632 208.356 441.188 208.944C440.744 209.532 440.114 209.946 439.298 210.186C440.042 210.318 440.582 210.846 440.918 211.77L442.502 216ZM437.282 209.034C438.218 209.034 438.914 208.854 439.37 208.494C439.826 208.122 440.054 207.57 440.054 206.838C440.054 206.106 439.826 205.566 439.37 205.218C438.926 204.858 438.23 204.678 437.282 204.678H434.06V209.034H437.282ZM452.353 211.5H445.873C445.933 213.624 446.899 214.686 448.771 214.686C449.815 214.686 450.769 214.344 451.633 213.66L452.191 214.956C451.783 215.316 451.261 215.604 450.625 215.82C450.001 216.024 449.371 216.126 448.735 216.126C447.283 216.126 446.143 215.712 445.315 214.884C444.487 214.044 444.073 212.898 444.073 211.446C444.073 210.522 444.253 209.7 444.613 208.98C444.985 208.26 445.501 207.702 446.161 207.306C446.821 206.91 447.571 206.712 448.411 206.712C449.635 206.712 450.595 207.108 451.291 207.9C451.999 208.692 452.353 209.79 452.353 211.194V211.5ZM448.447 208.062C447.763 208.062 447.205 208.266 446.773 208.674C446.341 209.082 446.065 209.664 445.945 210.42H450.751C450.679 209.652 450.445 209.07 450.049 208.674C449.653 208.266 449.119 208.062 448.447 208.062ZM457.607 216.126C456.023 216.126 454.775 215.742 453.863 214.974L454.403 213.66C455.351 214.38 456.437 214.74 457.661 214.74C458.285 214.74 458.759 214.638 459.083 214.434C459.407 214.218 459.569 213.918 459.569 213.534C459.569 213.21 459.455 212.958 459.227 212.778C459.011 212.586 458.639 212.424 458.111 212.292L456.599 211.932C455.807 211.764 455.201 211.47 454.781 211.05C454.373 210.618 454.169 210.084 454.169 209.448C454.169 208.632 454.493 207.972 455.141 207.468C455.801 206.964 456.671 206.712 457.751 206.712C458.399 206.712 459.011 206.814 459.587 207.018C460.175 207.222 460.673 207.51 461.081 207.882L460.523 209.16C459.647 208.464 458.723 208.116 457.751 208.116C457.163 208.116 456.707 208.23 456.383 208.458C456.059 208.674 455.897 208.98 455.897 209.376C455.897 209.688 455.999 209.94 456.203 210.132C456.407 210.324 456.731 210.474 457.175 210.582L458.723 210.96C459.587 211.152 460.223 211.458 460.631 211.878C461.051 212.286 461.261 212.82 461.261 213.48C461.261 214.296 460.931 214.944 460.271 215.424C459.623 215.892 458.735 216.126 457.607 216.126ZM471.288 206.928V216H469.524V214.488C469.236 215.016 468.84 215.424 468.336 215.712C467.832 215.988 467.262 216.126 466.626 216.126C464.442 216.126 463.35 214.914 463.35 212.49V206.928H465.15V212.472C465.15 213.216 465.3 213.768 465.6 214.128C465.912 214.476 466.38 214.65 467.004 214.65C467.748 214.65 468.342 214.41 468.786 213.93C469.242 213.45 469.47 212.814 469.47 212.022V206.928H471.288ZM473.951 202.752H475.751V216H473.951V202.752ZM480.774 208.332V212.886C480.774 213.51 480.906 213.954 481.17 214.218C481.446 214.47 481.824 214.596 482.304 214.596C482.616 214.596 482.934 214.548 483.258 214.452V215.928C482.862 216.06 482.412 216.126 481.908 216.126C480.972 216.126 480.246 215.862 479.73 215.334C479.214 214.806 478.956 214.038 478.956 213.03V208.332H477.192V206.928H478.956V204.66L480.774 204.03V206.928H483.276V208.332H480.774Z" fill="#3C3C43" fill-opacity="0.6"/>
<path d="M398.918 256.832H392.438L391.07 260H389.18L394.886 247.184H396.452L402.176 260H400.286L398.918 256.832ZM398.288 255.356L395.678 249.254L393.068 255.356H398.288ZM408.192 250.712C408.468 250.712 408.756 250.754 409.056 250.838L409.02 252.494C408.696 252.374 408.342 252.314 407.958 252.314C407.13 252.314 406.506 252.566 406.086 253.07C405.678 253.562 405.474 254.186 405.474 254.942V260H403.674V253.484C403.674 252.536 403.626 251.684 403.53 250.928H405.222L405.384 252.566C405.624 251.966 405.996 251.51 406.5 251.198C407.004 250.874 407.568 250.712 408.192 250.712ZM413.555 252.332V256.886C413.555 257.51 413.687 257.954 413.951 258.218C414.227 258.47 414.605 258.596 415.085 258.596C415.397 258.596 415.715 258.548 416.039 258.452V259.928C415.643 260.06 415.193 260.126 414.689 260.126C413.753 260.126 413.027 259.862 412.511 259.334C411.995 258.806 411.737 258.038 411.737 257.03V252.332H409.973V250.928H411.737V248.66L413.555 248.03V250.928H416.057V252.332H413.555ZM417.736 250.928H419.536V260H417.736V250.928ZM419.68 246.968V248.876H417.574V246.968H419.68ZM425.369 260.126C423.785 260.126 422.537 259.742 421.625 258.974L422.165 257.66C423.113 258.38 424.199 258.74 425.423 258.74C426.047 258.74 426.521 258.638 426.845 258.434C427.169 258.218 427.331 257.918 427.331 257.534C427.331 257.21 427.217 256.958 426.989 256.778C426.773 256.586 426.401 256.424 425.873 256.292L424.361 255.932C423.569 255.764 422.963 255.47 422.543 255.05C422.135 254.618 421.931 254.084 421.931 253.448C421.931 252.632 422.255 251.972 422.903 251.468C423.563 250.964 424.433 250.712 425.513 250.712C426.161 250.712 426.773 250.814 427.349 251.018C427.937 251.222 428.435 251.51 428.843 251.882L428.285 253.16C427.409 252.464 426.485 252.116 425.513 252.116C424.925 252.116 424.469 252.23 424.145 252.458C423.821 252.674 423.659 252.98 423.659 253.376C423.659 253.688 423.761 253.94 423.965 254.132C424.169 254.324 424.493 254.474 424.937 254.582L426.485 254.96C427.349 255.152 427.985 255.458 428.393 255.878C428.813 256.286 429.023 256.82 429.023 257.48C429.023 258.296 428.693 258.944 428.033 259.424C427.385 259.892 426.497 260.126 425.369 260.126ZM433.436 252.332V256.886C433.436 257.51 433.568 257.954 433.832 258.218C434.108 258.47 434.486 258.596 434.966 258.596C435.278 258.596 435.596 258.548 435.92 258.452V259.928C435.524 260.06 435.074 260.126 434.57 260.126C433.634 260.126 432.908 259.862 432.392 259.334C431.876 258.806 431.618 258.038 431.618 257.03V252.332H429.854V250.928H431.618V248.66L433.436 248.03V250.928H435.938V252.332H433.436ZM452.856 260H450.894L449.292 255.734C449.124 255.278 448.878 254.966 448.554 254.798C448.23 254.618 447.786 254.528 447.222 254.528H444.414V260H442.578V247.184H447.852C449.256 247.184 450.33 247.496 451.074 248.12C451.83 248.744 452.208 249.638 452.208 250.802C452.208 251.642 451.986 252.356 451.542 252.944C451.098 253.532 450.468 253.946 449.652 254.186C450.396 254.318 450.936 254.846 451.272 255.77L452.856 260ZM447.636 253.034C448.572 253.034 449.268 252.854 449.724 252.494C450.18 252.122 450.408 251.57 450.408 250.838C450.408 250.106 450.18 249.566 449.724 249.218C449.28 248.858 448.584 248.678 447.636 248.678H444.414V253.034H447.636ZM462.707 255.5H456.227C456.287 257.624 457.253 258.686 459.125 258.686C460.169 258.686 461.123 258.344 461.987 257.66L462.545 258.956C462.137 259.316 461.615 259.604 460.979 259.82C460.355 260.024 459.725 260.126 459.089 260.126C457.637 260.126 456.497 259.712 455.669 258.884C454.841 258.044 454.427 256.898 454.427 255.446C454.427 254.522 454.607 253.7 454.967 252.98C455.339 252.26 455.855 251.702 456.515 251.306C457.175 250.91 457.925 250.712 458.765 250.712C459.989 250.712 460.949 251.108 461.645 251.9C462.353 252.692 462.707 253.79 462.707 255.194V255.5ZM458.801 252.062C458.117 252.062 457.559 252.266 457.127 252.674C456.695 253.082 456.419 253.664 456.299 254.42H461.105C461.033 253.652 460.799 253.07 460.403 252.674C460.007 252.266 459.473 252.062 458.801 252.062ZM467.961 260.126C466.377 260.126 465.129 259.742 464.217 258.974L464.757 257.66C465.705 258.38 466.791 258.74 468.015 258.74C468.639 258.74 469.113 258.638 469.437 258.434C469.761 258.218 469.923 257.918 469.923 257.534C469.923 257.21 469.809 256.958 469.581 256.778C469.365 256.586 468.993 256.424 468.465 256.292L466.953 255.932C466.161 255.764 465.555 255.47 465.135 255.05C464.727 254.618 464.523 254.084 464.523 253.448C464.523 252.632 464.847 251.972 465.495 251.468C466.155 250.964 467.025 250.712 468.105 250.712C468.753 250.712 469.365 250.814 469.941 251.018C470.529 251.222 471.027 251.51 471.435 251.882L470.877 253.16C470.001 252.464 469.077 252.116 468.105 252.116C467.517 252.116 467.061 252.23 466.737 252.458C466.413 252.674 466.251 252.98 466.251 253.376C466.251 253.688 466.353 253.94 466.557 254.132C466.761 254.324 467.085 254.474 467.529 254.582L469.077 254.96C469.941 255.152 470.577 255.458 470.985 255.878C471.405 256.286 471.615 256.82 471.615 257.48C471.615 258.296 471.285 258.944 470.625 259.424C469.977 259.892 469.089 260.126 467.961 260.126ZM481.642 250.928V260H479.878V258.488C479.59 259.016 479.194 259.424 478.69 259.712C478.186 259.988 477.616 260.126 476.98 260.126C474.796 260.126 473.704 258.914 473.704 256.49V250.928H475.504V256.472C475.504 257.216 475.654 257.768 475.954 258.128C476.266 258.476 476.734 258.65 477.358 258.65C478.102 258.65 478.696 258.41 479.14 257.93C479.596 257.45 479.824 256.814 479.824 256.022V250.928H481.642ZM484.305 246.752H486.105V260H484.305V246.752ZM491.128 252.332V256.886C491.128 257.51 491.26 257.954 491.524 258.218C491.8 258.47 492.178 258.596 492.658 258.596C492.97 258.596 493.288 258.548 493.612 258.452V259.928C493.216 260.06 492.766 260.126 492.262 260.126C491.326 260.126 490.6 259.862 490.083 259.334C489.568 258.806 489.31 258.038 489.31 257.03V252.332H487.546V250.928H489.31V248.66L491.128 248.03V250.928H493.63V252.332H491.128Z" fill="#3C3C43" fill-opacity="0.6"/>
<path d="M390.494 295.184H395.822C397.166 295.184 398.21 295.514 398.954 296.174C399.71 296.822 400.088 297.71 400.088 298.838C400.088 299.966 399.704 300.86 398.936 301.52C398.18 302.168 397.142 302.492 395.822 302.492H392.348V308H390.494V295.184ZM395.606 301.016C396.494 301.016 397.16 300.83 397.604 300.458C398.06 300.086 398.288 299.546 398.288 298.838C398.288 298.142 398.06 297.608 397.604 297.236C397.16 296.864 396.494 296.678 395.606 296.678H392.348V301.016H395.606ZM402.18 294.752H403.98V308H402.18V294.752ZM414.943 298.928V308H413.143V306.452C412.879 306.992 412.483 307.406 411.955 307.694C411.439 307.982 410.833 308.126 410.137 308.126C409.333 308.126 408.625 307.934 408.013 307.55C407.413 307.166 406.945 306.626 406.609 305.93C406.273 305.222 406.105 304.4 406.105 303.464C406.105 302.528 406.273 301.7 406.609 300.98C406.957 300.26 407.437 299.702 408.049 299.306C408.661 298.91 409.357 298.712 410.137 298.712C410.833 298.712 411.439 298.862 411.955 299.162C412.471 299.45 412.867 299.864 413.143 300.404V298.928H414.943ZM410.569 306.686C411.385 306.686 412.015 306.404 412.459 305.84C412.915 305.264 413.143 304.46 413.143 303.428C413.143 302.384 412.915 301.58 412.459 301.016C412.015 300.452 411.379 300.17 410.551 300.17C409.735 300.17 409.093 300.464 408.625 301.052C408.169 301.628 407.941 302.432 407.941 303.464C407.941 304.484 408.169 305.276 408.625 305.84C409.093 306.404 409.741 306.686 410.569 306.686ZM425.857 298.928L421.627 308.738C421.159 309.806 420.571 310.586 419.863 311.078C419.167 311.582 418.303 311.918 417.271 312.086L416.875 310.682C417.727 310.49 418.369 310.238 418.801 309.926C419.245 309.626 419.599 309.17 419.863 308.558L420.187 307.802L416.371 298.928H418.297L421.141 305.948L424.039 298.928H425.857ZM436.418 308.144C435.422 308.144 434.51 308.012 433.682 307.748C432.866 307.484 432.158 307.088 431.558 306.56L432.224 305.192C432.848 305.696 433.496 306.062 434.168 306.29C434.84 306.518 435.596 306.632 436.436 306.632C437.396 306.632 438.14 306.452 438.668 306.092C439.196 305.732 439.46 305.222 439.46 304.562C439.46 304.01 439.214 303.596 438.722 303.32C438.23 303.032 437.45 302.768 436.382 302.528C435.362 302.312 434.528 302.066 433.88 301.79C433.232 301.502 432.722 301.124 432.35 300.656C431.978 300.176 431.792 299.564 431.792 298.82C431.792 298.076 431.99 297.422 432.386 296.858C432.782 296.282 433.34 295.838 434.06 295.526C434.792 295.202 435.632 295.04 436.58 295.04C437.48 295.04 438.32 295.178 439.1 295.454C439.892 295.73 440.552 296.12 441.08 296.624L440.414 297.992C439.826 297.5 439.22 297.14 438.596 296.912C437.972 296.672 437.306 296.552 436.598 296.552C435.674 296.552 434.948 296.75 434.42 297.146C433.892 297.53 433.628 298.058 433.628 298.73C433.628 299.306 433.856 299.744 434.312 300.044C434.78 300.344 435.524 300.614 436.544 300.854C437.612 301.094 438.476 301.346 439.136 301.61C439.796 301.874 440.324 302.234 440.72 302.69C441.116 303.146 441.314 303.734 441.314 304.454C441.314 305.198 441.116 305.846 440.72 306.398C440.324 306.95 439.754 307.382 439.01 307.694C438.278 307.994 437.414 308.144 436.418 308.144ZM447.359 308.126C446.471 308.126 445.691 307.934 445.019 307.55C444.347 307.166 443.825 306.62 443.453 305.912C443.093 305.204 442.913 304.376 442.913 303.428C442.913 302.48 443.093 301.652 443.453 300.944C443.825 300.224 444.347 299.672 445.019 299.288C445.691 298.904 446.471 298.712 447.359 298.712C448.235 298.712 449.009 298.904 449.681 299.288C450.353 299.672 450.869 300.224 451.229 300.944C451.601 301.652 451.787 302.48 451.787 303.428C451.787 304.376 451.601 305.204 451.229 305.912C450.869 306.62 450.353 307.166 449.681 307.55C449.009 307.934 448.235 308.126 447.359 308.126ZM447.341 306.686C448.181 306.686 448.823 306.41 449.267 305.858C449.711 305.306 449.933 304.496 449.933 303.428C449.933 302.384 449.705 301.58 449.249 301.016C448.805 300.452 448.175 300.17 447.359 300.17C446.531 300.17 445.889 300.452 445.433 301.016C444.977 301.58 444.749 302.384 444.749 303.428C444.749 304.496 444.971 305.306 445.415 305.858C445.871 306.41 446.513 306.686 447.341 306.686ZM458.736 298.712C460.908 298.712 461.994 299.924 461.994 302.348V308H460.176V302.456C460.176 301.664 460.02 301.088 459.708 300.728C459.408 300.368 458.922 300.188 458.25 300.188C457.482 300.188 456.864 300.428 456.396 300.908C455.94 301.388 455.712 302.03 455.712 302.834V308H453.912V301.484C453.912 300.536 453.864 299.684 453.768 298.928H455.46L455.622 300.494C455.91 299.918 456.324 299.48 456.864 299.18C457.416 298.868 458.04 298.712 458.736 298.712ZM472.952 298.928V307.838C472.952 309.218 472.586 310.256 471.854 310.952C471.134 311.66 470.06 312.014 468.632 312.014C467.252 312.014 466.046 311.714 465.014 311.114L465.32 309.692C465.884 309.992 466.424 310.214 466.94 310.358C467.468 310.502 468.026 310.574 468.614 310.574C470.306 310.574 471.152 309.71 471.152 307.982V306.02C470.876 306.548 470.474 306.968 469.946 307.28C469.418 307.58 468.806 307.73 468.11 307.73C467.318 307.73 466.61 307.544 465.986 307.172C465.374 306.8 464.894 306.272 464.546 305.588C464.21 304.904 464.042 304.118 464.042 303.23C464.042 302.342 464.21 301.556 464.546 300.872C464.894 300.188 465.374 299.66 465.986 299.288C466.61 298.904 467.318 298.712 468.11 298.712C468.806 298.712 469.418 298.862 469.946 299.162C470.474 299.45 470.876 299.864 471.152 300.404V298.928H472.952ZM468.524 306.272C469.34 306.272 469.982 306.002 470.45 305.462C470.918 304.922 471.152 304.178 471.152 303.23C471.152 302.282 470.918 301.538 470.45 300.998C469.994 300.446 469.352 300.17 468.524 300.17C467.708 300.17 467.06 300.446 466.58 300.998C466.112 301.538 465.878 302.282 465.878 303.23C465.878 304.166 466.112 304.91 466.58 305.462C467.06 306.002 467.708 306.272 468.524 306.272Z" fill="#3C3C43" fill-opacity="0.6"/>
<rect x="0.5" y="90.5" width="456" height="49" rx="11.5" fill="white"/>
<path d="M196.593 122.144C195.597 122.144 194.685 122.012 193.857 121.748C193.041 121.484 192.333 121.088 191.733 120.56L192.399 119.192C193.023 119.696 193.671 120.062 194.343 120.29C195.015 120.518 195.771 120.632 196.611 120.632C197.571 120.632 198.315 120.452 198.843 120.092C199.371 119.732 199.635 119.222 199.635 118.562C199.635 118.01 199.389 117.596 198.897 117.32C198.405 117.032 197.625 116.768 196.557 116.528C195.537 116.312 194.703 116.066 194.055 115.79C193.407 115.502 192.897 115.124 192.525 114.656C192.153 114.176 191.967 113.564 191.967 112.82C191.967 112.076 192.165 111.422 192.561 110.858C192.957 110.282 193.515 109.838 194.235 109.526C194.967 109.202 195.807 109.04 196.755 109.04C197.655 109.04 198.495 109.178 199.275 109.454C200.067 109.73 200.727 110.12 201.255 110.624L200.589 111.992C200.001 111.5 199.395 111.14 198.771 110.912C198.147 110.672 197.481 110.552 196.773 110.552C195.849 110.552 195.123 110.75 194.595 111.146C194.067 111.53 193.803 112.058 193.803 112.73C193.803 113.306 194.031 113.744 194.487 114.044C194.955 114.344 195.699 114.614 196.719 114.854C197.787 115.094 198.651 115.346 199.311 115.61C199.971 115.874 200.499 116.234 200.895 116.69C201.291 117.146 201.489 117.734 201.489 118.454C201.489 119.198 201.291 119.846 200.895 120.398C200.499 120.95 199.929 121.382 199.185 121.694C198.453 121.994 197.589 122.144 196.593 122.144ZM203.789 109.184H212.105V110.696H205.625V114.728H211.745V116.24H205.625V120.488H212.105V122H203.789V109.184ZM222.619 118.832H216.139L214.771 122H212.881L218.587 109.184H220.153L225.877 122H223.987L222.619 118.832ZM221.989 117.356L219.379 111.254L216.769 117.356H221.989ZM237.815 122H235.853L234.251 117.734C234.083 117.278 233.837 116.966 233.513 116.798C233.189 116.618 232.745 116.528 232.181 116.528H229.373V122H227.537V109.184H232.811C234.215 109.184 235.289 109.496 236.033 110.12C236.789 110.744 237.167 111.638 237.167 112.802C237.167 113.642 236.945 114.356 236.501 114.944C236.057 115.532 235.427 115.946 234.611 116.186C235.355 116.318 235.895 116.846 236.231 117.77L237.815 122ZM232.595 115.034C233.531 115.034 234.227 114.854 234.683 114.494C235.139 114.122 235.367 113.57 235.367 112.838C235.367 112.106 235.139 111.566 234.683 111.218C234.239 110.858 233.543 110.678 232.595 110.678H229.373V115.034H232.595ZM245.634 122.144C244.398 122.144 243.318 121.88 242.394 121.352C241.482 120.812 240.78 120.05 240.288 119.066C239.796 118.082 239.55 116.918 239.55 115.574C239.55 114.242 239.796 113.084 240.288 112.1C240.78 111.116 241.482 110.36 242.394 109.832C243.318 109.304 244.398 109.04 245.634 109.04C246.51 109.04 247.32 109.178 248.064 109.454C248.82 109.718 249.456 110.108 249.972 110.624L249.324 111.992C248.724 111.5 248.13 111.146 247.542 110.93C246.966 110.702 246.336 110.588 245.652 110.588C244.32 110.588 243.288 111.02 242.556 111.884C241.836 112.748 241.476 113.978 241.476 115.574C241.476 117.182 241.836 118.424 242.556 119.3C243.288 120.164 244.32 120.596 245.652 120.596C246.336 120.596 246.966 120.488 247.542 120.272C248.13 120.044 248.724 119.684 249.324 119.192L249.972 120.56C249.456 121.076 248.82 121.472 248.064 121.748C247.32 122.012 246.51 122.144 245.634 122.144ZM263.177 109.184V122H261.323V116.258H254.141V122H252.305V109.184H254.141V114.728H261.323V109.184H263.177Z" fill="#3C3C43" fill-opacity="0.6"/>
<rect x="0.5" y="90.5" width="456" height="49" rx="11.5" stroke="white"/>
<path fill-rule="evenodd" clip-rule="evenodd" d="M231.639 14.4661C232.498 13.1907 233 11.6539 233 9.99976C233 5.58128 229.419 1.99976 225 1.99976C220.582 1.99976 217 5.58161 217 9.99976C217 14.4186 220.582 17.9998 225 17.9998C227.403 17.9998 229.557 16.9413 231.024 15.2652L235.83 20.0714C236.037 20.2791 236.037 20.6146 235.83 20.8223C235.729 20.9234 235.595 20.9779 235.455 20.9779C235.315 20.9779 235.181 20.9234 235.08 20.8223L231.333 17.0753C231.138 16.88 230.821 16.88 230.626 17.0753C230.43 17.2706 230.43 17.5871 230.626 17.7824L234.373 21.5294C234.663 21.8199 235.052 21.9779 235.455 21.9779C235.857 21.9779 236.246 21.8198 236.537 21.5294C237.135 20.9311 237.135 19.9626 236.537 19.3643L231.639 14.4661ZM230.916 13.7436C231.603 12.661 232 11.3769 232 9.99976C232 6.13354 228.867 2.99976 225 2.99976C221.134 2.99976 218 6.1339 218 9.99976C218 13.8663 221.134 16.9998 225 16.9998C227.126 16.9998 229.031 16.0523 230.315 14.5563L229.194 13.4354C228.998 13.2401 228.998 12.9236 229.194 12.7283C229.389 12.533 229.706 12.533 229.901 12.7283L230.916 13.7436ZM227.712 14.2011C226.911 14.7197 225.977 14.9999 225 14.9999C222.239 14.9999 220 12.7614 220 9.99986C220 9.72371 219.776 9.49986 219.5 9.49986C219.224 9.49986 219 9.72371 219 9.99986C219 13.3137 221.686 15.9999 225 15.9999C226.171 15.9999 227.294 15.6632 228.255 15.0406C228.487 14.8906 228.554 14.581 228.404 14.3492C228.253 14.1174 227.944 14.0511 227.712 14.2011Z" fill="url(#paint0_linear)"/>
<defs>
<linearGradient id="paint0_linear" x1="228.711" y1="35.2192" x2="225.513" y2="22.7318" gradientUnits="userSpaceOnUse">
<stop offset="0.21875" stop-color="#969BFF"/>
<stop offset="1" stop-color="#656CEE"/>
</linearGradient>
</defs>
</svg>
