<svg width="37" height="37" viewBox="0 0 37 37" fill="none" xmlns="http://www.w3.org/2000/svg">
<g id="Logo Linkedin">
<path id="Fill 1" fill-rule="evenodd" clip-rule="evenodd" d="M30.7525 30.7525H25.4035V22.3769C25.4035 20.3797 25.3669 17.8107 22.6219 17.8107C19.8369 17.8107 19.4094 19.9863 19.4094 22.2326V30.7525H14.0613V13.5296H19.1951V15.8829H19.2668C19.9815 14.5291 21.7275 13.1016 24.3316 13.1016C29.7518 13.1016 30.7525 16.6688 30.7525 21.3058V30.7525ZM8.02892 11.1755C6.31325 11.1755 4.92487 9.78486 4.92487 8.07139C4.92487 6.35943 6.31325 4.96875 8.02892 4.96875C9.74034 4.96875 11.131 6.35943 11.131 8.07139C11.131 9.78486 9.74034 11.1755 8.02892 11.1755ZM5.35052 30.7527H10.7036V13.5298H5.35052V30.7527ZM33.4176 0H2.66374C1.19416 0 0 1.16487 0 2.6004V33.485C0 34.9223 1.19416 36.0889 2.66374 36.0889H33.4176C34.8897 36.0889 36.0889 34.9223 36.0889 33.485V2.6004C36.0889 1.16487 34.8897 0 33.4176 0Z" fill="#70685B"/>
</g>
</svg>
