<svg width="670" height="526" viewBox="0 0 670 526" fill="none" xmlns="http://www.w3.org/2000/svg">
<g clip-path="url(#clip0)" filter="url(#filter0_d)">
<path d="M322 90H150.9C145.394 90 142.641 90 140.53 91.0546C138.593 92.0225 137.022 93.5931 136.055 95.5302C135 97.6407 135 100.394 135 105.9V136" stroke="#C4C4C4"/>
<path fill-rule="evenodd" clip-rule="evenodd" d="M132 135H138L135 138L132 135Z" fill="#C4C4C4"/>
<path d="M314 90H500.1C505.606 90 508.359 90 510.47 91.0546C512.407 92.0225 513.978 93.5931 514.945 95.5302C516 97.6407 516 100.394 516 105.9V136" stroke="#C4C4C4"/>
<path fill-rule="evenodd" clip-rule="evenodd" d="M519 135H513L516 138L519 135Z" fill="#C4C4C4"/>
<path d="M135 336H500.1C505.606 336 508.359 336 510.47 334.945C512.407 333.978 513.978 332.407 514.945 330.47C516 328.359 516 325.606 516 320.1V289" stroke="#C4C4C4"/>
<path fill-rule="evenodd" clip-rule="evenodd" d="M519 290H513L516 287L519 290Z" fill="#C4C4C4"/>
<path d="M135 377H615.1C620.606 377 623.359 377 625.47 378.055C627.407 379.022 628.977 380.593 629.945 382.53C631 384.641 631 387.394 631 392.9V439" stroke="#C4C4C4"/>
<path fill-rule="evenodd" clip-rule="evenodd" d="M634 438H628L631 441L634 438Z" fill="#C4C4C4"/>
<path d="M324.5 90V63.0682" stroke="#C4C4C4" stroke-linecap="square"/>
<path fill-rule="evenodd" clip-rule="evenodd" d="M327 65H322L324.5 62L327 65Z" fill="#C4C4C4"/>
<path d="M516 246V180.167" stroke="#C4C4C4" stroke-linecap="square"/>
<path fill-rule="evenodd" clip-rule="evenodd" d="M518 182H513L515.5 179L518 182Z" fill="#C4C4C4"/>
<path d="M135 185V442.348" stroke="#C4C4C4" stroke-linecap="square"/>
<path fill-rule="evenodd" clip-rule="evenodd" d="M133 441H138L135.5 444L133 441Z" fill="#C4C4C4"/>
<path d="M297 377V442.833" stroke="#C4C4C4" stroke-linecap="square"/>
<path fill-rule="evenodd" clip-rule="evenodd" d="M295 441H300L297.5 444L295 441Z" fill="#C4C4C4"/>
<path d="M459 377V442.833" stroke="#C4C4C4" stroke-linecap="square"/>
<path fill-rule="evenodd" clip-rule="evenodd" d="M457 441H462L459.5 444L457 441Z" fill="#C4C4C4"/>
<path d="M242 138.5H27C20.6487 138.5 15.5 143.649 15.5 150V176C15.5 182.351 20.6487 187.5 27 187.5H242C248.351 187.5 253.5 182.351 253.5 176V150C253.5 143.649 248.351 138.5 242 138.5Z" fill="white"/>
<path d="M107.141 169.144C106.145 169.144 105.233 169.012 104.405 168.748C103.589 168.484 102.881 168.088 102.281 167.56L102.947 166.192C103.571 166.696 104.219 167.062 104.891 167.29C105.563 167.518 106.319 167.632 107.159 167.632C108.119 167.632 108.863 167.452 109.391 167.092C109.919 166.732 110.183 166.222 110.183 165.562C110.183 165.01 109.937 164.596 109.445 164.32C108.953 164.032 108.173 163.768 107.105 163.528C106.085 163.312 105.251 163.066 104.603 162.79C103.955 162.502 103.445 162.124 103.073 161.656C102.701 161.176 102.515 160.564 102.515 159.82C102.515 159.076 102.713 158.422 103.109 157.858C103.505 157.282 104.063 156.838 104.783 156.526C105.515 156.202 106.355 156.04 107.303 156.04C108.203 156.04 109.043 156.178 109.823 156.454C110.615 156.73 111.275 157.12 111.803 157.624L111.137 158.992C110.549 158.5 109.943 158.14 109.319 157.912C108.695 157.672 108.029 157.552 107.321 157.552C106.397 157.552 105.671 157.75 105.143 158.146C104.615 158.53 104.351 159.058 104.351 159.73C104.351 160.306 104.579 160.744 105.035 161.044C105.503 161.344 106.247 161.614 107.267 161.854C108.335 162.094 109.199 162.346 109.859 162.61C110.519 162.874 111.047 163.234 111.443 163.69C111.839 164.146 112.037 164.734 112.037 165.454C112.037 166.198 111.839 166.846 111.443 167.398C111.047 167.95 110.477 168.382 109.733 168.694C109.001 168.994 108.137 169.144 107.141 169.144ZM114.338 156.184H116.192V169H114.338V156.184ZM129.558 162.196V168.244C129.018 168.52 128.334 168.742 127.506 168.91C126.69 169.066 125.856 169.144 125.004 169.144C123.708 169.144 122.586 168.886 121.638 168.37C120.69 167.842 119.964 167.086 119.46 166.102C118.968 165.118 118.722 163.942 118.722 162.574C118.722 161.23 118.968 160.066 119.46 159.082C119.964 158.098 120.678 157.348 121.602 156.832C122.538 156.304 123.636 156.04 124.896 156.04C125.796 156.04 126.624 156.178 127.38 156.454C128.148 156.718 128.802 157.102 129.342 157.606L128.676 158.992C128.064 158.488 127.464 158.128 126.876 157.912C126.288 157.696 125.634 157.588 124.914 157.588C123.522 157.588 122.46 158.014 121.728 158.866C121.008 159.718 120.648 160.954 120.648 162.574C120.648 164.242 121.02 165.508 121.764 166.372C122.508 167.224 123.606 167.65 125.058 167.65C126.03 167.65 126.966 167.506 127.866 167.218V163.618H124.878V162.196H129.558ZM142.92 156.184V169H141.498L134.154 159.316V169H132.408V156.184H133.812L141.174 165.886V156.184H142.92ZM150.707 156.184H152.561V169H150.707V156.184ZM166.053 156.184V169H164.631L157.287 159.316V169H155.541V156.184H156.945L164.307 165.886V156.184H166.053Z" fill="#3C3C43" fill-opacity="0.6"/>
<path d="M242 138.5H27C20.6487 138.5 15.5 143.649 15.5 150V176C15.5 182.351 20.6487 187.5 27 187.5H242C248.351 187.5 253.5 182.351 253.5 176V150C253.5 143.649 248.351 138.5 242 138.5Z" stroke="white"/>
<path d="M391 15.5H258C251.649 15.5 246.5 20.6487 246.5 27V53C246.5 59.3513 251.649 64.5 258 64.5H391C397.351 64.5 402.5 59.3513 402.5 53V27C402.5 20.6487 397.351 15.5 391 15.5Z" fill="url(#paint0_linear)"/>
<path d="M301.632 46.144C300.636 46.144 299.724 46.012 298.896 45.748C298.08 45.484 297.372 45.088 296.772 44.56L297.438 43.192C298.062 43.696 298.71 44.062 299.382 44.29C300.054 44.518 300.81 44.632 301.65 44.632C302.61 44.632 303.354 44.452 303.882 44.092C304.41 43.732 304.674 43.222 304.674 42.562C304.674 42.01 304.428 41.596 303.936 41.32C303.444 41.032 302.664 40.768 301.596 40.528C300.576 40.312 299.742 40.066 299.094 39.79C298.446 39.502 297.936 39.124 297.564 38.656C297.192 38.176 297.006 37.564 297.006 36.82C297.006 36.076 297.204 35.422 297.6 34.858C297.996 34.282 298.554 33.838 299.274 33.526C300.006 33.202 300.846 33.04 301.794 33.04C302.694 33.04 303.534 33.178 304.314 33.454C305.106 33.73 305.766 34.12 306.294 34.624L305.628 35.992C305.04 35.5 304.434 35.14 303.81 34.912C303.186 34.672 302.52 34.552 301.812 34.552C300.888 34.552 300.162 34.75 299.634 35.146C299.106 35.53 298.842 36.058 298.842 36.73C298.842 37.306 299.07 37.744 299.526 38.044C299.994 38.344 300.738 38.614 301.758 38.854C302.826 39.094 303.69 39.346 304.35 39.61C305.01 39.874 305.538 40.234 305.934 40.69C306.33 41.146 306.528 41.734 306.528 42.454C306.528 43.198 306.33 43.846 305.934 44.398C305.538 44.95 304.968 45.382 304.224 45.694C303.492 45.994 302.628 46.144 301.632 46.144ZM311.625 34.732H307.287V33.184H317.835V34.732H313.497V46H311.625V34.732ZM326.446 42.832H319.966L318.598 46H316.708L322.414 33.184H323.98L329.704 46H327.814L326.446 42.832ZM325.816 41.356L323.206 35.254L320.596 41.356H325.816ZM341.642 46H339.68L338.078 41.734C337.91 41.278 337.664 40.966 337.34 40.798C337.016 40.618 336.572 40.528 336.008 40.528H333.2V46H331.364V33.184H336.638C338.042 33.184 339.116 33.496 339.86 34.12C340.616 34.744 340.994 35.638 340.994 36.802C340.994 37.642 340.772 38.356 340.328 38.944C339.884 39.532 339.254 39.946 338.438 40.186C339.182 40.318 339.722 40.846 340.058 41.77L341.642 46ZM336.422 39.034C337.358 39.034 338.054 38.854 338.51 38.494C338.966 38.122 339.194 37.57 339.194 36.838C339.194 36.106 338.966 35.566 338.51 35.218C338.066 34.858 337.37 34.678 336.422 34.678H333.2V39.034H336.422ZM346.623 34.732H342.285V33.184H352.833V34.732H348.495V46H346.623V34.732Z" fill="white"/>
<path d="M391 15.5H258C251.649 15.5 246.5 20.6487 246.5 27V53C246.5 59.3513 251.649 64.5 258 64.5H391C397.351 64.5 402.5 59.3513 402.5 53V27C402.5 20.6487 397.351 15.5 391 15.5Z" stroke="white"/>
<path d="M622 138.5H407C400.649 138.5 395.5 143.649 395.5 150V176C395.5 182.351 400.649 187.5 407 187.5H622C628.351 187.5 633.5 182.351 633.5 176V150C633.5 143.649 628.351 138.5 622 138.5Z" fill="white"/>
<path d="M483.766 169.144C482.77 169.144 481.858 169.012 481.03 168.748C480.214 168.484 479.506 168.088 478.906 167.56L479.572 166.192C480.196 166.696 480.844 167.062 481.516 167.29C482.188 167.518 482.944 167.632 483.784 167.632C484.744 167.632 485.488 167.452 486.016 167.092C486.544 166.732 486.808 166.222 486.808 165.562C486.808 165.01 486.562 164.596 486.07 164.32C485.578 164.032 484.798 163.768 483.73 163.528C482.71 163.312 481.876 163.066 481.228 162.79C480.58 162.502 480.07 162.124 479.698 161.656C479.326 161.176 479.14 160.564 479.14 159.82C479.14 159.076 479.338 158.422 479.734 157.858C480.13 157.282 480.688 156.838 481.408 156.526C482.14 156.202 482.98 156.04 483.928 156.04C484.828 156.04 485.668 156.178 486.448 156.454C487.24 156.73 487.9 157.12 488.428 157.624L487.762 158.992C487.174 158.5 486.568 158.14 485.944 157.912C485.32 157.672 484.654 157.552 483.946 157.552C483.022 157.552 482.296 157.75 481.768 158.146C481.24 158.53 480.976 159.058 480.976 159.73C480.976 160.306 481.204 160.744 481.66 161.044C482.128 161.344 482.872 161.614 483.892 161.854C484.96 162.094 485.824 162.346 486.484 162.61C487.144 162.874 487.672 163.234 488.068 163.69C488.464 164.146 488.662 164.734 488.662 165.454C488.662 166.198 488.464 166.846 488.068 167.398C487.672 167.95 487.102 168.382 486.358 168.694C485.626 168.994 484.762 169.144 483.766 169.144ZM490.963 156.184H492.817V169H490.963V156.184ZM506.183 162.196V168.244C505.643 168.52 504.959 168.742 504.131 168.91C503.315 169.066 502.481 169.144 501.629 169.144C500.333 169.144 499.211 168.886 498.263 168.37C497.315 167.842 496.589 167.086 496.085 166.102C495.593 165.118 495.347 163.942 495.347 162.574C495.347 161.23 495.593 160.066 496.085 159.082C496.589 158.098 497.303 157.348 498.227 156.832C499.163 156.304 500.261 156.04 501.521 156.04C502.421 156.04 503.249 156.178 504.005 156.454C504.773 156.718 505.427 157.102 505.967 157.606L505.301 158.992C504.689 158.488 504.089 158.128 503.501 157.912C502.913 157.696 502.259 157.588 501.539 157.588C500.147 157.588 499.085 158.014 498.353 158.866C497.633 159.718 497.273 160.954 497.273 162.574C497.273 164.242 497.645 165.508 498.389 166.372C499.133 167.224 500.231 167.65 501.683 167.65C502.655 167.65 503.591 167.506 504.491 167.218V163.618H501.503V162.196H506.183ZM519.545 156.184V169H518.123L510.779 159.316V169H509.033V156.184H510.437L517.799 165.886V156.184H519.545ZM532.462 169.144C530.758 169.144 529.462 168.7 528.574 167.812C527.698 166.924 527.26 165.622 527.26 163.906V156.184H529.078V164.032C529.078 165.22 529.36 166.12 529.924 166.732C530.5 167.332 531.346 167.632 532.462 167.632C533.566 167.632 534.4 167.326 534.964 166.714C535.54 166.102 535.828 165.208 535.828 164.032V156.184H537.664V163.906C537.664 165.622 537.22 166.924 536.332 167.812C535.456 168.7 534.166 169.144 532.462 169.144ZM540.568 156.184H545.896C547.24 156.184 548.284 156.514 549.028 157.174C549.784 157.822 550.162 158.71 550.162 159.838C550.162 160.966 549.778 161.86 549.01 162.52C548.254 163.168 547.216 163.492 545.896 163.492H542.422V169H540.568V156.184ZM545.68 162.016C546.568 162.016 547.234 161.83 547.678 161.458C548.134 161.086 548.362 160.546 548.362 159.838C548.362 159.142 548.134 158.608 547.678 158.236C547.234 157.864 546.568 157.678 545.68 157.678H542.422V162.016H545.68Z" fill="#3C3C43" fill-opacity="0.6"/>
<path d="M622 138.5H407C400.649 138.5 395.5 143.649 395.5 150V176C395.5 182.351 400.649 187.5 407 187.5H622C628.351 187.5 633.5 182.351 633.5 176V150C633.5 143.649 628.351 138.5 622 138.5Z" stroke="white"/>
<path d="M622 241.5H407C400.649 241.5 395.5 246.649 395.5 253V279C395.5 285.351 400.649 290.5 407 290.5H622C628.351 290.5 633.5 285.351 633.5 279V253C633.5 246.649 628.351 241.5 622 241.5Z" fill="white"/>
<path d="M459.205 272.144C457.993 272.144 456.937 271.88 456.037 271.352C455.149 270.812 454.459 270.05 453.967 269.066C453.487 268.082 453.247 266.924 453.247 265.592C453.247 264.248 453.487 263.084 453.967 262.1C454.447 261.116 455.137 260.36 456.037 259.832C456.937 259.304 457.993 259.04 459.205 259.04C460.429 259.04 461.485 259.304 462.373 259.832C463.273 260.36 463.963 261.116 464.443 262.1C464.923 263.084 465.163 264.242 465.163 265.574C465.163 266.918 464.923 268.082 464.443 269.066C463.963 270.05 463.273 270.812 462.373 271.352C461.473 271.88 460.417 272.144 459.205 272.144ZM459.205 270.632C460.489 270.632 461.485 270.194 462.193 269.318C462.913 268.442 463.273 267.194 463.273 265.574C463.273 263.966 462.913 262.73 462.193 261.866C461.485 260.99 460.489 260.552 459.205 260.552C457.921 260.552 456.925 260.99 456.217 261.866C455.509 262.73 455.155 263.966 455.155 265.574C455.155 267.194 455.509 268.442 456.217 269.318C456.937 270.194 457.933 270.632 459.205 270.632ZM478.236 259.184V272H476.814L469.47 262.316V272H467.724V259.184H469.128L476.49 268.886V259.184H478.236ZM488.766 265.394C489.51 265.598 490.086 265.97 490.494 266.51C490.902 267.05 491.106 267.716 491.106 268.508C491.106 269.612 490.722 270.47 489.954 271.082C489.198 271.694 488.136 272 486.768 272H481.224V259.184H486.588C487.908 259.184 488.934 259.478 489.666 260.066C490.41 260.654 490.782 261.476 490.782 262.532C490.782 263.216 490.602 263.81 490.242 264.314C489.894 264.806 489.402 265.166 488.766 265.394ZM483.06 264.746H486.3C488.088 264.746 488.982 264.056 488.982 262.676C488.982 261.344 488.088 260.678 486.3 260.678H483.06V264.746ZM486.588 270.506C487.524 270.506 488.208 270.338 488.64 270.002C489.072 269.654 489.288 269.12 489.288 268.4C489.288 267.668 489.066 267.128 488.622 266.78C488.19 266.42 487.512 266.24 486.588 266.24H483.06V270.506H486.588ZM499.055 272.144C497.843 272.144 496.787 271.88 495.887 271.352C494.999 270.812 494.309 270.05 493.817 269.066C493.337 268.082 493.097 266.924 493.097 265.592C493.097 264.248 493.337 263.084 493.817 262.1C494.297 261.116 494.987 260.36 495.887 259.832C496.787 259.304 497.843 259.04 499.055 259.04C500.279 259.04 501.335 259.304 502.223 259.832C503.123 260.36 503.813 261.116 504.293 262.1C504.773 263.084 505.013 264.242 505.013 265.574C505.013 266.918 504.773 268.082 504.293 269.066C503.813 270.05 503.123 270.812 502.223 271.352C501.323 271.88 500.267 272.144 499.055 272.144ZM499.055 270.632C500.339 270.632 501.335 270.194 502.043 269.318C502.763 268.442 503.123 267.194 503.123 265.574C503.123 263.966 502.763 262.73 502.043 261.866C501.335 260.99 500.339 260.552 499.055 260.552C497.771 260.552 496.775 260.99 496.067 261.866C495.359 262.73 495.005 263.966 495.005 265.574C495.005 267.194 495.359 268.442 496.067 269.318C496.787 270.194 497.783 270.632 499.055 270.632ZM515.699 268.832H509.219L507.851 272H505.961L511.667 259.184H513.233L518.957 272H517.067L515.699 268.832ZM515.069 267.356L512.459 261.254L509.849 267.356H515.069ZM530.895 272H528.933L527.331 267.734C527.163 267.278 526.917 266.966 526.593 266.798C526.269 266.618 525.825 266.528 525.261 266.528H522.453V272H520.617V259.184H525.891C527.295 259.184 528.369 259.496 529.113 260.12C529.869 260.744 530.247 261.638 530.247 262.802C530.247 263.642 530.025 264.356 529.581 264.944C529.137 265.532 528.507 265.946 527.691 266.186C528.435 266.318 528.975 266.846 529.311 267.77L530.895 272ZM525.675 265.034C526.611 265.034 527.307 264.854 527.763 264.494C528.219 264.122 528.447 263.57 528.447 262.838C528.447 262.106 528.219 261.566 527.763 261.218C527.319 260.858 526.623 260.678 525.675 260.678H522.453V265.034H525.675ZM533.168 259.184H537.65C539.726 259.184 541.334 259.742 542.474 260.858C543.614 261.974 544.184 263.546 544.184 265.574C544.184 267.614 543.614 269.198 542.474 270.326C541.334 271.442 539.726 272 537.65 272H533.168V259.184ZM537.542 270.452C540.698 270.452 542.276 268.826 542.276 265.574C542.276 262.346 540.698 260.732 537.542 260.732H535.022V270.452H537.542ZM546.721 259.184H548.575V272H546.721V259.184ZM562.067 259.184V272H560.645L553.301 262.316V272H551.555V259.184H552.959L560.321 268.886V259.184H562.067ZM575.441 265.196V271.244C574.901 271.52 574.217 271.742 573.389 271.91C572.573 272.066 571.739 272.144 570.887 272.144C569.591 272.144 568.469 271.886 567.521 271.37C566.573 270.842 565.847 270.086 565.343 269.102C564.851 268.118 564.605 266.942 564.605 265.574C564.605 264.23 564.851 263.066 565.343 262.082C565.847 261.098 566.561 260.348 567.485 259.832C568.421 259.304 569.519 259.04 570.779 259.04C571.679 259.04 572.507 259.178 573.263 259.454C574.031 259.718 574.685 260.102 575.225 260.606L574.559 261.992C573.947 261.488 573.347 261.128 572.759 260.912C572.171 260.696 571.517 260.588 570.797 260.588C569.405 260.588 568.343 261.014 567.611 261.866C566.891 262.718 566.531 263.954 566.531 265.574C566.531 267.242 566.903 268.508 567.647 269.372C568.391 270.224 569.489 270.65 570.941 270.65C571.913 270.65 572.849 270.506 573.749 270.218V266.618H570.761V265.196H575.441Z" fill="#3C3C43" fill-opacity="0.6"/>
<path d="M622 241.5H407C400.649 241.5 395.5 246.649 395.5 253V279C395.5 285.351 400.649 290.5 407 290.5H622C628.351 290.5 633.5 285.351 633.5 279V253C633.5 246.649 628.351 241.5 622 241.5Z" stroke="white"/>
<path d="M124.219 497.608V509H122.571V503.896H116.187V509H114.555V497.608H116.187V502.536H122.571V497.608H124.219ZM130.195 509.112C129.406 509.112 128.712 508.941 128.115 508.6C127.518 508.259 127.054 507.773 126.723 507.144C126.403 506.515 126.243 505.779 126.243 504.936C126.243 504.093 126.403 503.357 126.723 502.728C127.054 502.088 127.518 501.597 128.115 501.256C128.712 500.915 129.406 500.744 130.195 500.744C130.974 500.744 131.662 500.915 132.259 501.256C132.856 501.597 133.315 502.088 133.635 502.728C133.966 503.357 134.131 504.093 134.131 504.936C134.131 505.779 133.966 506.515 133.635 507.144C133.315 507.773 132.856 508.259 132.259 508.6C131.662 508.941 130.974 509.112 130.195 509.112ZM130.179 507.832C130.926 507.832 131.496 507.587 131.891 507.096C132.286 506.605 132.483 505.885 132.483 504.936C132.483 504.008 132.28 503.293 131.875 502.792C131.48 502.291 130.92 502.04 130.195 502.04C129.459 502.04 128.888 502.291 128.483 502.792C128.078 503.293 127.875 504.008 127.875 504.936C127.875 505.885 128.072 506.605 128.467 507.096C128.872 507.587 129.443 507.832 130.179 507.832ZM145.22 500.744C147.012 500.744 147.908 501.821 147.908 503.976V509H146.292V504.056C146.292 503.363 146.169 502.856 145.924 502.536C145.689 502.216 145.305 502.056 144.772 502.056C144.153 502.056 143.663 502.269 143.3 502.696C142.948 503.123 142.772 503.704 142.772 504.44V509H141.156V504.056C141.156 503.363 141.033 502.856 140.788 502.536C140.553 502.216 140.169 502.056 139.636 502.056C139.017 502.056 138.527 502.269 138.164 502.696C137.801 503.123 137.62 503.704 137.62 504.44V509H136.02V503.208C136.02 502.365 135.977 501.608 135.892 500.936H137.396L137.54 502.28C137.775 501.789 138.111 501.411 138.548 501.144C138.985 500.877 139.497 500.744 140.084 500.744C141.332 500.744 142.148 501.261 142.532 502.296C142.777 501.816 143.135 501.437 143.604 501.16C144.084 500.883 144.623 500.744 145.22 500.744ZM157.103 505H151.343C151.396 506.888 152.255 507.832 153.919 507.832C154.847 507.832 155.695 507.528 156.463 506.92L156.959 508.072C156.596 508.392 156.132 508.648 155.567 508.84C155.012 509.021 154.452 509.112 153.887 509.112C152.596 509.112 151.583 508.744 150.847 508.008C150.111 507.261 149.743 506.243 149.743 504.952C149.743 504.131 149.903 503.4 150.223 502.76C150.554 502.12 151.012 501.624 151.599 501.272C152.186 500.92 152.852 500.744 153.599 500.744C154.687 500.744 155.54 501.096 156.159 501.8C156.788 502.504 157.103 503.48 157.103 504.728V505ZM153.631 501.944C153.023 501.944 152.527 502.125 152.143 502.488C151.759 502.851 151.514 503.368 151.407 504.04H155.679C155.615 503.357 155.407 502.84 155.055 502.488C154.703 502.125 154.228 501.944 153.631 501.944Z" fill="url(#paint1_linear)"/>
<path fill-rule="evenodd" clip-rule="evenodd" d="M144.735 478.303C145.103 477.704 145.026 476.928 144.489 476.422L136.011 468.409C135.432 467.863 134.53 467.863 133.951 468.409L125.472 476.422C124.486 477.354 125.146 479.013 126.502 479.013H127.962V486.503C127.962 487.332 128.634 488.003 129.462 488.003H140.499C141.328 488.003 141.999 487.332 141.999 486.503V477.478C141.999 476.649 141.328 475.978 140.499 475.978H129.462C128.634 475.978 127.962 476.649 127.962 477.478V478.013H126.502C126.05 478.013 125.83 477.459 126.158 477.149L134.637 469.136C134.83 468.954 135.132 468.954 135.325 469.136L143.803 477.149C143.982 477.318 144.009 477.565 143.889 477.77C143.887 477.773 143.885 477.776 143.883 477.779C143.793 477.926 143.644 478.012 143.46 478.012C143.184 478.012 142.96 478.236 142.96 478.512C142.96 478.789 143.184 479.012 143.46 479.012C143.991 479.012 144.453 478.748 144.724 478.32C144.728 478.315 144.731 478.309 144.735 478.303ZM128.962 486.503V479.013H134.918C135.194 479.013 135.418 478.789 135.418 478.513C135.418 478.237 135.194 478.013 134.918 478.013H128.962V477.478C128.962 477.202 129.186 476.978 129.462 476.978H140.499C140.776 476.978 140.999 477.202 140.999 477.478V486.503C140.999 486.78 140.776 487.003 140.499 487.003H129.462C129.186 487.003 128.962 486.78 128.962 486.503Z" fill="url(#paint2_linear)"/>
<path d="M266.641 497.608H270.625C272.47 497.608 273.899 498.104 274.913 499.096C275.926 500.088 276.433 501.485 276.433 503.288C276.433 505.101 275.926 506.509 274.913 507.512C273.899 508.504 272.47 509 270.625 509H266.641V497.608ZM270.529 507.624C273.334 507.624 274.737 506.179 274.737 503.288C274.737 500.419 273.334 498.984 270.529 498.984H268.289V507.624H270.529ZM278.543 500.936H280.143V509H278.543V500.936ZM280.271 497.416V499.112H278.399V497.416H280.271ZM285.328 509.112C283.92 509.112 282.811 508.771 282 508.088L282.48 506.92C283.323 507.56 284.288 507.88 285.376 507.88C285.931 507.88 286.352 507.789 286.64 507.608C286.928 507.416 287.072 507.149 287.072 506.808C287.072 506.52 286.971 506.296 286.768 506.136C286.576 505.965 286.245 505.821 285.776 505.704L284.432 505.384C283.728 505.235 283.189 504.973 282.816 504.6C282.453 504.216 282.272 503.741 282.272 503.176C282.272 502.451 282.56 501.864 283.136 501.416C283.723 500.968 284.496 500.744 285.456 500.744C286.032 500.744 286.576 500.835 287.088 501.016C287.611 501.197 288.053 501.453 288.416 501.784L287.92 502.92C287.141 502.301 286.32 501.992 285.456 501.992C284.933 501.992 284.528 502.093 284.24 502.296C283.952 502.488 283.808 502.76 283.808 503.112C283.808 503.389 283.899 503.613 284.08 503.784C284.261 503.955 284.549 504.088 284.944 504.184L286.32 504.52C287.088 504.691 287.653 504.963 288.016 505.336C288.389 505.699 288.576 506.173 288.576 506.76C288.576 507.485 288.283 508.061 287.696 508.488C287.12 508.904 286.331 509.112 285.328 509.112ZM293.985 509.112C293.174 509.112 292.465 508.941 291.857 508.6C291.26 508.259 290.801 507.779 290.481 507.16C290.161 506.531 290.001 505.8 290.001 504.968C290.001 504.136 290.166 503.4 290.497 502.76C290.838 502.12 291.313 501.624 291.921 501.272C292.529 500.92 293.238 500.744 294.049 500.744C294.614 500.744 295.158 500.84 295.681 501.032C296.204 501.213 296.625 501.464 296.945 501.784L296.449 502.952C295.692 502.355 294.929 502.056 294.161 502.056C293.382 502.056 292.774 502.312 292.337 502.824C291.9 503.325 291.681 504.035 291.681 504.952C291.681 505.869 291.9 506.579 292.337 507.08C292.774 507.571 293.382 507.816 294.161 507.816C294.95 507.816 295.713 507.517 296.449 506.92L296.945 508.088C296.604 508.408 296.166 508.659 295.633 508.84C295.11 509.021 294.561 509.112 293.985 509.112ZM301.937 509.112C301.148 509.112 300.455 508.941 299.857 508.6C299.26 508.259 298.796 507.773 298.465 507.144C298.145 506.515 297.985 505.779 297.985 504.936C297.985 504.093 298.145 503.357 298.465 502.728C298.796 502.088 299.26 501.597 299.857 501.256C300.455 500.915 301.148 500.744 301.937 500.744C302.716 500.744 303.404 500.915 304.001 501.256C304.599 501.597 305.057 502.088 305.377 502.728C305.708 503.357 305.873 504.093 305.873 504.936C305.873 505.779 305.708 506.515 305.377 507.144C305.057 507.773 304.599 508.259 304.001 508.6C303.404 508.941 302.716 509.112 301.937 509.112ZM301.921 507.832C302.668 507.832 303.239 507.587 303.633 507.096C304.028 506.605 304.225 505.885 304.225 504.936C304.225 504.008 304.023 503.293 303.617 502.792C303.223 502.291 302.663 502.04 301.937 502.04C301.201 502.04 300.631 502.291 300.225 502.792C299.82 503.293 299.617 504.008 299.617 504.936C299.617 505.885 299.815 506.605 300.209 507.096C300.615 507.587 301.185 507.832 301.921 507.832ZM314.981 500.952L311.477 509H310.021L306.549 500.952H308.261L310.789 507.176L313.365 500.952H314.981ZM323.002 505H317.242C317.295 506.888 318.154 507.832 319.818 507.832C320.746 507.832 321.594 507.528 322.362 506.92L322.858 508.072C322.495 508.392 322.031 508.648 321.466 508.84C320.911 509.021 320.351 509.112 319.786 509.112C318.495 509.112 317.482 508.744 316.746 508.008C316.01 507.261 315.642 506.243 315.642 504.952C315.642 504.131 315.802 503.4 316.122 502.76C316.452 502.12 316.911 501.624 317.498 501.272C318.084 500.92 318.751 500.744 319.498 500.744C320.586 500.744 321.439 501.096 322.058 501.8C322.687 502.504 323.002 503.48 323.002 504.728V505ZM319.53 501.944C318.922 501.944 318.426 502.125 318.042 502.488C317.658 502.851 317.412 503.368 317.306 504.04H321.578C321.514 503.357 321.306 502.84 320.954 502.488C320.602 502.125 320.127 501.944 319.53 501.944ZM328.872 500.744C329.117 500.744 329.373 500.781 329.64 500.856L329.608 502.328C329.32 502.221 329.005 502.168 328.664 502.168C327.928 502.168 327.373 502.392 327 502.84C326.637 503.277 326.456 503.832 326.456 504.504V509H324.856V503.208C324.856 502.365 324.813 501.608 324.728 500.936H326.232L326.376 502.392C326.589 501.859 326.92 501.453 327.368 501.176C327.816 500.888 328.317 500.744 328.872 500.744Z" fill="url(#paint3_linear)"/>
<path fill-rule="evenodd" clip-rule="evenodd" d="M301.638 480.466C302.498 479.191 303 477.654 303 476C303 471.581 299.419 468 295 468C290.582 468 287 471.582 287 476C287 480.419 290.581 484 295 484C297.402 484 299.557 482.941 301.023 481.265L305.83 486.071C306.037 486.279 306.037 486.615 305.83 486.822C305.728 486.923 305.594 486.978 305.455 486.978C305.315 486.978 305.181 486.923 305.08 486.822L301.333 483.075C301.137 482.88 300.821 482.88 300.626 483.075C300.43 483.271 300.43 483.587 300.626 483.782L304.373 487.529C304.663 487.82 305.052 487.978 305.455 487.978C305.857 487.978 306.246 487.82 306.537 487.529C307.135 486.931 307.135 485.963 306.537 485.364L301.638 480.466ZM300.916 479.744C301.602 478.661 302 477.377 302 476C302 472.133 298.866 469 295 469C291.134 469 288 472.134 288 476C288 479.866 291.134 483 295 483C297.126 483 299.031 482.052 300.314 480.556L299.194 479.435C298.998 479.24 298.998 478.924 299.194 478.728C299.389 478.533 299.705 478.533 299.901 478.728L300.916 479.744ZM297.712 480.201C296.911 480.72 295.976 481 295 481C292.238 481 290 478.761 290 476C290 475.724 289.776 475.5 289.5 475.5C289.223 475.5 289 475.724 289 476C289 479.314 291.686 482 295 482C296.171 482 297.293 481.663 298.255 481.041C298.487 480.89 298.553 480.581 298.403 480.349C298.253 480.117 297.944 480.051 297.712 480.201Z" fill="url(#paint4_linear)"/>
<path d="M436.592 497.608V509H435.104V501.176L431.728 509H430.592L427.168 501.224L427.184 509H425.696V497.608H427.024L431.168 507.016L435.264 497.608H436.592ZM446.442 500.936L442.682 509.656C442.266 510.605 441.743 511.299 441.114 511.736C440.495 512.184 439.727 512.483 438.81 512.632L438.458 511.384C439.215 511.213 439.786 510.989 440.17 510.712C440.564 510.445 440.879 510.04 441.114 509.496L441.402 508.824L438.01 500.936H439.722L442.25 507.176L444.826 500.936H446.442ZM463.013 497.608V509H461.525V501.176L458.149 509H457.013L453.589 501.224L453.605 509H452.117V497.608H453.445L457.589 507.016L461.685 497.608H463.013ZM472.544 500.936V509H470.976V507.656C470.72 508.125 470.368 508.488 469.92 508.744C469.472 508.989 468.965 509.112 468.4 509.112C466.458 509.112 465.488 508.035 465.488 505.88V500.936H467.088V505.864C467.088 506.525 467.221 507.016 467.488 507.336C467.765 507.645 468.181 507.8 468.736 507.8C469.397 507.8 469.925 507.587 470.32 507.16C470.725 506.733 470.928 506.168 470.928 505.464V500.936H472.544ZM477.727 509.112C476.319 509.112 475.209 508.771 474.399 508.088L474.879 506.92C475.721 507.56 476.687 507.88 477.775 507.88C478.329 507.88 478.751 507.789 479.039 507.608C479.327 507.416 479.471 507.149 479.471 506.808C479.471 506.52 479.369 506.296 479.167 506.136C478.975 505.965 478.644 505.821 478.175 505.704L476.831 505.384C476.127 505.235 475.588 504.973 475.215 504.6C474.852 504.216 474.671 503.741 474.671 503.176C474.671 502.451 474.959 501.864 475.535 501.416C476.121 500.968 476.895 500.744 477.855 500.744C478.431 500.744 478.975 500.835 479.487 501.016C480.009 501.197 480.452 501.453 480.815 501.784L480.319 502.92C479.54 502.301 478.719 501.992 477.855 501.992C477.332 501.992 476.927 502.093 476.639 502.296C476.351 502.488 476.207 502.76 476.207 503.112C476.207 503.389 476.297 503.613 476.479 503.784C476.66 503.955 476.948 504.088 477.343 504.184L478.719 504.52C479.487 504.691 480.052 504.963 480.415 505.336C480.788 505.699 480.975 506.173 480.975 506.76C480.975 507.485 480.681 508.061 480.095 508.488C479.519 508.904 478.729 509.112 477.727 509.112ZM482.879 500.936H484.479V509H482.879V500.936ZM484.607 497.416V499.112H482.735V497.416H484.607ZM490.352 509.112C489.541 509.112 488.832 508.941 488.224 508.6C487.627 508.259 487.168 507.779 486.848 507.16C486.528 506.531 486.368 505.8 486.368 504.968C486.368 504.136 486.533 503.4 486.864 502.76C487.205 502.12 487.68 501.624 488.288 501.272C488.896 500.92 489.605 500.744 490.416 500.744C490.981 500.744 491.525 500.84 492.048 501.032C492.571 501.213 492.992 501.464 493.312 501.784L492.816 502.952C492.059 502.355 491.296 502.056 490.528 502.056C489.749 502.056 489.141 502.312 488.704 502.824C488.267 503.325 488.048 504.035 488.048 504.952C488.048 505.869 488.267 506.579 488.704 507.08C489.141 507.571 489.749 507.816 490.528 507.816C491.317 507.816 492.08 507.517 492.816 506.92L493.312 508.088C492.971 508.408 492.533 508.659 492 508.84C491.477 509.021 490.928 509.112 490.352 509.112Z" fill="url(#paint5_linear)"/>
<path fill-rule="evenodd" clip-rule="evenodd" d="M457.418 470.835L468 469.073V481.982C468 483.639 466.657 484.982 465 484.982C463.343 484.982 462 483.639 462 481.982C462 480.325 463.343 478.982 465 478.982C465.444 478.982 465.874 479.078 466.268 479.262C466.518 479.379 466.815 479.271 466.932 479.02C467.049 478.77 466.941 478.473 466.69 478.356C466.165 478.111 465.591 477.982 465 477.982C462.791 477.982 461 479.773 461 481.982C461 484.191 462.791 485.982 465 485.982C467.209 485.982 469 484.191 469 481.982V468.6C469 468.227 468.662 467.943 468.294 468.01L457.253 469.849C456.53 469.97 456 470.596 456 471.329V472.73L455.386 472.833C455.114 472.878 454.93 473.136 454.975 473.408C455.021 473.681 455.279 473.865 455.551 473.819L456 473.744V483.982C456 485.639 454.657 486.982 453 486.982C451.343 486.982 450 485.639 450 483.982C450 482.325 451.343 480.982 453 480.982C453.467 480.982 453.917 481.088 454.325 481.289C454.572 481.411 454.872 481.31 454.994 481.062C455.117 480.815 455.015 480.515 454.767 480.393C454.223 480.124 453.621 479.982 453 479.982C450.791 479.982 449 481.773 449 483.982C449 486.191 450.791 487.982 453 487.982C455.209 487.982 457 486.191 457 483.982V473.576L466.562 471.975C466.834 471.929 467.018 471.672 466.973 471.399C466.927 471.127 466.669 470.943 466.397 470.989L457 472.562V471.329C457 471.085 457.177 470.876 457.418 470.835ZM457 472.562L456 472.73V473.744L457 473.576V472.562ZM457 483.982C457 483.706 456.776 483.482 456.5 483.482C456.224 483.482 456 483.706 456 483.982C456 484.258 456.224 484.482 456.5 484.482C456.776 484.482 457 484.258 457 483.982ZM469 481.982C469 481.706 468.776 481.482 468.5 481.482C468.224 481.482 468 481.706 468 481.982C468 482.258 468.224 482.482 468.5 482.482C468.776 482.482 469 482.258 469 481.982ZM468 469.073L468.453 468.997C468.218 469.032 468 468.844 468 468.6V469.073Z" fill="url(#paint6_linear)"/>
<path d="M608.438 497.608H613.173C614.368 497.608 615.296 497.901 615.957 498.488C616.629 499.064 616.966 499.853 616.966 500.856C616.966 501.859 616.624 502.653 615.941 503.24C615.269 503.816 614.347 504.104 613.173 504.104H610.086V509H608.438V497.608ZM612.982 502.792C613.772 502.792 614.364 502.627 614.758 502.296C615.164 501.965 615.365 501.485 615.365 500.856C615.365 500.237 615.164 499.763 614.758 499.432C614.364 499.101 613.772 498.936 612.982 498.936H610.086V502.792H612.982ZM622.685 500.744C622.931 500.744 623.187 500.781 623.453 500.856L623.42 502.328C623.132 502.221 622.819 502.168 622.477 502.168C621.741 502.168 621.186 502.392 620.812 502.84C620.451 503.277 620.268 503.832 620.268 504.504V509H618.669V503.208C618.669 502.365 618.626 501.608 618.54 500.936H620.044L620.188 502.392C620.402 501.859 620.732 501.453 621.18 501.176C621.628 500.888 622.131 500.744 622.685 500.744ZM628 509.112C627.21 509.112 626.517 508.941 625.92 508.6C625.322 508.259 624.859 507.773 624.529 507.144C624.209 506.515 624.048 505.779 624.048 504.936C624.048 504.093 624.209 503.357 624.529 502.728C624.859 502.088 625.322 501.597 625.92 501.256C626.517 500.915 627.21 500.744 628 500.744C628.778 500.744 629.467 500.915 630.065 501.256C630.662 501.597 631.12 502.088 631.44 502.728C631.77 503.357 631.936 504.093 631.936 504.936C631.936 505.779 631.77 506.515 631.44 507.144C631.12 507.773 630.662 508.259 630.065 508.6C629.467 508.941 628.778 509.112 628 509.112ZM627.984 507.832C628.73 507.832 629.301 507.587 629.696 507.096C630.09 506.605 630.289 505.885 630.289 504.936C630.289 504.008 630.085 503.293 629.68 502.792C629.285 502.291 628.725 502.04 628 502.04C627.264 502.04 626.694 502.291 626.289 502.792C625.883 503.293 625.68 504.008 625.68 504.936C625.68 505.885 625.877 506.605 626.272 507.096C626.677 507.587 627.248 507.832 627.984 507.832ZM637.201 498.52C636.316 498.52 635.873 499.027 635.873 500.04V500.936H637.761V502.184H635.873V509H634.258V502.184H632.706V500.936H634.258V499.912C634.258 499.016 634.482 498.333 634.93 497.864C635.389 497.395 636.028 497.16 636.849 497.16C637.276 497.16 637.666 497.213 638.018 497.32V498.648C637.73 498.563 637.457 498.52 637.201 498.52ZM639.404 500.936H641.003V509H639.404V500.936ZM641.131 497.416V499.112H639.259V497.416H641.131ZM643.372 497.224H644.972V509H643.372V497.224ZM654.22 505H648.461C648.515 506.888 649.372 507.832 651.036 507.832C651.965 507.832 652.813 507.528 653.581 506.92L654.076 508.072C653.714 508.392 653.251 508.648 652.685 508.84C652.131 509.021 651.571 509.112 651.005 509.112C649.715 509.112 648.7 508.744 647.964 508.008C647.228 507.261 646.86 506.243 646.86 504.952C646.86 504.131 647.021 503.4 647.341 502.76C647.672 502.12 648.13 501.624 648.716 501.272C649.303 500.92 649.97 500.744 650.716 500.744C651.804 500.744 652.658 501.096 653.276 501.8C653.906 502.504 654.22 503.48 654.22 504.728V505ZM650.748 501.944C650.14 501.944 649.644 502.125 649.26 502.488C648.876 502.851 648.631 503.368 648.524 504.04H652.797C652.733 503.357 652.524 502.84 652.172 502.488C651.82 502.125 651.346 501.944 650.748 501.944Z" fill="url(#paint7_linear)"/>
<path fill-rule="evenodd" clip-rule="evenodd" d="M635.115 477.149C634.107 478.285 632.637 479 631 479C627.963 479 625.5 476.538 625.5 473.5C625.5 470.463 627.963 468 631 468C634.037 468 636.5 470.463 636.5 473.5C636.5 474.54 636.211 475.513 635.709 476.343C637.701 477.634 639 479.724 639 482.093V486.489C639 487.318 638.329 487.989 637.5 487.989H624.5C623.671 487.989 623 487.318 623 486.489V482.093C623 480.288 623.76 478.589 625.101 477.288C625.299 477.096 625.615 477.101 625.808 477.299C626 477.497 625.995 477.814 625.797 478.006C624.645 479.123 624 480.566 624 482.093V486.489C624 486.766 624.223 486.989 624.5 486.989H637.5C637.777 486.989 638 486.766 638 486.489V482.093C638 480.067 636.866 478.263 635.115 477.149ZM634.205 476.659C633.389 477.487 632.254 478 631 478C628.515 478 626.5 475.985 626.5 473.5C626.5 471.015 628.515 469 631 469C633.485 469 635.5 471.015 635.5 473.5C635.5 474.362 635.258 475.167 634.838 475.851C633.697 475.296 632.389 474.981 631 474.981C630.724 474.981 630.5 475.205 630.5 475.481C630.5 475.757 630.724 475.981 631 475.981C632.157 475.981 633.246 476.226 634.205 476.659Z" fill="url(#paint8_linear)"/>
</g>
<defs>
<filter id="filter0_d" x="0" y="0" width="683" height="526" filterUnits="userSpaceOnUse" color-interpolation-filters="sRGB">
<feFlood flood-opacity="0" result="BackgroundImageFix"/>
<feColorMatrix in="SourceAlpha" type="matrix" values="0 0 0 0 0 0 0 0 0 0 0 0 0 0 0 0 0 0 127 0"/>
<feOffset/>
<feGaussianBlur stdDeviation="7.5"/>
<feColorMatrix type="matrix" values="0 0 0 0 0.439216 0 0 0 0 0.407843 0 0 0 0 0.356863 0 0 0 0.23 0"/>
<feBlend mode="normal" in2="BackgroundImageFix" result="effect1_dropShadow"/>
<feBlend mode="normal" in="SourceGraphic" in2="effect1_dropShadow" result="shape"/>
</filter>
<linearGradient id="paint0_linear" x1="338" y1="98.1395" x2="335.3" y2="65.0571" gradientUnits="userSpaceOnUse">
<stop offset="0.21875" stop-color="#969BFF"/>
<stop offset="1" stop-color="#656CEE"/>
</linearGradient>
<linearGradient id="paint1_linear" x1="139.369" y1="515.291" x2="138.912" y2="507.993" gradientUnits="userSpaceOnUse">
<stop offset="0.21875" stop-color="#969BFF"/>
<stop offset="1" stop-color="#656CEE"/>
</linearGradient>
<linearGradient id="paint2_linear" x1="136.697" y1="501.261" x2="133.488" y2="488.762" gradientUnits="userSpaceOnUse">
<stop offset="0.21875" stop-color="#969BFF"/>
<stop offset="1" stop-color="#656CEE"/>
</linearGradient>
<linearGradient id="paint3_linear" x1="303.089" y1="515.291" x2="302.772" y2="507.978" gradientUnits="userSpaceOnUse">
<stop offset="0.21875" stop-color="#969BFF"/>
<stop offset="1" stop-color="#656CEE"/>
</linearGradient>
<linearGradient id="paint4_linear" x1="298.711" y1="501.219" x2="295.513" y2="488.732" gradientUnits="userSpaceOnUse">
<stop offset="0.21875" stop-color="#969BFF"/>
<stop offset="1" stop-color="#656CEE"/>
</linearGradient>
<linearGradient id="paint5_linear" x1="465.019" y1="515.291" x2="464.725" y2="507.976" gradientUnits="userSpaceOnUse">
<stop offset="0.21875" stop-color="#969BFF"/>
<stop offset="1" stop-color="#656CEE"/>
</linearGradient>
<linearGradient id="paint6_linear" x1="460.72" y1="501.226" x2="457.522" y2="488.735" gradientUnits="userSpaceOnUse">
<stop offset="0.21875" stop-color="#969BFF"/>
<stop offset="1" stop-color="#656CEE"/>
</linearGradient>
<linearGradient id="paint7_linear" x1="635.127" y1="515.291" x2="634.699" y2="507.989" gradientUnits="userSpaceOnUse">
<stop offset="0.21875" stop-color="#969BFF"/>
<stop offset="1" stop-color="#656CEE"/>
</linearGradient>
<linearGradient id="paint8_linear" x1="632.375" y1="501.238" x2="628.51" y2="489.162" gradientUnits="userSpaceOnUse">
<stop offset="0.21875" stop-color="#969BFF"/>
<stop offset="1" stop-color="#656CEE"/>
</linearGradient>
<clipPath id="clip0">
<rect width="653" height="496" fill="white" transform="translate(15 15)"/>
</clipPath>
</defs>
</svg>
