<svg width="706" height="734" viewBox="0 0 706 734" fill="none" xmlns="http://www.w3.org/2000/svg">
<path d="M307 87L135.9 87C130.394 87 127.641 87 125.53 88.0546C123.593 89.0225 122.022 90.5931 121.055 92.5302C120 94.6407 120 97.3938 120 102.9L120 133" stroke="#C4C4C4"/>
<path fill-rule="evenodd" clip-rule="evenodd" d="M117 132L123 132L120 135L117 132Z" fill="#C4C4C4"/>
<path d="M299 87L485.1 87C490.606 87 493.359 87 495.47 88.0546C497.407 89.0225 498.978 90.5931 499.945 92.5302C501 94.6407 501 97.3938 501 102.9L501 133" stroke="#C4C4C4"/>
<path fill-rule="evenodd" clip-rule="evenodd" d="M504 132L498 132L501 135L504 132Z" fill="#C4C4C4"/>
<path d="M309.5 87L309.5 60.0682" stroke="#C4C4C4" stroke-linecap="square"/>
<path fill-rule="evenodd" clip-rule="evenodd" d="M312 62L307 62L309.5 59L312 62Z" fill="#C4C4C4"/>
<path d="M501 243L501 177.167" stroke="#C4C4C4" stroke-linecap="square"/>
<path fill-rule="evenodd" clip-rule="evenodd" d="M503 179L498 179L500.5 176L503 179Z" fill="#C4C4C4"/>
<path d="M502 402L502 467.833" stroke="#C4C4C4" stroke-linecap="square"/>
<path fill-rule="evenodd" clip-rule="evenodd" d="M500 466L505 466L502.5 469L500 466Z" fill="#C4C4C4"/>
<path d="M280.158 40.184V53H278.484V44.198L274.686 53H273.408L269.556 44.252L269.574 53H267.9V40.184H269.394L274.056 50.768L278.664 40.184H280.158ZM288.143 47.852V53H286.271V47.816L281.177 40.184H283.301L287.225 46.232L291.131 40.184H293.255L288.143 47.852ZM311.341 40.184V53H309.667V44.198L305.869 53H304.591L300.739 44.252L300.757 53H299.083V40.184H300.577L305.239 50.768L309.847 40.184H311.341ZM319.471 53.144C317.767 53.144 316.471 52.7 315.583 51.812C314.707 50.924 314.269 49.622 314.269 47.906V40.184H316.087V48.032C316.087 49.22 316.369 50.12 316.933 50.732C317.509 51.332 318.355 51.632 319.471 51.632C320.575 51.632 321.409 51.326 321.973 50.714C322.549 50.102 322.837 49.208 322.837 48.032V40.184H324.673V47.906C324.673 49.622 324.229 50.924 323.341 51.812C322.465 52.7 321.175 53.144 319.471 53.144ZM331.771 53.144C330.775 53.144 329.863 53.012 329.035 52.748C328.219 52.484 327.511 52.088 326.911 51.56L327.577 50.192C328.201 50.696 328.849 51.062 329.521 51.29C330.193 51.518 330.949 51.632 331.789 51.632C332.749 51.632 333.493 51.452 334.021 51.092C334.549 50.732 334.813 50.222 334.813 49.562C334.813 49.01 334.567 48.596 334.075 48.32C333.583 48.032 332.803 47.768 331.735 47.528C330.715 47.312 329.881 47.066 329.233 46.79C328.585 46.502 328.075 46.124 327.703 45.656C327.331 45.176 327.145 44.564 327.145 43.82C327.145 43.076 327.343 42.422 327.739 41.858C328.135 41.282 328.693 40.838 329.413 40.526C330.145 40.202 330.985 40.04 331.933 40.04C332.833 40.04 333.673 40.178 334.453 40.454C335.245 40.73 335.905 41.12 336.433 41.624L335.767 42.992C335.179 42.5 334.573 42.14 333.949 41.912C333.325 41.672 332.659 41.552 331.951 41.552C331.027 41.552 330.301 41.75 329.773 42.146C329.245 42.53 328.981 43.058 328.981 43.73C328.981 44.306 329.209 44.744 329.665 45.044C330.133 45.344 330.877 45.614 331.897 45.854C332.965 46.094 333.829 46.346 334.489 46.61C335.149 46.874 335.677 47.234 336.073 47.69C336.469 48.146 336.667 48.734 336.667 49.454C336.667 50.198 336.469 50.846 336.073 51.398C335.677 51.95 335.107 52.382 334.363 52.694C333.631 52.994 332.767 53.144 331.771 53.144ZM338.968 40.184H340.822V53H338.968V40.184ZM349.436 53.144C348.2 53.144 347.12 52.88 346.196 52.352C345.284 51.812 344.582 51.05 344.09 50.066C343.598 49.082 343.352 47.918 343.352 46.574C343.352 45.242 343.598 44.084 344.09 43.1C344.582 42.116 345.284 41.36 346.196 40.832C347.12 40.304 348.2 40.04 349.436 40.04C350.312 40.04 351.122 40.178 351.866 40.454C352.622 40.718 353.258 41.108 353.774 41.624L353.126 42.992C352.526 42.5 351.932 42.146 351.344 41.93C350.768 41.702 350.138 41.588 349.454 41.588C348.122 41.588 347.09 42.02 346.358 42.884C345.638 43.748 345.278 44.978 345.278 46.574C345.278 48.182 345.638 49.424 346.358 50.3C347.09 51.164 348.122 51.596 349.454 51.596C350.138 51.596 350.768 51.488 351.344 51.272C351.932 51.044 352.526 50.684 353.126 50.192L353.774 51.56C353.258 52.076 352.622 52.472 351.866 52.748C351.122 53.012 350.312 53.144 349.436 53.144Z" fill="#3C3C43" fill-opacity="0.6"/>
<path d="M452 269V313.1C452 318.606 452 321.359 453.055 323.47C454.022 325.407 455.593 326.978 457.53 327.945C459.641 329 462.394 329 467.9 329H498" stroke="#C4C4C4"/>
<path fill-rule="evenodd" clip-rule="evenodd" d="M497 332V326L500 329L497 332Z" fill="#C4C4C4"/>
<path d="M452 487V531.1C452 536.606 452 539.359 453.055 541.47C454.022 543.407 455.593 544.978 457.53 545.945C459.641 547 462.394 547 467.9 547H498" stroke="#C4C4C4"/>
<path fill-rule="evenodd" clip-rule="evenodd" d="M497 550V544L500 547L497 550Z" fill="#C4C4C4"/>
<path d="M452 318V362.1C452 367.606 452 370.359 453.055 372.47C454.022 374.407 455.593 375.978 457.53 376.945C459.641 378 462.394 378 467.9 378H498" stroke="#C4C4C4"/>
<path fill-rule="evenodd" clip-rule="evenodd" d="M497 381V375L500 378L497 381Z" fill="#C4C4C4"/>
<path d="M452 536V580.1C452 585.606 452 588.359 453.055 590.47C454.022 592.407 455.593 593.978 457.53 594.945C459.641 596 462.394 596 467.9 596H498" stroke="#C4C4C4"/>
<path fill-rule="evenodd" clip-rule="evenodd" d="M497 599V593L500 596L497 599Z" fill="#C4C4C4"/>
<path d="M452 587V631.1C452 636.606 452 639.359 453.055 641.47C454.022 643.407 455.593 644.978 457.53 645.945C459.641 647 462.394 647 467.9 647H498" stroke="#C4C4C4"/>
<path fill-rule="evenodd" clip-rule="evenodd" d="M497 650V644L500 647L497 650Z" fill="#C4C4C4"/>
<rect x="0.5" y="135.5" width="238" height="49" rx="11.5" fill="white"/>
<path d="M89.6577 153.184V166H87.9837V157.198L84.1857 166H82.9077L79.0557 157.252L79.0737 166H77.3997V153.184H78.8937L83.5557 163.768L88.1637 153.184H89.6577ZM97.6431 160.852V166H95.7711V160.816L90.6771 153.184H92.8011L96.7251 159.232L100.631 153.184H102.755L97.6431 160.852ZM120.841 153.184V166H119.167V157.198L115.369 166H114.091L110.239 157.252L110.257 166H108.583V153.184H110.077L114.739 163.768L119.347 153.184H120.841ZM128.971 166.144C127.267 166.144 125.971 165.7 125.083 164.812C124.207 163.924 123.769 162.622 123.769 160.906V153.184H125.587V161.032C125.587 162.22 125.869 163.12 126.433 163.732C127.009 164.332 127.855 164.632 128.971 164.632C130.075 164.632 130.909 164.326 131.473 163.714C132.049 163.102 132.337 162.208 132.337 161.032V153.184H134.173V160.906C134.173 162.622 133.729 163.924 132.841 164.812C131.965 165.7 130.675 166.144 128.971 166.144ZM141.271 166.144C140.275 166.144 139.363 166.012 138.535 165.748C137.719 165.484 137.011 165.088 136.411 164.56L137.077 163.192C137.701 163.696 138.349 164.062 139.021 164.29C139.693 164.518 140.449 164.632 141.289 164.632C142.249 164.632 142.993 164.452 143.521 164.092C144.049 163.732 144.313 163.222 144.313 162.562C144.313 162.01 144.067 161.596 143.575 161.32C143.083 161.032 142.303 160.768 141.235 160.528C140.215 160.312 139.381 160.066 138.733 159.79C138.085 159.502 137.575 159.124 137.203 158.656C136.831 158.176 136.645 157.564 136.645 156.82C136.645 156.076 136.843 155.422 137.239 154.858C137.635 154.282 138.193 153.838 138.913 153.526C139.645 153.202 140.485 153.04 141.433 153.04C142.333 153.04 143.173 153.178 143.953 153.454C144.745 153.73 145.405 154.12 145.933 154.624L145.267 155.992C144.679 155.5 144.073 155.14 143.449 154.912C142.825 154.672 142.159 154.552 141.451 154.552C140.527 154.552 139.801 154.75 139.273 155.146C138.745 155.53 138.481 156.058 138.481 156.73C138.481 157.306 138.709 157.744 139.165 158.044C139.633 158.344 140.377 158.614 141.397 158.854C142.465 159.094 143.329 159.346 143.989 159.61C144.649 159.874 145.177 160.234 145.573 160.69C145.969 161.146 146.167 161.734 146.167 162.454C146.167 163.198 145.969 163.846 145.573 164.398C145.177 164.95 144.607 165.382 143.863 165.694C143.131 165.994 142.267 166.144 141.271 166.144ZM148.468 153.184H150.322V166H148.468V153.184ZM158.936 166.144C157.7 166.144 156.62 165.88 155.696 165.352C154.784 164.812 154.082 164.05 153.59 163.066C153.098 162.082 152.852 160.918 152.852 159.574C152.852 158.242 153.098 157.084 153.59 156.1C154.082 155.116 154.784 154.36 155.696 153.832C156.62 153.304 157.7 153.04 158.936 153.04C159.812 153.04 160.622 153.178 161.366 153.454C162.122 153.718 162.758 154.108 163.274 154.624L162.626 155.992C162.026 155.5 161.432 155.146 160.844 154.93C160.268 154.702 159.638 154.588 158.954 154.588C157.622 154.588 156.59 155.02 155.858 155.884C155.138 156.748 154.778 157.978 154.778 159.574C154.778 161.182 155.138 162.424 155.858 163.3C156.59 164.164 157.622 164.596 158.954 164.596C159.638 164.596 160.268 164.488 160.844 164.272C161.432 164.044 162.026 163.684 162.626 163.192L163.274 164.56C162.758 165.076 162.122 165.472 161.366 165.748C160.622 166.012 159.812 166.144 158.936 166.144Z" fill="#3C3C43" fill-opacity="0.6"/>
<rect x="0.5" y="135.5" width="238" height="49" rx="11.5" stroke="white"/>
<rect x="380.5" y="135.5" width="238" height="49" rx="11.5" fill="white"/>
<path d="M457.441 153.184V166H455.767V157.198L451.969 166H450.691L446.839 157.252L446.857 166H445.183V153.184H446.677L451.339 163.768L455.947 153.184H457.441ZM465.426 160.852V166H463.554V160.816L458.46 153.184H460.584L464.508 159.232L468.414 153.184H470.538L465.426 160.852ZM476.348 153.184H481.676C483.02 153.184 484.064 153.514 484.808 154.174C485.564 154.822 485.942 155.71 485.942 156.838C485.942 157.966 485.558 158.86 484.79 159.52C484.034 160.168 482.996 160.492 481.676 160.492H478.202V166H476.348V153.184ZM481.46 159.016C482.348 159.016 483.014 158.83 483.458 158.458C483.914 158.086 484.142 157.546 484.142 156.838C484.142 156.142 483.914 155.608 483.458 155.236C483.014 154.864 482.348 154.678 481.46 154.678H478.202V159.016H481.46ZM488.196 153.184H490.05V164.452H496.278V166H488.196V153.184ZM506.358 162.832H499.878L498.51 166H496.62L502.326 153.184H503.892L509.616 166H507.726L506.358 162.832ZM505.728 161.356L503.118 155.254L500.508 161.356H505.728ZM514.821 160.852V166H512.949V160.816L507.855 153.184H509.979L513.903 159.232L517.809 153.184H519.933L514.821 160.852ZM520.944 153.184H522.798V164.452H529.026V166H520.944V153.184ZM530.876 153.184H532.73V166H530.876V153.184ZM539.904 166.144C538.908 166.144 537.996 166.012 537.168 165.748C536.352 165.484 535.644 165.088 535.044 164.56L535.71 163.192C536.334 163.696 536.982 164.062 537.654 164.29C538.326 164.518 539.082 164.632 539.922 164.632C540.882 164.632 541.626 164.452 542.154 164.092C542.682 163.732 542.946 163.222 542.946 162.562C542.946 162.01 542.7 161.596 542.208 161.32C541.716 161.032 540.936 160.768 539.868 160.528C538.848 160.312 538.014 160.066 537.366 159.79C536.718 159.502 536.208 159.124 535.836 158.656C535.464 158.176 535.278 157.564 535.278 156.82C535.278 156.076 535.476 155.422 535.872 154.858C536.268 154.282 536.826 153.838 537.546 153.526C538.278 153.202 539.118 153.04 540.066 153.04C540.966 153.04 541.806 153.178 542.586 153.454C543.378 153.73 544.038 154.12 544.566 154.624L543.9 155.992C543.312 155.5 542.706 155.14 542.082 154.912C541.458 154.672 540.792 154.552 540.084 154.552C539.16 154.552 538.434 154.75 537.906 155.146C537.378 155.53 537.114 156.058 537.114 156.73C537.114 157.306 537.342 157.744 537.798 158.044C538.266 158.344 539.01 158.614 540.03 158.854C541.098 159.094 541.962 159.346 542.622 159.61C543.282 159.874 543.81 160.234 544.206 160.69C544.602 161.146 544.8 161.734 544.8 162.454C544.8 163.198 544.602 163.846 544.206 164.398C543.81 164.95 543.24 165.382 542.496 165.694C541.764 165.994 540.9 166.144 539.904 166.144ZM549.897 154.732H545.559V153.184H556.107V154.732H551.769V166H549.897V154.732Z" fill="#3C3C43" fill-opacity="0.6"/>
<rect x="380.5" y="135.5" width="238" height="49" rx="11.5" stroke="white"/>
<rect x="380.5" y="238.5" width="238" height="49" rx="11.5" fill="white"/>
<path d="M412.501 265.832H406.021L404.653 269H402.763L408.469 256.184H410.035L415.759 269H413.869L412.501 265.832ZM411.871 264.356L409.261 258.254L406.651 264.356H411.871ZM417.419 256.184H421.901C423.977 256.184 425.585 256.742 426.725 257.858C427.865 258.974 428.435 260.546 428.435 262.574C428.435 264.614 427.865 266.198 426.725 267.326C425.585 268.442 423.977 269 421.901 269H417.419V256.184ZM421.793 267.452C424.949 267.452 426.527 265.826 426.527 262.574C426.527 259.346 424.949 257.732 421.793 257.732H419.273V267.452H421.793ZM430.972 256.184H435.454C437.53 256.184 439.138 256.742 440.278 257.858C441.418 258.974 441.988 260.546 441.988 262.574C441.988 264.614 441.418 266.198 440.278 267.326C439.138 268.442 437.53 269 435.454 269H430.972V256.184ZM435.346 267.452C438.502 267.452 440.08 265.826 440.08 262.574C440.08 259.346 438.502 257.732 435.346 257.732H432.826V267.452H435.346ZM457.747 265.832H451.267L449.899 269H448.009L453.715 256.184H455.281L461.005 269H459.115L457.747 265.832ZM457.117 264.356L454.507 258.254L451.897 264.356H457.117ZM477.976 256.184V269H476.554L469.21 259.316V269H467.464V256.184H468.868L476.23 265.886V256.184H477.976ZM480.964 256.184H489.28V257.696H482.8V261.728H488.92V263.24H482.8V267.488H489.28V269H480.964V256.184ZM509.618 256.184L505.1 269H503.552L500.096 259.1L496.622 269H495.074L490.574 256.184H492.464L495.902 266.372L499.448 256.184L500.816 256.202L504.308 266.426L507.8 256.184H509.618ZM516.436 256.184H521.764C523.108 256.184 524.152 256.514 524.896 257.174C525.652 257.822 526.03 258.71 526.03 259.838C526.03 260.966 525.646 261.86 524.878 262.52C524.122 263.168 523.084 263.492 521.764 263.492H518.29V269H516.436V256.184ZM521.548 262.016C522.436 262.016 523.102 261.83 523.546 261.458C524.002 261.086 524.23 260.546 524.23 259.838C524.23 259.142 524.002 258.608 523.546 258.236C523.102 257.864 522.436 257.678 521.548 257.678H518.29V262.016H521.548ZM528.284 256.184H530.138V267.452H536.366V269H528.284V256.184ZM546.446 265.832H539.966L538.598 269H536.708L542.414 256.184H543.98L549.704 269H547.814L546.446 265.832ZM545.816 264.356L543.206 258.254L540.596 264.356H545.816ZM554.909 263.852V269H553.037V263.816L547.943 256.184H550.067L553.991 262.232L557.897 256.184H560.021L554.909 263.852ZM561.032 256.184H562.886V267.452H569.114V269H561.032V256.184ZM570.964 256.184H572.818V269H570.964V256.184ZM579.992 269.144C578.996 269.144 578.084 269.012 577.256 268.748C576.44 268.484 575.732 268.088 575.132 267.56L575.798 266.192C576.422 266.696 577.07 267.062 577.742 267.29C578.414 267.518 579.17 267.632 580.01 267.632C580.97 267.632 581.714 267.452 582.242 267.092C582.77 266.732 583.034 266.222 583.034 265.562C583.034 265.01 582.788 264.596 582.296 264.32C581.804 264.032 581.024 263.768 579.956 263.528C578.936 263.312 578.102 263.066 577.454 262.79C576.806 262.502 576.296 262.124 575.924 261.656C575.552 261.176 575.366 260.564 575.366 259.82C575.366 259.076 575.564 258.422 575.96 257.858C576.356 257.282 576.914 256.838 577.634 256.526C578.366 256.202 579.206 256.04 580.154 256.04C581.054 256.04 581.894 256.178 582.674 256.454C583.466 256.73 584.126 257.12 584.654 257.624L583.988 258.992C583.4 258.5 582.794 258.14 582.17 257.912C581.546 257.672 580.88 257.552 580.172 257.552C579.248 257.552 578.522 257.75 577.994 258.146C577.466 258.53 577.202 259.058 577.202 259.73C577.202 260.306 577.43 260.744 577.886 261.044C578.354 261.344 579.098 261.614 580.118 261.854C581.186 262.094 582.05 262.346 582.71 262.61C583.37 262.874 583.898 263.234 584.294 263.69C584.69 264.146 584.888 264.734 584.888 265.454C584.888 266.198 584.69 266.846 584.294 267.398C583.898 267.95 583.328 268.382 582.584 268.694C581.852 268.994 580.988 269.144 579.992 269.144ZM589.985 257.732H585.647V256.184H596.195V257.732H591.857V269H589.985V257.732Z" fill="#3C3C43" fill-opacity="0.6"/>
<rect x="380.5" y="238.5" width="238" height="49" rx="11.5" stroke="white"/>
<rect x="380.5" y="453.5" width="238" height="49" rx="11.5" fill="white"/>
<path d="M421.479 471.184H426.807C428.151 471.184 429.195 471.514 429.939 472.174C430.695 472.822 431.073 473.71 431.073 474.838C431.073 475.966 430.689 476.86 429.921 477.52C429.165 478.168 428.127 478.492 426.807 478.492H423.333V484H421.479V471.184ZM426.591 477.016C427.479 477.016 428.145 476.83 428.589 476.458C429.045 476.086 429.273 475.546 429.273 474.838C429.273 474.142 429.045 473.608 428.589 473.236C428.145 472.864 427.479 472.678 426.591 472.678H423.333V477.016H426.591ZM433.327 471.184H435.181V482.452H441.409V484H433.327V471.184ZM451.489 480.832H445.009L443.641 484H441.751L447.457 471.184H449.023L454.747 484H452.857L451.489 480.832ZM450.859 479.356L448.249 473.254L445.639 479.356H450.859ZM459.952 478.852V484H458.08V478.816L452.986 471.184H455.11L459.034 477.232L462.94 471.184H465.064L459.952 478.852ZM466.075 471.184H467.929V482.452H474.157V484H466.075V471.184ZM476.007 471.184H477.861V484H476.007V471.184ZM485.035 484.144C484.039 484.144 483.127 484.012 482.299 483.748C481.483 483.484 480.775 483.088 480.175 482.56L480.841 481.192C481.465 481.696 482.113 482.062 482.785 482.29C483.457 482.518 484.213 482.632 485.053 482.632C486.013 482.632 486.757 482.452 487.285 482.092C487.813 481.732 488.077 481.222 488.077 480.562C488.077 480.01 487.831 479.596 487.339 479.32C486.847 479.032 486.067 478.768 484.999 478.528C483.979 478.312 483.145 478.066 482.497 477.79C481.849 477.502 481.339 477.124 480.967 476.656C480.595 476.176 480.409 475.564 480.409 474.82C480.409 474.076 480.607 473.422 481.003 472.858C481.399 472.282 481.957 471.838 482.677 471.526C483.409 471.202 484.249 471.04 485.197 471.04C486.097 471.04 486.937 471.178 487.717 471.454C488.509 471.73 489.169 472.12 489.697 472.624L489.031 473.992C488.443 473.5 487.837 473.14 487.213 472.912C486.589 472.672 485.923 472.552 485.215 472.552C484.291 472.552 483.565 472.75 483.037 473.146C482.509 473.53 482.245 474.058 482.245 474.73C482.245 475.306 482.473 475.744 482.929 476.044C483.397 476.344 484.141 476.614 485.161 476.854C486.229 477.094 487.093 477.346 487.753 477.61C488.413 477.874 488.941 478.234 489.337 478.69C489.733 479.146 489.931 479.734 489.931 480.454C489.931 481.198 489.733 481.846 489.337 482.398C488.941 482.95 488.371 483.382 487.627 483.694C486.895 483.994 486.031 484.144 485.035 484.144ZM495.028 472.732H490.69V471.184H501.238V472.732H496.9V484H495.028V472.732ZM507.753 471.184H512.235C514.311 471.184 515.919 471.742 517.059 472.858C518.199 473.974 518.769 475.546 518.769 477.574C518.769 479.614 518.199 481.198 517.059 482.326C515.919 483.442 514.311 484 512.235 484H507.753V471.184ZM512.127 482.452C515.283 482.452 516.861 480.826 516.861 477.574C516.861 474.346 515.283 472.732 512.127 472.732H509.607V482.452H512.127ZM521.306 471.184H529.622V472.696H523.142V476.728H529.262V478.24H523.142V482.488H529.622V484H521.306V471.184ZM534.895 472.732H530.557V471.184H541.105V472.732H536.767V484H534.895V472.732ZM549.716 480.832H543.236L541.868 484H539.978L545.684 471.184H547.25L552.974 484H551.084L549.716 480.832ZM549.086 479.356L546.476 473.254L543.866 479.356H549.086ZM554.634 471.184H556.488V484H554.634V471.184ZM559.468 471.184H561.322V482.452H567.55V484H559.468V471.184ZM573.312 484.144C572.316 484.144 571.404 484.012 570.576 483.748C569.76 483.484 569.052 483.088 568.452 482.56L569.118 481.192C569.742 481.696 570.39 482.062 571.062 482.29C571.734 482.518 572.49 482.632 573.33 482.632C574.29 482.632 575.034 482.452 575.562 482.092C576.09 481.732 576.354 481.222 576.354 480.562C576.354 480.01 576.108 479.596 575.616 479.32C575.124 479.032 574.344 478.768 573.276 478.528C572.256 478.312 571.422 478.066 570.774 477.79C570.126 477.502 569.616 477.124 569.244 476.656C568.872 476.176 568.686 475.564 568.686 474.82C568.686 474.076 568.884 473.422 569.28 472.858C569.676 472.282 570.234 471.838 570.954 471.526C571.686 471.202 572.526 471.04 573.474 471.04C574.374 471.04 575.214 471.178 575.994 471.454C576.786 471.73 577.446 472.12 577.974 472.624L577.308 473.992C576.72 473.5 576.114 473.14 575.49 472.912C574.866 472.672 574.2 472.552 573.492 472.552C572.568 472.552 571.842 472.75 571.314 473.146C570.786 473.53 570.522 474.058 570.522 474.73C570.522 475.306 570.75 475.744 571.206 476.044C571.674 476.344 572.418 476.614 573.438 476.854C574.506 477.094 575.37 477.346 576.03 477.61C576.69 477.874 577.218 478.234 577.614 478.69C578.01 479.146 578.208 479.734 578.208 480.454C578.208 481.198 578.01 481.846 577.614 482.398C577.218 482.95 576.648 483.382 575.904 483.694C575.172 483.994 574.308 484.144 573.312 484.144Z" fill="#3C3C43" fill-opacity="0.6"/>
<rect x="380.5" y="453.5" width="238" height="49" rx="11.5" stroke="white"/>
<path fill-rule="evenodd" clip-rule="evenodd" d="M308.418 4.83483L319 3.07261V15.9818C319 17.6386 317.657 18.9818 316 18.9818C314.343 18.9818 313 17.6386 313 15.9818C313 14.3249 314.343 12.9818 316 12.9818C316.444 12.9818 316.874 13.0781 317.268 13.2619C317.518 13.3786 317.815 13.2705 317.932 13.0202C318.049 12.77 317.941 12.4725 317.69 12.3557C317.165 12.1105 316.591 11.9818 316 11.9818C313.791 11.9818 312 13.7726 312 15.9818C312 18.1909 313.791 19.9818 316 19.9818C318.209 19.9818 320 18.1909 320 15.9818V2.59977C320 2.22699 319.662 1.9424 319.294 2.00997L308.253 3.84857C307.53 3.97031 307 4.59603 307 5.32877V6.7298L306.386 6.83264C306.114 6.87825 305.93 7.13601 305.975 7.40836C306.021 7.68071 306.279 7.86452 306.551 7.81891L307 7.74373V17.9818C307 19.6386 305.657 20.9818 304 20.9818C302.343 20.9818 301 19.6386 301 17.9818C301 16.3249 302.343 14.9818 304 14.9818C304.467 14.9818 304.917 15.0879 305.325 15.2891C305.572 15.4114 305.872 15.3097 305.994 15.0621C306.117 14.8144 306.015 14.5146 305.767 14.3924C305.223 14.1235 304.621 13.9818 304 13.9818C301.791 13.9818 300 15.7726 300 17.9818C300 20.1909 301.791 21.9818 304 21.9818C306.209 21.9818 308 20.1909 308 17.9818V7.57626L317.562 5.97491C317.834 5.9293 318.018 5.67154 317.973 5.39919C317.927 5.12684 317.669 4.94303 317.397 4.98864L308 6.56233V5.32877C308 5.08453 308.177 4.8754 308.418 4.83483ZM308 6.56233L307 6.7298V7.74373L308 7.57626V6.56233ZM308 17.9818C308 17.7056 307.776 17.4818 307.5 17.4818C307.224 17.4818 307 17.7056 307 17.9818C307 18.2579 307.224 18.4818 307.5 18.4818C307.776 18.4818 308 18.2579 308 17.9818ZM320 15.9818C320 15.7056 319.776 15.4818 319.5 15.4818C319.224 15.4818 319 15.7056 319 15.9818C319 16.2579 319.224 16.4818 319.5 16.4818C319.776 16.4818 320 16.2579 320 15.9818ZM319 3.07261L319.453 2.99712C319.218 3.03232 319 2.84434 319 2.59977V3.07261Z" fill="url(#paint0_linear)"/>
<path d="M34 185V197.1C34 202.606 34 205.359 35.0546 207.47C36.0225 209.407 37.5931 210.978 39.5302 211.945C41.6407 213 44.3938 213 49.9 213H80" stroke="#C4C4C4"/>
<path fill-rule="evenodd" clip-rule="evenodd" d="M79 216V210L82 213L79 216Z" fill="#C4C4C4"/>
<path d="M34 200V244.1C34 249.606 34 252.359 35.0546 254.47C36.0225 256.407 37.5931 257.978 39.5302 258.945C41.6407 260 44.3938 260 49.9 260H80" stroke="#C4C4C4"/>
<path fill-rule="evenodd" clip-rule="evenodd" d="M79 263V257L82 260L79 263Z" fill="#C4C4C4"/>
<path d="M34 249V293.1C34 298.606 34 301.359 35.0546 303.47C36.0225 305.407 37.5931 306.978 39.5302 307.945C41.6407 309 44.3938 309 49.9 309H80" stroke="#C4C4C4"/>
<path fill-rule="evenodd" clip-rule="evenodd" d="M79 312V306L82 309L79 312Z" fill="#C4C4C4"/>
<path d="M98.918 215.832H92.438L91.07 219H89.18L94.886 206.184H96.452L102.176 219H100.286L98.918 215.832ZM98.288 214.356L95.678 208.254L93.068 214.356H98.288ZM103.674 205.752H105.474V219H103.674V205.752ZM108.139 205.752H109.939V219H108.139V205.752ZM121.758 219.144C120.762 219.144 119.85 219.012 119.022 218.748C118.206 218.484 117.498 218.088 116.898 217.56L117.564 216.192C118.188 216.696 118.836 217.062 119.508 217.29C120.18 217.518 120.936 217.632 121.776 217.632C122.736 217.632 123.48 217.452 124.008 217.092C124.536 216.732 124.8 216.222 124.8 215.562C124.8 215.01 124.554 214.596 124.062 214.32C123.57 214.032 122.79 213.768 121.722 213.528C120.702 213.312 119.868 213.066 119.22 212.79C118.572 212.502 118.062 212.124 117.69 211.656C117.318 211.176 117.132 210.564 117.132 209.82C117.132 209.076 117.33 208.422 117.726 207.858C118.122 207.282 118.68 206.838 119.4 206.526C120.132 206.202 120.972 206.04 121.92 206.04C122.82 206.04 123.66 206.178 124.44 206.454C125.232 206.73 125.892 207.12 126.42 207.624L125.754 208.992C125.166 208.5 124.56 208.14 123.936 207.912C123.312 207.672 122.646 207.552 121.938 207.552C121.014 207.552 120.288 207.75 119.76 208.146C119.232 208.53 118.968 209.058 118.968 209.73C118.968 210.306 119.196 210.744 119.652 211.044C120.12 211.344 120.864 211.614 121.884 211.854C122.952 212.094 123.816 212.346 124.476 212.61C125.136 212.874 125.664 213.234 126.06 213.69C126.456 214.146 126.654 214.734 126.654 215.454C126.654 216.198 126.456 216.846 126.06 217.398C125.664 217.95 125.094 218.382 124.35 218.694C123.618 218.994 122.754 219.144 121.758 219.144ZM132.699 219.126C131.811 219.126 131.031 218.934 130.359 218.55C129.687 218.166 129.165 217.62 128.793 216.912C128.433 216.204 128.253 215.376 128.253 214.428C128.253 213.48 128.433 212.652 128.793 211.944C129.165 211.224 129.687 210.672 130.359 210.288C131.031 209.904 131.811 209.712 132.699 209.712C133.575 209.712 134.349 209.904 135.021 210.288C135.693 210.672 136.209 211.224 136.569 211.944C136.941 212.652 137.127 213.48 137.127 214.428C137.127 215.376 136.941 216.204 136.569 216.912C136.209 217.62 135.693 218.166 135.021 218.55C134.349 218.934 133.575 219.126 132.699 219.126ZM132.681 217.686C133.521 217.686 134.163 217.41 134.607 216.858C135.051 216.306 135.273 215.496 135.273 214.428C135.273 213.384 135.045 212.58 134.589 212.016C134.145 211.452 133.515 211.17 132.699 211.17C131.871 211.17 131.229 211.452 130.773 212.016C130.317 212.58 130.089 213.384 130.089 214.428C130.089 215.496 130.311 216.306 130.755 216.858C131.211 217.41 131.853 217.686 132.681 217.686ZM144.076 209.712C146.248 209.712 147.334 210.924 147.334 213.348V219H145.516V213.456C145.516 212.664 145.36 212.088 145.048 211.728C144.748 211.368 144.262 211.188 143.59 211.188C142.822 211.188 142.204 211.428 141.736 211.908C141.28 212.388 141.052 213.03 141.052 213.834V219H139.252V212.484C139.252 211.536 139.204 210.684 139.108 209.928H140.8L140.962 211.494C141.25 210.918 141.664 210.48 142.204 210.18C142.756 209.868 143.38 209.712 144.076 209.712ZM158.292 209.928V218.838C158.292 220.218 157.926 221.256 157.194 221.952C156.474 222.66 155.4 223.014 153.972 223.014C152.592 223.014 151.386 222.714 150.354 222.114L150.66 220.692C151.224 220.992 151.764 221.214 152.28 221.358C152.808 221.502 153.366 221.574 153.954 221.574C155.646 221.574 156.492 220.71 156.492 218.982V217.02C156.216 217.548 155.814 217.968 155.286 218.28C154.758 218.58 154.146 218.73 153.45 218.73C152.658 218.73 151.95 218.544 151.326 218.172C150.714 217.8 150.234 217.272 149.886 216.588C149.55 215.904 149.382 215.118 149.382 214.23C149.382 213.342 149.55 212.556 149.886 211.872C150.234 211.188 150.714 210.66 151.326 210.288C151.95 209.904 152.658 209.712 153.45 209.712C154.146 209.712 154.758 209.862 155.286 210.162C155.814 210.45 156.216 210.864 156.492 211.404V209.928H158.292ZM153.864 217.272C154.68 217.272 155.322 217.002 155.79 216.462C156.258 215.922 156.492 215.178 156.492 214.23C156.492 213.282 156.258 212.538 155.79 211.998C155.334 211.446 154.692 211.17 153.864 211.17C153.048 211.17 152.4 211.446 151.92 211.998C151.452 212.538 151.218 213.282 151.218 214.23C151.218 215.166 151.452 215.91 151.92 216.462C152.4 217.002 153.048 217.272 153.864 217.272ZM164.129 219.126C162.545 219.126 161.297 218.742 160.385 217.974L160.925 216.66C161.873 217.38 162.959 217.74 164.183 217.74C164.807 217.74 165.281 217.638 165.605 217.434C165.929 217.218 166.091 216.918 166.091 216.534C166.091 216.21 165.977 215.958 165.749 215.778C165.533 215.586 165.161 215.424 164.633 215.292L163.121 214.932C162.329 214.764 161.723 214.47 161.303 214.05C160.895 213.618 160.691 213.084 160.691 212.448C160.691 211.632 161.015 210.972 161.663 210.468C162.323 209.964 163.193 209.712 164.273 209.712C164.921 209.712 165.533 209.814 166.109 210.018C166.697 210.222 167.195 210.51 167.603 210.882L167.045 212.16C166.169 211.464 165.245 211.116 164.273 211.116C163.685 211.116 163.229 211.23 162.905 211.458C162.581 211.674 162.419 211.98 162.419 212.376C162.419 212.688 162.521 212.94 162.725 213.132C162.929 213.324 163.253 213.474 163.697 213.582L165.245 213.96C166.109 214.152 166.745 214.458 167.153 214.878C167.573 215.286 167.783 215.82 167.783 216.48C167.783 217.296 167.453 217.944 166.793 218.424C166.145 218.892 165.257 219.126 164.129 219.126Z" fill="#3C3C43" fill-opacity="0.6"/>
<path d="M98.918 261.832H92.438L91.07 265H89.18L94.886 252.184H96.452L102.176 265H100.286L98.918 261.832ZM98.288 260.356L95.678 254.254L93.068 260.356H98.288ZM103.674 251.752H105.474V265H103.674V251.752ZM108.139 251.752H109.939V265H108.139V251.752ZM125.988 261.832H119.508L118.14 265H116.25L121.956 252.184H123.522L129.246 265H127.356L125.988 261.832ZM125.358 260.356L122.748 254.254L120.138 260.356H125.358ZM135.262 255.712C135.538 255.712 135.826 255.754 136.126 255.838L136.09 257.494C135.766 257.374 135.412 257.314 135.028 257.314C134.2 257.314 133.576 257.566 133.156 258.07C132.748 258.562 132.544 259.186 132.544 259.942V265H130.744V258.484C130.744 257.536 130.696 256.684 130.6 255.928H132.292L132.454 257.566C132.694 256.966 133.066 256.51 133.57 256.198C134.074 255.874 134.638 255.712 135.262 255.712ZM140.626 257.332V261.886C140.626 262.51 140.758 262.954 141.022 263.218C141.298 263.47 141.676 263.596 142.156 263.596C142.468 263.596 142.786 263.548 143.11 263.452V264.928C142.714 265.06 142.264 265.126 141.76 265.126C140.824 265.126 140.098 264.862 139.582 264.334C139.066 263.806 138.808 263.038 138.808 262.03V257.332H137.044V255.928H138.808V253.66L140.626 253.03V255.928H143.128V257.332H140.626ZM144.807 255.928H146.607V265H144.807V255.928ZM146.751 251.968V253.876H144.645V251.968H146.751ZM152.439 265.126C150.855 265.126 149.607 264.742 148.695 263.974L149.235 262.66C150.183 263.38 151.269 263.74 152.493 263.74C153.117 263.74 153.591 263.638 153.915 263.434C154.239 263.218 154.401 262.918 154.401 262.534C154.401 262.21 154.287 261.958 154.059 261.778C153.843 261.586 153.471 261.424 152.943 261.292L151.431 260.932C150.639 260.764 150.033 260.47 149.613 260.05C149.205 259.618 149.001 259.084 149.001 258.448C149.001 257.632 149.325 256.972 149.973 256.468C150.633 255.964 151.503 255.712 152.583 255.712C153.231 255.712 153.843 255.814 154.419 256.018C155.007 256.222 155.505 256.51 155.913 256.882L155.355 258.16C154.479 257.464 153.555 257.116 152.583 257.116C151.995 257.116 151.539 257.23 151.215 257.458C150.891 257.674 150.729 257.98 150.729 258.376C150.729 258.688 150.831 258.94 151.035 259.132C151.239 259.324 151.563 259.474 152.007 259.582L153.555 259.96C154.419 260.152 155.055 260.458 155.463 260.878C155.883 261.286 156.093 261.82 156.093 262.48C156.093 263.296 155.763 263.944 155.103 264.424C154.455 264.892 153.567 265.126 152.439 265.126ZM160.506 257.332V261.886C160.506 262.51 160.638 262.954 160.902 263.218C161.178 263.47 161.556 263.596 162.036 263.596C162.348 263.596 162.666 263.548 162.99 263.452V264.928C162.594 265.06 162.144 265.126 161.64 265.126C160.704 265.126 159.978 264.862 159.462 264.334C158.946 263.806 158.688 263.038 158.688 262.03V257.332H156.924V255.928H158.688V253.66L160.506 253.03V255.928H163.008V257.332H160.506ZM167.855 265.126C166.271 265.126 165.023 264.742 164.111 263.974L164.651 262.66C165.599 263.38 166.685 263.74 167.909 263.74C168.533 263.74 169.007 263.638 169.331 263.434C169.655 263.218 169.817 262.918 169.817 262.534C169.817 262.21 169.703 261.958 169.475 261.778C169.259 261.586 168.887 261.424 168.359 261.292L166.847 260.932C166.055 260.764 165.449 260.47 165.029 260.05C164.621 259.618 164.417 259.084 164.417 258.448C164.417 257.632 164.741 256.972 165.389 256.468C166.049 255.964 166.919 255.712 167.999 255.712C168.647 255.712 169.259 255.814 169.835 256.018C170.423 256.222 170.921 256.51 171.329 256.882L170.771 258.16C169.895 257.464 168.971 257.116 167.999 257.116C167.411 257.116 166.955 257.23 166.631 257.458C166.307 257.674 166.145 257.98 166.145 258.376C166.145 258.688 166.247 258.94 166.451 259.132C166.655 259.324 166.979 259.474 167.423 259.582L168.971 259.96C169.835 260.152 170.471 260.458 170.879 260.878C171.299 261.286 171.509 261.82 171.509 262.48C171.509 263.296 171.179 263.944 170.519 264.424C169.871 264.892 168.983 265.126 167.855 265.126Z" fill="#3C3C43" fill-opacity="0.6"/>
<path d="M508.494 321.184H513.822C515.166 321.184 516.21 321.514 516.954 322.174C517.71 322.822 518.088 323.71 518.088 324.838C518.088 325.966 517.704 326.86 516.936 327.52C516.18 328.168 515.142 328.492 513.822 328.492H510.348V334H508.494V321.184ZM513.606 327.016C514.494 327.016 515.16 326.83 515.604 326.458C516.06 326.086 516.288 325.546 516.288 324.838C516.288 324.142 516.06 323.608 515.604 323.236C515.16 322.864 514.494 322.678 513.606 322.678H510.348V327.016H513.606ZM520.18 320.752H521.98V334H520.18V320.752ZM532.943 324.928V334H531.143V332.452C530.879 332.992 530.483 333.406 529.955 333.694C529.439 333.982 528.833 334.126 528.137 334.126C527.333 334.126 526.625 333.934 526.013 333.55C525.413 333.166 524.945 332.626 524.609 331.93C524.273 331.222 524.105 330.4 524.105 329.464C524.105 328.528 524.273 327.7 524.609 326.98C524.957 326.26 525.437 325.702 526.049 325.306C526.661 324.91 527.357 324.712 528.137 324.712C528.833 324.712 529.439 324.862 529.955 325.162C530.471 325.45 530.867 325.864 531.143 326.404V324.928H532.943ZM528.569 332.686C529.385 332.686 530.015 332.404 530.459 331.84C530.915 331.264 531.143 330.46 531.143 329.428C531.143 328.384 530.915 327.58 530.459 327.016C530.015 326.452 529.379 326.17 528.551 326.17C527.735 326.17 527.093 326.464 526.625 327.052C526.169 327.628 525.941 328.432 525.941 329.464C525.941 330.484 526.169 331.276 526.625 331.84C527.093 332.404 527.741 332.686 528.569 332.686ZM543.857 324.928L539.627 334.738C539.159 335.806 538.571 336.586 537.863 337.078C537.167 337.582 536.303 337.918 535.271 338.086L534.875 336.682C535.727 336.49 536.369 336.238 536.801 335.926C537.245 335.626 537.599 335.17 537.863 334.558L538.187 333.802L534.371 324.928H536.297L539.141 331.948L542.039 324.928H543.857ZM545.264 320.752H547.064V334H545.264V320.752ZM549.728 324.928H551.528V334H549.728V324.928ZM551.672 320.968V322.876H549.566V320.968H551.672ZM557.361 334.126C555.777 334.126 554.529 333.742 553.617 332.974L554.157 331.66C555.105 332.38 556.191 332.74 557.415 332.74C558.039 332.74 558.513 332.638 558.837 332.434C559.161 332.218 559.323 331.918 559.323 331.534C559.323 331.21 559.209 330.958 558.981 330.778C558.765 330.586 558.393 330.424 557.865 330.292L556.353 329.932C555.561 329.764 554.955 329.47 554.535 329.05C554.127 328.618 553.923 328.084 553.923 327.448C553.923 326.632 554.247 325.972 554.895 325.468C555.555 324.964 556.425 324.712 557.505 324.712C558.153 324.712 558.765 324.814 559.341 325.018C559.929 325.222 560.427 325.51 560.835 325.882L560.277 327.16C559.401 326.464 558.477 326.116 557.505 326.116C556.917 326.116 556.461 326.23 556.137 326.458C555.813 326.674 555.651 326.98 555.651 327.376C555.651 327.688 555.753 327.94 555.957 328.132C556.161 328.324 556.485 328.474 556.929 328.582L558.477 328.96C559.341 329.152 559.977 329.458 560.385 329.878C560.805 330.286 561.015 330.82 561.015 331.48C561.015 332.296 560.685 332.944 560.025 333.424C559.377 333.892 558.489 334.126 557.361 334.126ZM565.428 326.332V330.886C565.428 331.51 565.56 331.954 565.824 332.218C566.1 332.47 566.478 332.596 566.958 332.596C567.27 332.596 567.588 332.548 567.912 332.452V333.928C567.516 334.06 567.066 334.126 566.562 334.126C565.626 334.126 564.9 333.862 564.384 333.334C563.868 332.806 563.61 332.038 563.61 331.03V326.332H561.846V324.928H563.61V322.66L565.428 322.03V324.928H567.93V326.332H565.428ZM572.777 334.126C571.193 334.126 569.945 333.742 569.033 332.974L569.573 331.66C570.521 332.38 571.607 332.74 572.831 332.74C573.455 332.74 573.929 332.638 574.253 332.434C574.577 332.218 574.739 331.918 574.739 331.534C574.739 331.21 574.625 330.958 574.397 330.778C574.181 330.586 573.809 330.424 573.281 330.292L571.769 329.932C570.977 329.764 570.371 329.47 569.951 329.05C569.543 328.618 569.339 328.084 569.339 327.448C569.339 326.632 569.663 325.972 570.311 325.468C570.971 324.964 571.841 324.712 572.921 324.712C573.569 324.712 574.181 324.814 574.757 325.018C575.345 325.222 575.843 325.51 576.251 325.882L575.693 327.16C574.817 326.464 573.893 326.116 572.921 326.116C572.333 326.116 571.877 326.23 571.553 326.458C571.229 326.674 571.067 326.98 571.067 327.376C571.067 327.688 571.169 327.94 571.373 328.132C571.577 328.324 571.901 328.474 572.345 328.582L573.893 328.96C574.757 329.152 575.393 329.458 575.801 329.878C576.221 330.286 576.431 330.82 576.431 331.48C576.431 332.296 576.101 332.944 575.441 333.424C574.793 333.892 573.905 334.126 572.777 334.126ZM594.047 321.184V334H592.625L585.281 324.316V334H583.535V321.184H584.939L592.301 330.886V321.184H594.047ZM605.171 324.928V334H603.371V332.452C603.107 332.992 602.711 333.406 602.183 333.694C601.667 333.982 601.061 334.126 600.365 334.126C599.561 334.126 598.853 333.934 598.241 333.55C597.641 333.166 597.173 332.626 596.837 331.93C596.501 331.222 596.333 330.4 596.333 329.464C596.333 328.528 596.501 327.7 596.837 326.98C597.185 326.26 597.665 325.702 598.277 325.306C598.889 324.91 599.585 324.712 600.365 324.712C601.061 324.712 601.667 324.862 602.183 325.162C602.699 325.45 603.095 325.864 603.371 326.404V324.928H605.171ZM600.797 332.686C601.613 332.686 602.243 332.404 602.687 331.84C603.143 331.264 603.371 330.46 603.371 329.428C603.371 328.384 603.143 327.58 602.687 327.016C602.243 326.452 601.607 326.17 600.779 326.17C599.963 326.17 599.321 326.464 598.853 327.052C598.397 327.628 598.169 328.432 598.169 329.464C598.169 330.484 598.397 331.276 598.853 331.84C599.321 332.404 599.969 332.686 600.797 332.686ZM618.192 324.712C620.208 324.712 621.216 325.924 621.216 328.348V334H619.398V328.438C619.398 327.658 619.26 327.088 618.984 326.728C618.72 326.368 618.288 326.188 617.688 326.188C616.992 326.188 616.44 326.428 616.032 326.908C615.636 327.388 615.438 328.042 615.438 328.87V334H613.62V328.438C613.62 327.658 613.482 327.088 613.206 326.728C612.942 326.368 612.51 326.188 611.91 326.188C611.214 326.188 610.662 326.428 610.254 326.908C609.846 327.388 609.642 328.042 609.642 328.87V334H607.842V327.484C607.842 326.536 607.794 325.684 607.698 324.928H609.39L609.552 326.44C609.816 325.888 610.194 325.462 610.686 325.162C611.178 324.862 611.754 324.712 612.414 324.712C613.818 324.712 614.736 325.294 615.168 326.458C615.444 325.918 615.846 325.492 616.374 325.18C616.914 324.868 617.52 324.712 618.192 324.712ZM631.56 329.5H625.08C625.14 331.624 626.106 332.686 627.978 332.686C629.022 332.686 629.976 332.344 630.84 331.66L631.398 332.956C630.99 333.316 630.468 333.604 629.832 333.82C629.208 334.024 628.578 334.126 627.942 334.126C626.49 334.126 625.35 333.712 624.522 332.884C623.694 332.044 623.28 330.898 623.28 329.446C623.28 328.522 623.46 327.7 623.82 326.98C624.192 326.26 624.708 325.702 625.368 325.306C626.028 324.91 626.778 324.712 627.618 324.712C628.842 324.712 629.802 325.108 630.498 325.9C631.206 326.692 631.56 327.79 631.56 329.194V329.5ZM627.654 326.062C626.97 326.062 626.412 326.266 625.98 326.674C625.548 327.082 625.272 327.664 625.152 328.42H629.958C629.886 327.652 629.652 327.07 629.256 326.674C628.86 326.266 628.326 326.062 627.654 326.062Z" fill="#3C3C43" fill-opacity="0.6"/>
<path d="M508.494 539.184H513.822C515.166 539.184 516.21 539.514 516.954 540.174C517.71 540.822 518.088 541.71 518.088 542.838C518.088 543.966 517.704 544.86 516.936 545.52C516.18 546.168 515.142 546.492 513.822 546.492H510.348V552H508.494V539.184ZM513.606 545.016C514.494 545.016 515.16 544.83 515.604 544.458C516.06 544.086 516.288 543.546 516.288 542.838C516.288 542.142 516.06 541.608 515.604 541.236C515.16 540.864 514.494 540.678 513.606 540.678H510.348V545.016H513.606ZM520.18 538.752H521.98V552H520.18V538.752ZM532.943 542.928V552H531.143V550.452C530.879 550.992 530.483 551.406 529.955 551.694C529.439 551.982 528.833 552.126 528.137 552.126C527.333 552.126 526.625 551.934 526.013 551.55C525.413 551.166 524.945 550.626 524.609 549.93C524.273 549.222 524.105 548.4 524.105 547.464C524.105 546.528 524.273 545.7 524.609 544.98C524.957 544.26 525.437 543.702 526.049 543.306C526.661 542.91 527.357 542.712 528.137 542.712C528.833 542.712 529.439 542.862 529.955 543.162C530.471 543.45 530.867 543.864 531.143 544.404V542.928H532.943ZM528.569 550.686C529.385 550.686 530.015 550.404 530.459 549.84C530.915 549.264 531.143 548.46 531.143 547.428C531.143 546.384 530.915 545.58 530.459 545.016C530.015 544.452 529.379 544.17 528.551 544.17C527.735 544.17 527.093 544.464 526.625 545.052C526.169 545.628 525.941 546.432 525.941 547.464C525.941 548.484 526.169 549.276 526.625 549.84C527.093 550.404 527.741 550.686 528.569 550.686ZM543.857 542.928L539.627 552.738C539.159 553.806 538.571 554.586 537.863 555.078C537.167 555.582 536.303 555.918 535.271 556.086L534.875 554.682C535.727 554.49 536.369 554.238 536.801 553.926C537.245 553.626 537.599 553.17 537.863 552.558L538.187 551.802L534.371 542.928H536.297L539.141 549.948L542.039 542.928H543.857ZM550.224 539.184H555.552C556.896 539.184 557.94 539.514 558.684 540.174C559.44 540.822 559.818 541.71 559.818 542.838C559.818 543.966 559.434 544.86 558.666 545.52C557.91 546.168 556.872 546.492 555.552 546.492H552.078V552H550.224V539.184ZM555.336 545.016C556.224 545.016 556.89 544.83 557.334 544.458C557.79 544.086 558.018 543.546 558.018 542.838C558.018 542.142 557.79 541.608 557.334 541.236C556.89 540.864 556.224 540.678 555.336 540.678H552.078V545.016H555.336ZM561.91 538.752H563.71V552H561.91V538.752ZM574.673 542.928V552H572.873V550.452C572.609 550.992 572.213 551.406 571.685 551.694C571.169 551.982 570.563 552.126 569.867 552.126C569.063 552.126 568.355 551.934 567.743 551.55C567.143 551.166 566.675 550.626 566.339 549.93C566.003 549.222 565.835 548.4 565.835 547.464C565.835 546.528 566.003 545.7 566.339 544.98C566.687 544.26 567.167 543.702 567.779 543.306C568.391 542.91 569.087 542.712 569.867 542.712C570.563 542.712 571.169 542.862 571.685 543.162C572.201 543.45 572.597 543.864 572.873 544.404V542.928H574.673ZM570.299 550.686C571.115 550.686 571.745 550.404 572.189 549.84C572.645 549.264 572.873 548.46 572.873 547.428C572.873 546.384 572.645 545.58 572.189 545.016C571.745 544.452 571.109 544.17 570.281 544.17C569.465 544.17 568.823 544.464 568.355 545.052C567.899 545.628 567.671 546.432 567.671 547.464C567.671 548.484 567.899 549.276 568.355 549.84C568.823 550.404 569.471 550.686 570.299 550.686ZM585.588 542.928L581.358 552.738C580.89 553.806 580.302 554.586 579.594 555.078C578.898 555.582 578.034 555.918 577.002 556.086L576.606 554.682C577.458 554.49 578.1 554.238 578.532 553.926C578.976 553.626 579.33 553.17 579.594 552.558L579.918 551.802L576.102 542.928H578.028L580.872 549.948L583.77 542.928H585.588ZM586.994 538.752H588.794V552H586.994V538.752ZM591.459 542.928H593.259V552H591.459V542.928ZM593.403 538.968V540.876H591.297V538.968H593.403ZM599.092 552.126C597.508 552.126 596.26 551.742 595.348 550.974L595.888 549.66C596.836 550.38 597.922 550.74 599.146 550.74C599.77 550.74 600.244 550.638 600.568 550.434C600.892 550.218 601.054 549.918 601.054 549.534C601.054 549.21 600.94 548.958 600.712 548.778C600.496 548.586 600.124 548.424 599.596 548.292L598.084 547.932C597.292 547.764 596.686 547.47 596.266 547.05C595.858 546.618 595.654 546.084 595.654 545.448C595.654 544.632 595.978 543.972 596.626 543.468C597.286 542.964 598.156 542.712 599.236 542.712C599.884 542.712 600.496 542.814 601.072 543.018C601.66 543.222 602.158 543.51 602.566 543.882L602.008 545.16C601.132 544.464 600.208 544.116 599.236 544.116C598.648 544.116 598.192 544.23 597.868 544.458C597.544 544.674 597.382 544.98 597.382 545.376C597.382 545.688 597.484 545.94 597.688 546.132C597.892 546.324 598.216 546.474 598.66 546.582L600.208 546.96C601.072 547.152 601.708 547.458 602.116 547.878C602.536 548.286 602.746 548.82 602.746 549.48C602.746 550.296 602.416 550.944 601.756 551.424C601.108 551.892 600.22 552.126 599.092 552.126ZM607.159 544.332V548.886C607.159 549.51 607.291 549.954 607.555 550.218C607.831 550.47 608.209 550.596 608.689 550.596C609.001 550.596 609.319 550.548 609.643 550.452V551.928C609.247 552.06 608.797 552.126 608.293 552.126C607.357 552.126 606.631 551.862 606.115 551.334C605.599 550.806 605.341 550.038 605.341 549.03V544.332H603.577V542.928H605.341V540.66L607.159 540.03V542.928H609.661V544.332H607.159ZM614.508 552.126C612.924 552.126 611.676 551.742 610.764 550.974L611.304 549.66C612.252 550.38 613.338 550.74 614.562 550.74C615.186 550.74 615.66 550.638 615.984 550.434C616.308 550.218 616.47 549.918 616.47 549.534C616.47 549.21 616.356 548.958 616.128 548.778C615.912 548.586 615.54 548.424 615.012 548.292L613.5 547.932C612.708 547.764 612.102 547.47 611.682 547.05C611.274 546.618 611.07 546.084 611.07 545.448C611.07 544.632 611.394 543.972 612.042 543.468C612.702 542.964 613.572 542.712 614.652 542.712C615.3 542.712 615.912 542.814 616.488 543.018C617.076 543.222 617.574 543.51 617.982 543.882L617.424 545.16C616.548 544.464 615.624 544.116 614.652 544.116C614.064 544.116 613.608 544.23 613.284 544.458C612.96 544.674 612.798 544.98 612.798 545.376C612.798 545.688 612.9 545.94 613.104 546.132C613.308 546.324 613.632 546.474 614.076 546.582L615.624 546.96C616.488 547.152 617.124 547.458 617.532 547.878C617.952 548.286 618.162 548.82 618.162 549.48C618.162 550.296 617.832 550.944 617.172 551.424C616.524 551.892 615.636 552.126 614.508 552.126Z" fill="#3C3C43" fill-opacity="0.6"/>
<path d="M100.772 314H98.81L97.208 309.734C97.04 309.278 96.794 308.966 96.47 308.798C96.146 308.618 95.702 308.528 95.138 308.528H92.33V314H90.494V301.184H95.768C97.172 301.184 98.246 301.496 98.99 302.12C99.746 302.744 100.124 303.638 100.124 304.802C100.124 305.642 99.902 306.356 99.458 306.944C99.014 307.532 98.384 307.946 97.568 308.186C98.312 308.318 98.852 308.846 99.188 309.77L100.772 314ZM95.552 307.034C96.488 307.034 97.184 306.854 97.64 306.494C98.096 306.122 98.324 305.57 98.324 304.838C98.324 304.106 98.096 303.566 97.64 303.218C97.196 302.858 96.5 302.678 95.552 302.678H92.33V307.034H95.552ZM110.623 309.5H104.143C104.203 311.624 105.169 312.686 107.041 312.686C108.085 312.686 109.039 312.344 109.903 311.66L110.461 312.956C110.053 313.316 109.531 313.604 108.895 313.82C108.271 314.024 107.641 314.126 107.005 314.126C105.553 314.126 104.413 313.712 103.585 312.884C102.757 312.044 102.343 310.898 102.343 309.446C102.343 308.522 102.523 307.7 102.883 306.98C103.255 306.26 103.771 305.702 104.431 305.306C105.091 304.91 105.841 304.712 106.681 304.712C107.905 304.712 108.865 305.108 109.561 305.9C110.269 306.692 110.623 307.79 110.623 309.194V309.5ZM106.717 306.062C106.033 306.062 105.475 306.266 105.043 306.674C104.611 307.082 104.335 307.664 104.215 308.42H109.021C108.949 307.652 108.715 307.07 108.319 306.674C107.923 306.266 107.389 306.062 106.717 306.062ZM116.651 314.126C115.739 314.126 114.941 313.934 114.257 313.55C113.585 313.166 113.069 312.626 112.709 311.93C112.349 311.222 112.169 310.4 112.169 309.464C112.169 308.528 112.355 307.7 112.727 306.98C113.111 306.26 113.645 305.702 114.329 305.306C115.013 304.91 115.811 304.712 116.723 304.712C117.359 304.712 117.971 304.82 118.559 305.036C119.147 305.24 119.621 305.522 119.981 305.882L119.423 307.196C118.571 306.524 117.713 306.188 116.849 306.188C115.973 306.188 115.289 306.476 114.797 307.052C114.305 307.616 114.059 308.414 114.059 309.446C114.059 310.478 114.305 311.276 114.797 311.84C115.289 312.392 115.973 312.668 116.849 312.668C117.737 312.668 118.595 312.332 119.423 311.66L119.981 312.974C119.597 313.334 119.105 313.616 118.505 313.82C117.917 314.024 117.299 314.126 116.651 314.126ZM129.431 309.5H122.951C123.011 311.624 123.977 312.686 125.849 312.686C126.893 312.686 127.847 312.344 128.711 311.66L129.269 312.956C128.861 313.316 128.339 313.604 127.703 313.82C127.079 314.024 126.449 314.126 125.813 314.126C124.361 314.126 123.221 313.712 122.393 312.884C121.565 312.044 121.151 310.898 121.151 309.446C121.151 308.522 121.331 307.7 121.691 306.98C122.063 306.26 122.579 305.702 123.239 305.306C123.899 304.91 124.649 304.712 125.489 304.712C126.713 304.712 127.673 305.108 128.369 305.9C129.077 306.692 129.431 307.79 129.431 309.194V309.5ZM125.525 306.062C124.841 306.062 124.283 306.266 123.851 306.674C123.419 307.082 123.143 307.664 123.023 308.42H127.829C127.757 307.652 127.523 307.07 127.127 306.674C126.731 306.266 126.197 306.062 125.525 306.062ZM136.342 304.712C138.514 304.712 139.6 305.924 139.6 308.348V314H137.782V308.456C137.782 307.664 137.626 307.088 137.314 306.728C137.014 306.368 136.528 306.188 135.856 306.188C135.088 306.188 134.47 306.428 134.002 306.908C133.546 307.388 133.318 308.03 133.318 308.834V314H131.518V307.484C131.518 306.536 131.47 305.684 131.374 304.928H133.066L133.228 306.494C133.516 305.918 133.93 305.48 134.47 305.18C135.022 304.868 135.646 304.712 136.342 304.712ZM144.545 306.332V310.886C144.545 311.51 144.677 311.954 144.941 312.218C145.217 312.47 145.595 312.596 146.075 312.596C146.387 312.596 146.705 312.548 147.029 312.452V313.928C146.633 314.06 146.183 314.126 145.679 314.126C144.743 314.126 144.017 313.862 143.501 313.334C142.985 312.806 142.727 312.038 142.727 311.03V306.332H140.963V304.928H142.727V302.66L144.545 302.03V304.928H147.047V306.332H144.545ZM148.727 300.752H150.527V314H148.727V300.752ZM161.435 304.928L157.205 314.738C156.737 315.806 156.149 316.586 155.441 317.078C154.745 317.582 153.881 317.918 152.849 318.086L152.453 316.682C153.305 316.49 153.947 316.238 154.379 315.926C154.823 315.626 155.177 315.17 155.441 314.558L155.765 313.802L151.949 304.928H153.875L156.719 311.948L159.617 304.928H161.435ZM167.803 301.184H173.131C174.475 301.184 175.519 301.514 176.263 302.174C177.019 302.822 177.397 303.71 177.397 304.838C177.397 305.966 177.013 306.86 176.245 307.52C175.489 308.168 174.451 308.492 173.131 308.492H169.657V314H167.803V301.184ZM172.915 307.016C173.803 307.016 174.469 306.83 174.913 306.458C175.369 306.086 175.597 305.546 175.597 304.838C175.597 304.142 175.369 303.608 174.913 303.236C174.469 302.864 173.803 302.678 172.915 302.678H169.657V307.016H172.915ZM179.488 300.752H181.288V314H179.488V300.752ZM192.251 304.928V314H190.451V312.452C190.187 312.992 189.791 313.406 189.263 313.694C188.747 313.982 188.141 314.126 187.445 314.126C186.641 314.126 185.933 313.934 185.321 313.55C184.721 313.166 184.253 312.626 183.917 311.93C183.581 311.222 183.413 310.4 183.413 309.464C183.413 308.528 183.581 307.7 183.917 306.98C184.265 306.26 184.745 305.702 185.357 305.306C185.969 304.91 186.665 304.712 187.445 304.712C188.141 304.712 188.747 304.862 189.263 305.162C189.779 305.45 190.175 305.864 190.451 306.404V304.928H192.251ZM187.877 312.686C188.693 312.686 189.323 312.404 189.767 311.84C190.223 311.264 190.451 310.46 190.451 309.428C190.451 308.384 190.223 307.58 189.767 307.016C189.323 306.452 188.687 306.17 187.859 306.17C187.043 306.17 186.401 306.464 185.933 307.052C185.477 307.628 185.249 308.432 185.249 309.464C185.249 310.484 185.477 311.276 185.933 311.84C186.401 312.404 187.049 312.686 187.877 312.686ZM203.166 304.928L198.936 314.738C198.468 315.806 197.88 316.586 197.172 317.078C196.476 317.582 195.612 317.918 194.58 318.086L194.184 316.682C195.036 316.49 195.678 316.238 196.11 315.926C196.554 315.626 196.908 315.17 197.172 314.558L197.496 313.802L193.68 304.928H195.606L198.45 311.948L201.348 304.928H203.166ZM212.189 309.5H205.709C205.769 311.624 206.735 312.686 208.607 312.686C209.651 312.686 210.605 312.344 211.469 311.66L212.027 312.956C211.619 313.316 211.097 313.604 210.461 313.82C209.837 314.024 209.207 314.126 208.571 314.126C207.119 314.126 205.979 313.712 205.151 312.884C204.323 312.044 203.909 310.898 203.909 309.446C203.909 308.522 204.089 307.7 204.449 306.98C204.821 306.26 205.337 305.702 205.997 305.306C206.657 304.91 207.407 304.712 208.247 304.712C209.471 304.712 210.431 305.108 211.127 305.9C211.835 306.692 212.189 307.79 212.189 309.194V309.5ZM208.283 306.062C207.599 306.062 207.041 306.266 206.609 306.674C206.177 307.082 205.901 307.664 205.781 308.42H210.587C210.515 307.652 210.281 307.07 209.885 306.674C209.489 306.266 208.955 306.062 208.283 306.062ZM222.573 300.752V314H220.773V312.452C220.509 312.992 220.113 313.406 219.585 313.694C219.069 313.982 218.463 314.126 217.767 314.126C216.987 314.126 216.291 313.928 215.679 313.532C215.067 313.136 214.587 312.584 214.239 311.876C213.903 311.156 213.735 310.328 213.735 309.392C213.735 308.456 213.903 307.634 214.239 306.926C214.575 306.218 215.043 305.672 215.643 305.288C216.255 304.904 216.963 304.712 217.767 304.712C218.451 304.712 219.051 304.856 219.567 305.144C220.095 305.432 220.491 305.84 220.755 306.368V300.752H222.573ZM218.181 312.686C219.009 312.686 219.645 312.404 220.089 311.84C220.545 311.264 220.773 310.46 220.773 309.428C220.773 308.396 220.545 307.598 220.089 307.034C219.645 306.458 219.015 306.17 218.199 306.17C217.371 306.17 216.723 306.452 216.255 307.016C215.799 307.58 215.571 308.372 215.571 309.392C215.571 310.424 215.799 311.234 216.255 311.822C216.723 312.398 217.365 312.686 218.181 312.686Z" fill="#3C3C43" fill-opacity="0.6"/>
<path d="M508.494 370.184H513.822C515.166 370.184 516.21 370.514 516.954 371.174C517.71 371.822 518.088 372.71 518.088 373.838C518.088 374.966 517.704 375.86 516.936 376.52C516.18 377.168 515.142 377.492 513.822 377.492H510.348V383H508.494V370.184ZM513.606 376.016C514.494 376.016 515.16 375.83 515.604 375.458C516.06 375.086 516.288 374.546 516.288 373.838C516.288 373.142 516.06 372.608 515.604 372.236C515.16 371.864 514.494 371.678 513.606 371.678H510.348V376.016H513.606ZM520.18 369.752H521.98V383H520.18V369.752ZM532.943 373.928V383H531.143V381.452C530.879 381.992 530.483 382.406 529.955 382.694C529.439 382.982 528.833 383.126 528.137 383.126C527.333 383.126 526.625 382.934 526.013 382.55C525.413 382.166 524.945 381.626 524.609 380.93C524.273 380.222 524.105 379.4 524.105 378.464C524.105 377.528 524.273 376.7 524.609 375.98C524.957 375.26 525.437 374.702 526.049 374.306C526.661 373.91 527.357 373.712 528.137 373.712C528.833 373.712 529.439 373.862 529.955 374.162C530.471 374.45 530.867 374.864 531.143 375.404V373.928H532.943ZM528.569 381.686C529.385 381.686 530.015 381.404 530.459 380.84C530.915 380.264 531.143 379.46 531.143 378.428C531.143 377.384 530.915 376.58 530.459 376.016C530.015 375.452 529.379 375.17 528.551 375.17C527.735 375.17 527.093 375.464 526.625 376.052C526.169 376.628 525.941 377.432 525.941 378.464C525.941 379.484 526.169 380.276 526.625 380.84C527.093 381.404 527.741 381.686 528.569 381.686ZM543.857 373.928L539.627 383.738C539.159 384.806 538.571 385.586 537.863 386.078C537.167 386.582 536.303 386.918 535.271 387.086L534.875 385.682C535.727 385.49 536.369 385.238 536.801 384.926C537.245 384.626 537.599 384.17 537.863 383.558L538.187 382.802L534.371 373.928H536.297L539.141 380.948L542.039 373.928H543.857ZM545.264 369.752H547.064V383H545.264V369.752ZM549.728 373.928H551.528V383H549.728V373.928ZM551.672 369.968V371.876H549.566V369.968H551.672ZM557.361 383.126C555.777 383.126 554.529 382.742 553.617 381.974L554.157 380.66C555.105 381.38 556.191 381.74 557.415 381.74C558.039 381.74 558.513 381.638 558.837 381.434C559.161 381.218 559.323 380.918 559.323 380.534C559.323 380.21 559.209 379.958 558.981 379.778C558.765 379.586 558.393 379.424 557.865 379.292L556.353 378.932C555.561 378.764 554.955 378.47 554.535 378.05C554.127 377.618 553.923 377.084 553.923 376.448C553.923 375.632 554.247 374.972 554.895 374.468C555.555 373.964 556.425 373.712 557.505 373.712C558.153 373.712 558.765 373.814 559.341 374.018C559.929 374.222 560.427 374.51 560.835 374.882L560.277 376.16C559.401 375.464 558.477 375.116 557.505 375.116C556.917 375.116 556.461 375.23 556.137 375.458C555.813 375.674 555.651 375.98 555.651 376.376C555.651 376.688 555.753 376.94 555.957 377.132C556.161 377.324 556.485 377.474 556.929 377.582L558.477 377.96C559.341 378.152 559.977 378.458 560.385 378.878C560.805 379.286 561.015 379.82 561.015 380.48C561.015 381.296 560.685 381.944 560.025 382.424C559.377 382.892 558.489 383.126 557.361 383.126ZM565.428 375.332V379.886C565.428 380.51 565.56 380.954 565.824 381.218C566.1 381.47 566.478 381.596 566.958 381.596C567.27 381.596 567.588 381.548 567.912 381.452V382.928C567.516 383.06 567.066 383.126 566.562 383.126C565.626 383.126 564.9 382.862 564.384 382.334C563.868 381.806 563.61 381.038 563.61 380.03V375.332H561.846V373.928H563.61V371.66L565.428 371.03V373.928H567.93V375.332H565.428ZM574.57 370.184H579.052C581.128 370.184 582.736 370.742 583.876 371.858C585.016 372.974 585.586 374.546 585.586 376.574C585.586 378.614 585.016 380.198 583.876 381.326C582.736 382.442 581.128 383 579.052 383H574.57V370.184ZM578.944 381.452C582.1 381.452 583.678 379.826 583.678 376.574C583.678 373.346 582.1 371.732 578.944 371.732H576.424V381.452H578.944ZM595.701 378.5H589.221C589.281 380.624 590.247 381.686 592.119 381.686C593.163 381.686 594.117 381.344 594.981 380.66L595.539 381.956C595.131 382.316 594.609 382.604 593.973 382.82C593.349 383.024 592.719 383.126 592.083 383.126C590.631 383.126 589.491 382.712 588.663 381.884C587.835 381.044 587.421 379.898 587.421 378.446C587.421 377.522 587.601 376.7 587.961 375.98C588.333 375.26 588.849 374.702 589.509 374.306C590.169 373.91 590.919 373.712 591.759 373.712C592.983 373.712 593.943 374.108 594.639 374.9C595.347 375.692 595.701 376.79 595.701 378.194V378.5ZM591.795 375.062C591.111 375.062 590.553 375.266 590.121 375.674C589.689 376.082 589.413 376.664 589.293 377.42H594.099C594.027 376.652 593.793 376.07 593.397 375.674C593.001 375.266 592.467 375.062 591.795 375.062ZM600.955 383.126C599.371 383.126 598.123 382.742 597.211 381.974L597.751 380.66C598.699 381.38 599.785 381.74 601.009 381.74C601.633 381.74 602.107 381.638 602.431 381.434C602.755 381.218 602.917 380.918 602.917 380.534C602.917 380.21 602.803 379.958 602.575 379.778C602.359 379.586 601.987 379.424 601.459 379.292L599.947 378.932C599.155 378.764 598.549 378.47 598.129 378.05C597.721 377.618 597.517 377.084 597.517 376.448C597.517 375.632 597.841 374.972 598.489 374.468C599.149 373.964 600.019 373.712 601.099 373.712C601.747 373.712 602.359 373.814 602.935 374.018C603.523 374.222 604.021 374.51 604.429 374.882L603.871 376.16C602.995 375.464 602.071 375.116 601.099 375.116C600.511 375.116 600.055 375.23 599.731 375.458C599.407 375.674 599.245 375.98 599.245 376.376C599.245 376.688 599.347 376.94 599.551 377.132C599.755 377.324 600.079 377.474 600.523 377.582L602.071 377.96C602.935 378.152 603.571 378.458 603.979 378.878C604.399 379.286 604.609 379.82 604.609 380.48C604.609 381.296 604.279 381.944 603.619 382.424C602.971 382.892 602.083 383.126 600.955 383.126ZM610.694 383.126C609.782 383.126 608.984 382.934 608.3 382.55C607.628 382.166 607.112 381.626 606.752 380.93C606.392 380.222 606.212 379.4 606.212 378.464C606.212 377.528 606.398 376.7 606.77 375.98C607.154 375.26 607.688 374.702 608.372 374.306C609.056 373.91 609.854 373.712 610.766 373.712C611.402 373.712 612.014 373.82 612.602 374.036C613.19 374.24 613.664 374.522 614.024 374.882L613.466 376.196C612.614 375.524 611.756 375.188 610.892 375.188C610.016 375.188 609.332 375.476 608.84 376.052C608.348 376.616 608.102 377.414 608.102 378.446C608.102 379.478 608.348 380.276 608.84 380.84C609.332 381.392 610.016 381.668 610.892 381.668C611.78 381.668 612.638 381.332 613.466 380.66L614.024 381.974C613.64 382.334 613.148 382.616 612.548 382.82C611.96 383.024 611.342 383.126 610.694 383.126ZM620.252 373.712C620.528 373.712 620.816 373.754 621.116 373.838L621.08 375.494C620.756 375.374 620.402 375.314 620.018 375.314C619.19 375.314 618.566 375.566 618.146 376.07C617.738 376.562 617.534 377.186 617.534 377.942V383H615.734V376.484C615.734 375.536 615.686 374.684 615.59 373.928H617.282L617.444 375.566C617.684 374.966 618.056 374.51 618.56 374.198C619.064 373.874 619.628 373.712 620.252 373.712ZM622.502 373.928H624.302V383H622.502V373.928ZM624.446 369.968V371.876H622.34V369.968H624.446ZM631.773 373.712C632.553 373.712 633.249 373.91 633.861 374.306C634.473 374.702 634.947 375.26 635.283 375.98C635.631 376.7 635.805 377.528 635.805 378.464C635.805 379.4 635.637 380.222 635.301 380.93C634.965 381.626 634.491 382.166 633.879 382.55C633.267 382.934 632.565 383.126 631.773 383.126C631.077 383.126 630.465 382.982 629.937 382.694C629.421 382.394 629.031 381.968 628.767 381.416V386.888H626.967V376.484C626.967 375.536 626.919 374.684 626.823 373.928H628.515L628.695 375.602C628.935 375.002 629.325 374.54 629.865 374.216C630.405 373.88 631.041 373.712 631.773 373.712ZM631.359 381.686C632.175 381.686 632.811 381.404 633.267 380.84C633.723 380.276 633.951 379.484 633.951 378.464C633.951 377.432 633.723 376.628 633.267 376.052C632.811 375.464 632.175 375.17 631.359 375.17C630.519 375.17 629.877 375.452 629.433 376.016C628.989 376.58 628.767 377.384 628.767 378.428C628.767 379.472 628.989 380.276 629.433 380.84C629.889 381.404 630.531 381.686 631.359 381.686ZM640.258 375.332V379.886C640.258 380.51 640.39 380.954 640.654 381.218C640.93 381.47 641.308 381.596 641.788 381.596C642.1 381.596 642.418 381.548 642.742 381.452V382.928C642.346 383.06 641.896 383.126 641.392 383.126C640.456 383.126 639.73 382.862 639.214 382.334C638.698 381.806 638.44 381.038 638.44 380.03V375.332H636.676V373.928H638.44V371.66L640.258 371.03V373.928H642.76V375.332H640.258ZM644.439 373.928H646.239V383H644.439V373.928ZM646.383 369.968V371.876H644.277V369.968H646.383ZM652.81 383.126C651.922 383.126 651.142 382.934 650.47 382.55C649.798 382.166 649.276 381.62 648.904 380.912C648.544 380.204 648.364 379.376 648.364 378.428C648.364 377.48 648.544 376.652 648.904 375.944C649.276 375.224 649.798 374.672 650.47 374.288C651.142 373.904 651.922 373.712 652.81 373.712C653.686 373.712 654.46 373.904 655.132 374.288C655.804 374.672 656.32 375.224 656.68 375.944C657.052 376.652 657.238 377.48 657.238 378.428C657.238 379.376 657.052 380.204 656.68 380.912C656.32 381.62 655.804 382.166 655.132 382.55C654.46 382.934 653.686 383.126 652.81 383.126ZM652.792 381.686C653.632 381.686 654.274 381.41 654.718 380.858C655.162 380.306 655.384 379.496 655.384 378.428C655.384 377.384 655.156 376.58 654.7 376.016C654.256 375.452 653.626 375.17 652.81 375.17C651.982 375.17 651.34 375.452 650.884 376.016C650.428 376.58 650.2 377.384 650.2 378.428C650.2 379.496 650.422 380.306 650.866 380.858C651.322 381.41 651.964 381.686 652.792 381.686ZM664.187 373.712C666.359 373.712 667.445 374.924 667.445 377.348V383H665.627V377.456C665.627 376.664 665.471 376.088 665.159 375.728C664.859 375.368 664.373 375.188 663.701 375.188C662.933 375.188 662.315 375.428 661.847 375.908C661.391 376.388 661.163 377.03 661.163 377.834V383H659.363V376.484C659.363 375.536 659.315 374.684 659.219 373.928H660.911L661.073 375.494C661.361 374.918 661.775 374.48 662.315 374.18C662.867 373.868 663.491 373.712 664.187 373.712Z" fill="#3C3C43" fill-opacity="0.6"/>
<path d="M508.494 588.184H512.976C515.052 588.184 516.66 588.742 517.8 589.858C518.94 590.974 519.51 592.546 519.51 594.574C519.51 596.614 518.94 598.198 517.8 599.326C516.66 600.442 515.052 601 512.976 601H508.494V588.184ZM512.868 599.452C516.024 599.452 517.602 597.826 517.602 594.574C517.602 591.346 516.024 589.732 512.868 589.732H510.348V599.452H512.868ZM525.791 601.126C524.903 601.126 524.123 600.934 523.451 600.55C522.779 600.166 522.257 599.62 521.885 598.912C521.525 598.204 521.345 597.376 521.345 596.428C521.345 595.48 521.525 594.652 521.885 593.944C522.257 593.224 522.779 592.672 523.451 592.288C524.123 591.904 524.903 591.712 525.791 591.712C526.667 591.712 527.441 591.904 528.113 592.288C528.785 592.672 529.301 593.224 529.661 593.944C530.033 594.652 530.219 595.48 530.219 596.428C530.219 597.376 530.033 598.204 529.661 598.912C529.301 599.62 528.785 600.166 528.113 600.55C527.441 600.934 526.667 601.126 525.791 601.126ZM525.773 599.686C526.613 599.686 527.255 599.41 527.699 598.858C528.143 598.306 528.365 597.496 528.365 596.428C528.365 595.384 528.137 594.58 527.681 594.016C527.237 593.452 526.607 593.17 525.791 593.17C524.963 593.17 524.321 593.452 523.865 594.016C523.409 594.58 523.181 595.384 523.181 596.428C523.181 597.496 523.403 598.306 523.847 598.858C524.303 599.41 524.945 599.686 525.773 599.686ZM546.297 591.928L542.841 601H541.185L538.755 594.43L536.343 601H534.687L531.231 591.928H533.121L535.587 598.858L538.089 591.928H539.529L542.031 598.858L544.515 591.928H546.297ZM552.812 591.712C554.984 591.712 556.07 592.924 556.07 595.348V601H554.252V595.456C554.252 594.664 554.096 594.088 553.784 593.728C553.484 593.368 552.998 593.188 552.326 593.188C551.558 593.188 550.94 593.428 550.472 593.908C550.016 594.388 549.788 595.03 549.788 595.834V601H547.988V594.484C547.988 593.536 547.94 592.684 547.844 591.928H549.536L549.698 593.494C549.986 592.918 550.4 592.48 550.94 592.18C551.492 591.868 552.116 591.712 552.812 591.712ZM558.658 587.752H560.458V601H558.658V587.752ZM567.029 601.126C566.141 601.126 565.361 600.934 564.689 600.55C564.017 600.166 563.495 599.62 563.123 598.912C562.763 598.204 562.583 597.376 562.583 596.428C562.583 595.48 562.763 594.652 563.123 593.944C563.495 593.224 564.017 592.672 564.689 592.288C565.361 591.904 566.141 591.712 567.029 591.712C567.905 591.712 568.679 591.904 569.351 592.288C570.023 592.672 570.539 593.224 570.899 593.944C571.271 594.652 571.457 595.48 571.457 596.428C571.457 597.376 571.271 598.204 570.899 598.912C570.539 599.62 570.023 600.166 569.351 600.55C568.679 600.934 567.905 601.126 567.029 601.126ZM567.011 599.686C567.851 599.686 568.493 599.41 568.937 598.858C569.381 598.306 569.603 597.496 569.603 596.428C569.603 595.384 569.375 594.58 568.919 594.016C568.475 593.452 567.845 593.17 567.029 593.17C566.201 593.17 565.559 593.452 565.103 594.016C564.647 594.58 564.419 595.384 564.419 596.428C564.419 597.496 564.641 598.306 565.085 598.858C565.541 599.41 566.183 599.686 567.011 599.686ZM581.88 591.928V601H580.08V599.452C579.816 599.992 579.42 600.406 578.892 600.694C578.376 600.982 577.77 601.126 577.074 601.126C576.27 601.126 575.562 600.934 574.95 600.55C574.35 600.166 573.882 599.626 573.546 598.93C573.21 598.222 573.042 597.4 573.042 596.464C573.042 595.528 573.21 594.7 573.546 593.98C573.894 593.26 574.374 592.702 574.986 592.306C575.598 591.91 576.294 591.712 577.074 591.712C577.77 591.712 578.376 591.862 578.892 592.162C579.408 592.45 579.804 592.864 580.08 593.404V591.928H581.88ZM577.506 599.686C578.322 599.686 578.952 599.404 579.396 598.84C579.852 598.264 580.08 597.46 580.08 596.428C580.08 595.384 579.852 594.58 579.396 594.016C578.952 593.452 578.316 593.17 577.488 593.17C576.672 593.17 576.03 593.464 575.562 594.052C575.106 594.628 574.878 595.432 574.878 596.464C574.878 597.484 575.106 598.276 575.562 598.84C576.03 599.404 576.678 599.686 577.506 599.686ZM592.849 587.752V601H591.049V599.452C590.785 599.992 590.389 600.406 589.861 600.694C589.345 600.982 588.739 601.126 588.043 601.126C587.263 601.126 586.567 600.928 585.955 600.532C585.343 600.136 584.863 599.584 584.515 598.876C584.179 598.156 584.011 597.328 584.011 596.392C584.011 595.456 584.179 594.634 584.515 593.926C584.851 593.218 585.319 592.672 585.919 592.288C586.531 591.904 587.239 591.712 588.043 591.712C588.727 591.712 589.327 591.856 589.843 592.144C590.371 592.432 590.767 592.84 591.031 593.368V587.752H592.849ZM588.457 599.686C589.285 599.686 589.921 599.404 590.365 598.84C590.821 598.264 591.049 597.46 591.049 596.428C591.049 595.396 590.821 594.598 590.365 594.034C589.921 593.458 589.291 593.17 588.475 593.17C587.647 593.17 586.999 593.452 586.531 594.016C586.075 594.58 585.847 595.372 585.847 596.392C585.847 597.424 586.075 598.234 586.531 598.822C586.999 599.398 587.641 599.686 588.457 599.686ZM600.48 588.184H605.808C607.152 588.184 608.196 588.514 608.94 589.174C609.696 589.822 610.074 590.71 610.074 591.838C610.074 592.966 609.69 593.86 608.922 594.52C608.166 595.168 607.128 595.492 605.808 595.492H602.334V601H600.48V588.184ZM605.592 594.016C606.48 594.016 607.146 593.83 607.59 593.458C608.046 593.086 608.274 592.546 608.274 591.838C608.274 591.142 608.046 590.608 607.59 590.236C607.146 589.864 606.48 589.678 605.592 589.678H602.334V594.016H605.592ZM612.166 587.752H613.966V601H612.166V587.752ZM624.929 591.928V601H623.129V599.452C622.865 599.992 622.469 600.406 621.941 600.694C621.425 600.982 620.819 601.126 620.123 601.126C619.319 601.126 618.611 600.934 617.999 600.55C617.399 600.166 616.931 599.626 616.595 598.93C616.259 598.222 616.091 597.4 616.091 596.464C616.091 595.528 616.259 594.7 616.595 593.98C616.943 593.26 617.423 592.702 618.035 592.306C618.647 591.91 619.343 591.712 620.123 591.712C620.819 591.712 621.425 591.862 621.941 592.162C622.457 592.45 622.853 592.864 623.129 593.404V591.928H624.929ZM620.555 599.686C621.371 599.686 622.001 599.404 622.445 598.84C622.901 598.264 623.129 597.46 623.129 596.428C623.129 595.384 622.901 594.58 622.445 594.016C622.001 593.452 621.365 593.17 620.537 593.17C619.721 593.17 619.079 593.464 618.611 594.052C618.155 594.628 617.927 595.432 617.927 596.464C617.927 597.484 618.155 598.276 618.611 598.84C619.079 599.404 619.727 599.686 620.555 599.686ZM635.844 591.928L631.614 601.738C631.146 602.806 630.558 603.586 629.85 604.078C629.154 604.582 628.29 604.918 627.258 605.086L626.862 603.682C627.714 603.49 628.356 603.238 628.788 602.926C629.232 602.626 629.586 602.17 629.85 601.558L630.174 600.802L626.358 591.928H628.284L631.128 598.948L634.026 591.928H635.844ZM637.25 587.752H639.05V601H637.25V587.752ZM641.715 591.928H643.515V601H641.715V591.928ZM643.659 587.968V589.876H641.553V587.968H643.659ZM649.348 601.126C647.764 601.126 646.516 600.742 645.604 599.974L646.144 598.66C647.092 599.38 648.178 599.74 649.402 599.74C650.026 599.74 650.5 599.638 650.824 599.434C651.148 599.218 651.31 598.918 651.31 598.534C651.31 598.21 651.196 597.958 650.968 597.778C650.752 597.586 650.38 597.424 649.852 597.292L648.34 596.932C647.548 596.764 646.942 596.47 646.522 596.05C646.114 595.618 645.91 595.084 645.91 594.448C645.91 593.632 646.234 592.972 646.882 592.468C647.542 591.964 648.412 591.712 649.492 591.712C650.14 591.712 650.752 591.814 651.328 592.018C651.916 592.222 652.414 592.51 652.822 592.882L652.264 594.16C651.388 593.464 650.464 593.116 649.492 593.116C648.904 593.116 648.448 593.23 648.124 593.458C647.8 593.674 647.638 593.98 647.638 594.376C647.638 594.688 647.74 594.94 647.944 595.132C648.148 595.324 648.472 595.474 648.916 595.582L650.464 595.96C651.328 596.152 651.964 596.458 652.372 596.878C652.792 597.286 653.002 597.82 653.002 598.48C653.002 599.296 652.672 599.944 652.012 600.424C651.364 600.892 650.476 601.126 649.348 601.126ZM657.415 593.332V597.886C657.415 598.51 657.547 598.954 657.811 599.218C658.087 599.47 658.465 599.596 658.945 599.596C659.257 599.596 659.575 599.548 659.899 599.452V600.928C659.503 601.06 659.053 601.126 658.549 601.126C657.613 601.126 656.887 600.862 656.371 600.334C655.855 599.806 655.597 599.038 655.597 598.03V593.332H653.833V591.928H655.597V589.66L657.415 589.03V591.928H659.917V593.332H657.415Z" fill="#3C3C43" fill-opacity="0.6"/>
<path d="M508.494 639.184H516.81V640.696H510.33V644.728H516.45V646.24H510.33V650.488H516.81V652H508.494V639.184ZM527.265 638.752V652H525.465V650.452C525.201 650.992 524.805 651.406 524.277 651.694C523.761 651.982 523.155 652.126 522.459 652.126C521.679 652.126 520.983 651.928 520.371 651.532C519.759 651.136 519.279 650.584 518.931 649.876C518.595 649.156 518.427 648.328 518.427 647.392C518.427 646.456 518.595 645.634 518.931 644.926C519.267 644.218 519.735 643.672 520.335 643.288C520.947 642.904 521.655 642.712 522.459 642.712C523.143 642.712 523.743 642.856 524.259 643.144C524.787 643.432 525.183 643.84 525.447 644.368V638.752H527.265ZM522.873 650.686C523.701 650.686 524.337 650.404 524.781 649.84C525.237 649.264 525.465 648.46 525.465 647.428C525.465 646.396 525.237 645.598 524.781 645.034C524.337 644.458 523.707 644.17 522.891 644.17C522.063 644.17 521.415 644.452 520.947 645.016C520.491 645.58 520.263 646.372 520.263 647.392C520.263 648.424 520.491 649.234 520.947 649.822C521.415 650.398 522.057 650.686 522.873 650.686ZM529.936 642.928H531.736V652H529.936V642.928ZM531.88 638.968V640.876H529.774V638.968H531.88ZM536.758 644.332V648.886C536.758 649.51 536.89 649.954 537.154 650.218C537.43 650.47 537.808 650.596 538.288 650.596C538.6 650.596 538.918 650.548 539.242 650.452V651.928C538.846 652.06 538.396 652.126 537.892 652.126C536.956 652.126 536.23 651.862 535.714 651.334C535.198 650.806 534.94 650.038 534.94 649.03V644.332H533.176V642.928H534.94V640.66L536.758 640.03V642.928H539.26V644.332H536.758ZM545.9 639.184H551.228C552.572 639.184 553.616 639.514 554.36 640.174C555.116 640.822 555.494 641.71 555.494 642.838C555.494 643.966 555.11 644.86 554.342 645.52C553.586 646.168 552.548 646.492 551.228 646.492H547.754V652H545.9V639.184ZM551.012 645.016C551.9 645.016 552.566 644.83 553.01 644.458C553.466 644.086 553.694 643.546 553.694 642.838C553.694 642.142 553.466 641.608 553.01 641.236C552.566 640.864 551.9 640.678 551.012 640.678H547.754V645.016H551.012ZM557.586 638.752H559.386V652H557.586V638.752ZM570.349 642.928V652H568.549V650.452C568.285 650.992 567.889 651.406 567.361 651.694C566.845 651.982 566.239 652.126 565.543 652.126C564.739 652.126 564.031 651.934 563.419 651.55C562.819 651.166 562.351 650.626 562.015 649.93C561.679 649.222 561.511 648.4 561.511 647.464C561.511 646.528 561.679 645.7 562.015 644.98C562.363 644.26 562.843 643.702 563.455 643.306C564.067 642.91 564.763 642.712 565.543 642.712C566.239 642.712 566.845 642.862 567.361 643.162C567.877 643.45 568.273 643.864 568.549 644.404V642.928H570.349ZM565.975 650.686C566.791 650.686 567.421 650.404 567.865 649.84C568.321 649.264 568.549 648.46 568.549 647.428C568.549 646.384 568.321 645.58 567.865 645.016C567.421 644.452 566.785 644.17 565.957 644.17C565.141 644.17 564.499 644.464 564.031 645.052C563.575 645.628 563.347 646.432 563.347 647.464C563.347 648.484 563.575 649.276 564.031 649.84C564.499 650.404 565.147 650.686 565.975 650.686ZM581.264 642.928L577.034 652.738C576.566 653.806 575.978 654.586 575.27 655.078C574.574 655.582 573.71 655.918 572.678 656.086L572.281 654.682C573.134 654.49 573.776 654.238 574.208 653.926C574.652 653.626 575.006 653.17 575.27 652.558L575.594 651.802L571.778 642.928H573.704L576.548 649.948L579.446 642.928H581.264ZM582.67 638.752H584.47V652H582.67V638.752ZM587.135 642.928H588.935V652H587.135V642.928ZM589.079 638.968V640.876H586.973V638.968H589.079ZM594.768 652.126C593.184 652.126 591.936 651.742 591.024 650.974L591.564 649.66C592.512 650.38 593.598 650.74 594.822 650.74C595.446 650.74 595.92 650.638 596.244 650.434C596.568 650.218 596.73 649.918 596.73 649.534C596.73 649.21 596.616 648.958 596.388 648.778C596.172 648.586 595.8 648.424 595.272 648.292L593.76 647.932C592.968 647.764 592.362 647.47 591.942 647.05C591.534 646.618 591.33 646.084 591.33 645.448C591.33 644.632 591.654 643.972 592.302 643.468C592.962 642.964 593.832 642.712 594.912 642.712C595.56 642.712 596.172 642.814 596.748 643.018C597.336 643.222 597.834 643.51 598.242 643.882L597.684 645.16C596.808 644.464 595.884 644.116 594.912 644.116C594.324 644.116 593.868 644.23 593.544 644.458C593.22 644.674 593.058 644.98 593.058 645.376C593.058 645.688 593.16 645.94 593.364 646.132C593.568 646.324 593.892 646.474 594.336 646.582L595.884 646.96C596.748 647.152 597.384 647.458 597.792 647.878C598.212 648.286 598.422 648.82 598.422 649.48C598.422 650.296 598.092 650.944 597.432 651.424C596.784 651.892 595.896 652.126 594.768 652.126ZM602.835 644.332V648.886C602.835 649.51 602.967 649.954 603.231 650.218C603.507 650.47 603.885 650.596 604.365 650.596C604.677 650.596 604.995 650.548 605.319 650.452V651.928C604.923 652.06 604.473 652.126 603.969 652.126C603.033 652.126 602.307 651.862 601.791 651.334C601.275 650.806 601.017 650.038 601.017 649.03V644.332H599.253V642.928H601.017V640.66L602.835 640.03V642.928H605.337V644.332H602.835Z" fill="#3C3C43" fill-opacity="0.6"/>
<path d="M508.278 690.42H513.516V691.896H508.278V690.42ZM520.124 696.144C519.128 696.144 518.216 696.012 517.388 695.748C516.572 695.484 515.864 695.088 515.264 694.56L515.93 693.192C516.554 693.696 517.202 694.062 517.874 694.29C518.546 694.518 519.302 694.632 520.142 694.632C521.102 694.632 521.846 694.452 522.374 694.092C522.902 693.732 523.166 693.222 523.166 692.562C523.166 692.01 522.92 691.596 522.428 691.32C521.936 691.032 521.156 690.768 520.088 690.528C519.068 690.312 518.234 690.066 517.586 689.79C516.938 689.502 516.428 689.124 516.056 688.656C515.684 688.176 515.498 687.564 515.498 686.82C515.498 686.076 515.696 685.422 516.092 684.858C516.488 684.282 517.046 683.838 517.766 683.526C518.498 683.202 519.338 683.04 520.286 683.04C521.186 683.04 522.026 683.178 522.806 683.454C523.598 683.73 524.258 684.12 524.786 684.624L524.12 685.992C523.532 685.5 522.926 685.14 522.302 684.912C521.678 684.672 521.012 684.552 520.304 684.552C519.38 684.552 518.654 684.75 518.126 685.146C517.598 685.53 517.334 686.058 517.334 686.73C517.334 687.306 517.562 687.744 518.018 688.044C518.486 688.344 519.23 688.614 520.25 688.854C521.318 689.094 522.182 689.346 522.842 689.61C523.502 689.874 524.03 690.234 524.426 690.69C524.822 691.146 525.02 691.734 525.02 692.454C525.02 693.198 524.822 693.846 524.426 694.398C524.03 694.95 523.46 695.382 522.716 695.694C521.984 695.994 521.12 696.144 520.124 696.144ZM531.982 686.712C534.154 686.712 535.24 687.924 535.24 690.348V696H533.422V690.456C533.422 689.664 533.266 689.088 532.954 688.728C532.654 688.368 532.168 688.188 531.496 688.188C530.728 688.188 530.11 688.428 529.642 688.908C529.186 689.388 528.958 690.03 528.958 690.834V696H527.158V682.752H528.958V688.332C529.258 687.804 529.672 687.402 530.2 687.126C530.728 686.85 531.322 686.712 531.982 686.712ZM546.126 686.928V696H544.326V694.452C544.062 694.992 543.666 695.406 543.138 695.694C542.622 695.982 542.016 696.126 541.32 696.126C540.516 696.126 539.808 695.934 539.196 695.55C538.596 695.166 538.128 694.626 537.792 693.93C537.456 693.222 537.288 692.4 537.288 691.464C537.288 690.528 537.456 689.7 537.792 688.98C538.14 688.26 538.62 687.702 539.232 687.306C539.844 686.91 540.54 686.712 541.32 686.712C542.016 686.712 542.622 686.862 543.138 687.162C543.654 687.45 544.05 687.864 544.326 688.404V686.928H546.126ZM541.752 694.686C542.568 694.686 543.198 694.404 543.642 693.84C544.098 693.264 544.326 692.46 544.326 691.428C544.326 690.384 544.098 689.58 543.642 689.016C543.198 688.452 542.562 688.17 541.734 688.17C540.918 688.17 540.276 688.464 539.808 689.052C539.352 689.628 539.124 690.432 539.124 691.464C539.124 692.484 539.352 693.276 539.808 693.84C540.276 694.404 540.924 694.686 541.752 694.686ZM553.315 686.712C553.591 686.712 553.879 686.754 554.179 686.838L554.143 688.494C553.819 688.374 553.465 688.314 553.081 688.314C552.253 688.314 551.629 688.566 551.209 689.07C550.801 689.562 550.597 690.186 550.597 690.942V696H548.797V689.484C548.797 688.536 548.749 687.684 548.653 686.928H550.345L550.507 688.566C550.747 687.966 551.119 687.51 551.623 687.198C552.127 686.874 552.691 686.712 553.315 686.712ZM563.129 691.5H556.649C556.709 693.624 557.675 694.686 559.547 694.686C560.591 694.686 561.545 694.344 562.409 693.66L562.967 694.956C562.559 695.316 562.037 695.604 561.401 695.82C560.777 696.024 560.147 696.126 559.511 696.126C558.059 696.126 556.919 695.712 556.091 694.884C555.263 694.044 554.849 692.898 554.849 691.446C554.849 690.522 555.029 689.7 555.389 688.98C555.761 688.26 556.277 687.702 556.937 687.306C557.597 686.91 558.347 686.712 559.187 686.712C560.411 686.712 561.371 687.108 562.067 687.9C562.775 688.692 563.129 689.79 563.129 691.194V691.5ZM559.223 688.062C558.539 688.062 557.981 688.266 557.549 688.674C557.117 689.082 556.841 689.664 556.721 690.42H561.527C561.455 689.652 561.221 689.07 560.825 688.674C560.429 688.266 559.895 688.062 559.223 688.062ZM570.176 683.184H575.504C576.848 683.184 577.892 683.514 578.636 684.174C579.392 684.822 579.77 685.71 579.77 686.838C579.77 687.966 579.386 688.86 578.618 689.52C577.862 690.168 576.824 690.492 575.504 690.492H572.03V696H570.176V683.184ZM575.288 689.016C576.176 689.016 576.842 688.83 577.286 688.458C577.742 688.086 577.97 687.546 577.97 686.838C577.97 686.142 577.742 685.608 577.286 685.236C576.842 684.864 576.176 684.678 575.288 684.678H572.03V689.016H575.288ZM581.861 682.752H583.661V696H581.861V682.752ZM594.624 686.928V696H592.824V694.452C592.56 694.992 592.164 695.406 591.636 695.694C591.12 695.982 590.514 696.126 589.818 696.126C589.014 696.126 588.306 695.934 587.694 695.55C587.094 695.166 586.626 694.626 586.29 693.93C585.954 693.222 585.786 692.4 585.786 691.464C585.786 690.528 585.954 689.7 586.29 688.98C586.638 688.26 587.118 687.702 587.73 687.306C588.342 686.91 589.038 686.712 589.818 686.712C590.514 686.712 591.12 686.862 591.636 687.162C592.152 687.45 592.548 687.864 592.824 688.404V686.928H594.624ZM590.25 694.686C591.066 694.686 591.696 694.404 592.14 693.84C592.596 693.264 592.824 692.46 592.824 691.428C592.824 690.384 592.596 689.58 592.14 689.016C591.696 688.452 591.06 688.17 590.232 688.17C589.416 688.17 588.774 688.464 588.306 689.052C587.85 689.628 587.622 690.432 587.622 691.464C587.622 692.484 587.85 693.276 588.306 693.84C588.774 694.404 589.422 694.686 590.25 694.686ZM605.539 686.928L601.309 696.738C600.841 697.806 600.253 698.586 599.545 699.078C598.849 699.582 597.985 699.918 596.953 700.086L596.557 698.682C597.409 698.49 598.051 698.238 598.483 697.926C598.927 697.626 599.281 697.17 599.545 696.558L599.869 695.802L596.053 686.928H597.979L600.823 693.948L603.721 686.928H605.539ZM606.945 682.752H608.745V696H606.945V682.752ZM611.41 686.928H613.21V696H611.41V686.928ZM613.354 682.968V684.876H611.248V682.968H613.354ZM619.043 696.126C617.459 696.126 616.211 695.742 615.299 694.974L615.839 693.66C616.787 694.38 617.873 694.74 619.097 694.74C619.721 694.74 620.195 694.638 620.519 694.434C620.843 694.218 621.005 693.918 621.005 693.534C621.005 693.21 620.891 692.958 620.663 692.778C620.447 692.586 620.075 692.424 619.547 692.292L618.035 691.932C617.243 691.764 616.637 691.47 616.217 691.05C615.809 690.618 615.605 690.084 615.605 689.448C615.605 688.632 615.929 687.972 616.577 687.468C617.237 686.964 618.107 686.712 619.187 686.712C619.835 686.712 620.447 686.814 621.023 687.018C621.611 687.222 622.109 687.51 622.517 687.882L621.959 689.16C621.083 688.464 620.159 688.116 619.187 688.116C618.599 688.116 618.143 688.23 617.819 688.458C617.495 688.674 617.333 688.98 617.333 689.376C617.333 689.688 617.435 689.94 617.639 690.132C617.843 690.324 618.167 690.474 618.611 690.582L620.159 690.96C621.023 691.152 621.659 691.458 622.067 691.878C622.487 692.286 622.697 692.82 622.697 693.48C622.697 694.296 622.367 694.944 621.707 695.424C621.059 695.892 620.171 696.126 619.043 696.126ZM627.11 688.332V692.886C627.11 693.51 627.242 693.954 627.506 694.218C627.782 694.47 628.16 694.596 628.64 694.596C628.952 694.596 629.27 694.548 629.594 694.452V695.928C629.198 696.06 628.748 696.126 628.244 696.126C627.308 696.126 626.582 695.862 626.066 695.334C625.55 694.806 625.292 694.038 625.292 693.03V688.332H623.528V686.928H625.292V684.66L627.11 684.03V686.928H629.612V688.332H627.11ZM634.459 696.126C632.875 696.126 631.627 695.742 630.715 694.974L631.255 693.66C632.203 694.38 633.289 694.74 634.513 694.74C635.137 694.74 635.611 694.638 635.935 694.434C636.259 694.218 636.421 693.918 636.421 693.534C636.421 693.21 636.307 692.958 636.079 692.778C635.863 692.586 635.491 692.424 634.963 692.292L633.451 691.932C632.659 691.764 632.053 691.47 631.633 691.05C631.225 690.618 631.021 690.084 631.021 689.448C631.021 688.632 631.345 687.972 631.993 687.468C632.653 686.964 633.523 686.712 634.603 686.712C635.251 686.712 635.863 686.814 636.439 687.018C637.027 687.222 637.525 687.51 637.933 687.882L637.375 689.16C636.499 688.464 635.575 688.116 634.603 688.116C634.015 688.116 633.559 688.23 633.235 688.458C632.911 688.674 632.749 688.98 632.749 689.376C632.749 689.688 632.851 689.94 633.055 690.132C633.259 690.324 633.583 690.474 634.027 690.582L635.575 690.96C636.439 691.152 637.075 691.458 637.483 691.878C637.903 692.286 638.113 692.82 638.113 693.48C638.113 694.296 637.783 694.944 637.123 695.424C636.475 695.892 635.587 696.126 634.459 696.126Z" fill="#3C3C43" fill-opacity="0.6"/>
<path d="M508.278 723.42H513.516V724.896H508.278V723.42ZM526.559 729H524.597L522.995 724.734C522.827 724.278 522.581 723.966 522.257 723.798C521.933 723.618 521.489 723.528 520.925 723.528H518.117V729H516.281V716.184H521.555C522.959 716.184 524.033 716.496 524.777 717.12C525.533 717.744 525.911 718.638 525.911 719.802C525.911 720.642 525.689 721.356 525.245 721.944C524.801 722.532 524.171 722.946 523.355 723.186C524.099 723.318 524.639 723.846 524.975 724.77L526.559 729ZM521.339 722.034C522.275 722.034 522.971 721.854 523.427 721.494C523.883 721.122 524.111 720.57 524.111 719.838C524.111 719.106 523.883 718.566 523.427 718.218C522.983 717.858 522.287 717.678 521.339 717.678H518.117V722.034H521.339ZM536.41 724.5H529.93C529.99 726.624 530.956 727.686 532.828 727.686C533.872 727.686 534.826 727.344 535.69 726.66L536.248 727.956C535.84 728.316 535.318 728.604 534.682 728.82C534.058 729.024 533.428 729.126 532.792 729.126C531.34 729.126 530.2 728.712 529.372 727.884C528.544 727.044 528.13 725.898 528.13 724.446C528.13 723.522 528.31 722.7 528.67 721.98C529.042 721.26 529.558 720.702 530.218 720.306C530.878 719.91 531.628 719.712 532.468 719.712C533.692 719.712 534.652 720.108 535.348 720.9C536.056 721.692 536.41 722.79 536.41 724.194V724.5ZM532.504 721.062C531.82 721.062 531.262 721.266 530.83 721.674C530.398 722.082 530.122 722.664 530.002 723.42H534.808C534.736 722.652 534.502 722.07 534.106 721.674C533.71 721.266 533.176 721.062 532.504 721.062ZM548.846 719.712C550.862 719.712 551.87 720.924 551.87 723.348V729H550.052V723.438C550.052 722.658 549.914 722.088 549.638 721.728C549.374 721.368 548.942 721.188 548.342 721.188C547.646 721.188 547.094 721.428 546.686 721.908C546.29 722.388 546.092 723.042 546.092 723.87V729H544.274V723.438C544.274 722.658 544.136 722.088 543.86 721.728C543.596 721.368 543.164 721.188 542.564 721.188C541.868 721.188 541.316 721.428 540.908 721.908C540.5 722.388 540.296 723.042 540.296 723.87V729H538.496V722.484C538.496 721.536 538.448 720.684 538.352 719.928H540.044L540.206 721.44C540.47 720.888 540.848 720.462 541.34 720.162C541.832 719.862 542.408 719.712 543.068 719.712C544.472 719.712 545.39 720.294 545.822 721.458C546.098 720.918 546.5 720.492 547.028 720.18C547.568 719.868 548.174 719.712 548.846 719.712ZM558.381 729.126C557.493 729.126 556.713 728.934 556.041 728.55C555.369 728.166 554.847 727.62 554.475 726.912C554.115 726.204 553.935 725.376 553.935 724.428C553.935 723.48 554.115 722.652 554.475 721.944C554.847 721.224 555.369 720.672 556.041 720.288C556.713 719.904 557.493 719.712 558.381 719.712C559.257 719.712 560.031 719.904 560.703 720.288C561.375 720.672 561.891 721.224 562.251 721.944C562.623 722.652 562.809 723.48 562.809 724.428C562.809 725.376 562.623 726.204 562.251 726.912C561.891 727.62 561.375 728.166 560.703 728.55C560.031 728.934 559.257 729.126 558.381 729.126ZM558.363 727.686C559.203 727.686 559.845 727.41 560.289 726.858C560.733 726.306 560.955 725.496 560.955 724.428C560.955 723.384 560.727 722.58 560.271 722.016C559.827 721.452 559.197 721.17 558.381 721.17C557.553 721.17 556.911 721.452 556.455 722.016C555.999 722.58 555.771 723.384 555.771 724.428C555.771 725.496 555.993 726.306 556.437 726.858C556.893 727.41 557.535 727.686 558.363 727.686ZM573.055 719.946L569.113 729H567.475L563.569 719.946H565.495L568.339 726.948L571.237 719.946H573.055ZM582.078 724.5H575.598C575.658 726.624 576.624 727.686 578.496 727.686C579.54 727.686 580.494 727.344 581.358 726.66L581.916 727.956C581.508 728.316 580.986 728.604 580.35 728.82C579.726 729.024 579.096 729.126 578.46 729.126C577.008 729.126 575.868 728.712 575.04 727.884C574.212 727.044 573.798 725.898 573.798 724.446C573.798 723.522 573.978 722.7 574.338 721.98C574.71 721.26 575.226 720.702 575.886 720.306C576.546 719.91 577.296 719.712 578.136 719.712C579.36 719.712 580.32 720.108 581.016 720.9C581.724 721.692 582.078 722.79 582.078 724.194V724.5ZM578.172 721.062C577.488 721.062 576.93 721.266 576.498 721.674C576.066 722.082 575.79 722.664 575.67 723.42H580.476C580.404 722.652 580.17 722.07 579.774 721.674C579.378 721.266 578.844 721.062 578.172 721.062ZM589.125 716.184H594.453C595.797 716.184 596.841 716.514 597.585 717.174C598.341 717.822 598.719 718.71 598.719 719.838C598.719 720.966 598.335 721.86 597.567 722.52C596.811 723.168 595.773 723.492 594.453 723.492H590.979V729H589.125V716.184ZM594.237 722.016C595.125 722.016 595.791 721.83 596.235 721.458C596.691 721.086 596.919 720.546 596.919 719.838C596.919 719.142 596.691 718.608 596.235 718.236C595.791 717.864 595.125 717.678 594.237 717.678H590.979V722.016H594.237ZM600.811 715.752H602.611V729H600.811V715.752ZM613.573 719.928V729H611.773V727.452C611.509 727.992 611.113 728.406 610.585 728.694C610.069 728.982 609.463 729.126 608.767 729.126C607.963 729.126 607.255 728.934 606.643 728.55C606.043 728.166 605.575 727.626 605.239 726.93C604.903 726.222 604.735 725.4 604.735 724.464C604.735 723.528 604.903 722.7 605.239 721.98C605.587 721.26 606.067 720.702 606.679 720.306C607.291 719.91 607.987 719.712 608.767 719.712C609.463 719.712 610.069 719.862 610.585 720.162C611.101 720.45 611.497 720.864 611.773 721.404V719.928H613.573ZM609.199 727.686C610.015 727.686 610.645 727.404 611.089 726.84C611.545 726.264 611.773 725.46 611.773 724.428C611.773 723.384 611.545 722.58 611.089 722.016C610.645 721.452 610.009 721.17 609.181 721.17C608.365 721.17 607.723 721.464 607.255 722.052C606.799 722.628 606.571 723.432 606.571 724.464C606.571 725.484 606.799 726.276 607.255 726.84C607.723 727.404 608.371 727.686 609.199 727.686ZM624.488 719.928L620.258 729.738C619.79 730.806 619.202 731.586 618.494 732.078C617.798 732.582 616.934 732.918 615.902 733.086L615.506 731.682C616.358 731.49 617 731.238 617.432 730.926C617.876 730.626 618.23 730.17 618.494 729.558L618.818 728.802L615.002 719.928H616.928L619.772 726.948L622.67 719.928H624.488ZM625.895 715.752H627.695V729H625.895V715.752ZM630.359 719.928H632.159V729H630.359V719.928ZM632.303 715.968V717.876H630.197V715.968H632.303ZM637.992 729.126C636.408 729.126 635.16 728.742 634.248 727.974L634.788 726.66C635.736 727.38 636.822 727.74 638.046 727.74C638.67 727.74 639.144 727.638 639.468 727.434C639.792 727.218 639.954 726.918 639.954 726.534C639.954 726.21 639.84 725.958 639.612 725.778C639.396 725.586 639.024 725.424 638.496 725.292L636.984 724.932C636.192 724.764 635.586 724.47 635.166 724.05C634.758 723.618 634.554 723.084 634.554 722.448C634.554 721.632 634.878 720.972 635.526 720.468C636.186 719.964 637.056 719.712 638.136 719.712C638.784 719.712 639.396 719.814 639.972 720.018C640.56 720.222 641.058 720.51 641.466 720.882L640.908 722.16C640.032 721.464 639.108 721.116 638.136 721.116C637.548 721.116 637.092 721.23 636.768 721.458C636.444 721.674 636.282 721.98 636.282 722.376C636.282 722.688 636.384 722.94 636.588 723.132C636.792 723.324 637.116 723.474 637.56 723.582L639.108 723.96C639.972 724.152 640.608 724.458 641.016 724.878C641.436 725.286 641.646 725.82 641.646 726.48C641.646 727.296 641.316 727.944 640.656 728.424C640.008 728.892 639.12 729.126 637.992 729.126ZM646.059 721.332V725.886C646.059 726.51 646.191 726.954 646.455 727.218C646.731 727.47 647.109 727.596 647.589 727.596C647.901 727.596 648.219 727.548 648.543 727.452V728.928C648.147 729.06 647.697 729.126 647.193 729.126C646.257 729.126 645.531 728.862 645.015 728.334C644.499 727.806 644.241 727.038 644.241 726.03V721.332H642.477V719.928H644.241V717.66L646.059 717.03V719.928H648.561V721.332H646.059Z" fill="#3C3C43" fill-opacity="0.6"/>
<defs>
<linearGradient id="paint0_linear" x1="311.72" y1="35.2255" x2="308.522" y2="22.7351" gradientUnits="userSpaceOnUse">
<stop offset="0.21875" stop-color="#969BFF"/>
<stop offset="1" stop-color="#656CEE"/>
</linearGradient>
</defs>
</svg>
